<svg width="235" height="370" viewBox="0 0 235 370" fill="none" xmlns="http://www.w3.org/2000/svg">
<path d="M30.6741 341.302L30.1741 341.3L30.6741 341.302L31.9953 27.1691C32.0301 20.0703 34.8799 13.2753 39.9193 8.27537C44.9586 3.27546 51.7758 0.479139 58.8746 0.500117L184.172 1.08041C191.277 1.11288 198.078 3.96526 203.08 9.01054C208.083 14.0558 210.877 20.8811 210.85 27.986L209.519 342.119C209.485 349.226 206.629 356.029 201.58 361.031C196.532 366.034 189.703 368.827 182.596 368.797L57.299 368.207C50.2026 368.163 43.4136 365.306 38.4219 360.261C33.4302 355.217 30.6438 348.398 30.6741 341.302Z" fill="#F6F4FD" stroke="#263238"/>
<path d="M80.2036 10.9723L58.9382 10.8741C56.427 10.8635 53.9382 11.3477 51.6141 12.2989C49.29 13.2502 47.176 14.6499 45.3928 16.4181C43.6096 18.1864 42.1922 20.2886 41.2214 22.6046C40.2507 24.9207 39.7456 27.4053 39.7351 29.9165L38.4406 336.533C38.4192 341.6 40.4113 346.469 43.9789 350.069C47.5465 353.668 52.3974 355.703 57.4652 355.727L182.513 356.307C185.024 356.319 187.513 355.836 189.837 354.886C192.161 353.935 194.275 352.536 196.058 350.769C197.841 349.001 199.259 346.9 200.23 344.584C201.201 342.269 201.706 339.785 201.716 337.274L80.2036 10.9723ZM80.2036 10.9723H88.7473M80.2036 10.9723H88.7473M88.7473 10.9723C90.3473 11.0167 91.8643 11.6939 92.9656 12.8554C94.0668 14.017 94.6624 15.5679 94.6216 17.168V21.5693C94.5808 23.1693 95.1763 24.7203 96.2776 25.8818C97.3789 27.0433 98.8959 27.7206 100.496 27.765L88.7473 10.9723ZM58.9359 11.3741C58.936 11.3741 58.9361 11.3741 58.9361 11.3741L80.2013 11.4723H80.2036H88.7402C90.2053 11.5147 91.5941 12.1357 92.6027 13.1995C93.6129 14.2649 94.1592 15.6875 94.1218 17.1552L94.1216 17.1552V17.168V21.5631C94.0792 23.2932 94.7239 24.9698 95.9148 26.2258C97.1072 27.4834 98.7497 28.2167 100.482 28.2648L100.482 28.2649L100.494 28.265L147.854 28.4882V28.4883L147.866 28.4881C149.598 28.455 151.245 27.736 152.447 26.4889C153.648 25.243 154.305 23.5718 154.275 21.8418L154.276 17.4358L154.275 17.4276C154.251 15.961 154.81 14.5447 155.83 13.49C156.848 12.4366 158.242 11.8298 159.707 11.8026L183.993 11.9097C186.44 11.9222 188.86 12.4169 191.116 13.3655C193.372 14.314 195.418 15.6979 197.139 17.4379C198.86 19.1779 200.221 21.24 201.144 23.5062C202.067 25.7725 202.535 28.1985 202.52 30.6455L202.52 30.6464L201.216 337.272C201.206 339.717 200.714 342.136 199.769 344.391C198.823 346.646 197.443 348.693 195.706 350.414C193.969 352.135 191.911 353.497 189.647 354.423C187.384 355.348 184.961 355.819 182.516 355.807L57.4675 355.227C52.5323 355.204 47.8082 353.222 44.334 349.717C40.8598 346.212 38.9198 341.47 38.9406 336.535L40.2351 29.9186C40.2454 27.473 40.7372 25.0534 41.6826 22.7979C42.6279 20.5424 44.0083 18.4952 45.7449 16.7732C47.4814 15.0511 49.5401 13.688 51.8035 12.7617C54.0668 11.8353 56.4904 11.3638 58.9359 11.3741Z" fill="white" stroke="black"/>
<path fill-rule="evenodd" clip-rule="evenodd" d="M40.5 226.971V132.866C56.5372 106.026 85.8786 88.0525 119.418 88.0525C155.301 88.0525 186.379 108.626 201.5 138.62V221.217C186.379 251.211 155.301 271.785 119.418 271.785C85.8786 271.785 56.5372 253.811 40.5 226.971Z" fill="#EAE4FC"/>
<path d="M180.68 131H61.3196C58.934 131 57 132.934 57 135.32V268.108C57 270.494 58.934 272.428 61.3196 272.428H180.68C183.066 272.428 185 270.494 185 268.108V135.32C185 132.934 183.066 131 180.68 131Z" fill="white" stroke="#170658" stroke-width="1.63914" stroke-linecap="round" stroke-linejoin="round"/>
<g opacity="0.3">
<path d="M182.422 178.149H59.5774" stroke="#170658" stroke-linecap="round" stroke-linejoin="round"/>
<path d="M182.422 193.859H59.5774" stroke="#170658" stroke-linecap="round" stroke-linejoin="round"/>
<path d="M182.422 209.569H59.5774" stroke="#170658" stroke-linecap="round" stroke-linejoin="round"/>
<path d="M182.422 225.278H59.5774" stroke="#170658" stroke-linecap="round" stroke-linejoin="round"/>
<path d="M182.422 240.988H59.5774" stroke="#170658" stroke-linecap="round" stroke-linejoin="round"/>
<path d="M182.422 256.708H59.5774" stroke="#170658" stroke-linecap="round" stroke-linejoin="round"/>
<path d="M182.422 162.429H59.5774" stroke="#170658" stroke-linecap="round" stroke-linejoin="round"/>
<path d="M182.422 146.72H59.5774" stroke="#170658" stroke-linecap="round" stroke-linejoin="round"/>
<path d="M153.071 269.901V133.516" stroke="#170658" stroke-linecap="round" stroke-linejoin="round"/>
<path d="M137.035 269.901V133.516" stroke="#170658" stroke-linecap="round" stroke-linejoin="round"/>
<path d="M121 269.901V133.516" stroke="#170658" stroke-linecap="round" stroke-linejoin="round"/>
<path d="M104.964 269.901V133.516" stroke="#170658" stroke-linecap="round" stroke-linejoin="round"/>
<path d="M88.9287 269.901V133.516" stroke="#170658" stroke-linecap="round" stroke-linejoin="round"/>
<path d="M72.9031 269.901V133.516" stroke="#170658" stroke-linecap="round" stroke-linejoin="round"/>
<path d="M169.106 269.901V133.516" stroke="#170658" stroke-linecap="round" stroke-linejoin="round"/>
</g>
<path d="M65.6187 160.922V140.077H86.463" stroke="#170658" stroke-width="1.63914" stroke-linecap="round" stroke-linejoin="round"/>
<path d="M86.463 263.35H65.6187V242.506" stroke="#170658" stroke-width="1.63914" stroke-linecap="round" stroke-linejoin="round"/>
<path d="M176.391 160.922V140.077H155.547" stroke="#170658" stroke-width="1.63914" stroke-linecap="round" stroke-linejoin="round"/>
<path d="M155.547 263.35H176.391V242.506" stroke="#170658" stroke-width="1.63914" stroke-linecap="round" stroke-linejoin="round"/>
<path d="M116.199 245.011C117.57 237.922 119.446 230.939 121.812 224.116C122.291 222.741 122.831 221.355 123.422 219.878C124.817 216.312 127.68 209.028 126.6 206.858C126.493 206.627 126.326 206.429 126.116 206.284C125.907 206.139 125.662 206.052 125.408 206.033C125.354 206.03 125.3 206.039 125.249 206.058C125.198 206.077 125.152 206.107 125.113 206.145C121.934 208.743 119.887 215.945 118.399 221.202L117.9 222.975C115.927 230.043 114.53 237.259 113.723 244.553" stroke="#170658" stroke-width="1.63914" stroke-linecap="round" stroke-linejoin="round"/>
<path d="M120.915 245.348C122.232 238.674 124.012 232.101 126.243 225.675C126.691 224.361 127.262 222.985 127.802 221.539C130.033 215.864 132.804 208.834 130.807 204.81C130.311 203.807 129.549 202.959 128.604 202.359C127.659 201.759 126.568 201.43 125.448 201.407C124.266 201.396 123.119 201.804 122.209 202.559C117.899 206.073 115.719 213.765 113.967 219.939L113.468 221.702C111.495 228.709 110.088 235.864 109.26 243.096" stroke="#170658" stroke-width="1.63914" stroke-linecap="round" stroke-linejoin="round"/>
<path d="M125.744 244.889C126.986 238.888 128.616 232.973 130.624 227.183C133.049 220.265 138.51 209.863 134.964 202.732C132.061 196.894 124.46 194.724 119.275 198.962C113.346 203.791 110.992 213.48 108.995 220.418C107.111 227.098 105.725 233.909 104.849 240.794" stroke="#170658" stroke-width="1.63914" stroke-linecap="round" stroke-linejoin="round"/>
<path d="M130.818 243.483C131.926 238.484 133.327 233.555 135.015 228.721C135.413 227.57 135.922 226.286 136.462 224.911C139.355 217.545 142.962 208.366 139.121 200.643C137.853 198.095 135.905 195.947 133.492 194.436C131.079 192.926 128.295 192.113 125.449 192.086C122.127 192.075 118.906 193.225 116.341 195.336C109.76 200.704 107.172 209.965 105.022 217.392L104.533 219.114C102.817 225.162 101.513 231.319 100.631 237.544" stroke="#170658" stroke-width="1.63914" stroke-linecap="round" stroke-linejoin="round"/>
<path d="M136.238 240.804C137.185 237.075 138.224 233.621 139.396 230.259C139.783 229.169 140.262 227.937 140.771 226.643C143.828 218.818 148.035 208.142 143.277 198.585C141.626 195.261 139.086 192.46 135.938 190.493C132.791 188.525 129.16 187.468 125.449 187.44C121.056 187.424 116.796 188.945 113.407 191.739C105.684 198.035 102.842 208.04 100.55 216.129L100.061 217.84C98.6235 222.89 97.4705 228.015 96.6069 233.194" stroke="#170658" stroke-width="1.63914" stroke-linecap="round" stroke-linejoin="round"/>
<path d="M141.831 236.27C142.849 228.813 148.86 219.97 149.451 209.629C149.991 200.154 146.874 194.082 144.663 191.036C144.137 190.286 143.803 189.418 143.69 188.509C143.576 187.6 143.686 186.677 144.011 185.82C145.489 181.479 145.438 176.762 143.868 172.454" stroke="#170658" stroke-width="1.63914" stroke-linecap="round" stroke-linejoin="round"/>
<path d="M127.711 158.527C135.555 163.437 140.649 171.17 141.047 181.164C141.179 184.75 138.265 185.983 134.618 184.873C126.987 182.55 108.802 176.6 97.7177 207.765C95.594 214.231 94.0261 220.867 93.0312 227.6" stroke="#170658" stroke-width="1.63914" stroke-linecap="round" stroke-linejoin="round"/>
<path d="M112.123 159.036C117.018 158.97 121.856 160.103 126.213 162.337C133.66 166.341 138.346 175.754 135.952 178.149C133.293 180.808 128.352 174.389 113.243 180.583C105.979 183.558 100.824 189.62 97.3198 196.507C95.7393 199.653 94.4041 202.916 93.3262 206.267C91.9213 210.578 90.7648 214.966 89.8623 219.409" stroke="#170658" stroke-width="1.63914" stroke-linecap="round" stroke-linejoin="round"/>
<path d="M103.535 164.782C106.196 164.081 108.934 163.715 111.685 163.692C125.021 163.386 130.023 170.498 128.556 172.301C127.323 173.819 124.583 172.963 120.824 173.421C109.974 174.756 101.395 180.93 95.6188 190.058C92.7696 194.681 90.4978 199.635 88.8541 204.81C88.5485 205.737 88.253 206.675 87.9678 207.612" stroke="#170658" stroke-width="1.63914" stroke-linecap="round" stroke-linejoin="round"/>
<path d="M97.2491 172.454C101.694 168.864 107.291 167.01 112.999 167.237C114.691 167.237 118.868 167.788 119.428 169.387C120.172 171.486 113.387 168.633 103.555 175.184C90.953 183.589 89.4248 191.556 89.4248 191.556" stroke="#170658" stroke-width="1.63914" stroke-linecap="round" stroke-linejoin="round"/>
<path d="M147.179 230.626C147.179 230.626 154.015 215.864 153.292 204.454C152.844 197.108 149.217 192.503 148.646 189.233C148.076 185.963 149.665 185.158 149.237 182.163" stroke="#170658" stroke-width="1.63914" stroke-linecap="round" stroke-linejoin="round"/>
<rect x="27.4668" y="305" width="184" height="65" fill="url(#paint0_linear_2328_3771)"/>
<line opacity="0.45" x1="2" y1="236" x2="233" y2="236" stroke="#8966F0" stroke-width="4" stroke-linecap="round"/>
<defs>
<linearGradient id="paint0_linear_2328_3771" x1="119.467" y1="305" x2="119.467" y2="337.055" gradientUnits="userSpaceOnUse">
<stop stop-color="white" stop-opacity="0"/>
<stop offset="1" stop-color="white"/>
</linearGradient>
</defs>
</svg>
