<svg width="263" height="252" viewBox="0 0 263 252" fill="none" xmlns="http://www.w3.org/2000/svg">
<path d="M261.953 116.146C265.49 85.066 254.982 53.8592 232.927 31.689C222.073 20.8001 207.243 10.5114 187.537 5.54877C132.273 -8.36963 96.4496 4.39467 78.5438 38.2443C60.638 72.0939 9.25766 66.2715 1.06358 124.669C-7.1305 183.066 32.6108 247.28 99.9523 250.783C167.294 254.285 158.627 220.776 195.465 206.385C223.643 195.386 256.696 162.517 261.953 116.146Z" fill="#EAE4FC"/>
<path opacity="0.7" d="M261.953 116.146C265.49 85.066 254.982 53.8592 232.927 31.689C222.073 20.8001 207.243 10.5114 187.537 5.54877C132.273 -8.36963 96.4496 4.39467 78.5438 38.2443C60.638 72.0939 9.25766 66.2715 1.06358 124.669C-7.1305 183.066 32.6108 247.28 99.9523 250.783C167.294 254.285 158.627 220.776 195.465 206.385C223.643 195.386 256.696 162.517 261.953 116.146Z" fill="white"/>
<path d="M165.701 19.0425H95.0411C86.8506 19.0425 80.2109 25.6822 80.2109 33.8726V217.172C80.2109 225.362 86.8506 232.002 95.0411 232.002H165.701C173.891 232.002 180.531 225.362 180.531 217.172V33.8726C180.531 25.6822 173.891 19.0425 165.701 19.0425Z" fill="#EAE4FC" stroke="#170658" stroke-width="0.577048" stroke-linecap="round" stroke-linejoin="round"/>
<path d="M177.332 33.5063V216.829C177.332 218.339 177.034 219.835 176.456 221.231C175.877 222.627 175.03 223.895 173.961 224.963C172.893 226.031 171.624 226.878 170.228 227.456C168.832 228.033 167.336 228.33 165.825 228.329H95.5063C94.9831 228.331 94.4604 228.294 93.9425 228.22C91.188 227.844 88.6629 226.483 86.8348 224.389C85.0068 222.295 83.9997 219.609 84 216.829V33.5063C84 30.4547 85.2123 27.528 87.3701 25.3701C89.528 23.2123 92.4547 22 95.5063 22H97.5491C103.897 22 116.488 22.1154 116.505 22.1789C119.252 22.1789 120.92 22.6521 122.166 23.91C124.151 25.8951 126.471 28.6072 129.5 28.9246C132.668 29.2535 135.184 26.6856 137.244 24.6487C139.552 22.3405 142.657 22.0115 145.785 22.0115H165.825C168.875 22.0115 171.8 23.2222 173.958 25.3776C176.115 27.5329 177.329 30.4567 177.332 33.5063Z" fill="#F9F9FA" stroke="#170658" stroke-width="0.577048" stroke-linecap="round" stroke-linejoin="round"/>
<path d="M124.399 117.014V107.817C124.399 106.145 125.063 104.541 126.246 103.359C127.428 102.177 129.032 101.513 130.704 101.513C132.376 101.513 133.979 102.177 135.162 103.359C136.344 104.541 137.008 106.145 137.008 107.817V113.191H139.521V107.817C139.521 105.479 138.592 103.236 136.938 101.582C135.285 99.9289 133.042 99 130.704 99C128.365 99 126.123 99.9289 124.469 101.582C122.816 103.236 121.887 105.479 121.887 107.817V117.014H124.399Z" fill="white" stroke="#170658" stroke-width="0.775466" stroke-linecap="round" stroke-linejoin="round"/>
<path d="M140.202 116.115H120.947V132.043H140.202V116.115Z" fill="#8966F0" stroke="#170658" stroke-width="0.775466" stroke-linecap="round" stroke-linejoin="round"/>
<path d="M142.949 110.275L144.198 107.422" stroke="#170658" stroke-width="0.775466" stroke-linecap="round" stroke-linejoin="round"/>
<path d="M143.127 113.656H147.764" stroke="#170658" stroke-width="0.775466" stroke-linecap="round" stroke-linejoin="round"/>
<path d="M142.59 116.867L145.087 119.542" stroke="#170658" stroke-width="0.775466" stroke-linecap="round" stroke-linejoin="round"/>
<path d="M132.582 122.729C132.589 122.356 132.497 121.988 132.315 121.662C132.133 121.337 131.867 121.066 131.545 120.877C131.224 120.687 130.858 120.587 130.485 120.587C130.112 120.586 129.745 120.684 129.423 120.872C129.1 121.06 128.834 121.33 128.65 121.655C128.467 121.98 128.373 122.348 128.379 122.721C128.385 123.094 128.49 123.459 128.683 123.778C128.877 124.097 129.152 124.358 129.48 124.536L129.131 128.158H131.822L131.473 124.536C131.805 124.365 132.085 124.107 132.28 123.788C132.476 123.469 132.58 123.103 132.582 122.729Z" fill="#170658" stroke="#170658" stroke-width="0.775466" stroke-linecap="round" stroke-linejoin="round"/>
<path d="M165.049 138.533H96.1019C94.3888 138.533 93 139.922 93 141.635V148.994C93 150.707 94.3888 152.096 96.1019 152.096H165.049C166.762 152.096 168.15 150.707 168.15 148.994V141.635C168.15 139.922 166.762 138.533 165.049 138.533Z" fill="white" stroke="#170658" stroke-width="0.775466" stroke-linecap="round" stroke-linejoin="round"/>
<path d="M100.397 145.371L100.382 145.367L100.366 145.364C100.317 145.355 100.269 145.334 100.228 145.305L100.001 145.619L100.228 145.305C100.187 145.275 100.153 145.236 100.129 145.192L99.791 145.377L100.129 145.192C100.104 145.147 100.09 145.098 100.087 145.047C100.085 144.997 100.093 144.946 100.112 144.899L100.112 144.899L100.115 144.892L100.154 144.791L100.159 144.779L100.162 144.767C100.177 144.72 100.201 144.677 100.234 144.641C100.266 144.605 100.306 144.576 100.351 144.556L100.195 144.201L100.351 144.556C100.396 144.536 100.444 144.527 100.493 144.527C100.542 144.528 100.59 144.539 100.634 144.56L100.647 144.566L100.661 144.571C101.265 144.804 101.839 145.107 102.371 145.475L102.597 145.63L102.315 145.629C101.667 145.625 101.022 145.538 100.397 145.371ZM103.289 142.69L103.442 142.334L103.289 142.69C103.338 142.711 103.382 142.742 103.418 142.78C103.454 142.819 103.482 142.864 103.5 142.914L103.865 142.782L103.5 142.914C103.518 142.964 103.526 143.017 103.523 143.07L103.523 143.07L103.522 143.077C103.494 143.744 103.387 144.407 103.204 145.049L103.086 145.461L102.963 145.046C102.775 144.406 102.665 143.744 102.638 143.077L102.638 143.077L102.637 143.07C102.634 143.017 102.642 142.964 102.66 142.914C102.678 142.864 102.706 142.819 102.742 142.78C102.779 142.742 102.823 142.711 102.871 142.69C102.92 142.669 102.972 142.659 103.025 142.659H103.026L103.134 142.659L103.135 142.659C103.188 142.659 103.24 142.669 103.289 142.69ZM105.926 144.643C105.949 144.669 105.967 144.698 105.98 144.73V144.737V144.821L106.015 144.897C106.036 144.944 106.046 144.994 106.045 145.045C106.044 145.095 106.031 145.145 106.007 145.19L106.351 145.37L106.007 145.19C105.984 145.235 105.95 145.274 105.909 145.304C105.868 145.334 105.821 145.355 105.771 145.364L105.756 145.366L105.741 145.371C105.118 145.537 104.479 145.631 103.835 145.652L103.52 145.662L103.794 145.477C104.33 145.114 104.903 144.81 105.504 144.57L105.516 144.565L105.528 144.559C105.572 144.538 105.62 144.527 105.669 144.526C105.718 144.525 105.766 144.536 105.811 144.556C105.855 144.576 105.895 144.606 105.926 144.643ZM103.618 146.352C104.143 146.738 104.619 147.187 105.036 147.688C105.067 147.727 105.09 147.773 105.104 147.821C105.118 147.87 105.123 147.921 105.117 147.972L105.502 148.016L105.117 147.972C105.111 148.023 105.095 148.072 105.071 148.117C105.046 148.162 105.012 148.201 104.972 148.233L104.972 148.233L104.967 148.237L104.882 148.306L104.882 148.306L104.877 148.311C104.838 148.344 104.792 148.368 104.742 148.381C104.693 148.394 104.641 148.395 104.591 148.385C104.541 148.376 104.493 148.355 104.452 148.324C104.411 148.294 104.378 148.254 104.354 148.209L104.345 148.193L104.336 148.178C103.978 147.629 103.681 147.043 103.451 146.43L103.346 146.152L103.618 146.352ZM101.41 148.381C101.362 148.368 101.318 148.345 101.279 148.314L101.207 148.249L101.197 148.239L101.186 148.231C101.145 148.199 101.111 148.16 101.086 148.116C101.061 148.071 101.045 148.022 101.039 147.971C101.033 147.92 101.037 147.869 101.051 147.819C101.064 147.772 101.086 147.728 101.116 147.688C101.545 147.185 102.025 146.727 102.549 146.324L102.864 146.081L102.728 146.424C102.483 147.037 102.178 147.625 101.817 148.177L101.807 148.193L101.799 148.209C101.775 148.254 101.741 148.294 101.7 148.324C101.659 148.355 101.612 148.376 101.562 148.385C101.511 148.395 101.46 148.394 101.41 148.381Z" fill="#170658" stroke="#170658" stroke-width="0.775466"/>
<path d="M110.311 144.598C110.2 144.104 110.134 143.6 110.114 143.093L110.311 144.598ZM110.311 144.598C110.434 144.675 110.555 144.754 110.675 144.837L110.455 145.156L110.083 145.265C110.042 145.126 110.004 144.986 109.97 144.845C109.553 144.597 109.116 144.384 108.664 144.21L110.311 144.598ZM108.26 145.371L108.245 145.367L108.23 145.364C108.18 145.355 108.133 145.334 108.091 145.305L107.867 145.615L108.091 145.305C108.05 145.275 108.016 145.236 107.992 145.192C107.968 145.147 107.954 145.098 107.951 145.047C107.948 144.997 107.956 144.946 107.976 144.899L107.976 144.899L107.979 144.892L108.017 144.791L108.022 144.779L108.026 144.767C108.04 144.72 108.065 144.677 108.097 144.641C108.13 144.605 108.17 144.576 108.214 144.556L108.059 144.201L108.214 144.556C108.259 144.536 108.308 144.527 108.356 144.527C108.405 144.528 108.453 144.539 108.498 144.56L108.511 144.566L108.524 144.571C109.128 144.804 109.702 145.107 110.235 145.475L110.463 145.632L110.141 145.629C109.506 145.622 108.874 145.535 108.26 145.371ZM110.374 146.324L110.689 146.081L110.552 146.424C110.308 147.037 110.003 147.625 109.642 148.177L109.632 148.193L109.623 148.209C109.599 148.254 109.566 148.294 109.525 148.324C109.484 148.355 109.436 148.376 109.386 148.385C109.336 148.395 109.284 148.394 109.235 148.381C109.187 148.368 109.142 148.345 109.104 148.314L109.031 148.249L109.021 148.239L109.01 148.231C108.97 148.199 108.936 148.16 108.911 148.116L108.573 148.307L108.911 148.116C108.886 148.071 108.869 148.022 108.863 147.971C108.857 147.92 108.861 147.869 108.875 147.819C108.888 147.772 108.911 147.728 108.941 147.688C109.369 147.185 109.85 146.727 110.374 146.324ZM113.748 144.667C113.77 144.691 113.789 144.718 113.805 144.747V144.821L113.84 144.897C113.861 144.944 113.871 144.994 113.869 145.045C113.868 145.095 113.855 145.145 113.832 145.19L114.175 145.37L113.832 145.19C113.808 145.235 113.775 145.274 113.734 145.304C113.693 145.334 113.646 145.355 113.596 145.364L113.58 145.366L113.565 145.371C112.943 145.537 112.304 145.631 111.66 145.652L111.336 145.663L111.611 145.477C112.146 145.114 112.719 144.81 113.32 144.57C113.368 144.551 113.42 144.541 113.472 144.543C113.524 144.544 113.575 144.555 113.622 144.577C113.67 144.598 113.712 144.629 113.748 144.667ZM111.276 146.431L111.171 146.153L111.443 146.352C111.968 146.738 112.444 147.187 112.86 147.688C112.892 147.727 112.915 147.772 112.929 147.821C112.943 147.87 112.947 147.921 112.941 147.972C112.936 148.023 112.92 148.072 112.895 148.117C112.87 148.162 112.837 148.201 112.797 148.233L112.797 148.233L112.792 148.237L112.706 148.306L112.706 148.306L112.7 148.312C112.662 148.344 112.617 148.368 112.568 148.381L112.667 148.756L112.568 148.381C112.52 148.393 112.469 148.395 112.419 148.385C112.37 148.376 112.324 148.355 112.283 148.325C112.243 148.295 112.21 148.256 112.187 148.211L112.178 148.192L112.166 148.175C111.804 147.63 111.505 147.045 111.276 146.431ZM111.02 145.049L110.926 145.381L110.827 145.046C110.638 144.406 110.528 143.744 110.501 143.077L110.501 143.077L110.501 143.07C110.498 143.017 110.505 142.964 110.523 142.914C110.541 142.864 110.569 142.819 110.606 142.78C110.642 142.742 110.686 142.711 110.734 142.69C110.783 142.669 110.835 142.659 110.888 142.659H110.889L110.951 142.659L110.952 142.659C111.005 142.659 111.057 142.669 111.106 142.69C111.154 142.711 111.198 142.742 111.235 142.78L111.514 142.516L111.235 142.78C111.271 142.819 111.299 142.864 111.317 142.914C111.335 142.964 111.343 143.017 111.34 143.07L111.34 143.07L111.339 143.077C111.311 143.744 111.204 144.407 111.02 145.049Z" fill="#170658" stroke="#170658" stroke-width="0.775466"/>
<path d="M116.123 145.371L116.123 145.371L116.12 145.37C116.069 145.356 116.02 145.333 115.979 145.3C115.937 145.268 115.902 145.227 115.877 145.18C115.851 145.134 115.836 145.083 115.831 145.03C115.826 144.977 115.832 144.924 115.848 144.873L115.868 144.814V144.752V144.722C115.882 144.693 115.9 144.665 115.922 144.641C115.954 144.605 115.994 144.576 116.039 144.556L115.883 144.201L116.039 144.556C116.084 144.536 116.132 144.527 116.181 144.527C116.23 144.528 116.278 144.539 116.322 144.56L116.335 144.566L116.349 144.571C116.952 144.804 117.527 145.107 118.059 145.475L118.286 145.631L118.019 145.629C117.379 145.623 116.742 145.537 116.123 145.371ZM118.567 142.69L118.414 142.334L118.567 142.69C118.615 142.669 118.668 142.659 118.721 142.659H118.721L118.83 142.659L118.831 142.659C118.884 142.659 118.936 142.669 118.985 142.69L119.138 142.334L118.985 142.69C119.033 142.711 119.077 142.742 119.113 142.78C119.15 142.819 119.178 142.864 119.196 142.914L119.56 142.782L119.196 142.914C119.214 142.964 119.222 143.017 119.219 143.07L119.218 143.07L119.218 143.077C119.19 143.744 119.083 144.407 118.899 145.049L118.777 145.478L118.652 145.047C118.465 144.407 118.358 143.745 118.333 143.078L118.334 143.078L118.333 143.07C118.33 143.017 118.338 142.964 118.356 142.914C118.374 142.864 118.402 142.819 118.438 142.78C118.474 142.742 118.518 142.711 118.567 142.69ZM121.627 144.667C121.649 144.691 121.668 144.718 121.684 144.747V144.821L121.719 144.898C121.74 144.944 121.75 144.994 121.749 145.045L122.137 145.054L121.749 145.045C121.748 145.095 121.735 145.145 121.712 145.19C121.689 145.235 121.656 145.274 121.615 145.304C121.575 145.334 121.528 145.355 121.479 145.364L121.465 145.367L121.452 145.37C120.827 145.536 120.185 145.631 119.538 145.652L119.215 145.663L119.489 145.477C120.025 145.114 120.598 144.81 121.199 144.57C121.247 144.551 121.299 144.541 121.351 144.543C121.403 144.544 121.454 144.555 121.501 144.577C121.549 144.598 121.591 144.629 121.627 144.667ZM119.322 146.352C119.847 146.738 120.323 147.187 120.739 147.688C120.77 147.727 120.794 147.772 120.808 147.821C120.822 147.87 120.826 147.921 120.82 147.972C120.815 148.023 120.799 148.072 120.774 148.117C120.749 148.162 120.716 148.201 120.676 148.233L120.676 148.233L120.671 148.237L120.585 148.306L120.585 148.306L120.579 148.312C120.541 148.344 120.496 148.368 120.447 148.381L120.546 148.756L120.447 148.381C120.398 148.393 120.348 148.395 120.298 148.385C120.249 148.376 120.203 148.355 120.162 148.325C120.122 148.295 120.089 148.256 120.066 148.211L120.057 148.193L120.046 148.176C119.686 147.628 119.387 147.043 119.154 146.429L119.048 146.151L119.322 146.352ZM117.405 148.325L117.637 148.635L117.405 148.325C117.364 148.355 117.318 148.376 117.269 148.385C117.219 148.395 117.169 148.393 117.12 148.381L117.022 148.756L117.12 148.381C117.071 148.368 117.026 148.344 116.988 148.312L116.988 148.312L116.982 148.306L116.897 148.237L116.897 148.237L116.889 148.231C116.849 148.199 116.815 148.16 116.79 148.116L116.452 148.307L116.79 148.116C116.764 148.071 116.748 148.022 116.742 147.971C116.736 147.92 116.74 147.869 116.754 147.819C116.767 147.772 116.79 147.728 116.82 147.688C117.248 147.185 117.729 146.727 118.252 146.324L118.568 146.081L118.431 146.424C118.187 147.037 117.882 147.625 117.521 148.177L117.51 148.194L117.501 148.211C117.478 148.256 117.445 148.295 117.405 148.325Z" fill="#170658" stroke="#170658" stroke-width="0.775466"/>
<path d="M123.987 145.371L123.987 145.371L123.983 145.37C123.932 145.356 123.884 145.333 123.842 145.3C123.8 145.268 123.765 145.227 123.74 145.18C123.715 145.134 123.699 145.083 123.694 145.03C123.689 144.977 123.695 144.924 123.712 144.873L123.731 144.814V144.752V144.722C123.745 144.693 123.763 144.665 123.785 144.641C123.818 144.605 123.858 144.576 123.902 144.556L123.747 144.201L123.902 144.556C123.947 144.536 123.995 144.527 124.044 144.527C124.093 144.528 124.141 144.539 124.185 144.56L124.198 144.566L124.212 144.571C124.816 144.804 125.39 145.107 125.923 145.475L126.151 145.632L125.86 145.629C125.227 145.621 124.598 145.535 123.987 145.371ZM129.49 144.667C129.512 144.691 129.532 144.718 129.547 144.747V144.821L129.582 144.898C129.603 144.944 129.613 144.994 129.612 145.045L130 145.054L129.612 145.045C129.611 145.095 129.598 145.145 129.575 145.19L129.92 145.367L129.575 145.19C129.552 145.235 129.519 145.274 129.479 145.304C129.438 145.334 129.392 145.355 129.342 145.364L129.329 145.367L129.316 145.37C128.69 145.536 128.048 145.631 127.402 145.652L127.078 145.663L127.353 145.477C127.888 145.114 128.462 144.81 129.062 144.57C129.111 144.551 129.162 144.541 129.214 144.543C129.266 144.544 129.317 144.555 129.365 144.577C129.412 144.598 129.455 144.629 129.49 144.667ZM127.185 146.352C127.71 146.738 128.186 147.187 128.603 147.688C128.634 147.727 128.657 147.773 128.671 147.821C128.685 147.87 128.689 147.921 128.684 147.972C128.678 148.023 128.662 148.072 128.637 148.117C128.612 148.161 128.579 148.201 128.539 148.233L128.539 148.233L128.534 148.237L128.449 148.306L128.448 148.306L128.442 148.312C128.404 148.344 128.359 148.368 128.31 148.381L128.409 148.756L128.31 148.381C128.262 148.393 128.211 148.395 128.162 148.385C128.112 148.376 128.066 148.355 128.026 148.325C127.985 148.295 127.953 148.256 127.93 148.211L127.92 148.193L127.909 148.176C127.549 147.628 127.25 147.043 127.017 146.429L126.911 146.151L127.185 146.352ZM125.245 148.325L125.477 148.635L125.245 148.325C125.204 148.355 125.158 148.376 125.109 148.385C125.059 148.395 125.009 148.393 124.96 148.381L124.862 148.756L124.96 148.381C124.911 148.368 124.866 148.344 124.828 148.312L124.828 148.312L124.822 148.306L124.737 148.237L124.737 148.237L124.729 148.231C124.689 148.199 124.655 148.16 124.63 148.116C124.605 148.071 124.588 148.022 124.582 147.971C124.576 147.92 124.58 147.869 124.594 147.819C124.607 147.772 124.63 147.728 124.66 147.688C125.088 147.185 125.569 146.727 126.093 146.324L126.447 146.05L126.296 146.42C126.044 147.035 125.732 147.622 125.363 148.174L125.351 148.192L125.341 148.211C125.318 148.256 125.285 148.295 125.245 148.325ZM126.763 145.049L126.639 145.482L126.516 145.049C126.332 144.407 126.225 143.744 126.197 143.077L126.197 143.077L126.196 143.07C126.193 143.017 126.201 142.964 126.219 142.914C126.237 142.864 126.265 142.819 126.301 142.78C126.338 142.742 126.382 142.711 126.43 142.69C126.479 142.669 126.531 142.659 126.584 142.659H126.585L126.693 142.659L126.694 142.659C126.747 142.659 126.799 142.669 126.848 142.69C126.897 142.711 126.94 142.742 126.977 142.78L127.257 142.516L126.977 142.78C127.013 142.819 127.041 142.864 127.059 142.914C127.077 142.964 127.085 143.017 127.082 143.07L127.082 143.07L127.081 143.077C127.053 143.744 126.946 144.407 126.763 145.049Z" fill="#170658" stroke="#170658" stroke-width="0.775466"/>
<path d="M131.85 145.371L131.85 145.371L131.846 145.37C131.795 145.356 131.747 145.333 131.705 145.3C131.663 145.268 131.629 145.227 131.603 145.18C131.578 145.134 131.562 145.083 131.557 145.03C131.553 144.98 131.558 144.929 131.573 144.881L131.607 144.791L131.608 144.79C131.626 144.742 131.654 144.698 131.69 144.66C131.725 144.623 131.768 144.593 131.815 144.573L131.66 144.217L131.815 144.573C131.862 144.552 131.913 144.541 131.965 144.541C132.017 144.54 132.068 144.55 132.116 144.569L132.116 144.569L132.12 144.571C132.721 144.806 133.293 145.109 133.825 145.475L134.049 145.63L133.783 145.629C133.13 145.626 132.48 145.54 131.85 145.371ZM134.332 142.69L134.179 142.334L134.332 142.69C134.381 142.669 134.433 142.659 134.486 142.659H134.487L134.595 142.659L134.596 142.659C134.649 142.659 134.701 142.669 134.75 142.69C134.799 142.711 134.843 142.742 134.879 142.78C134.915 142.819 134.943 142.864 134.961 142.914L135.326 142.782L134.961 142.914C134.979 142.964 134.987 143.017 134.984 143.07L134.984 143.07L134.983 143.077C134.955 143.744 134.848 144.407 134.665 145.049L134.541 145.482L134.418 145.049C134.234 144.407 134.127 143.744 134.099 143.077L134.099 143.077L134.098 143.07C134.095 143.017 134.103 142.964 134.121 142.914C134.139 142.864 134.167 142.819 134.203 142.78C134.24 142.742 134.284 142.711 134.332 142.69ZM137.392 144.667C137.414 144.691 137.434 144.718 137.449 144.747V144.821L137.484 144.898C137.505 144.944 137.516 144.994 137.514 145.045C137.513 145.095 137.501 145.145 137.477 145.19C137.454 145.235 137.421 145.274 137.381 145.304C137.34 145.334 137.294 145.355 137.244 145.364L137.231 145.367L137.218 145.37C136.593 145.536 135.95 145.631 135.304 145.652L134.98 145.663L135.255 145.477C135.791 145.114 136.364 144.81 136.965 144.57C137.013 144.551 137.064 144.541 137.116 144.543C137.168 144.544 137.219 144.555 137.267 144.577C137.314 144.598 137.357 144.629 137.392 144.667ZM134.017 146.324L134.332 146.082L134.196 146.424C133.952 147.037 133.647 147.625 133.286 148.177L133.275 148.194L133.266 148.211C133.243 148.256 133.21 148.295 133.17 148.325C133.13 148.355 133.083 148.376 133.034 148.385C132.985 148.395 132.934 148.393 132.885 148.381L132.787 148.756L132.885 148.381C132.837 148.368 132.792 148.344 132.753 148.312L132.754 148.312L132.747 148.306L132.662 148.237L132.649 148.226L132.636 148.217C132.596 148.19 132.562 148.154 132.537 148.112C132.512 148.07 132.496 148.023 132.49 147.975C132.485 147.926 132.49 147.877 132.505 147.831C132.52 147.784 132.545 147.741 132.578 147.705L132.584 147.699L132.59 147.692C133.014 147.185 133.493 146.727 134.017 146.324ZM135.087 146.352C135.612 146.738 136.088 147.187 136.505 147.688C136.536 147.727 136.559 147.773 136.573 147.821C136.587 147.87 136.592 147.921 136.586 147.972L136.971 148.016L136.586 147.972C136.58 148.023 136.564 148.072 136.539 148.117C136.515 148.162 136.481 148.201 136.441 148.233L136.441 148.233L136.436 148.237L136.351 148.306L136.351 148.306L136.344 148.312C136.306 148.344 136.261 148.368 136.212 148.381L136.311 148.756L136.212 148.381C136.164 148.393 136.113 148.395 136.064 148.385C136.014 148.376 135.968 148.355 135.928 148.325C135.888 148.295 135.855 148.256 135.832 148.211L135.822 148.193L135.811 148.176C135.451 147.628 135.152 147.043 134.919 146.429L134.813 146.151L135.087 146.352Z" fill="#170658" stroke="#170658" stroke-width="0.775466"/>
<path d="M139.746 145.371L139.746 145.371L139.743 145.37C139.692 145.356 139.644 145.333 139.602 145.3C139.56 145.268 139.525 145.227 139.5 145.18C139.474 145.134 139.459 145.083 139.454 145.03C139.449 144.98 139.454 144.929 139.469 144.881L139.504 144.791L139.504 144.79C139.523 144.742 139.55 144.698 139.586 144.66C139.622 144.623 139.664 144.593 139.712 144.573L139.557 144.217L139.712 144.573C139.759 144.552 139.81 144.541 139.861 144.541C139.913 144.54 139.964 144.55 140.012 144.569L140.012 144.569L140.017 144.571C140.618 144.806 141.19 145.109 141.721 145.475L141.946 145.63L141.679 145.629C141.026 145.626 140.377 145.54 139.746 145.371ZM142.229 142.69L142.075 142.334L142.229 142.69C142.277 142.669 142.33 142.659 142.383 142.659H142.383L142.492 142.659L142.493 142.659C142.546 142.659 142.598 142.669 142.647 142.69L142.8 142.334L142.647 142.69C142.695 142.711 142.739 142.742 142.775 142.78C142.812 142.819 142.84 142.864 142.858 142.914C142.876 142.964 142.884 143.017 142.88 143.07L142.88 143.07L142.88 143.077C142.852 143.744 142.745 144.407 142.561 145.049L142.438 145.482L142.314 145.049C142.131 144.407 142.024 143.744 141.995 143.077L141.995 143.077L141.995 143.07C141.992 143.017 141.999 142.964 142.017 142.914C142.036 142.864 142.064 142.819 142.1 142.78C142.136 142.742 142.18 142.711 142.229 142.69ZM145.291 144.647C145.314 144.673 145.332 144.702 145.346 144.733V144.737V144.821L145.381 144.898C145.402 144.944 145.412 144.994 145.411 145.045C145.41 145.095 145.397 145.145 145.374 145.19C145.351 145.235 145.318 145.274 145.277 145.304C145.237 145.334 145.19 145.355 145.14 145.364L145.127 145.367L145.114 145.37C144.489 145.537 143.847 145.631 143.201 145.652L142.877 145.663L143.152 145.477C143.689 145.112 144.264 144.809 144.868 144.57L144.878 144.566L144.889 144.561C144.934 144.54 144.982 144.529 145.032 144.529C145.081 144.529 145.129 144.539 145.174 144.56C145.219 144.58 145.259 144.61 145.291 144.647ZM141.914 146.324L142.229 146.082L142.093 146.424C141.849 147.037 141.544 147.625 141.182 148.177L141.172 148.194L141.163 148.211C141.14 148.256 141.107 148.295 141.067 148.325C141.026 148.355 140.98 148.376 140.931 148.385C140.881 148.395 140.83 148.393 140.782 148.381L140.683 148.756L140.782 148.381C140.733 148.368 140.688 148.344 140.65 148.312L140.65 148.312L140.644 148.306L140.558 148.237L140.546 148.226L140.533 148.217C140.492 148.19 140.458 148.154 140.433 148.112C140.408 148.07 140.392 148.023 140.387 147.975C140.381 147.926 140.386 147.877 140.401 147.831C140.417 147.784 140.441 147.741 140.474 147.705L140.48 147.699L140.486 147.692C140.91 147.185 141.389 146.727 141.914 146.324ZM142.983 146.352C143.509 146.74 143.987 147.188 144.409 147.688C144.439 147.727 144.461 147.772 144.475 147.819C144.489 147.869 144.493 147.92 144.487 147.971C144.481 148.022 144.464 148.071 144.439 148.116C144.414 148.16 144.38 148.199 144.34 148.231L144.34 148.231L144.332 148.237L144.247 148.306L144.247 148.306L144.241 148.312C144.203 148.344 144.158 148.368 144.109 148.381C144.06 148.393 144.009 148.395 143.96 148.385C143.911 148.376 143.864 148.355 143.824 148.325C143.784 148.295 143.751 148.256 143.728 148.211L143.719 148.193L143.708 148.176C143.348 147.628 143.048 147.043 142.816 146.429L142.709 146.15L142.983 146.352Z" fill="#170658" stroke="#170658" stroke-width="0.775466"/>
<path d="M150.213 142.271C150.107 142.271 150.002 142.292 149.905 142.334C149.808 142.376 149.72 142.437 149.647 142.514C149.575 142.591 149.519 142.682 149.482 142.782C149.446 142.881 149.431 142.987 149.437 143.093C149.459 143.601 149.524 144.105 149.632 144.601C149.753 144.677 149.873 144.755 149.991 144.836L149.771 145.156L149.398 145.262C149.359 145.125 149.323 144.986 149.29 144.847C148.874 144.599 148.439 144.386 147.987 144.21L150.213 142.271ZM150.213 142.271H150.321H150.213ZM147.584 145.371L147.577 145.369C147.525 145.356 147.476 145.333 147.434 145.3L147.2 145.605L147.434 145.3C147.392 145.268 147.357 145.227 147.331 145.181L146.992 145.369L147.331 145.181C147.305 145.134 147.289 145.083 147.284 145.03C147.279 144.979 147.284 144.929 147.299 144.881L147.333 144.791L147.334 144.79C147.352 144.742 147.38 144.698 147.415 144.66C147.451 144.623 147.494 144.593 147.541 144.573L147.386 144.217L147.541 144.573C147.588 144.552 147.639 144.541 147.691 144.541C147.743 144.54 147.794 144.55 147.842 144.569L147.842 144.569L147.846 144.571C148.447 144.806 149.019 145.109 149.551 145.475L149.776 145.63L149.493 145.629C148.849 145.626 148.207 145.539 147.584 145.371L147.584 145.371ZM149.728 146.324L150.056 146.072L149.915 146.423C149.669 147.036 149.361 147.624 148.997 148.176L148.986 148.193L148.977 148.211C148.954 148.256 148.921 148.295 148.881 148.325C148.84 148.355 148.794 148.376 148.745 148.385C148.695 148.395 148.644 148.393 148.596 148.381L148.497 148.756L148.596 148.381C148.547 148.368 148.502 148.344 148.464 148.312L148.464 148.312L148.458 148.306L148.372 148.237L148.36 148.226L148.347 148.217C148.306 148.19 148.272 148.154 148.247 148.112C148.222 148.07 148.206 148.023 148.201 147.975C148.195 147.926 148.2 147.877 148.215 147.831C148.231 147.784 148.255 147.741 148.288 147.705L148.294 147.699L148.3 147.692C148.724 147.185 149.203 146.727 149.728 146.324ZM153.113 144.647C153.135 144.673 153.154 144.702 153.167 144.733V144.737V144.821L153.202 144.897C153.223 144.944 153.233 144.994 153.232 145.045C153.231 145.095 153.218 145.145 153.194 145.19C153.171 145.235 153.137 145.274 153.096 145.304C153.055 145.334 153.008 145.355 152.958 145.364L152.943 145.366L152.928 145.37C152.303 145.537 151.661 145.631 151.015 145.652L150.699 145.662L150.973 145.477C151.51 145.112 152.086 144.809 152.689 144.57L152.7 144.566L152.711 144.561C152.755 144.54 152.804 144.529 152.853 144.529C152.903 144.529 152.951 144.539 152.996 144.56C153.041 144.58 153.081 144.61 153.113 144.647L153.397 144.401L153.113 144.647ZM150.638 146.432L150.538 146.16L150.797 146.352C151.323 146.74 151.801 147.188 152.223 147.688C152.253 147.727 152.275 147.772 152.289 147.819C152.303 147.869 152.307 147.92 152.301 147.971C152.295 148.022 152.278 148.071 152.253 148.116C152.228 148.16 152.194 148.199 152.154 148.231L152.143 148.239L152.133 148.249L152.06 148.314C152.022 148.345 151.977 148.368 151.929 148.381C151.88 148.394 151.828 148.395 151.778 148.385C151.728 148.376 151.68 148.355 151.639 148.324C151.598 148.294 151.565 148.254 151.541 148.209L151.532 148.192L151.521 148.176C151.162 147.63 150.866 147.045 150.638 146.432ZM150.384 145.046L150.261 145.461L150.144 145.049C149.96 144.407 149.853 143.744 149.825 143.077L149.825 143.077L149.824 143.07C149.821 143.017 149.829 142.964 149.847 142.914C149.865 142.864 149.893 142.819 149.929 142.78C149.966 142.742 150.01 142.711 150.058 142.69C150.107 142.669 150.159 142.659 150.212 142.659H150.213L150.321 142.659L150.322 142.659C150.375 142.659 150.427 142.669 150.476 142.69L150.629 142.334L150.476 142.69C150.525 142.711 150.569 142.742 150.605 142.78C150.641 142.819 150.669 142.864 150.687 142.914L151.052 142.782L150.687 142.914C150.705 142.964 150.713 143.017 150.71 143.07L150.71 143.07L150.709 143.077C150.682 143.744 150.573 144.406 150.384 145.046Z" fill="#170658" stroke="#170658" stroke-width="0.775466"/>
<path d="M155.45 145.371L155.45 145.371L155.442 145.369C155.39 145.356 155.342 145.333 155.299 145.3C155.257 145.268 155.222 145.227 155.196 145.181L154.857 145.369L155.196 145.181C155.17 145.134 155.154 145.083 155.149 145.03C155.144 144.977 155.15 144.923 155.167 144.872L155.186 144.814V144.752V144.736C155.201 144.709 155.22 144.683 155.242 144.66C155.278 144.623 155.32 144.593 155.368 144.573L155.213 144.217L155.368 144.573C155.415 144.552 155.466 144.541 155.517 144.541C155.569 144.54 155.62 144.55 155.668 144.569L155.668 144.569L155.673 144.571C156.274 144.806 156.846 145.109 157.377 145.475L157.604 145.631L157.322 145.629C156.689 145.623 156.06 145.536 155.45 145.371ZM160.939 144.647C160.962 144.673 160.98 144.702 160.994 144.733V144.737V144.821L161.029 144.897C161.05 144.944 161.06 144.994 161.058 145.045C161.057 145.095 161.044 145.145 161.021 145.19C160.997 145.235 160.964 145.274 160.923 145.304C160.882 145.334 160.835 145.355 160.785 145.364L160.769 145.366L160.754 145.37C160.129 145.537 159.487 145.631 158.841 145.652L158.526 145.662L158.8 145.477C159.337 145.112 159.912 144.809 160.516 144.57L160.527 144.566L160.537 144.561C160.582 144.54 160.63 144.529 160.68 144.529C160.729 144.529 160.778 144.539 160.822 144.56C160.867 144.58 160.907 144.61 160.939 144.647L161.223 144.401L160.939 144.647ZM158.21 145.046L158.088 145.461L157.97 145.049C157.787 144.407 157.679 143.744 157.651 143.077L157.651 143.077L157.651 143.07C157.648 143.017 157.655 142.964 157.673 142.914C157.691 142.864 157.72 142.819 157.756 142.78C157.792 142.742 157.836 142.711 157.885 142.69C157.933 142.669 157.986 142.659 158.039 142.659H158.039L158.148 142.659L158.149 142.659C158.201 142.659 158.254 142.669 158.303 142.69C158.351 142.711 158.395 142.742 158.431 142.78C158.468 142.819 158.496 142.864 158.514 142.914C158.532 142.964 158.539 143.017 158.536 143.07L158.536 143.07L158.536 143.077C158.508 143.744 158.399 144.406 158.21 145.046ZM157.554 146.324L157.882 146.072L157.741 146.423C157.495 147.036 157.188 147.624 156.824 148.176L156.812 148.193L156.803 148.211C156.78 148.256 156.747 148.295 156.707 148.325C156.667 148.355 156.62 148.376 156.571 148.385C156.522 148.395 156.471 148.393 156.422 148.381L156.324 148.756L156.422 148.381C156.374 148.368 156.329 148.344 156.29 148.312L156.29 148.312L156.284 148.306L156.199 148.237L156.186 148.226L156.173 148.217C156.133 148.19 156.099 148.154 156.074 148.112L155.741 148.311L156.074 148.112C156.049 148.07 156.033 148.023 156.027 147.975C156.022 147.926 156.027 147.877 156.042 147.831C156.057 147.784 156.082 147.741 156.115 147.705L156.121 147.699L156.126 147.692C156.551 147.185 157.03 146.727 157.554 146.324ZM158.623 146.352C159.149 146.74 159.628 147.188 160.049 147.688C160.079 147.727 160.102 147.772 160.115 147.819C160.129 147.869 160.133 147.92 160.127 147.971C160.121 148.022 160.105 148.071 160.08 148.116C160.054 148.16 160.021 148.199 159.98 148.231L159.98 148.231L159.973 148.237L159.888 148.306L159.887 148.306L159.881 148.312C159.843 148.344 159.798 148.368 159.749 148.381L159.848 148.756L159.749 148.381C159.701 148.393 159.65 148.395 159.601 148.385C159.551 148.376 159.505 148.355 159.465 148.325C159.424 148.295 159.392 148.256 159.369 148.211L159.359 148.193L159.348 148.176C158.988 147.63 158.692 147.045 158.465 146.432L158.364 146.16L158.623 146.352Z" fill="#170658" stroke="#170658" stroke-width="0.775466"/>
</svg>
