<svg width="220" height="206" viewBox="0 0 220 206" fill="none" xmlns="http://www.w3.org/2000/svg">
<path d="M182.613 39.1935C178.598 32.3597 172.979 26.7679 165.874 22.2286C142.22 7.03871 110.069 1.56892 82.4313 5.69723C62.6885 8.64668 49.5267 22.066 41.1029 39.5729C31.1661 60.2371 22.1326 80.7928 10.7955 100.861C-2.2218 123.856 -8.03487 147.794 20.2129 167.668C44.6576 184.868 75.3174 180.405 103.321 179.863C112.608 179.683 121.962 179.99 131.099 181.788C149.257 185.356 166.89 198.048 184.749 186.196C198.322 177.185 206.317 160.161 210.192 144.741C212.5 135.554 214.316 125.414 213.458 115.658C212.523 104.971 207.586 96.9222 202.523 87.8209C196.134 76.3479 191.163 64.1416 187.717 51.4701C186.571 47.1683 184.855 43.0394 182.613 39.1935Z" fill="#EAE4FC"/>
<path d="M191.338 113.797L198.565 183.034" stroke="#170658" stroke-width="0.903351" stroke-miterlimit="10"/>
<path d="M197.4 169.787L194.125 166.327" stroke="#170658" stroke-width="0.903351" stroke-miterlimit="10"/>
<path d="M195.12 167.361C195.114 166.832 194.994 166.31 194.769 165.831C194.543 165.351 194.218 164.926 193.814 164.583C192.974 163.834 188.548 161.973 188.128 163.531C187.671 165.225 192.202 168.572 195.12 167.361Z" fill="#F6F4FD" stroke="#170658" stroke-width="0.451676" stroke-miterlimit="10"/>
<path d="M195.118 167.361L190.904 164.737" stroke="#170658" stroke-width="0.225838" stroke-miterlimit="10"/>
<path d="M198.223 177.659L194.943 174.199" stroke="#170658" stroke-width="0.903351" stroke-miterlimit="10"/>
<path d="M195.942 175.234C195.935 174.704 195.816 174.182 195.59 173.703C195.365 173.224 195.04 172.799 194.637 172.456C193.796 171.706 189.37 169.845 188.95 171.404C188.494 173.088 193.024 176.426 195.942 175.234Z" fill="#F6F4FD" stroke="#170658" stroke-width="0.451676" stroke-miterlimit="10"/>
<path d="M195.943 175.234L191.729 172.61" stroke="#170658" stroke-width="0.225838" stroke-miterlimit="10"/>
<path d="M195.396 150.573L192.121 147.113" stroke="#170658" stroke-width="0.903351" stroke-miterlimit="10"/>
<path d="M193.113 148.147C193.107 147.618 192.987 147.096 192.762 146.616C192.536 146.137 192.211 145.712 191.807 145.369C190.967 144.619 186.541 142.759 186.121 144.317C185.674 146.011 190.19 149.339 193.113 148.147Z" fill="#F6F4FD" stroke="#170658" stroke-width="0.451676" stroke-miterlimit="10"/>
<path d="M193.115 148.147L188.9 145.523" stroke="#170658" stroke-width="0.225838" stroke-miterlimit="10"/>
<path d="M196.216 158.445L192.941 154.985" stroke="#170658" stroke-width="0.903351" stroke-miterlimit="10"/>
<path d="M193.936 156.02C193.93 155.49 193.81 154.968 193.585 154.489C193.359 154.01 193.034 153.585 192.631 153.242C191.791 152.492 187.364 150.631 186.944 152.189C186.488 153.883 191.018 157.212 193.936 156.02Z" fill="#F6F4FD" stroke="#170658" stroke-width="0.451676" stroke-miterlimit="10"/>
<path d="M193.935 156.019L189.721 153.395" stroke="#170658" stroke-width="0.225838" stroke-miterlimit="10"/>
<path d="M194.06 137.781L190.785 134.321" stroke="#170658" stroke-width="0.903351" stroke-miterlimit="10"/>
<path d="M191.777 135.356C191.771 134.827 191.652 134.305 191.428 133.826C191.203 133.347 190.879 132.921 190.476 132.578C189.636 131.828 185.223 129.967 184.772 131.534C184.32 133.219 188.864 136.548 191.777 135.356Z" fill="#F6F4FD" stroke="#170658" stroke-width="0.451676" stroke-miterlimit="10"/>
<path d="M191.778 135.355L187.568 132.731" stroke="#170658" stroke-width="0.225838" stroke-miterlimit="10"/>
<path d="M192.716 124.935L189.441 121.476" stroke="#170658" stroke-width="0.903351" stroke-miterlimit="10"/>
<path d="M190.44 122.501C190.433 121.972 190.312 121.45 190.087 120.971C189.862 120.492 189.537 120.066 189.135 119.723C188.294 118.973 183.868 117.108 183.448 118.666C182.992 120.373 187.522 123.702 190.44 122.501Z" fill="#F6F4FD" stroke="#170658" stroke-width="0.451676" stroke-miterlimit="10"/>
<path d="M190.441 122.51L186.227 119.885" stroke="#170658" stroke-width="0.225838" stroke-miterlimit="10"/>
<path d="M196.848 165.125L199.336 161.065" stroke="#170658" stroke-width="0.903351" stroke-miterlimit="10"/>
<path d="M198.58 162.284C198.477 161.765 198.487 161.23 198.609 160.715C198.73 160.2 198.961 159.717 199.285 159.299C199.949 158.395 203.896 155.654 204.628 157.09C205.423 158.657 201.679 162.849 198.58 162.284Z" fill="#F6F4FD" stroke="#170658" stroke-width="0.451676" stroke-miterlimit="10"/>
<path d="M198.578 162.284L202.372 158.657" stroke="#170658" stroke-width="0.225838" stroke-miterlimit="10"/>
<path d="M194.686 144.407L197.179 140.342" stroke="#170658" stroke-width="0.903351" stroke-miterlimit="10"/>
<path d="M196.416 141.561C196.313 141.042 196.323 140.507 196.445 139.992C196.566 139.477 196.797 138.994 197.121 138.576C197.789 137.673 201.732 134.931 202.464 136.372C203.263 137.935 199.519 142.126 196.416 141.561Z" fill="#F6F4FD" stroke="#170658" stroke-width="0.451676" stroke-miterlimit="10"/>
<path d="M196.416 141.561L200.21 137.939" stroke="#170658" stroke-width="0.225838" stroke-miterlimit="10"/>
<path d="M193.736 135.301L196.225 131.236" stroke="#170658" stroke-width="0.903351" stroke-miterlimit="10"/>
<path d="M195.467 132.438C195.364 131.919 195.374 131.384 195.495 130.869C195.615 130.354 195.845 129.871 196.167 129.452C196.836 128.549 200.783 125.807 201.515 127.248C202.31 128.824 198.566 133.02 195.467 132.438Z" fill="#F6F4FD" stroke="#170658" stroke-width="0.451676" stroke-miterlimit="10"/>
<path d="M195.467 132.455L199.261 128.833" stroke="#170658" stroke-width="0.225838" stroke-miterlimit="10"/>
<path d="M192.342 121.95L194.835 117.889" stroke="#170658" stroke-width="0.903351" stroke-miterlimit="10"/>
<path d="M194.07 119.109C193.968 118.589 193.978 118.053 194.099 117.537C194.221 117.022 194.451 116.538 194.775 116.119C195.443 115.215 199.386 112.478 200.118 113.914C200.918 115.477 197.173 119.673 194.07 119.109Z" fill="#F6F4FD" stroke="#170658" stroke-width="0.451676" stroke-miterlimit="10"/>
<path d="M194.07 119.109L197.864 115.482" stroke="#170658" stroke-width="0.225838" stroke-miterlimit="10"/>
<path d="M191.273 113.413C191.171 112.894 191.181 112.359 191.302 111.844C191.424 111.329 191.654 110.846 191.978 110.428C192.647 109.524 196.59 106.783 197.321 108.224C198.121 109.786 194.376 113.978 191.273 113.413Z" fill="#F6F4FD" stroke="#170658" stroke-width="0.451676" stroke-miterlimit="10"/>
<path d="M191.275 113.413L195.069 109.791" stroke="#170658" stroke-width="0.225838" stroke-miterlimit="10"/>
<path d="M191.495 113.571C190.968 113.618 190.437 113.553 189.938 113.378C189.438 113.204 188.982 112.924 188.599 112.559C187.764 111.8 185.438 107.591 186.964 107.013C188.604 106.385 192.38 110.545 191.495 113.571Z" fill="#F6F4FD" stroke="#170658" stroke-width="0.451676" stroke-miterlimit="10"/>
<path d="M191.498 113.571L188.291 109.42" stroke="#170658" stroke-width="0.225838" stroke-miterlimit="10"/>
<path d="M210.395 123.332L203.209 192.574" stroke="#170658" stroke-width="0.903351" stroke-miterlimit="10"/>
<path d="M204.798 179.367L202.305 175.311" stroke="#170658" stroke-width="0.903351" stroke-miterlimit="10"/>
<path d="M203.068 176.526C203.173 176.008 203.167 175.474 203.05 174.959C202.932 174.444 202.706 173.96 202.386 173.54C201.717 172.637 197.769 169.9 197.038 171.34C196.22 172.903 199.965 177.095 203.068 176.526Z" fill="#F6F4FD" stroke="#170658" stroke-width="0.451676" stroke-miterlimit="10"/>
<path d="M203.068 176.526L199.486 173.093" stroke="#170658" stroke-width="0.225838" stroke-miterlimit="10"/>
<path d="M206.794 160.152L204.301 156.092" stroke="#170658" stroke-width="0.903351" stroke-miterlimit="10"/>
<path d="M205.061 157.311C205.164 156.792 205.154 156.257 205.032 155.742C204.911 155.227 204.68 154.744 204.356 154.326C203.688 153.423 199.74 150.685 199.008 152.122C198.214 153.689 201.962 157.876 205.061 157.311Z" fill="#F6F4FD" stroke="#170658" stroke-width="0.451676" stroke-miterlimit="10"/>
<path d="M205.06 157.312L201.479 153.874" stroke="#170658" stroke-width="0.225838" stroke-miterlimit="10"/>
<path d="M205.978 168.03L203.484 163.969" stroke="#170658" stroke-width="0.903351" stroke-miterlimit="10"/>
<path d="M204.242 165.189C204.345 164.669 204.335 164.133 204.213 163.617C204.092 163.102 203.861 162.618 203.537 162.199C202.869 161.295 198.926 158.558 198.194 159.999C197.417 161.562 201.143 165.753 204.242 165.189Z" fill="#F6F4FD" stroke="#170658" stroke-width="0.451676" stroke-miterlimit="10"/>
<path d="M204.244 165.189L200.662 161.751" stroke="#170658" stroke-width="0.225838" stroke-miterlimit="10"/>
<path d="M208.124 147.361L205.631 143.3" stroke="#170658" stroke-width="0.903351" stroke-miterlimit="10"/>
<path d="M206.387 144.52C206.49 144.001 206.48 143.466 206.358 142.951C206.237 142.436 206.006 141.953 205.682 141.534C205.014 140.631 201.066 137.894 200.335 139.33C199.54 140.898 203.289 145.085 206.387 144.52Z" fill="#F6F4FD" stroke="#170658" stroke-width="0.451676" stroke-miterlimit="10"/>
<path d="M206.388 144.52L202.807 141.083" stroke="#170658" stroke-width="0.225838" stroke-miterlimit="10"/>
<path d="M209.454 134.515L206.961 130.455" stroke="#170658" stroke-width="0.903351" stroke-miterlimit="10"/>
<path d="M207.721 131.674C207.823 131.154 207.814 130.619 207.692 130.103C207.57 129.587 207.34 129.103 207.016 128.684C206.347 127.781 202.4 125.044 201.668 126.485C200.873 128.047 204.645 132.239 207.721 131.674Z" fill="#F6F4FD" stroke="#170658" stroke-width="0.451676" stroke-miterlimit="10"/>
<path d="M207.72 131.674L204.139 128.237" stroke="#170658" stroke-width="0.225838" stroke-miterlimit="10"/>
<path d="M205.219 174.697L208.493 171.237" stroke="#170658" stroke-width="0.903351" stroke-miterlimit="10"/>
<path d="M207.5 172.271C207.503 171.739 207.621 171.214 207.846 170.731C208.07 170.249 208.396 169.82 208.801 169.475C209.641 168.721 214.067 166.86 214.487 168.418C214.944 170.13 210.418 173.463 207.5 172.271Z" fill="#F6F4FD" stroke="#170658" stroke-width="0.451676" stroke-miterlimit="10"/>
<path d="M207.5 172.271L211.958 169.507" stroke="#170658" stroke-width="0.225838" stroke-miterlimit="10"/>
<path d="M207.367 153.974L210.642 150.514" stroke="#170658" stroke-width="0.903351" stroke-miterlimit="10"/>
<path d="M209.648 151.548C209.654 151.019 209.773 150.497 209.998 150.018C210.222 149.539 210.547 149.113 210.949 148.77C211.789 148.02 216.216 146.155 216.636 147.713C217.092 149.407 212.566 152.763 209.648 151.548Z" fill="#F6F4FD" stroke="#170658" stroke-width="0.451676" stroke-miterlimit="10"/>
<path d="M209.648 151.548L214.106 148.784" stroke="#170658" stroke-width="0.225838" stroke-miterlimit="10"/>
<path d="M208.318 144.868L211.588 141.403" stroke="#170658" stroke-width="0.903351" stroke-miterlimit="10"/>
<path d="M210.592 142.442C210.598 141.913 210.717 141.392 210.941 140.912C211.166 140.433 211.49 140.008 211.893 139.664C212.733 138.91 217.159 137.049 217.579 138.608C218.035 140.301 213.51 143.635 210.592 142.442Z" fill="#F6F4FD" stroke="#170658" stroke-width="0.451676" stroke-miterlimit="10"/>
<path d="M210.592 142.442L215.05 139.678" stroke="#170658" stroke-width="0.225838" stroke-miterlimit="10"/>
<path d="M209.701 131.516L212.976 128.056" stroke="#170658" stroke-width="0.903351" stroke-miterlimit="10"/>
<path d="M211.98 129.091C211.987 128.562 212.106 128.04 212.33 127.561C212.555 127.082 212.879 126.657 213.281 126.313C214.121 125.563 218.548 123.698 218.968 125.256C219.424 126.95 214.898 130.283 211.98 129.091Z" fill="#F6F4FD" stroke="#170658" stroke-width="0.451676" stroke-miterlimit="10"/>
<path d="M211.98 129.091L216.439 126.326" stroke="#170658" stroke-width="0.225838" stroke-miterlimit="10"/>
<path d="M210.416 122.952C210.422 122.423 210.541 121.902 210.766 121.423C210.99 120.943 211.314 120.518 211.717 120.174C212.557 119.425 216.979 117.559 217.403 119.118C217.86 120.802 213.334 124.136 210.416 122.952Z" fill="#F6F4FD" stroke="#170658" stroke-width="0.451676" stroke-miterlimit="10"/>
<path d="M210.416 122.943L214.874 120.179" stroke="#170658" stroke-width="0.225838" stroke-miterlimit="10"/>
<path d="M210.598 123.142C210.072 123.081 209.565 122.908 209.111 122.635C208.658 122.361 208.268 121.994 207.969 121.557C207.31 120.653 205.923 116.046 207.518 115.793C209.247 115.513 212.088 120.369 210.598 123.142Z" fill="#F6F4FD" stroke="#170658" stroke-width="0.451676" stroke-miterlimit="10"/>
<path d="M210.598 123.142L208.312 118.417" stroke="#170658" stroke-width="0.225838" stroke-miterlimit="10"/>
<path d="M202.16 95.1382V182.7" stroke="#170658" stroke-width="0.903351" stroke-miterlimit="10"/>
<path d="M202.232 169.534L199.332 165.753" stroke="#170658" stroke-width="0.903351" stroke-miterlimit="10"/>
<path d="M200.213 166.887C200.262 166.359 200.197 165.828 200.024 165.328C199.85 164.828 199.571 164.37 199.206 163.987C198.447 163.151 194.237 160.825 193.659 162.347C193.031 163.987 197.191 167.767 200.213 166.887Z" fill="#F6F4FD" stroke="#170658" stroke-width="0.451676" stroke-miterlimit="10"/>
<path d="M200.213 166.887L196.297 163.838" stroke="#170658" stroke-width="0.225838" stroke-miterlimit="10"/>
<path d="M202.232 153.079L199.332 149.299" stroke="#170658" stroke-width="0.903351" stroke-miterlimit="10"/>
<path d="M200.213 150.432C200.262 149.905 200.197 149.374 200.024 148.873C199.85 148.373 199.571 147.916 199.206 147.533C198.447 146.697 194.237 144.371 193.659 145.893C193.031 147.533 197.191 151.313 200.213 150.432Z" fill="#F6F4FD" stroke="#170658" stroke-width="0.451676" stroke-miterlimit="10"/>
<path d="M200.213 150.433L196.297 147.384" stroke="#170658" stroke-width="0.225838" stroke-miterlimit="10"/>
<path d="M202.232 133.761L199.332 129.98" stroke="#170658" stroke-width="0.903351" stroke-miterlimit="10"/>
<path d="M200.213 131.114C200.262 130.587 200.197 130.055 200.024 129.555C199.85 129.055 199.571 128.598 199.206 128.215C198.447 127.379 194.237 125.053 193.659 126.575C193.031 128.215 197.191 131.986 200.213 131.114Z" fill="#F6F4FD" stroke="#170658" stroke-width="0.451676" stroke-miterlimit="10"/>
<path d="M200.213 131.114L196.297 128.065" stroke="#170658" stroke-width="0.225838" stroke-miterlimit="10"/>
<path d="M202.232 120.897L199.332 117.117" stroke="#170658" stroke-width="0.903351" stroke-miterlimit="10"/>
<path d="M200.213 118.25C200.262 117.724 200.197 117.193 200.023 116.694C199.85 116.194 199.571 115.738 199.206 115.355C198.447 114.52 194.237 112.193 193.659 113.716C193.031 115.355 197.191 119.136 200.213 118.25Z" fill="#F6F4FD" stroke="#170658" stroke-width="0.451676" stroke-miterlimit="10"/>
<path d="M200.213 118.25L196.297 115.206" stroke="#170658" stroke-width="0.225838" stroke-miterlimit="10"/>
<path d="M202.232 107.984L199.332 104.203" stroke="#170658" stroke-width="0.903351" stroke-miterlimit="10"/>
<path d="M200.213 105.337C200.262 104.81 200.197 104.278 200.024 103.778C199.85 103.278 199.571 102.821 199.206 102.437C198.447 101.602 194.237 99.2757 193.659 100.798C193.031 102.437 197.191 106.241 200.213 105.337Z" fill="#F6F4FD" stroke="#170658" stroke-width="0.451676" stroke-miterlimit="10"/>
<path d="M200.213 105.337L196.297 102.288" stroke="#170658" stroke-width="0.225838" stroke-miterlimit="10"/>
<path d="M202.17 174.556L205.065 170.776" stroke="#170658" stroke-width="0.903351" stroke-miterlimit="10"/>
<path d="M204.192 171.91C204.143 171.382 204.207 170.851 204.381 170.351C204.555 169.85 204.834 169.393 205.199 169.01C205.958 168.179 210.167 165.848 210.745 167.375C211.369 169.023 207.209 172.795 204.192 171.91Z" fill="#F6F4FD" stroke="#170658" stroke-width="0.451676" stroke-miterlimit="10"/>
<path d="M204.184 171.91L208.334 168.698" stroke="#170658" stroke-width="0.225838" stroke-miterlimit="10"/>
<path d="M202.17 148.386L205.065 144.606" stroke="#170658" stroke-width="0.903351" stroke-miterlimit="10"/>
<path d="M204.192 145.739C204.143 145.212 204.207 144.681 204.381 144.18C204.555 143.68 204.834 143.223 205.199 142.84C205.958 142.009 210.167 139.678 210.745 141.205C211.369 142.826 207.209 146.625 204.192 145.739Z" fill="#F6F4FD" stroke="#170658" stroke-width="0.451676" stroke-miterlimit="10"/>
<path d="M204.184 145.739L208.334 142.528" stroke="#170658" stroke-width="0.225838" stroke-miterlimit="10"/>
<path d="M202.17 135.473L205.065 131.688" stroke="#170658" stroke-width="0.903351" stroke-miterlimit="10"/>
<path d="M204.192 132.826C204.143 132.299 204.207 131.767 204.381 131.267C204.555 130.767 204.834 130.31 205.199 129.926C205.958 129.091 210.167 126.765 210.745 128.287C211.369 129.926 207.209 133.707 204.192 132.826Z" fill="#F6F4FD" stroke="#170658" stroke-width="0.451676" stroke-miterlimit="10"/>
<path d="M204.184 132.826L208.334 129.61" stroke="#170658" stroke-width="0.225838" stroke-miterlimit="10"/>
<path d="M202.17 118.4L205.065 114.619" stroke="#170658" stroke-width="0.903351" stroke-miterlimit="10"/>
<path d="M204.192 115.753C204.143 115.225 204.207 114.694 204.381 114.194C204.555 113.694 204.834 113.236 205.199 112.853C205.958 112.017 210.167 109.691 210.745 111.213C211.369 112.853 207.209 116.629 204.192 115.753Z" fill="#F6F4FD" stroke="#170658" stroke-width="0.451676" stroke-miterlimit="10"/>
<path d="M204.184 115.753L208.334 112.542" stroke="#170658" stroke-width="0.225838" stroke-miterlimit="10"/>
<path d="M202.17 104.976L205.065 101.195" stroke="#170658" stroke-width="0.903351" stroke-miterlimit="10"/>
<path d="M204.192 102.329C204.143 101.802 204.207 101.27 204.381 100.77C204.555 100.27 204.834 99.8129 205.199 99.4294C205.958 98.5984 210.167 96.2677 210.745 97.7944C211.369 99.4294 207.209 103.21 204.192 102.329Z" fill="#F6F4FD" stroke="#170658" stroke-width="0.451676" stroke-miterlimit="10"/>
<path d="M204.184 102.329L208.334 99.1177" stroke="#170658" stroke-width="0.225838" stroke-miterlimit="10"/>
<path d="M201.992 96.3758C201.944 95.8486 202.008 95.317 202.182 94.8168C202.356 94.3167 202.634 93.8595 203 93.4761C203.758 92.645 207.968 90.3143 208.546 91.841C209.16 93.4761 205.019 97.2611 201.992 96.3758Z" fill="#F6F4FD" stroke="#170658" stroke-width="0.451676" stroke-miterlimit="10"/>
<path d="M201.992 96.3757L206.143 93.1643" stroke="#170658" stroke-width="0.225838" stroke-miterlimit="10"/>
<path d="M202.198 96.5564C201.669 96.5488 201.147 96.428 200.668 96.2021C200.189 95.9762 199.763 95.6504 199.421 95.2465C198.671 94.4064 196.814 89.98 198.373 89.5599C200.066 89.1082 203.391 93.6385 202.198 96.5564Z" fill="#F6F4FD" stroke="#170658" stroke-width="0.451676" stroke-miterlimit="10"/>
<path d="M202.197 96.5566L199.438 92.094" stroke="#170658" stroke-width="0.225838" stroke-miterlimit="10"/>
<path d="M205.766 205.406H196.493L195.332 181.986H206.922L205.766 205.406Z" fill="#170658" stroke="#170658" stroke-width="0.451676" stroke-miterlimit="10"/>
<g opacity="0.3">
<path d="M8.87944 205.663H8.71232C8.54614 205.642 8.38586 205.588 8.2407 205.504C8.09553 205.42 7.96832 205.308 7.86635 205.175C7.76439 205.042 7.68968 204.891 7.6465 204.729C7.60333 204.567 7.59254 204.398 7.61475 204.232L13.4865 159.814C13.5309 159.478 13.7066 159.174 13.9751 158.969C14.2436 158.763 14.5829 158.672 14.9183 158.716C15.2538 158.761 15.5578 158.936 15.7637 159.205C15.9695 159.473 16.0602 159.813 16.0159 160.148L10.1441 204.566C10.1016 204.871 9.95001 205.15 9.7175 205.352C9.485 205.554 9.18729 205.664 8.87944 205.663Z" fill="white" stroke="black" stroke-width="0.451676" stroke-linecap="round" stroke-linejoin="round"/>
<path d="M38.3563 205.663H38.1891C38.021 205.643 37.8585 205.589 37.7113 205.505C37.564 205.422 37.4347 205.31 37.331 205.176C37.2273 205.042 37.1511 204.888 37.1069 204.725C37.0627 204.561 37.0514 204.391 37.0735 204.223L42.9453 159.805C42.9896 159.469 43.1654 159.165 43.4339 158.96C43.7024 158.754 44.0417 158.663 44.3771 158.707C44.7125 158.752 45.0166 158.927 45.2224 159.196C45.4283 159.464 45.519 159.804 45.4747 160.139L39.6029 204.557C39.5627 204.86 39.4147 205.139 39.1857 205.342C38.9568 205.546 38.6623 205.66 38.3563 205.663Z" fill="white" stroke="black" stroke-width="0.451676" stroke-linecap="round" stroke-linejoin="round"/>
<path d="M37.5243 103.079H5.33789L11.8872 148.761C12.1674 150.8 13.0353 152.713 14.385 154.267L16.02 156.155L48.2064 155.302C44.812 148.324 42.5771 140.839 41.5894 133.142L37.5243 103.079Z" fill="white" stroke="black" stroke-width="0.451676" stroke-linecap="round" stroke-linejoin="round"/>
<path d="M75.0952 205.663H75.2669C75.6015 205.617 75.9044 205.441 76.1099 205.173C76.3154 204.905 76.4068 204.567 76.3644 204.232L70.4926 159.814C70.4416 159.484 70.2633 159.187 69.996 158.986C69.7286 158.786 69.3935 158.698 69.0623 158.742C68.731 158.786 68.4301 158.957 68.2239 159.22C68.0176 159.483 67.9224 159.816 67.9587 160.148L73.8305 204.566C73.8722 204.871 74.0235 205.151 74.2562 205.353C74.4889 205.555 74.7871 205.665 75.0952 205.663Z" fill="white" stroke="black" stroke-width="0.451676" stroke-linecap="round" stroke-linejoin="round"/>
<path d="M45.6187 205.663H45.7903C46.1249 205.617 46.4278 205.441 46.6333 205.173C46.8388 204.905 46.9303 204.567 46.8879 204.232L41.0161 159.814C40.965 159.484 40.7867 159.187 40.5194 158.986C40.2521 158.786 39.9169 158.698 39.5857 158.742C39.2545 158.786 38.9535 158.957 38.7473 159.22C38.541 159.483 38.4459 159.816 38.4822 160.148L44.354 204.566C44.3956 204.871 44.5469 205.151 44.7796 205.353C45.0123 205.555 45.3105 205.665 45.6187 205.663Z" fill="white" stroke="black" stroke-width="0.451676" stroke-linecap="round" stroke-linejoin="round"/>
<path d="M72.6736 158.305H13.373V161.182H72.6736V158.305Z" fill="white" stroke="black" stroke-width="0.451676" stroke-linecap="round" stroke-linejoin="round"/>
<path d="M72.6785 158.305H41.2012V161.182H72.6785V158.305Z" fill="white" stroke="black" stroke-width="0.451676" stroke-linecap="round" stroke-linejoin="round"/>
<path d="M13.373 158.305C13.373 158.305 15.7398 155.329 17.9621 155.144C20.1843 154.958 67.2218 155.144 68.8388 155.144C70.4558 155.144 72.6736 158.305 72.6736 158.305H13.373Z" fill="white" stroke="black" stroke-width="0.451676" stroke-linecap="round" stroke-linejoin="round"/>
</g>
<path d="M130.638 1H31.1973V184.904H130.638V1Z" fill="white"/>
<path opacity="0.15" d="M130.638 1H31.1973V38.5478H130.638V1Z" fill="black"/>
<path d="M130.638 1H31.1973V20.395H130.638V1Z" fill="#170658"/>
<path d="M122.71 50.0117H95.1168C93.8496 50.0117 92.8223 51.039 92.8223 52.3062V59.2711C92.8223 60.5383 93.8496 61.5656 95.1168 61.5656H122.71C123.977 61.5656 125.004 60.5383 125.004 59.2711V52.3062C125.004 51.039 123.977 50.0117 122.71 50.0117Z" fill="#2504CA"/>
<path d="M99.3516 57.0078L99.1935 57.8299H98.7734L99.5548 53.7422H100.214L100.996 57.8299H100.544L100.386 57.0078H99.3516ZM99.4103 56.6148H100.314L99.862 54.2571L99.4103 56.6148Z" fill="#F6F4FD"/>
<path d="M102.313 53.7244C102.95 53.7244 103.239 54.1083 103.239 54.7406V56.8048C103.239 57.4281 102.95 57.812 102.313 57.812H101.355V53.7244H102.313ZM102.313 57.3965C102.643 57.3965 102.801 57.1932 102.801 56.8183V54.7181C102.801 54.3432 102.643 54.1399 102.308 54.1399H101.816V57.3965H102.313Z" fill="#F6F4FD"/>
<path d="M104.626 53.7244C105.262 53.7244 105.556 54.1083 105.556 54.7406V56.8048C105.556 57.4281 105.262 57.812 104.626 57.812H103.668V53.7244H104.626ZM104.626 57.3965C104.951 57.3965 105.109 57.1932 105.109 56.8183V54.7181C105.109 54.3432 104.951 54.1399 104.621 54.1399H104.129V57.3965H104.626Z" fill="#F6F4FD"/>
<path d="M108.284 55.6529V56.0639H107.344V57.8345H106.893V53.7468H108.519V54.1624H107.349V55.6529H108.284Z" fill="#F6F4FD"/>
<path d="M109.792 53.7244C110.433 53.7244 110.695 54.0496 110.695 54.6593V54.9891C110.723 55.1674 110.687 55.3498 110.594 55.5042C110.501 55.6587 110.356 55.7753 110.185 55.8337C110.56 55.9421 110.7 56.2492 110.7 56.6874V57.3242C110.688 57.491 110.716 57.6581 110.781 57.812H110.33C110.266 57.6545 110.24 57.4845 110.253 57.3152V56.6738C110.253 56.2221 110.036 56.0686 109.657 56.0686H109.34V57.812H108.889V53.7244H109.792ZM109.675 55.653C110.036 55.653 110.253 55.5356 110.253 55.0929V54.7C110.253 54.3296 110.122 54.1399 109.801 54.1399H109.349V55.653H109.675Z" fill="#F6F4FD"/>
<path d="M111.635 53.7244V57.812H111.184V53.7244H111.635Z" fill="#F6F4FD"/>
<path d="M113.562 55.5356V55.9421H112.564V57.3965H113.788V57.812H112.107V53.7244H113.788V54.1399H112.564V55.5356H113.562Z" fill="#F6F4FD"/>
<path d="M114.614 57.812H114.203V53.7244H114.786L115.73 56.6783V53.7244H116.118V57.812H115.667L114.619 54.5058L114.614 57.812Z" fill="#F6F4FD"/>
<path d="M117.559 53.7244C118.196 53.7244 118.49 54.1083 118.49 54.7406V56.8048C118.49 57.4281 118.196 57.812 117.559 57.812H116.602V53.7244H117.559ZM117.559 57.3965C117.884 57.3965 118.042 57.1932 118.042 56.8183V54.7181C118.042 54.3432 117.884 54.1399 117.555 54.1399H117.062V57.3965H117.559Z" fill="#F6F4FD"/>
<path d="M57.9375 71.8049H124.98" stroke="#170658" stroke-width="0.451676" stroke-linecap="round" stroke-linejoin="round"/>
<path d="M35.0137 71.8049H56.1566" stroke="#170658" stroke-width="0.451676" stroke-linecap="round" stroke-linejoin="round"/>
<path d="M122.71 82.1616H95.1168C93.8496 82.1616 92.8223 83.1889 92.8223 84.4561V91.421C92.8223 92.6882 93.8496 93.7155 95.1168 93.7155H122.71C123.977 93.7155 125.004 92.6882 125.004 91.421V84.4561C125.004 83.1889 123.977 82.1616 122.71 82.1616Z" fill="#2504CA"/>
<path d="M99.3516 89.1446L99.1935 89.9667H98.7734L99.5548 85.8745H100.214L100.996 89.9667H100.544L100.386 89.1446H99.3516ZM99.4103 88.7517H100.314L99.862 86.3894L99.4103 88.7517Z" fill="#F6F4FD"/>
<path d="M102.313 85.8745C102.95 85.8745 103.239 86.263 103.239 86.8953V88.9549C103.239 89.5828 102.95 89.9667 102.313 89.9667H101.355V85.8745H102.313ZM102.313 89.5512C102.643 89.5512 102.801 89.3479 102.801 88.973V86.8682C102.801 86.4978 102.643 86.2901 102.308 86.2901H101.816V89.5512H102.313Z" fill="#F6F4FD"/>
<path d="M104.626 85.8745C105.262 85.8745 105.556 86.263 105.556 86.8953V88.9549C105.556 89.5828 105.262 89.9667 104.626 89.9667H103.668V85.8745H104.626ZM104.626 89.5512C104.951 89.5512 105.109 89.3479 105.109 88.973V86.8682C105.109 86.4978 104.951 86.2901 104.621 86.2901H104.129V89.5512H104.626Z" fill="#F6F4FD"/>
<path d="M108.284 87.7805V88.196H107.344V89.9801H106.893V85.8879H108.519V86.3035H107.349V87.794L108.284 87.7805Z" fill="#F6F4FD"/>
<path d="M109.792 85.8745C110.433 85.8745 110.695 86.2042 110.695 86.8095V87.1437C110.695 87.5954 110.537 87.8754 110.185 87.9838C110.56 88.0968 110.7 88.3994 110.7 88.8375V89.4744C110.688 89.6426 110.716 89.8112 110.781 89.9667H110.33C110.266 89.8092 110.24 89.6392 110.253 89.4698V88.8285C110.253 88.3768 110.036 88.2187 109.657 88.2187H109.34V89.9802H108.889V85.8881L109.792 85.8745ZM109.675 87.8032C110.036 87.8032 110.253 87.6902 110.253 87.2431V86.8501C110.253 86.4843 110.122 86.2901 109.801 86.2901H109.349V87.8032H109.675Z" fill="#F6F4FD"/>
<path d="M111.635 85.8745V89.9802H111.184V85.8881L111.635 85.8745Z" fill="#F6F4FD"/>
<path d="M113.562 87.6901V88.0966H112.564V89.551H113.788V89.9801H112.107V85.8879H113.788V86.3035H112.564V87.7037L113.562 87.6901Z" fill="#F6F4FD"/>
<path d="M114.614 89.9801H114.203V85.8879H114.786L115.73 88.8464V85.8879H116.118V89.9801H115.667L114.619 86.6739L114.614 89.9801Z" fill="#F6F4FD"/>
<path d="M117.559 85.8745C118.196 85.8745 118.49 86.263 118.49 86.8953V88.9549C118.49 89.5828 118.196 89.9667 117.559 89.9667H116.602V85.8745H117.559ZM117.559 89.5512C117.884 89.5512 118.042 89.3479 118.042 88.973V86.8682C118.042 86.4978 117.884 86.2901 117.555 86.2901H117.062V89.5512H117.559Z" fill="#F6F4FD"/>
<path d="M119.553 103.955H124.977" stroke="#170658" stroke-width="0.451676" stroke-linecap="round" stroke-linejoin="round"/>
<path d="M35.0137 103.955H117.774" stroke="#170658" stroke-width="0.451676" stroke-linecap="round" stroke-linejoin="round"/>
<path d="M62.1414 108.63H39.4492V130.911H62.1414V108.63Z" fill="#A1A1A1" stroke="#170658" stroke-width="0.451676" stroke-linecap="round" stroke-linejoin="round"/>
<path d="M122.71 114.316H95.1168C93.8496 114.316 92.8223 115.344 92.8223 116.611V123.576C92.8223 124.843 93.8496 125.87 95.1168 125.87H122.71C123.977 125.87 125.004 124.843 125.004 123.576V116.611C125.004 115.344 123.977 114.316 122.71 114.316Z" fill="#2504CA"/>
<path d="M99.3516 121.295L99.1935 122.122H98.7734L99.5548 118.03H100.214L100.996 122.122H100.544L100.386 121.295H99.3516ZM99.4103 120.907H100.314L99.862 118.544L99.4103 120.907Z" fill="#F6F4FD"/>
<path d="M102.313 118.03C102.95 118.03 103.239 118.413 103.239 119.046V121.11C103.239 121.733 102.95 122.122 102.313 122.122H101.355V118.03H102.313ZM102.313 121.706C102.643 121.706 102.801 121.498 102.801 121.128V119.023C102.801 118.648 102.643 118.445 102.308 118.445H101.816V121.706H102.313Z" fill="#F6F4FD"/>
<path d="M104.626 118.03C105.262 118.03 105.556 118.413 105.556 119.046V121.11C105.556 121.733 105.262 122.122 104.626 122.122H103.668V118.03H104.626ZM104.626 121.706C104.951 121.706 105.109 121.498 105.109 121.128V119.023C105.109 118.648 104.951 118.445 104.621 118.445H104.129V121.706H104.626Z" fill="#F6F4FD"/>
<path d="M108.284 119.936V120.351H107.344V122.122H106.893V118.03H108.519V118.436H107.349V119.927L108.284 119.936Z" fill="#F6F4FD"/>
<path d="M109.792 118.03C110.433 118.03 110.695 118.359 110.695 118.965V119.299C110.695 119.75 110.537 120.03 110.185 120.139C110.56 120.252 110.7 120.554 110.7 120.993V121.629C110.688 121.798 110.716 121.966 110.781 122.122H110.33C110.266 121.964 110.24 121.794 110.253 121.625V120.979C110.253 120.527 110.036 120.374 109.657 120.374H109.34V122.122H108.889V118.03H109.792ZM109.675 119.958C110.036 119.958 110.253 119.841 110.253 119.398V119.005C110.253 118.639 110.122 118.445 109.801 118.445H109.349V119.958H109.675Z" fill="#F6F4FD"/>
<path d="M111.635 118.03V122.122H111.184V118.03H111.635Z" fill="#F6F4FD"/>
<path d="M113.562 119.841V120.243H112.564V121.697H113.788V122.113H112.107V118.03H113.788V118.436H112.564V119.832L113.562 119.841Z" fill="#F6F4FD"/>
<path d="M114.614 122.122H114.203V118.03H114.786L115.73 120.988V118.03H116.118V122.122H115.667L114.619 118.811L114.614 122.122Z" fill="#F6F4FD"/>
<path d="M117.559 118.03C118.196 118.03 118.49 118.413 118.49 119.046V121.11C118.49 121.733 118.196 122.122 117.559 122.122H116.602V118.03H117.559ZM117.559 121.706C117.884 121.706 118.042 121.498 118.042 121.128V119.023C118.042 118.648 117.884 118.445 117.555 118.445H117.062V121.706H117.559Z" fill="#F6F4FD"/>
<path d="M70.3945 136.11H124.98" stroke="#170658" stroke-width="0.451676" stroke-linecap="round" stroke-linejoin="round"/>
<path d="M35.0137 136.11H67.9453" stroke="#170658" stroke-width="0.451676" stroke-linecap="round" stroke-linejoin="round"/>
<path d="M62.1414 140.785H39.4492V163.061H62.1414V140.785Z" fill="#F6F4FD" stroke="#170658" stroke-width="0.451676" stroke-linecap="round" stroke-linejoin="round"/>
<path d="M122.71 146.471H95.1168C93.8496 146.471 92.8223 147.499 92.8223 148.766V155.731C92.8223 156.998 93.8496 158.025 95.1168 158.025H122.71C123.977 158.025 125.004 156.998 125.004 155.731V148.766C125.004 147.499 123.977 146.471 122.71 146.471Z" fill="#2504CA"/>
<path d="M99.3516 153.45L99.1935 154.272H98.7734L99.5548 150.207H100.214L100.996 154.272H100.544L100.386 153.45H99.3516ZM99.4103 153.057H100.314L99.862 150.699L99.4103 153.057Z" fill="#F6F4FD"/>
<path d="M102.313 150.184C102.95 150.184 103.239 150.568 103.239 151.2V153.265C103.239 153.888 102.95 154.272 102.313 154.272H101.355V150.207L102.313 150.184ZM102.313 153.856C102.643 153.856 102.801 153.653 102.801 153.278V151.178C102.801 150.803 102.643 150.6 102.308 150.6H101.816V153.856H102.313Z" fill="#F6F4FD"/>
<path d="M104.626 150.184C105.262 150.184 105.556 150.568 105.556 151.2V153.265C105.556 153.888 105.262 154.272 104.626 154.272H103.668V150.207L104.626 150.184ZM104.626 153.856C104.951 153.856 105.109 153.653 105.109 153.278V151.178C105.109 150.803 104.951 150.6 104.621 150.6H104.129V153.856H104.626Z" fill="#F6F4FD"/>
<path d="M108.284 152.09V152.501H107.344V154.272H106.893V150.207H108.519V150.622H107.349V152.113L108.284 152.09Z" fill="#F6F4FD"/>
<path d="M109.792 150.184C110.433 150.184 110.695 150.509 110.695 151.119V151.449C110.723 151.627 110.687 151.809 110.594 151.964C110.501 152.118 110.356 152.235 110.185 152.293C110.56 152.402 110.7 152.709 110.7 153.147V153.784C110.688 153.951 110.716 154.118 110.781 154.272H110.33C110.266 154.114 110.24 153.944 110.253 153.775V153.134C110.253 152.682 110.036 152.528 109.657 152.528H109.34V154.272H108.889V150.207L109.792 150.184ZM109.675 152.113C110.036 152.113 110.253 151.995 110.253 151.553V151.16C110.253 150.789 110.122 150.6 109.801 150.6H109.349V152.113H109.675Z" fill="#F6F4FD"/>
<path d="M111.635 150.184V154.249H111.184V150.184H111.635Z" fill="#F6F4FD"/>
<path d="M113.562 151.995V152.402H112.564V153.856H113.788V154.272H112.107V150.207H113.788V150.622H112.564V152.018L113.562 151.995Z" fill="#F6F4FD"/>
<path d="M114.614 154.272H114.203V150.207H114.786L115.73 153.161V150.207H116.118V154.272H115.667L114.614 150.956V154.272Z" fill="#F6F4FD"/>
<path d="M117.559 150.184C118.196 150.184 118.49 150.568 118.49 151.2V153.265C118.49 153.888 118.196 154.272 117.559 154.272H116.602V150.207L117.559 150.184ZM117.559 153.856C117.884 153.856 118.042 153.653 118.042 153.278V151.178C118.042 150.803 117.884 150.6 117.555 150.6H117.062V153.856H117.559Z" fill="#F6F4FD"/>
<path d="M77.7344 168.265H124.98" stroke="#170658" stroke-width="0.451676" stroke-linecap="round" stroke-linejoin="round"/>
<path d="M35.0137 168.265H75.5064" stroke="#170658" stroke-width="0.451676" stroke-linecap="round" stroke-linejoin="round"/>
<path d="M62.1414 44.3247H39.4492V66.6059H62.1414V44.3247Z" fill="#F6F4FD" stroke="#170658" stroke-width="0.451676" stroke-linecap="round" stroke-linejoin="round"/>
<path d="M56.7619 60.2419L61.8839 60.3729V66.6061H39.4492L50.5469 61.3666L56.7619 60.2419Z" fill="#A1A1A1" stroke="#170658" stroke-width="0.451676" stroke-linecap="round" stroke-linejoin="round"/>
<path d="M55.5908 57.1929L57.5465 61.9761C57.5465 61.9761 56.9503 64.2074 55.1662 64.9527C53.3821 65.6979 52.4832 65.5489 50.9927 64.6545L50.541 61.3799C50.541 61.3799 55.3152 60.323 55.5908 57.1929Z" fill="white" stroke="#170658" stroke-width="0.451676" stroke-linecap="round" stroke-linejoin="round"/>
<path d="M48.3113 47.36C48.3113 47.36 44.5895 47.9562 44.1423 51.2353C43.6952 54.5145 46.8253 61.3664 50.398 62.4098C53.9708 63.4532 55.9085 60.4721 56.2066 58.0873C56.7486 53.7828 54.8516 48.5524 53.081 47.6581C51.3104 46.7638 48.3113 47.36 48.3113 47.36Z" fill="white" stroke="#170658" stroke-width="0.451676" stroke-linecap="round" stroke-linejoin="round"/>
<path d="M52.6324 49.5958L48.1608 66.2807H39.8184C39.8184 66.2807 42.0767 51.6826 44.7371 48.5525C47.3975 45.4224 52.1852 45.874 53.9739 46.7458C55.7625 47.6175 56.9459 52.4278 56.9459 52.4278C56.9459 52.4278 55.907 54.5146 52.6324 49.5958Z" fill="#170658"/>
<path d="M55.0195 52.875C55.0195 52.875 55.0195 51.0683 56.2074 51.52C57.3953 51.9717 57.847 55.2463 57.1108 55.9871C56.3746 56.7278 55.4712 55.3954 55.4712 55.3954" fill="white"/>
<path d="M55.0195 52.875C55.0195 52.875 55.0195 51.0683 56.2074 51.52C57.3953 51.9717 57.847 55.2463 57.1108 55.9871C56.3746 56.7278 55.4712 55.3954 55.4712 55.3954" stroke="#170658" stroke-width="0.451676" stroke-linecap="round" stroke-linejoin="round"/>
<path d="M52.6069 55.0294C52.7604 55.454 52.6972 55.8695 52.4669 55.9328C52.2365 55.996 51.9203 55.7431 51.7668 55.3185C51.6132 54.8939 51.6719 54.4784 51.9068 54.4152C52.1416 54.3519 52.4307 54.6049 52.6069 55.0294Z" fill="#170658"/>
<path d="M50.6973 60.025C50.6973 60.025 52.635 60.9283 53.8274 57.7666" stroke="#170658" stroke-width="0.451676" stroke-linecap="round" stroke-linejoin="round"/>
<path d="M62.1414 76.4797H39.4492V98.7609H62.1414V76.4797Z" fill="#F6F4FD" stroke="#170658" stroke-width="0.451676" stroke-linecap="round" stroke-linejoin="round"/>
<path d="M52.3898 81.3984C52.3898 81.3984 49.1422 83.9955 48.9796 84.6459C48.8724 85.1798 48.818 85.7229 48.817 86.2674L44.5984 87.8935L45.7321 90.1518C45.7321 90.1518 44.1106 95.5132 44.2732 96.0236C44.4358 96.534 47.6833 96.5069 47.6833 96.5069L48.1711 98.7653H57.426L56.7756 96.6515C56.7756 96.6515 61.9744 92.4328 62.137 91.945C62.2996 91.4572 62.137 82.8482 62.137 82.8482C62.137 82.8482 53.3654 77.1662 51.5813 78.467C49.7972 79.7678 52.3898 81.3984 52.3898 81.3984Z" fill="white" stroke="#170658" stroke-width="0.451676" stroke-linecap="round" stroke-linejoin="round"/>
<path d="M49.3052 84.1445C49.3052 84.1445 46.708 84.7949 47.3584 87.0669C47.6159 87.9702 49.1652 88.3677 50.1182 88.3677C51.0712 88.3677 51.9249 86.561 51.9249 86.561C51.9249 86.561 52.0649 84.3071 49.3052 84.1445Z" fill="#170658"/>
<path d="M51.9013 86.5789L56.9375 90.6394L55.4786 92.2655L54.8282 92.1028L54.9908 90.6394L50.1172 88.3675L51.9013 86.5789Z" fill="white" stroke="#170658" stroke-width="0.451676" stroke-linecap="round" stroke-linejoin="round"/>
<path d="M52.8842 90.6394C52.8842 90.6394 55.1426 89.1805 54.998 90.6394C54.8535 92.0983 54.5102 93.7243 53.0468 94.0495C51.5834 94.3747 51.5879 92.9113 51.5879 92.9113" fill="white"/>
<path d="M52.8842 90.6394C52.8842 90.6394 55.1426 89.1805 54.998 90.6394C54.8535 92.0983 54.5102 93.7243 53.0468 94.0495C51.5834 94.3747 51.5879 92.9113 51.5879 92.9113" stroke="#170658" stroke-width="0.451676" stroke-linecap="round" stroke-linejoin="round"/>
<path d="M52.3889 81.3984L56.1242 84.4834C56.1242 84.4834 53.0393 85.1338 53.2019 86.1049C53.3645 87.076 54.6653 87.4057 54.6653 87.4057C54.6653 87.4057 52.0637 89.6641 53.0393 90.0029C53.7363 90.2868 54.3556 90.7327 54.846 91.3037C54.846 91.3037 52.8948 95.039 54.5208 95.8521C55.4911 96.3374 56.5324 96.6652 57.6057 96.8232L62.1541 91.9541V82.8438C62.1541 82.8438 53.5452 76.6739 51.2733 77.6495C49.0013 78.6251 50.93 80.7345 52.3889 81.3984Z" fill="#170658"/>
<path d="M46.0566 91.7867C46.0566 91.7867 48.315 92.2745 49.3042 90.9736L46.0566 91.7867Z" fill="white"/>
<path d="M46.0566 91.7867C46.0566 91.7867 48.315 92.2745 49.3042 90.9736" stroke="#170658" stroke-width="0.451676" stroke-linecap="round" stroke-linejoin="round"/>
<path d="M51.2151 121.123L39.4219 124.479V130.911H62.0057V125.943L51.2151 121.123Z" fill="#F6F4FD" stroke="#170658" stroke-width="0.451676" stroke-miterlimit="10"/>
<path d="M52.8837 111.489C52.8837 111.489 49.4193 110.134 47.0119 111.941C44.6044 113.747 44.5999 118.264 44.9025 120.22C45.2052 122.176 46.8583 125.039 49.5684 125.794C52.2784 126.548 57.0978 123.386 57.0978 120.974C57.0978 118.562 57.8521 111.489 52.8837 111.489Z" fill="white" stroke="#170658" stroke-width="0.451676" stroke-miterlimit="10"/>
<path d="M48.2044 109.854C48.2044 109.854 43.8006 111.999 43.6877 113.58C43.5748 115.161 44.2523 118.097 43.3489 118.549C42.4456 119 40.9099 119.249 40.8647 120.468C40.7518 123.63 42.4456 124.082 45.0427 124.195C47.6398 124.308 47.7528 123.174 47.3011 121.259C46.8494 119.344 45.6073 115.274 48.4303 114.484C51.2532 113.693 53.3987 112.79 53.7375 112.338C54.0762 111.887 54.546 114.71 55.3183 115.726C56.7863 117.645 56.6733 120.468 56.4475 121.372C56.2217 122.275 55.4358 123.847 56.3346 124.421C58.8233 126.001 60.1783 123.969 60.3997 122.162C60.621 120.355 57.9155 118.775 57.9155 118.775C57.9155 118.775 59.7222 113.693 57.798 111.887C55.8739 110.08 53.5071 109.064 52.4908 109.176C51.4746 109.289 48.2044 109.854 48.2044 109.854Z" fill="#170658"/>
<path d="M41.8789 130.911H46.5583C47.1319 129.94 48.916 126.846 48.7895 125.943C48.6902 125.265 47.6062 123.973 46.8383 123.133C47.0506 122.573 47.3894 121.593 47.29 121.277C47.1409 120.825 46.0885 119.922 46.0885 119.922C45.6368 119.47 44.7335 119.768 44.7335 119.768C44.7335 119.768 42.6242 122.027 42.6242 122.781C42.6242 123.535 46.1066 126.566 46.1066 126.566L42.4932 130.631L41.8789 130.911Z" fill="white" stroke="#170658" stroke-width="0.451676" stroke-linecap="round" stroke-linejoin="round"/>
<path d="M46.8583 123.133L45.7969 122.027" stroke="#170658" stroke-width="0.451676" stroke-miterlimit="10"/>
<path d="M58.7548 130.911H54.0574C53.4838 129.94 51.7042 126.846 51.8306 125.943C51.9255 125.265 53.0095 123.973 53.7774 123.133C53.5696 122.573 53.2308 121.593 53.3257 121.277C53.4747 120.825 54.5316 119.922 54.5316 119.922C54.9833 119.47 55.8867 119.768 55.8867 119.768C55.8867 119.768 57.996 122.027 57.996 122.781C57.996 123.535 54.5316 126.544 54.5316 126.544L58.1451 130.609L58.7548 130.911Z" fill="white" stroke="#170658" stroke-width="0.451676" stroke-linecap="round" stroke-linejoin="round"/>
<path d="M53.7734 123.133L54.8349 122.027" stroke="#170658" stroke-width="0.451676" stroke-miterlimit="10"/>
<path d="M47.8633 117.437C47.8633 117.437 49.1054 116.873 50.0087 117.325L47.8633 117.437Z" fill="white"/>
<path d="M47.8633 117.437C47.8633 117.437 49.1054 116.873 50.0087 117.325" stroke="#170658" stroke-width="0.451676" stroke-miterlimit="10"/>
<path d="M52.2676 117.212C52.2676 117.212 53.8484 116.76 54.3001 117.325L52.2676 117.212Z" fill="white"/>
<path d="M52.2676 117.212C52.2676 117.212 53.8484 116.76 54.3001 117.325" stroke="#170658" stroke-width="0.451676" stroke-miterlimit="10"/>
<path d="M52.1556 118.888C51.9066 119.168 51.569 119.355 51.1992 119.416C50.8293 119.478 50.4495 119.411 50.123 119.226" fill="white"/>
<path d="M52.1556 118.888C51.9066 119.168 51.569 119.355 51.1992 119.416C50.8293 119.478 50.4495 119.411 50.123 119.226" stroke="#170658" stroke-width="0.451676" stroke-miterlimit="10"/>
<path d="M48.7695 120.599C48.7695 120.599 49.7858 121.728 50.915 121.728C52.0442 121.728 53.0605 120.486 53.0605 120.486" fill="white"/>
<path d="M48.7695 120.599C48.7695 120.599 49.7858 121.728 50.915 121.728C52.0442 121.728 53.0605 120.486 53.0605 120.486" stroke="#170658" stroke-width="0.451676" stroke-miterlimit="10"/>
<path d="M47.6387 116.421C47.6387 116.421 48.7679 114.84 50.1229 115.518L47.6387 116.421Z" fill="white"/>
<path d="M47.6387 116.421C47.6387 116.421 48.7679 114.84 50.1229 115.518" stroke="#170658" stroke-width="0.451676" stroke-miterlimit="10"/>
<path d="M52.2676 115.726C52.2676 115.726 53.3968 114.822 54.3001 116.29L52.2676 115.726Z" fill="white"/>
<path d="M52.2676 115.726C52.2676 115.726 53.3968 114.822 54.3001 116.29" stroke="#170658" stroke-width="0.451676" stroke-miterlimit="10"/>
<path d="M62.1414 162.312V163.066H39.4492V161.607V161.584C40.0183 160.681 45.8178 159.326 45.8178 159.326L45.5875 157.167H46.8386L47.1819 155.812L46.4999 153.648C45.7721 153.079 45.2528 152.285 45.0229 151.39C44.5712 149.8 45.5875 149.683 45.5875 149.683C45.4353 148.513 45.4353 147.329 45.5875 146.16C45.8178 143.775 50.705 142.524 50.705 142.524C51.8432 141.842 55.8225 142.18 56.7348 143.427C57.6472 144.674 54.6842 143.427 54.6842 143.427L55.3708 144.565C56.0528 145.699 54.9191 147.632 54.9191 147.632C54.9191 147.632 56.4006 152.75 55.7186 154.001C55.0365 155.252 53.0085 155.595 53.0085 155.595L53.3518 157.641L54.6029 157.867L54.6888 159.087C54.6888 159.087 60.8315 161.024 61.7394 161.932L62.1414 162.312Z" fill="white" stroke="#170658" stroke-width="0.451676" stroke-miterlimit="10"/>
<path d="M65.5215 53.3538H84.1125" stroke="#170658" stroke-width="1.35503" stroke-linecap="round" stroke-linejoin="round"/>
<path d="M65.5215 57.925H90.2056" stroke="#170658" stroke-width="0.451676" stroke-linecap="round" stroke-linejoin="round"/>
<path d="M65.5215 83.2231H84.1125" stroke="#170658" stroke-width="1.35503" stroke-linecap="round" stroke-linejoin="round"/>
<path d="M65.5215 87.7942H90.2056" stroke="#170658" stroke-width="0.451676" stroke-linecap="round" stroke-linejoin="round"/>
<path d="M65.5215 115.834H84.1125" stroke="#170658" stroke-width="1.35503" stroke-linecap="round" stroke-linejoin="round"/>
<path d="M65.5215 120.405H90.2056" stroke="#170658" stroke-width="0.451676" stroke-linecap="round" stroke-linejoin="round"/>
<path d="M65.5215 147.226H84.1125" stroke="#170658" stroke-width="1.35503" stroke-linecap="round" stroke-linejoin="round"/>
<path d="M65.5215 151.797H90.2056" stroke="#170658" stroke-width="0.451676" stroke-linecap="round" stroke-linejoin="round"/>
<path d="M114.262 173.106H124.009" stroke="#170658" stroke-width="0.451676" stroke-linecap="round" stroke-linejoin="round"/>
<path d="M114.262 176.381H124.009" stroke="#170658" stroke-width="0.451676" stroke-linecap="round" stroke-linejoin="round"/>
<path d="M114.262 179.656H124.009" stroke="#170658" stroke-width="0.451676" stroke-linecap="round" stroke-linejoin="round"/>
<path d="M77.3995 3.33084V3.41666C77.417 3.56282 77.3857 3.71067 77.3106 3.83726C77.2354 3.96385 77.1206 4.0621 76.9839 4.11676C77.1213 4.17308 77.2364 4.27299 77.3115 4.40111C77.3866 4.52924 77.4175 4.67848 77.3995 4.82589V5.08786C77.3995 5.60728 77.1556 5.95056 76.6316 5.95056C76.1077 5.95056 75.8638 5.60728 75.8638 5.08786V4.85299H76.2206V5.11044C76.2206 5.41758 76.3471 5.60277 76.6181 5.60277C76.8891 5.60277 77.0201 5.4221 77.0201 5.07882V4.81234C77.0201 4.4781 76.88 4.31549 76.591 4.30646H76.3696V3.9677H76.591C76.6485 3.96798 76.7055 3.95617 76.7582 3.93302C76.811 3.90987 76.8582 3.8759 76.897 3.83332C76.9357 3.79074 76.9651 3.74049 76.9832 3.68583C77.0013 3.63117 77.0077 3.57332 77.002 3.51603V3.36246C77.002 3.01015 76.88 2.82948 76.6 2.82948C76.32 2.82948 76.2025 3.01918 76.2025 3.32632V3.50248H75.8457V3.34891C75.8457 2.82496 76.0896 2.49072 76.6136 2.49072C77.1375 2.49072 77.3995 2.8069 77.3995 3.33084Z" fill="white"/>
<path d="M78.1354 3.58813V4.03981H77.7695V3.58813H78.1354ZM78.1354 5.44001V5.91426H77.7695V5.44001H78.1354Z" fill="white"/>
<path d="M80.0591 3.33523C80.0591 4.36054 78.9028 4.73091 78.8983 5.51683V5.56651H80.0185V5.9143H78.5234V5.62071C78.5234 4.52314 79.6797 4.30634 79.6797 3.36233C79.6797 3.01003 79.5623 2.82484 79.2777 2.82484C78.9932 2.82484 78.8803 3.02809 78.8803 3.3262V3.62882H78.5234V3.3533C78.5234 2.82936 78.7628 2.48608 79.2868 2.48608C79.8107 2.48608 80.0591 2.80677 80.0591 3.33523Z" fill="white"/>
<path d="M80.3809 3.33084C80.3809 2.8069 80.6383 2.47266 81.1623 2.47266C81.6862 2.47266 81.9437 2.8069 81.9437 3.33084V5.08786C81.9437 5.60729 81.6862 5.95056 81.1623 5.95056C80.6383 5.95056 80.3809 5.60729 80.3809 5.08786V3.33084ZM80.7558 5.11044C80.7558 5.41758 80.8867 5.60277 81.1623 5.60277C81.4378 5.60277 81.5642 5.41758 81.5642 5.11044V3.30374C81.5642 2.99208 81.4378 2.8069 81.1623 2.8069C80.8867 2.8069 80.7558 2.99208 80.7558 3.30374V5.11044Z" fill="white"/>
<path d="M83.8039 2.50415C84.3414 2.50415 84.5717 2.82032 84.5717 3.33975V3.74626C84.5717 4.28827 84.3188 4.56831 83.7768 4.56831H83.438V5.92334H83.0586V2.50415H83.8039ZM83.7768 4.22955C84.0568 4.22955 84.1968 4.09857 84.1968 3.77788V3.3262C84.1968 3.01454 84.0839 2.87452 83.8039 2.87452H83.438V4.22955H83.7768Z" fill="white"/>
<path d="M86.1391 5.90979H85.7732L85.2086 3.19973V5.90979H84.8789V2.50415H85.4029L85.9629 5.2142L86.5049 2.50415H87.0334V5.9143H86.6766V3.17263L86.1391 5.90979Z" fill="white"/>
<path d="M112.503 3.31277V3.42117C112.523 3.56416 112.496 3.70962 112.426 3.83581C112.356 3.962 112.247 4.06214 112.115 4.12127C112.248 4.185 112.357 4.28934 112.427 4.41924C112.497 4.54914 112.524 4.69787 112.503 4.84395V5.09689C112.503 5.31012 112.419 5.51462 112.268 5.66539C112.117 5.81617 111.913 5.90087 111.699 5.90087C111.486 5.90087 111.282 5.81617 111.131 5.66539C110.98 5.51462 110.895 5.31012 110.895 5.09689V4.84395C110.875 4.69729 110.902 4.54789 110.973 4.41777C111.043 4.28766 111.154 4.18372 111.288 4.12127C111.155 4.06348 111.045 3.96376 110.974 3.83734C110.903 3.71093 110.875 3.56477 110.895 3.42117V3.31277C110.895 3.09954 110.98 2.89505 111.131 2.74427C111.282 2.59349 111.486 2.50879 111.699 2.50879C111.913 2.50879 112.117 2.59349 112.268 2.74427C112.419 2.89505 112.503 3.09954 112.503 3.31277ZM111.27 3.31277V3.47537C111.27 3.8051 111.433 3.95415 111.699 3.95415C111.966 3.95415 112.128 3.8051 112.128 3.47537V3.31277C112.128 2.96047 111.966 2.79786 111.699 2.79786C111.433 2.79786 111.257 2.97401 111.257 3.32632L111.27 3.31277ZM111.27 4.78523V5.07431C111.27 5.4221 111.428 5.58922 111.699 5.58922C111.97 5.58922 112.124 5.4221 112.128 5.07431V4.78523C112.128 4.45551 111.984 4.29291 111.699 4.29291C111.415 4.29291 111.257 4.46906 111.257 4.79878L111.27 4.78523Z" fill="white"/>
<path d="M113.218 3.89531C113.266 3.8048 113.34 3.72999 113.429 3.67961C113.519 3.62923 113.621 3.60535 113.724 3.61076C114.175 3.61076 114.356 3.93145 114.356 4.41926V5.08774C114.356 5.60716 114.108 5.95044 113.588 5.95044C113.069 5.95044 112.82 5.60716 112.82 5.08774V4.85738H113.177V5.11032C113.177 5.41746 113.304 5.60265 113.575 5.60265C113.846 5.60265 113.977 5.41746 113.977 5.11032V4.45087C113.977 4.14373 113.85 3.95855 113.575 3.95855C113.526 3.95674 113.477 3.96468 113.431 3.98192C113.385 3.99916 113.343 4.02535 113.307 4.05896C113.271 4.09258 113.243 4.13295 113.223 4.17775C113.203 4.22254 113.192 4.27085 113.191 4.31989V4.40119H112.838L112.929 2.50415H114.284V2.84742H113.272L113.218 3.89531Z" fill="white"/>
<path d="M115.664 3.03713V4.11212C115.664 4.44184 115.511 4.66316 115.181 4.66316C114.851 4.66316 114.693 4.44184 114.693 4.11212V3.03713C114.693 2.71192 114.847 2.48608 115.181 2.48608C115.515 2.48608 115.664 2.71192 115.664 3.03713ZM114.937 3.03713V4.14373C114.937 4.32892 115.005 4.45087 115.181 4.45087C115.357 4.45087 115.421 4.32892 115.421 4.14373V3.02358C115.421 2.83839 115.348 2.71192 115.181 2.71192C115.014 2.71192 114.946 2.83839 114.946 3.02358L114.937 3.03713ZM116.789 2.5177L115.434 5.92785H115.213L116.568 2.5177H116.789ZM117.34 4.3244V5.39487C117.34 5.72911 117.191 5.94592 116.852 5.94592C116.514 5.94592 116.369 5.72911 116.369 5.39487V4.30634C116.369 3.98113 116.523 3.76433 116.852 3.76433C117.182 3.76433 117.349 3.98113 117.349 4.30634L117.34 4.3244ZM116.608 4.3244V5.43101C116.608 5.6162 116.685 5.74267 116.852 5.74267C117.019 5.74267 117.096 5.6162 117.096 5.43101V4.29279C117.096 4.1076 117.024 3.98565 116.852 3.98565C116.681 3.98565 116.617 4.1076 116.617 4.29279L116.608 4.3244Z" fill="white"/>
<path d="M68.7596 14.74V15.2684H67.5627V17.5268H66.9801V12.3145H69.0487V12.8429H67.5627V14.74H68.7596ZM43.8497 12.8565L43.0096 12.0164L40.2363 14.7942V14.8167L43.0096 17.5946L43.8497 16.7725L41.8895 14.8122L43.8497 12.8565Z" fill="white"/>
<path d="M70.0879 12.3145V17.5178H69.5098V12.3145H70.0879Z" fill="white"/>
<path d="M71.1991 17.5178H70.6797V12.3145H71.4024L72.6083 16.0769V12.3145H73.1233V17.5178H72.518L71.1901 13.3127L71.1991 17.5178Z" fill="white"/>
<path d="M74.9435 12.3145C75.7565 12.3145 76.1269 12.8068 76.1269 13.6062V16.235C76.1269 17.0299 75.7565 17.5178 74.9435 17.5178H73.7285V12.3145H74.9435ZM74.9435 16.9893C75.3591 16.9893 75.5578 16.7318 75.5578 16.2531V13.5791C75.5578 13.1049 75.3591 12.8429 74.9345 12.8429H74.3112V16.9893H74.9435Z" fill="white"/>
<path d="M79.5973 14.74V15.2684H78.4004V17.5268H77.8223V12.3145H79.8864V12.8429H78.4004V14.74H79.5973Z" fill="white"/>
<path d="M81.5085 12.3145C82.326 12.3145 82.6693 12.73 82.6693 13.5024V13.9269C82.6693 14.5006 82.466 14.8574 82.0234 14.9974C82.4751 15.1419 82.6783 15.5259 82.6783 16.0859V16.8944C82.6596 17.1077 82.6954 17.3221 82.7822 17.5178H82.195C82.1119 17.3179 82.0778 17.1011 82.0956 16.8854V16.0679C82.0956 15.4807 81.8201 15.2955 81.3368 15.2955H80.9303V17.5178H80.3477V12.3145H81.5085ZM81.3594 14.7671C81.8111 14.7671 82.0956 14.618 82.0956 14.0534V13.5566C82.0956 13.1049 81.924 12.8429 81.4949 12.8429H80.9303V14.7671H81.3594Z" fill="white"/>
<path d="M83.862 12.3145V17.5178H83.2793V12.3145H83.862Z" fill="white"/>
<path d="M86.307 14.618V15.1419H85.0377V16.9893H86.596V17.5178H84.4551V12.3145H86.596V12.8429H85.0377V14.618H86.307Z" fill="white"/>
<path d="M87.662 17.5178H87.1426V12.3145H87.8788L89.0848 16.0769V12.3145H89.5952V17.5178H88.9944L87.662 13.3127V17.5178Z" fill="white"/>
<path d="M91.3934 12.3145C92.2064 12.3145 92.5767 12.8068 92.5767 13.6062V16.235C92.5767 17.0299 92.2064 17.5178 91.3934 17.5178H90.1738V12.3145H91.3934ZM91.3934 16.9893C91.8089 16.9893 92.0076 16.7318 92.0076 16.2531V13.5791C92.0076 13.1049 91.8089 12.8429 91.3843 12.8429H90.761V16.9893H91.3934Z" fill="white"/>
<path d="M95.3723 13.5656V13.7056H94.8212V13.534C94.8212 13.0823 94.6451 12.7887 94.225 12.7887C93.805 12.7887 93.6333 13.0642 93.6333 13.5249C93.6333 14.6948 95.3813 14.8077 95.3813 16.2711C95.3813 17.057 95.0019 17.572 94.2024 17.572C93.403 17.572 93.0371 17.057 93.0371 16.2711V15.973H93.5791V16.2982C93.5791 16.7499 93.7733 17.0435 94.1889 17.0435C94.6044 17.0435 94.7986 16.768 94.7986 16.2982C94.7986 15.1419 93.0597 15.029 93.0597 13.5882C93.0597 12.7842 93.4301 12.2874 94.2115 12.2874C94.9929 12.2874 95.3723 12.7752 95.3723 13.5656Z" fill="white"/>
<path d="M119.359 2.68018V5.92772H126.83V2.68018H119.359ZM126.266 5.68382H119.919V2.9286H126.266V5.68382Z" fill="white"/>
<path d="M125.109 2.68018H119.359V5.92772H125.109V2.68018Z" fill="white"/>
<path d="M127.338 3.73291H126.715V4.89372H127.338V3.73291Z" fill="white"/>
<path d="M47.6302 32.0303V32.3013H39.5V31.7728C39.7078 31.4431 41.7855 30.9553 41.7855 30.9553L41.7042 30.1784H42.1559L42.2778 29.6906L42.0429 28.9137C41.7715 28.713 41.5758 28.4265 41.4874 28.1007C41.3248 27.5316 41.6906 27.491 41.6906 27.491C41.6359 27.0712 41.6359 26.646 41.6906 26.2263C41.7719 25.3681 43.5289 24.9209 43.5289 24.9209C43.9355 24.6725 45.3673 24.799 45.6925 25.2461C46.0177 25.6933 44.9562 25.2461 44.9562 25.2461L45.2047 25.6526C45.4486 26.0591 45.0375 26.7547 45.0375 26.7547C45.0375 26.7547 45.5705 28.593 45.3266 29.0402C45.0852 29.3496 44.7345 29.5549 44.3465 29.6138L44.4684 30.3455L44.9201 30.4314L44.9608 30.883C44.9608 30.883 47.1649 31.5741 47.4947 31.9038C47.5353 31.9445 47.585 31.9896 47.6302 32.0303Z" fill="#170658"/>
<path d="M54.5039 21.7861V36.4024" stroke="#170658" stroke-width="0.451676" stroke-linecap="round" stroke-linejoin="round"/>
<path d="M77.5625 21.7861V36.4024" stroke="#170658" stroke-width="0.451676" stroke-linecap="round" stroke-linejoin="round"/>
<path d="M100.619 21.7861V36.4024" stroke="#170658" stroke-width="0.451676" stroke-linecap="round" stroke-linejoin="round"/>
<path d="M123.682 21.7861V36.4024" stroke="#170658" stroke-width="0.451676" stroke-linecap="round" stroke-linejoin="round"/>
<path d="M37.291 35.7522H49.956" stroke="#170658" stroke-width="0.451676" stroke-linecap="round" stroke-linejoin="round"/>
<path d="M59.373 35.7522H72.0426" stroke="#170658" stroke-width="0.451676" stroke-linecap="round" stroke-linejoin="round"/>
<path d="M82.1113 35.7522H94.7763" stroke="#170658" stroke-width="0.451676" stroke-linecap="round" stroke-linejoin="round"/>
<path d="M104.844 35.7522H117.509" stroke="#170658" stroke-width="0.451676" stroke-linecap="round" stroke-linejoin="round"/>
<path d="M64.8164 30.6345C66.6998 30.6345 68.2266 29.1077 68.2266 27.2244C68.2266 25.341 66.6998 23.8142 64.8164 23.8142C62.933 23.8142 61.4062 25.341 61.4062 27.2244C61.4062 29.1077 62.933 30.6345 64.8164 30.6345Z" stroke="#170658" stroke-width="1.35503" stroke-linecap="round" stroke-linejoin="round"/>
<path d="M67.4922 29.6636L70.9023 32.342" stroke="#170658" stroke-width="1.35503" stroke-linecap="round" stroke-linejoin="round"/>
<path d="M89.0375 32.0303V32.3013H80.8848V31.7728C81.0925 31.4431 83.1702 30.9553 83.1702 30.9553L83.0889 30.1784H83.5406L83.6626 29.6906L83.4187 28.9137C83.159 28.708 82.9748 28.4222 82.8947 28.1007C82.7321 27.5316 83.098 27.491 83.098 27.491C83.0432 27.0712 83.0432 26.646 83.098 26.2263C83.1793 25.3636 84.9498 24.939 84.9498 24.939C85.3564 24.6906 86.7882 24.817 87.1134 25.2642C87.4386 25.7114 86.3771 25.2642 86.3771 25.2642L86.6256 25.6707C86.8695 26.0772 86.4584 26.7728 86.4584 26.7728C86.4584 26.7728 86.9914 28.6111 86.7475 29.0583C86.5038 29.3673 86.1519 29.5723 85.7629 29.6319L85.8893 30.3636L86.341 30.4494L86.3817 30.9011C86.3817 30.9011 88.5858 31.5922 88.9156 31.9219C88.9427 31.9445 89.0149 31.9896 89.0375 32.0303Z" fill="#170658"/>
<path d="M93.9075 32.0303V32.3013H85.7773V31.7728C85.9806 31.4431 88.0628 30.9553 88.0628 30.9553L87.9815 30.1784H88.4332L88.5551 29.6906L88.3112 28.9137C88.0451 28.7106 87.8544 28.4245 87.7692 28.1007C87.6021 27.5316 87.9725 27.491 87.9725 27.491C87.9177 27.0712 87.9177 26.646 87.9725 26.2263C88.0538 25.3681 89.8108 24.9209 89.8108 24.9209C90.2173 24.6725 91.6446 24.799 91.9743 25.2461C92.3041 25.6933 91.2381 25.2461 91.2381 25.2461L91.482 25.6526C91.7259 26.0591 91.3194 26.7547 91.3194 26.7547C91.3194 26.7547 91.8479 28.593 91.604 29.0402C91.3625 29.3496 91.0118 29.5549 90.6238 29.6138L90.7458 30.3455L91.1975 30.4314L91.2381 30.883C91.2381 30.883 93.4423 31.5741 93.7675 31.9038L93.9075 32.0303Z" fill="#170658"/>
<path d="M97.2154 21.8674H88.9316V27.2243H97.2154V21.8674Z" fill="#787878"/>
<path d="M93.5568 26.2534L92.3418 28.9319L95.752 26.2534" fill="#787878"/>
<path d="M114.016 24.3022H107.928V32.3421H114.016V24.3022Z" stroke="#170658" stroke-width="0.451676" stroke-linecap="round" stroke-linejoin="round"/>
<path d="M114.795 24.4468V26.3619" stroke="#170658" stroke-width="0.451676" stroke-linecap="round" stroke-linejoin="round"/>
<path d="M114.795 27.2244V29.135" stroke="#170658" stroke-width="0.451676" stroke-linecap="round" stroke-linejoin="round"/>
<path d="M114.795 29.9976V31.9081" stroke="#170658" stroke-width="0.451676" stroke-linecap="round" stroke-linejoin="round"/>
<path d="M130.638 1H31.1973V184.904H130.638V1Z" stroke="#170658" stroke-width="0.451676" stroke-miterlimit="10"/>
<g opacity="0.3">
<path d="M207.064 5.83325H172.303V39.9619H207.064V5.83325Z" stroke="black" stroke-width="0.451676" stroke-linecap="round" stroke-linejoin="round"/>
<path d="M207.064 38.8058V39.9621H172.285V37.7308C172.294 37.7198 172.302 37.7077 172.308 37.6946C173.184 36.299 182.064 34.2077 182.064 34.2077L181.712 30.9014H183.631L184.151 28.8102L183.107 25.4994C181.989 24.6196 181.194 23.393 180.849 22.0125C180.144 19.5824 181.712 19.4018 181.712 19.4018C181.712 19.4018 181.368 17.6628 181.712 13.9817C182.055 10.3005 189.557 8.40799 189.557 8.40799C191.296 7.36462 197.394 7.88856 198.785 9.80367C200.176 11.7188 195.646 9.80367 195.646 9.80367L196.698 11.5426C197.742 13.2816 195.998 16.2446 195.998 16.2446C195.998 16.2446 198.257 24.0811 197.222 25.9962C196.188 27.9113 193.035 28.4398 193.035 28.4398L193.555 31.5744L195.474 31.9222L195.646 33.8328C195.646 33.8328 205.095 36.8184 206.45 38.2141L207.064 38.8058Z" stroke="black" stroke-width="0.451676" stroke-miterlimit="10"/>
</g>
<g opacity="0.3">
<path d="M202.912 55.6262C206.639 55.6262 209.66 52.605 209.66 48.8782C209.66 45.1513 206.639 42.1301 202.912 42.1301C199.185 42.1301 196.164 45.1513 196.164 48.8782C196.164 52.605 199.185 55.6262 202.912 55.6262Z" fill="black"/>
<path d="M202.912 45.084V52.6721" stroke="white" stroke-width="0.451676" stroke-miterlimit="10"/>
<path d="M206.705 48.8779H199.117" stroke="white" stroke-width="0.451676" stroke-miterlimit="10"/>
</g>
<g opacity="0.3">
<path d="M139.68 169.448C143.407 169.448 146.428 166.427 146.428 162.7C146.428 158.973 143.407 155.952 139.68 155.952C135.953 155.952 132.932 158.973 132.932 162.7C132.932 166.427 135.953 169.448 139.68 169.448Z" fill="black"/>
<path d="M139.68 158.906V166.494" stroke="white" stroke-width="0.451676" stroke-miterlimit="10"/>
<path d="M143.473 162.7H135.885" stroke="white" stroke-width="0.451676" stroke-miterlimit="10"/>
</g>
<g opacity="0.3">
<path d="M21.8295 37.7668H7.03711V52.2882H21.8295V37.7668Z" stroke="black" stroke-width="0.451676" stroke-linecap="round" stroke-linejoin="round"/>
<path d="M21.8295 51.7957V52.288H7.03711V51.3395C7.412 50.7478 11.188 49.858 11.188 49.858L11.048 48.4262H11.8655L12.0868 47.5228L11.6352 46.1136C11.159 45.7383 10.8207 45.2157 10.6731 44.6276C10.375 43.5932 11.039 43.5165 11.039 43.5165C10.9414 42.7547 10.9414 41.9837 11.039 41.2219C11.188 39.6682 14.3768 38.8506 14.3768 38.8506C15.1176 38.399 17.7102 38.6293 18.3064 39.4423C18.9026 40.2554 16.9514 39.4423 16.9514 39.4423L17.4031 40.1831C17.8547 40.9238 17.105 42.184 17.105 42.184C17.105 42.184 18.0986 45.54 17.647 46.3575C17.1953 47.175 15.8674 47.3964 15.8674 47.3964L16.0887 48.7514L16.9017 48.9004L16.9785 49.7134C16.9785 49.7134 20.9803 50.9736 21.5766 51.5698L21.8295 51.7957Z" stroke="black" stroke-width="0.451676" stroke-miterlimit="10"/>
</g>
<g opacity="0.3">
<path d="M19.2398 63.4083C21.6719 63.4083 23.6436 61.4366 23.6436 59.0044C23.6436 56.5723 21.6719 54.6006 19.2398 54.6006C16.8076 54.6006 14.8359 56.5723 14.8359 59.0044C14.8359 61.4366 16.8076 63.4083 19.2398 63.4083Z" fill="black"/>
<path d="M19.2402 56.5247V61.4795" stroke="white" stroke-width="0.451676" stroke-miterlimit="10"/>
<path d="M21.7146 59.0046H16.7598" stroke="white" stroke-width="0.451676" stroke-miterlimit="10"/>
</g>
<g opacity="0.3">
<path d="M151.913 15.897H137.121V30.4183H151.913V15.897Z" stroke="black" stroke-width="0.451676" stroke-linecap="round" stroke-linejoin="round"/>
<path d="M151.913 29.9079V30.4002H137.121V29.4562C137.496 28.8645 141.272 27.9747 141.272 27.9747L141.123 26.57H141.94L142.162 25.6666L141.71 24.2574C141.234 23.8821 140.896 23.3595 140.748 22.7714C140.45 21.737 141.114 21.6603 141.114 21.6603C141.016 20.8985 141.016 20.1275 141.114 19.3657C141.263 17.812 144.452 16.9944 144.452 16.9944C145.193 16.5428 147.785 16.7731 148.381 17.5861C148.978 18.3992 147.026 17.5861 147.026 17.5861L147.478 18.3269C147.93 19.0676 147.18 20.3278 147.18 20.3278C147.18 20.3278 148.183 23.6702 147.731 24.4877C147.279 25.3053 145.951 25.5266 145.951 25.5266L146.173 26.8816L146.986 27.0307L147.062 27.8437C147.062 27.8437 151.064 29.1039 151.661 29.7001L151.913 29.9079Z" stroke="black" stroke-width="0.451676" stroke-miterlimit="10"/>
</g>
<g opacity="0.3">
<path d="M166.756 6.38403H155.252C154.853 6.38403 154.471 6.5425 154.189 6.82457C153.907 7.10664 153.748 7.48921 153.748 7.88811V15.5666C153.748 15.9655 153.907 16.3481 154.189 16.6301C154.471 16.9122 154.853 17.0707 155.252 17.0707H155.361L153.473 20.6299L157.411 17.0707H166.756C167.155 17.0707 167.538 16.9122 167.82 16.6301C168.102 16.3481 168.261 15.9655 168.261 15.5666V7.88811C168.261 7.48921 168.102 7.10664 167.82 6.82457C167.538 6.5425 167.155 6.38403 166.756 6.38403Z" fill="black"/>
<path d="M158.711 9.20244C158.369 9.40883 157.981 9.52824 157.582 9.55023V8.80497C157.904 8.81243 158.219 8.70876 158.474 8.51137C158.729 8.31398 158.909 8.03489 158.982 7.72095H159.61V15.9053H158.707L158.711 9.20244Z" fill="white"/>
<path d="M161.902 11.045C162.02 10.8301 162.196 10.6527 162.41 10.5329C162.624 10.4131 162.867 10.3558 163.112 10.3675C164.165 10.3675 164.63 11.1354 164.63 12.3052V13.8996C164.63 15.1508 164.034 15.9683 162.787 15.9683C161.54 15.9683 160.953 15.1508 160.953 13.8996V13.3531H161.807V13.9583C161.807 14.6946 162.109 15.1372 162.764 15.1372C163.419 15.1372 163.717 14.6855 163.717 13.9583V12.373C163.717 11.6367 163.415 11.1941 162.764 11.1941C162.529 11.194 162.304 11.2854 162.135 11.449C161.966 11.6126 161.868 11.8355 161.861 12.0703V12.2555H161.007L161.229 7.73877H164.445V8.5563H162.042L161.902 11.045Z" fill="white"/>
</g>
<path d="M174.443 188.82L177.275 193.942L182.835 188.929L179.782 184.353L174.443 188.82Z" fill="white" stroke="#170658" stroke-width="0.451676" stroke-linecap="round" stroke-linejoin="round"/>
<path d="M151.23 185.067L149.703 191.499H155.918L157.77 185.288L151.23 185.067Z" fill="white" stroke="#170658" stroke-width="0.451676" stroke-linecap="round" stroke-linejoin="round"/>
<path d="M157.333 189.426L148.724 189.538L148.182 193.897C148.182 193.897 144.365 197.384 143.06 198.364C141.754 199.344 139.135 200.216 139.135 200.216C139.135 200.216 136.628 200.763 136.845 201.634C137.061 202.506 136.303 204.25 137.066 204.466C137.829 204.683 141.858 205.663 144.148 205.663C146.078 205.598 147.926 204.867 149.379 203.595C150.013 203.015 150.707 202.504 151.447 202.068V205.008H156.244C156.244 205.008 157.007 200.324 157.007 198.364C157.007 196.404 156.244 194.222 156.244 193.897C156.244 193.572 157.333 189.426 157.333 189.426Z" fill="#170658" stroke="#170658" stroke-width="0.451676" stroke-linecap="round" stroke-linejoin="round"/>
<path d="M181.901 185.735L174.602 190.839C174.602 190.839 176.788 193.003 176.571 194.529C176.354 196.056 173.247 202.208 173.247 202.208C173.247 202.208 170.848 203.843 170.631 204.493C170.415 205.144 169.868 205.474 171.612 205.695C173.355 205.916 177.556 205.487 179.606 204.846C180.916 204.435 182.768 203.667 182.885 202.795C183.003 201.923 182.944 199.701 183.599 198.73C184.12 198.022 184.744 197.396 185.451 196.874L187.303 200.144L189.593 198.622C189.593 198.622 187.849 193.716 186.978 191.426C186.106 189.136 183.296 188.861 183.296 188.861L181.901 185.735Z" fill="#170658" stroke="#170658" stroke-width="0.451676" stroke-linecap="round" stroke-linejoin="round"/>
<path d="M122.514 84.3341L131.096 99.3885L137.193 101.272L129.063 84.1851L122.514 84.3341Z" fill="#170658" stroke="#170658" stroke-width="0.451676" stroke-linecap="round" stroke-linejoin="round"/>
<path d="M125.803 94.4473C125.803 94.4473 128.766 100.771 129.602 101.674C130.438 102.577 137.42 108.047 139.923 109.262C142.425 110.477 145.465 111.846 147.15 111.846C148.834 111.846 149.408 111.394 149.408 111.394C149.408 111.394 151.002 89.8357 151.151 89.3795C151.3 88.9233 145.537 85.739 145.537 85.739C145.035 88.2708 144.733 90.8383 144.634 93.4175C144.557 97.0625 143.798 103.056 143.798 103.056C143.798 103.056 139.927 102.605 136.056 102.072C132.186 101.539 131.96 100.265 131.883 99.2622C131.806 98.2595 132.411 96.0734 132.411 96.0734C132.411 96.0734 133.401 94.6325 133.554 93.815C133.708 92.9974 132.944 93.0562 132.944 93.0562C132.944 93.0562 133.554 91.4617 133.175 91.0056C133.098 90.8797 132.978 90.7868 132.837 90.7451C132.696 90.7033 132.544 90.7157 132.411 90.7797C132.431 90.2813 132.325 89.786 132.104 89.3389C131.919 89.0633 131.797 89.0543 131.278 89.1085C131.278 89.1085 131.047 88.0426 130.374 88.4988C129.701 88.9549 126.124 92.3741 125.817 93.1329C125.644 93.5531 125.639 94.0237 125.803 94.4473Z" fill="white" stroke="#170658" stroke-width="0.451676" stroke-linecap="round" stroke-linejoin="round"/>
<path d="M131.27 89.0767C131.27 89.0767 127.602 92.9249 126.514 94.7904" stroke="#170658" stroke-width="0.451676" stroke-linecap="round" stroke-linejoin="round"/>
<path d="M132.406 90.73C132.406 90.73 130.64 92.9071 129.475 94.655C128.31 96.403 128.346 97.1076 128.346 97.1076" stroke="#170658" stroke-width="0.451676" stroke-linecap="round" stroke-linejoin="round"/>
<path d="M132.94 93.0063C132.94 93.0063 130.523 95.8248 130.176 97.2611C129.828 98.6975 130.135 99.2846 130.135 99.2846" stroke="#170658" stroke-width="0.451676" stroke-linecap="round" stroke-linejoin="round"/>
<path d="M156.086 74.5103C156.086 74.5103 150.101 75.3007 147.955 77.4462C145.81 79.5916 143.777 84.8988 143.777 84.8988L148.407 88.738C147.394 91.2848 147.158 94.0746 147.73 96.7553C148.746 100.933 148.746 111.096 148.746 114.258C148.746 117.419 148.633 127.243 148.633 127.243C148.633 127.243 148.859 136.051 149.649 143.052C150.44 150.053 152.585 154.457 152.585 154.457C152.585 154.457 152.133 161.571 152.472 165.523C152.811 169.475 150.101 185.51 150.101 185.51C150.101 185.51 154.843 186.187 156.763 186.187C157.635 186.231 158.509 186.155 159.36 185.961L162.748 170.491C162.748 170.491 173.136 189.688 173.588 190.139C174.04 190.591 179.347 187.316 180.024 186.074C180.402 185.457 180.634 184.762 180.702 184.042L168.507 154.231C168.507 154.231 173.927 138.648 175.959 134.47C177.992 130.292 178.443 123.291 177.879 119.226C177.569 116.886 177.039 114.58 176.298 112.338C176.298 112.338 173.475 101.498 173.475 99.3524C173.475 97.207 179.008 85.8022 179.234 82.0758C179.46 78.3495 175.846 74.0586 174.04 73.3811C172.233 72.7036 163.99 66.1543 162.07 67.6222C160.151 69.0902 160.264 71.5744 159.247 72.8165C158.231 74.0586 156.086 74.5103 156.086 74.5103Z" fill="#170658" stroke="#170658" stroke-width="0.451676" stroke-linecap="round" stroke-linejoin="round"/>
<path d="M165.749 117.627C165.749 117.627 169.146 118.815 174.412 118.815L174.241 120.685C174.241 120.685 168.821 121.363 164.729 118.643" stroke="#170658" stroke-width="0.451676" stroke-linecap="round" stroke-linejoin="round"/>
<path d="M150.802 116.778L148.932 119.493" stroke="#170658" stroke-width="0.451676" stroke-linecap="round" stroke-linejoin="round"/>
<path d="M151.818 117.966L148.932 121.195" stroke="#170658" stroke-width="0.451676" stroke-linecap="round" stroke-linejoin="round"/>
<path d="M157.914 127.641C158.23 126.43 158.443 125.604 158.443 125.441" stroke="#170658" stroke-width="0.451676" stroke-linecap="round" stroke-linejoin="round"/>
<path d="M152.926 152.65C152.926 152.65 154.62 140.568 155.749 135.938C156.309 133.634 156.982 131.137 157.51 129.163" stroke="#170658" stroke-width="0.451676" stroke-linecap="round" stroke-linejoin="round"/>
<path d="M163.477 167.723L163.201 169.588" stroke="#170658" stroke-width="0.451676" stroke-linecap="round" stroke-linejoin="round"/>
<path d="M167.942 155.473L164.216 162.7L163.746 165.87" stroke="#170658" stroke-width="0.451676" stroke-linecap="round" stroke-linejoin="round"/>
<path d="M167.604 96.981C167.604 96.981 167.717 85.5762 170.088 80.269C171.561 76.9718 172.771 74.5011 173.48 73.1054C170.937 71.6962 163.837 66.2716 162.071 67.6221C160.151 69.09 160.264 71.5742 159.248 72.8163C158.232 74.0584 156.086 74.5101 156.086 74.5101C156.086 74.5101 155.811 74.5463 155.364 74.623C154.871 75.8742 150.192 87.7442 149.763 90.2059C149.492 91.7334 149.378 93.2848 149.424 94.8355C149.424 94.8355 154.505 96.981 158.683 97.3197C161.661 97.4899 164.648 97.3765 167.604 96.981Z" fill="white" stroke="#170658" stroke-width="0.451676" stroke-linecap="round" stroke-linejoin="round"/>
<path d="M175.214 74.1174C173.051 77.1179 171.606 80.5746 170.991 84.2214C170.305 88.5933 169.927 93.0081 169.861 97.4329C169.861 97.4329 171.668 97.8214 173.683 98.2685C174.681 94.6822 179.035 85.3732 179.234 82.076C179.419 79.0497 177.088 75.6531 175.214 74.1174Z" fill="white" stroke="#170658" stroke-width="0.451676" stroke-linecap="round" stroke-linejoin="round"/>
<path d="M170.426 75.7524C170.593 73.9683 170.729 72.532 170.715 71.3621C167.576 69.316 163.371 66.6286 162.07 67.6222C160.151 69.0902 160.264 71.5744 159.247 72.8165C158.294 73.9818 156.343 74.4516 156.108 74.5058C155.873 77.3468 155.548 86.01 160.264 86.4797C165.909 87.0443 169.975 80.6079 170.426 75.7524Z" fill="white" stroke="#170658" stroke-width="0.451676" stroke-linecap="round" stroke-linejoin="round"/>
<path d="M145.924 52.0392C145.924 52.0392 144.23 55.6526 145.247 57.2335C146.263 58.8144 148.973 58.8144 148.973 58.8144C148.973 58.8144 152.699 66.6058 153.716 69.6546C154.517 72.1409 154.596 74.8039 153.941 77.3331C153.49 78.801 150.102 79.3656 150.102 79.3656C150.102 79.3656 149.425 80.269 152.248 80.4948C155.071 80.7206 155.635 79.2527 155.635 79.2527C155.265 79.9242 155.062 80.6746 155.043 81.4409C155.023 82.2072 155.187 82.967 155.522 83.6565C156.651 86.1408 158.458 85.4632 158.458 85.4632C158.458 85.4632 156.538 82.0757 159.136 79.7044C161.733 77.3331 159.926 71.5742 159.926 71.5742C159.926 71.5742 154.393 58.7015 152.248 55.7656C150.102 52.8297 148.973 51.4746 147.844 51.2488C146.715 51.023 145.924 52.0392 145.924 52.0392Z" fill="#170658" stroke="#170658" stroke-width="0.451676" stroke-linecap="round" stroke-linejoin="round"/>
<path d="M148.942 52.3555C148.942 52.3555 146.566 57.2155 147.356 60.034C148.147 62.8524 149.055 65.1379 149.055 65.1379C149.055 65.1379 148.716 68.0783 151.087 69.7721C153.459 71.4659 155.604 74.4108 158.215 74.4108C160.825 74.4108 162.962 68.9907 162.962 68.539C163.343 66.4036 163.304 64.2144 162.849 62.0936C162.058 58.7015 158.44 53.3853 155.048 52.2561C151.656 51.1269 149.281 51.136 148.942 52.3555Z" fill="white" stroke="#170658" stroke-width="0.451676" stroke-linecap="round" stroke-linejoin="round"/>
<path d="M150.861 60.8381C150.861 60.8381 152.668 61.5157 152.668 64.3431" stroke="#170658" stroke-width="0.451676" stroke-linecap="round" stroke-linejoin="round"/>
<path d="M153.011 67.848C153.011 67.848 152.786 68.2997 153.689 68.6385C154.592 68.9772 155.274 67.7351 155.274 67.7351" stroke="#170658" stroke-width="0.451676" stroke-linecap="round" stroke-linejoin="round"/>
<path d="M154.822 70.2193C154.822 70.2193 157.419 69.9935 158.436 67.9609" stroke="#170658" stroke-width="0.451676" stroke-linecap="round" stroke-linejoin="round"/>
<path d="M150.297 60.8378C150.098 60.746 149.88 60.7037 149.661 60.7145C149.443 60.7254 149.23 60.789 149.041 60.9C148.853 61.011 148.694 61.166 148.578 61.3518C148.462 61.5377 148.393 61.7487 148.377 61.967" stroke="#170658" stroke-width="0.451676" stroke-linecap="round" stroke-linejoin="round"/>
<path d="M153.801 60.0428C154.174 59.5514 154.685 59.1818 155.269 58.9809C155.853 58.7799 156.483 58.7565 157.08 58.9137" stroke="#170658" stroke-width="0.451676" stroke-linecap="round" stroke-linejoin="round"/>
<path d="M156.639 62.6539C156.801 63.0243 156.779 63.3902 156.594 63.4669C156.408 63.5437 156.142 63.3134 155.97 62.943C155.799 62.5726 155.835 62.2068 156.02 62.13C156.205 62.0532 156.481 62.2835 156.639 62.6539Z" fill="#170658"/>
<path d="M151.01 64.3745C151.168 64.7449 151.15 65.1108 150.965 65.1876C150.779 65.2643 150.513 65.034 150.341 64.6636C150.17 64.2932 150.206 63.9319 150.391 63.8506C150.576 63.7693 150.852 64.0087 151.01 64.3745Z" fill="#170658"/>
<path d="M173.363 88.0605L170.991 103.079C170.991 103.079 157.328 100.594 154.505 99.5782C151.682 98.5619 148.746 97.5457 148.746 97.5457L144.004 93.5935C143.326 93.0289 142.423 92.6901 140.616 92.8031C138.809 92.916 137.906 92.5772 136.325 93.4806C134.744 94.3839 133.954 95.0614 134.97 95.0614C135.986 95.0614 138.019 94.3839 138.019 94.3839L140.503 94.6098C140.503 94.6098 136.551 96.7552 137.003 97.7715C137.454 98.7878 138.471 100.482 138.471 100.482C138.471 100.482 138.697 102.853 138.471 103.53C138.245 104.208 138.584 104.208 139.261 103.079C139.608 102.557 139.875 101.986 140.052 101.385L142.875 100.594C142.875 100.594 146.375 102.062 146.94 102.062H148.746C148.746 102.062 160.942 107.031 163.2 108.273C165.458 109.515 169.298 111.096 172.008 111.322C174.718 111.548 176.299 113.016 177.202 111.435C178.105 109.854 182.283 91.2222 182.735 88.6251C183.014 86.9452 183.165 85.2465 183.187 83.5437C183.187 83.5437 181.267 81.5112 178.896 82.6404C176.524 83.7695 173.363 88.0605 173.363 88.0605Z" fill="white" stroke="#170658" stroke-width="0.451676" stroke-linecap="round" stroke-linejoin="round"/>
<path d="M138.471 100.482L142.613 98.0786" stroke="#170658" stroke-width="0.451676" stroke-linecap="round" stroke-linejoin="round"/>
<path d="M137.822 98.9775L141.643 95.9829" stroke="#170658" stroke-width="0.451676" stroke-linecap="round" stroke-linejoin="round"/>
<path d="M170.992 103.079C172.312 103.207 173.586 103.631 174.719 104.321L170.992 103.079Z" fill="white"/>
<path d="M170.992 103.079C172.312 103.207 173.586 103.631 174.719 104.321" stroke="#170658" stroke-width="0.451676" stroke-linecap="round" stroke-linejoin="round"/>
<path d="M174.831 74.1713C176.904 73.8969 179.003 74.4218 180.703 75.6392C183.413 77.6718 183.978 85.3502 183.978 85.3502C183.978 85.3502 181.832 83.8823 179.687 84.4469C177.541 85.0115 172.799 89.7541 172.799 89.7541L173.702 80.0431" fill="white"/>
<path d="M174.831 74.1713C176.904 73.8969 179.003 74.4218 180.703 75.6392C183.413 77.6718 183.978 85.3502 183.978 85.3502C183.978 85.3502 181.832 83.8823 179.687 84.4469C177.541 85.0115 172.799 89.7541 172.799 89.7541L173.702 80.0431" stroke="#170658" stroke-width="0.451676" stroke-linecap="round" stroke-linejoin="round"/>
<path d="M147.955 77.446C145.81 79.5915 143.777 84.8987 143.777 84.8987L148.407 88.7379L153.773 74.9392C151.849 75.3773 149.229 76.1723 147.955 77.446Z" fill="white" stroke="#170658" stroke-width="0.451676" stroke-linecap="round" stroke-linejoin="round"/>
<path d="M148.181 53.0557C148.181 53.0557 153.602 53.1686 155.634 56.782C157.667 60.3954 157.78 63.4442 160.038 65.7026C162.296 67.961 165.119 75.9782 165.119 79.7045C165.119 83.4308 162.861 85.1246 162.861 85.1246C162.861 85.1246 166.7 87.7218 172.911 84.2213C179.121 80.7208 175.508 74.1715 175.508 74.1715C175.508 74.1715 175.96 73.8327 177.879 74.2844C179.799 74.7361 181.605 76.317 181.605 76.317C181.416 74.8671 180.997 73.4568 180.363 72.139C179.347 70.1064 176.072 70.671 174.379 65.0251C172.685 59.3791 173.137 55.314 170.878 51.7006C168.62 48.0872 161.958 44.3609 158.231 43.6834C154.505 43.0059 145.81 49.8939 144.794 52.1523C143.778 54.4107 146.714 53.1686 146.714 53.1686" fill="#170658"/>
<path d="M148.181 53.0557C148.181 53.0557 153.602 53.1686 155.634 56.782C157.667 60.3954 157.78 63.4442 160.038 65.7026C162.296 67.961 165.119 75.9782 165.119 79.7045C165.119 83.4308 162.861 85.1246 162.861 85.1246C162.861 85.1246 166.7 87.7218 172.911 84.2213C179.121 80.7208 175.508 74.1715 175.508 74.1715C175.508 74.1715 175.96 73.8327 177.879 74.2844C179.799 74.7361 181.605 76.317 181.605 76.317C181.416 74.8671 180.997 73.4568 180.363 72.139C179.347 70.1064 176.072 70.671 174.379 65.0251C172.685 59.3791 173.137 55.314 170.878 51.7006C168.62 48.0872 161.958 44.3609 158.231 43.6834C154.505 43.0059 145.81 49.8939 144.794 52.1523C143.778 54.4107 146.714 53.1686 146.714 53.1686" stroke="#170658" stroke-width="0.451676" stroke-linecap="round" stroke-linejoin="round"/>
<path d="M116.568 205.663H4.55273" stroke="#170658" stroke-width="0.451676" stroke-miterlimit="10" stroke-linecap="round"/>
<path d="M214.581 205.663H119.277" stroke="#170658" stroke-width="0.451676" stroke-miterlimit="10" stroke-linecap="round"/>
</svg>
