<svg width="263" height="252" viewBox="0 0 263 252" fill="none" xmlns="http://www.w3.org/2000/svg">
<path d="M261.953 116.146C265.49 85.066 254.982 53.8592 232.927 31.689C222.073 20.8001 207.243 10.5114 187.537 5.54877C132.273 -8.36963 96.4496 4.39467 78.5438 38.2443C60.638 72.0939 9.25766 66.2715 1.06358 124.669C-7.1305 183.066 32.6108 247.28 99.9523 250.783C167.294 254.285 158.627 220.776 195.465 206.385C223.643 195.386 256.696 162.517 261.953 116.146Z" fill="#EAE4FC"/>
<path opacity="0.7" d="M261.953 116.146C265.49 85.066 254.982 53.8592 232.927 31.689C222.073 20.8001 207.243 10.5114 187.537 5.54877C132.273 -8.36963 96.4496 4.39467 78.5438 38.2443C60.638 72.0939 9.25766 66.2715 1.06358 124.669C-7.1305 183.066 32.6108 247.28 99.9523 250.783C167.294 254.285 158.627 220.776 195.465 206.385C223.643 195.386 256.696 162.517 261.953 116.146Z" fill="white"/>
<path d="M165.701 19.0425H95.0411C86.8506 19.0425 80.2109 25.6822 80.2109 33.8726V217.172C80.2109 225.362 86.8506 232.002 95.0411 232.002H165.701C173.891 232.002 180.531 225.362 180.531 217.172V33.8726C180.531 25.6822 173.891 19.0425 165.701 19.0425Z" fill="#EAE4FC" stroke="#170658" stroke-width="0.577048" stroke-linecap="round" stroke-linejoin="round"/>
<path d="M177.332 33.5063V216.829C177.332 218.339 177.034 219.835 176.456 221.231C175.877 222.627 175.03 223.895 173.961 224.963C172.893 226.031 171.624 226.878 170.228 227.456C168.832 228.033 167.336 228.33 165.825 228.329H95.5063C94.9831 228.331 94.4604 228.294 93.9425 228.22C91.188 227.844 88.6629 226.483 86.8348 224.389C85.0068 222.295 83.9997 219.609 84 216.829V33.5063C84 30.4547 85.2123 27.528 87.3701 25.3701C89.528 23.2123 92.4547 22 95.5063 22H97.5491C103.897 22 116.488 22.1154 116.505 22.1789C119.252 22.1789 120.92 22.6521 122.166 23.91C124.151 25.8951 126.471 28.6072 129.5 28.9246C132.668 29.2535 135.184 26.6856 137.244 24.6487C139.552 22.3405 142.657 22.0115 145.785 22.0115H165.825C168.875 22.0115 171.8 23.2222 173.958 25.3776C176.115 27.5329 177.329 30.4567 177.332 33.5063Z" fill="#F9F9FA" stroke="#170658" stroke-width="0.577048" stroke-linecap="round" stroke-linejoin="round"/>
<path d="M112.662 130.338H113.163V129.837V81.8136L147.208 80.5119L148.078 82.1263V130.688V131.227L148.616 131.187L164.298 130.017L164.946 130.709L131.908 170.89L97.0891 130.338H112.662Z" fill="#170658" stroke="#170658" stroke-width="1.00073"/>
<path d="M111.65 128.97H112.15V128.47V80.5H147.04V129.32V129.82H147.54H163.502L130.882 169.493L96.0883 128.97H111.65Z" fill="#8966F0" stroke="#170658"/>
</svg>
