<svg width="263" height="252" viewBox="0 0 263 252" fill="none" xmlns="http://www.w3.org/2000/svg">
<path d="M261.953 116.146C265.49 85.066 254.982 53.8592 232.927 31.689C222.073 20.8001 207.243 10.5114 187.537 5.54877C132.273 -8.36963 96.4496 4.39467 78.5438 38.2443C60.638 72.0939 9.25766 66.2715 1.06358 124.669C-7.1305 183.066 32.6108 247.28 99.9523 250.783C167.294 254.285 158.627 220.776 195.465 206.385C223.643 195.386 256.696 162.517 261.953 116.146Z" fill="#EAE4FC"/>
<path opacity="0.7" d="M261.953 116.146C265.49 85.066 254.982 53.8592 232.927 31.689C222.073 20.8001 207.243 10.5114 187.537 5.54877C132.273 -8.36963 96.4496 4.39467 78.5438 38.2443C60.638 72.0939 9.25766 66.2715 1.06358 124.669C-7.1305 183.066 32.6108 247.28 99.9523 250.783C167.294 254.285 158.627 220.776 195.465 206.385C223.643 195.386 256.696 162.517 261.953 116.146Z" fill="white"/>
<path d="M165.701 19.0425H95.0411C86.8506 19.0425 80.2109 25.6822 80.2109 33.8726V217.172C80.2109 225.362 86.8506 232.002 95.0411 232.002H165.701C173.891 232.002 180.531 225.362 180.531 217.172V33.8726C180.531 25.6822 173.891 19.0425 165.701 19.0425Z" fill="#EAE4FC" stroke="#170658" stroke-width="0.577048" stroke-linecap="round" stroke-linejoin="round"/>
<path d="M177.035 33.8613V217.184C177.035 218.694 176.737 220.19 176.159 221.586C175.581 222.982 174.733 224.25 173.664 225.318C172.596 226.386 171.327 227.233 169.931 227.81C168.535 228.388 167.039 228.685 165.529 228.684H95.2095C94.6862 228.686 94.1636 228.649 93.6456 228.575C90.8912 228.199 88.366 226.838 86.538 224.744C84.7099 222.65 83.7028 219.964 83.7031 217.184V33.8613C83.7031 30.8096 84.9154 27.883 87.0732 25.7251C89.2311 23.5673 92.1578 22.355 95.2095 22.355H97.2522C103.6 22.355 116.191 22.4704 116.208 22.5339C118.955 22.5339 120.623 23.007 121.869 24.265C123.854 26.2501 126.174 28.9622 129.203 29.2796C132.371 29.6085 134.887 27.0406 136.947 25.0036C139.256 22.6954 142.36 22.3665 145.488 22.3665H165.529C168.578 22.3665 171.503 23.5772 173.661 25.7326C175.818 27.8879 177.032 30.8116 177.035 33.8613Z" fill="#F9F9FA" stroke="#170658" stroke-width="0.577048" stroke-linecap="round" stroke-linejoin="round"/>
<path d="M180.496 80.3021V53.7983C180.977 53.7983 181.439 53.9891 181.779 54.3287C182.12 54.6683 182.312 55.1292 182.314 55.6103V78.4844C182.315 78.7234 182.268 78.9601 182.177 79.181C182.086 79.4018 181.952 79.6025 181.783 79.7715C181.614 79.9404 181.413 80.0743 181.193 80.1653C180.972 80.2564 180.735 80.3029 180.496 80.3021Z" fill="#EAE4FC" stroke="#170658" stroke-width="0.577048" stroke-linecap="round" stroke-linejoin="round"/>
<path d="M180.496 103.147V89.9214C180.978 89.9214 181.441 90.1129 181.781 90.4538C182.122 90.7947 182.314 91.257 182.314 91.7391V101.33C182.314 101.812 182.122 102.274 181.781 102.615C181.441 102.956 180.978 103.147 180.496 103.147Z" fill="#EAE4FC" stroke="#170658" stroke-width="0.577048" stroke-linecap="round" stroke-linejoin="round"/>
<path d="M131.341 99.5073L131.359 99.5208L131.378 99.5318L131.548 99.2334C131.378 99.5318 131.378 99.5318 131.378 99.5319L131.379 99.5322L131.381 99.5335L131.39 99.5384L131.424 99.5578L131.557 99.6337C131.675 99.7004 131.848 99.7987 132.072 99.925C132.518 100.177 133.163 100.542 133.96 100.99C135.554 101.886 137.753 103.117 140.175 104.454C144.912 107.068 150.511 110.096 154.1 111.828C154.075 111.969 154.04 112.166 153.995 112.413C153.897 112.955 153.754 113.739 153.575 114.706C153.216 116.642 152.713 119.313 152.132 122.255C150.969 128.143 149.499 135.101 148.264 139.424C147.053 143.664 144.095 146.94 140.753 149.552C138.09 151.633 135.213 153.272 132.81 154.64C132.259 154.954 131.732 155.254 131.239 155.542C130.741 155.251 130.208 154.948 129.65 154.629C127.251 153.262 124.376 151.624 121.717 149.547C118.37 146.933 115.411 143.657 114.214 139.425C112.993 135.108 111.524 128.149 110.359 122.26C109.777 119.317 109.272 116.645 108.912 114.708C108.732 113.74 108.589 112.956 108.49 112.413C108.445 112.166 108.409 111.969 108.384 111.828C111.977 110.096 117.574 107.068 122.308 104.454C124.729 103.117 126.927 101.886 128.519 100.99C129.316 100.542 129.961 100.177 130.407 99.9249C130.629 99.7987 130.803 99.7004 130.92 99.6337L131.054 99.5577L131.088 99.5383L131.097 99.5334L131.099 99.5322L131.099 99.5319C131.1 99.5318 131.1 99.5317 130.93 99.2334L131.1 99.5317L131.119 99.5207L131.137 99.5073L131.239 99.4302L131.341 99.5073Z" fill="#170658" stroke="#170658" stroke-width="0.68652"/>
<path d="M130.341 98.5073L130.359 98.5208L130.378 98.5318L130.548 98.2334C130.378 98.5318 130.378 98.5318 130.378 98.5319L130.379 98.5322L130.381 98.5335L130.39 98.5384L130.424 98.5578L130.557 98.6337C130.675 98.7004 130.848 98.7987 131.072 98.925C131.518 99.1775 132.163 99.542 132.96 99.9901C134.554 100.886 136.753 102.117 139.175 103.454C143.912 106.068 149.511 109.096 153.1 110.828C153.075 110.969 153.04 111.166 152.995 111.413C152.897 111.955 152.754 112.739 152.575 113.706C152.216 115.642 151.713 118.313 151.132 121.255C149.969 127.143 148.499 134.101 147.264 138.424C146.053 142.664 143.095 145.94 139.753 148.552C137.09 150.633 134.213 152.272 131.81 153.64C131.259 153.954 130.732 154.254 130.239 154.542C129.741 154.251 129.208 153.948 128.65 153.629C126.251 152.262 123.376 150.624 120.717 148.547C117.37 145.933 114.411 142.657 113.214 138.425C111.993 134.108 110.524 127.149 109.359 121.26C108.777 118.317 108.272 115.645 107.912 113.708C107.732 112.74 107.589 111.956 107.49 111.413C107.445 111.166 107.409 110.969 107.384 110.828C110.977 109.096 116.574 106.068 121.308 103.454C123.729 102.117 125.927 100.886 127.519 99.99C128.316 99.542 128.961 99.1774 129.407 98.9249C129.629 98.7987 129.803 98.7004 129.92 98.6337L130.054 98.5577L130.088 98.5383L130.097 98.5334L130.099 98.5322L130.099 98.5319C130.1 98.5318 130.1 98.5317 129.93 98.2334L130.1 98.5317L130.119 98.5207L130.137 98.5073L130.239 98.4302L130.341 98.5073Z" fill="#8966F0" stroke="#170658" stroke-width="0.68652"/>
<path d="M118.365 126.141L118.365 126.141C118.159 125.965 117.991 125.75 117.868 125.509C117.745 125.268 117.671 125.005 117.65 124.735C117.608 124.191 117.783 123.652 118.138 123.237C118.494 122.821 118.999 122.564 119.544 122.522C120.088 122.479 120.627 122.655 121.042 123.01C121.042 123.01 121.042 123.01 121.042 123.01L127.907 128.9L128.165 129.121L128.389 128.866L140.155 115.486L140.156 115.486C140.516 115.075 141.025 114.825 141.57 114.789C142.115 114.754 142.652 114.937 143.063 115.297C143.473 115.658 143.724 116.167 143.759 116.712C143.794 117.257 143.611 117.794 143.251 118.204C143.251 118.204 143.251 118.204 143.251 118.204L128.584 134.9L118.365 126.141Z" fill="white" stroke="#170658" stroke-width="0.68652"/>
</svg>
