<svg width="242" height="242" viewBox="0 0 242 242" fill="none" xmlns="http://www.w3.org/2000/svg">
<circle cx="121" cy="121" r="102" fill="#F6F4FD"/>
<circle cx="121" cy="121" r="89.5625" fill="#FBFAFE" stroke="#DED6FC" stroke-width="0.875"/>
<circle cx="121" cy="121" r="108.562" stroke="#DED6FC" stroke-width="0.875"/>
<circle cx="121" cy="121" r="120.562" stroke="#DED6FC" stroke-width="0.875"/>
<path d="M153.589 51.5791L153.59 51.5796C153.59 51.5798 153.591 51.58 153.591 51.5802C168.766 59.7712 187.281 69.7652 207.23 83.3773C207.223 83.5498 207.211 83.8034 207.192 84.1342C207.154 84.8132 207.086 85.8178 206.97 87.1154C206.738 89.7106 206.312 93.4776 205.537 98.1562C203.986 107.514 201.039 120.515 195.453 135.08C184.305 164.149 162.652 199.434 120.62 224.429C78.5881 199.434 56.9351 164.149 45.7869 135.08C40.2012 120.515 37.2539 107.514 35.7033 98.1562C34.928 93.4776 34.502 89.7106 34.2699 87.1154C34.1538 85.8178 34.0862 84.8132 34.0477 84.1342C34.0289 83.8034 34.0171 83.5498 34.0098 83.3773C53.963 69.7622 72.4794 59.7668 87.6555 51.5748L87.7377 51.5304C102.347 43.6445 113.922 37.3965 120.62 31.186C127.315 37.3976 138.892 43.6467 153.506 51.5345L153.589 51.5791Z" fill="#F6F4FD" stroke="#263238"/>
<path d="M120.5 42.5C105.173 53.3876 78.6093 63.7687 43.5 87.8094C43.5 87.8094 45.6937 169.06 120.5 213.5C195.306 169.08 197.5 87.8094 197.5 87.8094C162.381 63.7782 135.942 53.3876 120.5 42.5Z" fill="white" stroke="#263238" stroke-linecap="round" stroke-linejoin="round"/>
<circle cx="121" cy="121" r="49" fill="#F6F4FD"/>
<path d="M120.31 102.12L118.44 97.9902L113.44 98.8702L113.08 103.4C111.562 103.978 110.121 104.74 108.79 105.67L104.79 103.34L101.28 106.89L103.64 110.89C102.088 113.183 101.032 115.775 100.54 118.5L96 119.6V124.6L100.57 125.76C100.861 127.316 101.341 128.831 102 130.27L98.91 133.85L101.77 137.96L106.18 136.27C107.311 137.368 108.562 138.334 109.91 139.15L109.43 143.86L114.13 145.58L116.79 141.67C117.88 141.856 118.984 141.953 120.09 141.96C120.564 141.97 121.038 141.95 121.51 141.9L123.8 146.01L128.64 144.71L128.58 140.06C130.033 139.375 131.396 138.516 132.64 137.5L136.82 139.5L140.04 135.67L137.37 131.94C138.191 130.533 138.829 129.028 139.27 127.46L143.76 126.71L144.19 121.71L139.95 120.2C139.78 118.558 139.41 116.943 138.85 115.39L142.05 112.24L139.54 107.9L135.22 109.09C134.153 107.843 132.933 106.734 131.59 105.79L132.4 101.38L127.86 99.2602L125.01 102.72C123.473 102.331 121.895 102.13 120.31 102.12ZM120.22 113.69C121.873 113.69 123.49 114.181 124.865 115.099C126.239 116.018 127.311 117.323 127.944 118.851C128.576 120.379 128.742 122.06 128.419 123.681C128.097 125.303 127.301 126.792 126.131 127.962C124.962 129.131 123.473 129.927 121.851 130.25C120.229 130.572 118.548 130.407 117.021 129.774C115.493 129.141 114.188 128.07 113.269 126.695C112.35 125.32 111.86 123.704 111.86 122.05C111.86 119.833 112.741 117.707 114.309 116.139C115.876 114.571 118.003 113.69 120.22 113.69Z" fill="#263238"/>
<path d="M122.08 99.13L120.2 95L115.2 95.87L114.85 100.41C113.33 100.99 111.886 101.752 110.55 102.68L106.6 100.35L103.08 103.9L105.45 107.9C103.899 110.195 102.84 112.786 102.34 115.51L97.7998 116.61V121.61L102.38 122.77C102.671 124.326 103.151 125.841 103.81 127.28L100.75 130.84L103.62 134.95L108.02 133.26C109.153 134.355 110.404 135.321 111.75 136.14L111.27 140.85L115.97 142.57L118.63 138.66C119.72 138.847 120.824 138.944 121.93 138.95C122.401 138.96 122.872 138.94 123.34 138.89L125.63 143L130.48 141.7L130.42 137.05C131.871 136.363 133.234 135.503 134.48 134.49L138.66 136.49L141.87 132.66L139.21 128.93C140.025 127.522 140.66 126.017 141.1 124.45L145.6 123.7L146.03 118.7L141.75 117.21C141.581 115.567 141.208 113.951 140.64 112.4L143.85 109.25L141.34 104.91L137.02 106.1C135.949 104.849 134.726 103.737 133.38 102.79L134.2 98.39L129.66 96.27L126.81 99.73C125.263 99.3388 123.675 99.1373 122.08 99.13ZM121.99 110.7C123.643 110.7 125.26 111.19 126.634 112.109C128.009 113.028 129.081 114.333 129.713 115.861C130.346 117.388 130.512 119.069 130.189 120.691C129.867 122.313 129.07 123.802 127.901 124.971C126.732 126.141 125.242 126.937 123.621 127.259C121.999 127.582 120.318 127.416 118.791 126.784C117.263 126.151 115.957 125.079 115.039 123.705C114.12 122.33 113.63 120.713 113.63 119.06C113.63 117.962 113.846 116.875 114.266 115.861C114.686 114.846 115.302 113.925 116.078 113.149C116.855 112.372 117.776 111.756 118.791 111.336C119.805 110.916 120.892 110.7 121.99 110.7Z" fill="#AC96FA" stroke="#263238" stroke-miterlimit="10"/>
<path d="M121.92 131.81C128.995 131.81 134.73 126.075 134.73 119C134.73 111.925 128.995 106.19 121.92 106.19C114.845 106.19 109.11 111.925 109.11 119C109.11 126.075 114.845 131.81 121.92 131.81Z" stroke="#263238" stroke-miterlimit="10"/>
</svg>
