<svg width="263" height="277" viewBox="0 0 263 277" fill="none" xmlns="http://www.w3.org/2000/svg">
<path d="M261.953 116.146C265.49 85.066 254.982 53.8592 232.927 31.689C222.073 20.8001 207.243 10.5114 187.537 5.54877C132.273 -8.36963 96.4496 4.39467 78.5438 38.2443C60.638 72.0939 9.25766 66.2715 1.06358 124.669C-7.1305 183.066 32.6108 247.28 99.9523 250.783C167.294 254.285 158.627 220.776 195.465 206.385C223.643 195.386 256.696 162.517 261.953 116.146Z" fill="#EAE4FC"/>
<path opacity="0.7" d="M261.953 116.146C265.49 85.066 254.982 53.8592 232.927 31.689C222.073 20.8001 207.243 10.5114 187.537 5.54877C132.273 -8.36963 96.4496 4.39467 78.5438 38.2443C60.638 72.0939 9.25766 66.2715 1.06358 124.669C-7.1305 183.066 32.6108 247.28 99.9523 250.783C167.294 254.285 158.627 220.776 195.465 206.385C223.643 195.386 256.696 162.517 261.953 116.146Z" fill="white"/>
<path d="M165.701 19.0425H95.0411C86.8506 19.0425 80.2109 25.6822 80.2109 33.8726V217.172C80.2109 225.362 86.8506 232.002 95.0411 232.002H165.701C173.891 232.002 180.531 225.362 180.531 217.172V33.8726C180.531 25.6822 173.891 19.0425 165.701 19.0425Z" fill="#EAE4FC" stroke="#170658" stroke-width="0.577048" stroke-linecap="round" stroke-linejoin="round"/>
<path d="M177.332 33.5063V216.829C177.332 218.339 177.034 219.835 176.456 221.231C175.877 222.627 175.03 223.895 173.961 224.963C172.893 226.031 171.624 226.878 170.228 227.456C168.832 228.033 167.336 228.33 165.825 228.329H95.5063C94.9831 228.331 94.4604 228.294 93.9425 228.22C91.188 227.844 88.6629 226.483 86.8348 224.389C85.0068 222.295 83.9997 219.609 84 216.829V33.5063C84 30.4547 85.2123 27.528 87.3701 25.3701C89.528 23.2123 92.4547 22 95.5063 22H97.5491C103.897 22 116.488 22.1154 116.505 22.1789C119.252 22.1789 120.92 22.6521 122.166 23.91C124.151 25.8951 126.471 28.6072 129.5 28.9246C132.668 29.2535 135.184 26.6856 137.244 24.6487C139.552 22.3405 142.657 22.0115 145.785 22.0115H165.825C168.875 22.0115 171.8 23.2222 173.958 25.3776C176.115 27.5329 177.329 30.4567 177.332 33.5063Z" fill="#F9F9FA" stroke="#170658" stroke-width="0.577048" stroke-linecap="round" stroke-linejoin="round"/>
<path d="M180.496 80.3021V53.7983C180.977 53.7983 181.439 53.9891 181.779 54.3287C182.12 54.6683 182.312 55.1292 182.314 55.6103V78.4844C182.315 78.7234 182.268 78.9601 182.177 79.181C182.086 79.4018 181.952 79.6025 181.783 79.7715C181.614 79.9404 181.413 80.0743 181.193 80.1653C180.972 80.2564 180.735 80.3029 180.496 80.3021Z" fill="#EAE4FC" stroke="#170658" stroke-width="0.577048" stroke-linecap="round" stroke-linejoin="round"/>
<path d="M180.496 103.147V89.9214C180.978 89.9214 181.441 90.1129 181.781 90.4538C182.122 90.7947 182.314 91.257 182.314 91.7391V101.33C182.314 101.812 182.122 102.274 181.781 102.615C181.441 102.956 180.978 103.147 180.496 103.147Z" fill="#EAE4FC" stroke="#170658" stroke-width="0.577048" stroke-linecap="round" stroke-linejoin="round"/>
<path d="M103.816 159.582H159.184" stroke="#170658" stroke-width="0.604185" stroke-linecap="round" stroke-linejoin="round"/>
<path d="M103.816 166.868H159.184" stroke="#170658" stroke-width="0.604185" stroke-linecap="round" stroke-linejoin="round"/>
<path d="M103.816 174.154H159.184" stroke="#170658" stroke-width="0.604185" stroke-linecap="round" stroke-linejoin="round"/>
<path d="M108.928 91.9312C105.448 96.9729 103.758 103.035 104.128 109.15C104.498 115.265 106.907 121.079 110.969 125.664C115.031 130.25 120.513 133.341 126.538 134.446C132.564 135.55 138.786 134.604 144.21 131.757C149.634 128.91 153.948 124.328 156.463 118.742C158.978 113.156 159.548 106.888 158.082 100.94C156.617 94.9923 153.2 89.7069 148.378 85.9284C143.557 82.1498 137.608 80.0961 131.482 80.0952C129.802 80.0953 128.126 80.247 126.473 80.5484" stroke="#170658" stroke-width="0.604185" stroke-linecap="round" stroke-linejoin="round"/>
<path d="M113.598 86.7529C112.677 87.5497 111.81 88.4054 111 89.3147" stroke="#170658" stroke-width="0.604185" stroke-linecap="round" stroke-linejoin="round"/>
<path d="M152.89 116.61C157.921 104.797 152.423 91.1415 140.61 86.1101C128.797 81.0786 115.142 86.5763 110.11 98.3896C105.079 110.203 110.577 123.858 122.39 128.89C134.203 133.921 147.858 128.423 152.89 116.61Z" fill="#8966F0"/>
<path d="M120.764 105.084L129.585 115.108L144.013 94.668" stroke="white" stroke-width="3.62511" stroke-linecap="round" stroke-linejoin="round"/>
<path d="M37.0208 146.225L23.9408 263.225C23.9408 263.225 14.3508 271.565 15.1908 274.935C16.0308 278.305 27.1008 272.935 28.6308 270.155C29.7166 267.841 30.49 265.393 30.9308 262.875L58.4708 174.875L79.6508 269.245C79.6508 269.245 88.6508 276.635 93.6508 276.385C98.6508 276.135 96.8708 274.165 94.0208 270.555C91.1708 266.945 84.7208 264.885 84.7208 264.885L81.5408 143.255L37.0208 146.225Z" fill="#170658" stroke="#170658" stroke-linecap="round" stroke-linejoin="round"/>
<path d="M80.8222 141.208L36.8789 143.442L37.1835 149.434L81.1268 147.2L80.8222 141.208Z" fill="#170658" stroke="#170658" stroke-linecap="round" stroke-linejoin="round"/>
<path d="M64.1395 145.015C64.2094 146.505 62.3195 147.805 59.8995 147.935C57.4795 148.065 55.4395 146.965 55.4395 145.465C55.4395 143.965 57.2695 142.675 59.6795 142.555C62.0895 142.435 64.0595 143.535 64.1395 145.015Z" fill="white"/>
<path d="M56.6098 83.5352L40.0898 88.3752L42.1398 143.595L80.8898 142.635L75.9899 85.5551L56.6098 83.5352Z" fill="white" stroke="#170658" stroke-linecap="round" stroke-linejoin="round"/>
<path d="M49.3791 84.1548L47.1591 178.385L26.1191 168.195L35.3691 138.435L29.0591 88.1848L49.3791 84.1548Z" fill="#EAE4FC" stroke="#170658" stroke-linecap="round" stroke-linejoin="round"/>
<path d="M66.1094 83.3047L77.8694 176.825L97.7794 164.555L85.5594 135.885L86.7394 85.2547L66.1094 83.3047Z" fill="#EAE4FC" stroke="#170658" stroke-linecap="round" stroke-linejoin="round"/>
<path d="M53.5898 94.7048L56.8698 100.045L54.2498 137.225L60.4698 144.585L63.6898 135.745L58.7099 100.115L61.7798 94.9548L57.3199 89.1748L53.5898 94.7048Z" fill="#170658" stroke="#170658" stroke-linecap="round" stroke-linejoin="round"/>
<path d="M57.65 93.9948L51.46 98.6548L46.5 86.5548L49.29 82.2348L64.44 81.4648L68.02 86.2948L65.07 97.2948L57.65 93.9948Z" fill="white" stroke="#170658" stroke-linecap="round" stroke-linejoin="round"/>
<path d="M50.5508 77.5851L51.9408 85.2751L57.6508 93.9951L62.8808 83.7151L62.5508 77.2251L50.5508 77.5851Z" fill="white" stroke="#170658" stroke-linecap="round" stroke-linejoin="round"/>
<path d="M29.06 88.1851L1 122.155L19.65 144.235L27.16 139.355L17.94 120.545L31.7 110.585L29.06 88.1851Z" fill="#EAE4FC" stroke="#170658" stroke-linecap="round" stroke-linejoin="round"/>
<path d="M27.1594 139.355L28.2794 141.795L21.9594 145.375L21.1094 143.415L27.1594 139.355Z" fill="white" stroke="#170658" stroke-linecap="round" stroke-linejoin="round"/>
<path d="M28.2798 141.795L34.7198 150.235L32.5998 152.845L31.0598 152.175L27.9398 154.835C27.9398 154.835 25.6598 154.195 25.3698 153.465C25.0798 152.735 21.9898 150.875 21.9198 149.635C21.8498 148.395 21.9198 145.375 21.9198 145.375L28.2798 141.795Z" fill="white" stroke="#170658" stroke-linecap="round" stroke-linejoin="round"/>
<path d="M102.37 91.8847C102.75 90.8933 102.834 89.8127 102.61 88.7747C102.15 87.5847 101.13 83.4647 101.33 82.1047C101.53 80.7447 103.59 78.7647 103.77 77.0047C103.95 75.2447 103.77 73.6347 103.77 72.6847C103.787 72.4247 103.887 72.177 104.056 71.9784C104.224 71.7798 104.453 71.641 104.707 71.5826C104.961 71.5241 105.227 71.5492 105.465 71.6541C105.704 71.759 105.902 71.9381 106.03 72.1647C107.03 73.3247 107.63 74.5147 107.15 75.7447C106.823 77.1202 106.669 78.5311 106.69 79.9447C106.69 79.9447 108.29 82.1547 109.17 83.5947C110.05 85.0347 109.97 88.8047 109.38 90.3147C108.83 91.4582 108.055 92.4787 107.1 93.3147L107.2 95.9147L102.37 91.8847Z" fill="white" stroke="#170658" stroke-linecap="round" stroke-linejoin="round"/>
<path d="M105.29 77.8651C105.29 77.8651 104.59 79.9251 105.82 80.3951C107.05 80.8651 112.08 81.5651 112.13 79.9451C112.18 78.3251 112.28 77.5151 111.47 77.5551C110.66 77.5951 106.89 77.5551 106.89 77.5551C106.89 77.5551 105.14 77.4651 105.29 77.8651Z" fill="white" stroke="#170658" stroke-linecap="round" stroke-linejoin="round"/>
<path d="M105.861 87.9648C105.861 87.9648 105.361 89.4948 106.251 89.8448C107.141 90.1948 110.761 90.7248 110.791 89.5148C110.821 88.3048 110.891 87.7048 110.311 87.7348C109.731 87.7648 107.011 87.7348 107.011 87.7348C107.011 87.7348 105.751 87.6448 105.861 87.9648Z" fill="white" stroke="#170658" stroke-linecap="round" stroke-linejoin="round"/>
<path d="M105.19 84.6949C105.19 84.6949 104.61 86.4749 105.64 86.8849C106.67 87.2949 110.86 87.8849 110.9 86.5049C110.94 85.1249 111.02 84.405 110.34 84.435C109.66 84.465 106.52 84.435 106.52 84.435C106.52 84.435 105.06 84.3549 105.19 84.6949Z" fill="white" stroke="#170658" stroke-linecap="round" stroke-linejoin="round"/>
<path d="M104.8 81.5248C104.8 81.5248 104.1 83.5848 105.34 84.0548C106.58 84.5248 111.59 85.2248 111.64 83.6048C111.69 81.9848 111.79 81.1748 110.98 81.2148C110.17 81.2548 106.4 81.2148 106.4 81.2148C106.4 81.2148 104.65 81.1348 104.8 81.5248Z" fill="white" stroke="#170658" stroke-linecap="round" stroke-linejoin="round"/>
<path d="M101.801 93.9349L102.581 90.7949L108.001 94.0249L107.091 97.4349L101.801 93.9349Z" fill="white" stroke="#170658" stroke-linecap="round" stroke-linejoin="round"/>
<path d="M86.7409 85.2549L97.1209 107.345L102.221 93.1349L107.221 97.8949L102.101 124.235C101.941 125.046 101.548 125.792 100.97 126.383C100.391 126.973 99.653 127.382 98.8456 127.558C98.0381 127.735 97.1966 127.671 96.4247 127.376C95.6528 127.08 94.9842 126.565 94.5009 125.895L86.2109 114.325L86.7409 85.2549Z" fill="#EAE4FC" stroke="#170658" stroke-linecap="round" stroke-linejoin="round"/>
<path d="M45.7208 68.6051C45.7208 68.6051 43.6208 66.3651 43.3508 68.0051C43.0808 69.6451 43.9308 72.4751 45.2508 73.4851C46.5708 74.4951 47.7308 72.8251 47.7308 72.8251L45.7208 68.6051Z" fill="white" stroke="#170658" stroke-linecap="round" stroke-linejoin="round"/>
<path d="M65.5702 67.5948C65.5702 67.5948 67.4202 65.1548 67.8702 66.7548C68.3202 68.3548 67.7402 71.2648 66.5302 72.4048C65.3202 73.5448 63.9902 71.9948 63.9902 71.9948L65.5702 67.5948Z" fill="white" stroke="#170658" stroke-linecap="round" stroke-linejoin="round"/>
<path d="M46.5601 70.9049L44.5601 66.6749C42.9504 64.4093 41.8362 61.8299 41.2901 59.1049C40.2901 54.4649 41.9401 50.6049 44.0401 49.4149C45.2203 48.7085 46.6138 48.4461 47.9701 48.6749C47.9701 48.6749 48.3701 45.9549 54.9701 43.6749C61.5701 41.3949 68.7501 45.5049 68.6401 46.9449C68.5301 48.3849 66.7701 49.0249 66.7701 49.0249C66.7701 49.0249 71.9101 50.9249 70.0501 53.3549C68.9031 54.8393 67.4187 56.0289 65.7201 56.8249C66.0929 58.0503 66.3967 59.2955 66.6301 60.5549C66.8901 62.1649 65.4401 69.0849 65.4401 69.0849L61.8901 59.3549L50.7501 59.9249C50.7501 59.9249 50.0901 64.6449 48.9101 66.3249C48.1569 67.6001 47.7373 69.0446 47.6901 70.5249C47.6901 70.5249 47.1701 72.3049 46.5601 70.9049Z" fill="#170658" stroke="#170658" stroke-linecap="round" stroke-linejoin="round"/>
<path d="M48.5399 53.3247C48.5208 56.2287 48.3103 59.1284 47.9099 62.0047C47.6689 63.6052 46.8421 65.0592 45.5898 66.0847C45.5898 66.0847 47.0098 72.6747 48.8098 76.1847C50.6098 79.6947 54.3498 82.5747 58.1198 82.1847C61.8898 81.7947 64.8999 77.5147 65.2599 73.8947C65.6199 70.2747 63.8499 56.8947 63.8499 56.8947C63.8499 56.8947 52.0699 58.9647 48.5399 53.3247Z" fill="white" stroke="#170658" stroke-linecap="round" stroke-linejoin="round"/>
<path d="M49.5391 66.8549C50.1395 66.4995 50.8175 66.2956 51.5143 66.2607C52.2112 66.2259 52.9061 66.3612 53.5391 66.6549" stroke="#170658" stroke-linecap="round" stroke-linejoin="round"/>
<path d="M49.3809 63.8548C49.3809 63.8548 49.6109 61.8548 52.9509 61.6748" stroke="#170658" stroke-linecap="round" stroke-linejoin="round"/>
<path d="M58.2695 61.2349C59.0253 60.9253 59.8603 60.866 60.6522 61.0658C61.4441 61.2655 62.1511 61.7138 62.6695 62.3449" stroke="#170658" stroke-linecap="round" stroke-linejoin="round"/>
<path d="M57.1008 64.4648C57.1008 64.4648 57.6308 68.4648 57.6608 68.9548C57.6908 69.4448 59.3608 69.5348 58.9108 70.5548C58.4608 71.5748 57.0108 72.6548 55.8008 71.8848" stroke="#170658" stroke-linecap="round" stroke-linejoin="round"/>
<path d="M58.9804 75.2349C58.9804 75.2349 57.7104 76.4649 55.1504 75.4249" stroke="#170658" stroke-linecap="round" stroke-linejoin="round"/>
<path d="M61.5091 65.7447C61.5091 66.4847 61.1991 67.1047 60.7391 67.1247C60.2791 67.1447 59.8791 66.5647 59.8391 65.8347C59.7991 65.1047 60.1491 64.4847 60.6091 64.4547C61.0691 64.4247 61.4391 65.0147 61.5091 65.7447Z" fill="#170658"/>
</svg>
