<svg width="263" height="252" viewBox="0 0 263 252" fill="none" xmlns="http://www.w3.org/2000/svg">
<path d="M261.953 116.146C265.49 85.066 254.982 53.8592 232.927 31.689C222.073 20.8001 207.243 10.5114 187.537 5.54877C132.273 -8.36963 96.4496 4.39467 78.5438 38.2443C60.638 72.0939 9.25766 66.2715 1.06358 124.669C-7.1305 183.066 32.6108 247.28 99.9523 250.783C167.294 254.285 158.627 220.776 195.465 206.385C223.643 195.386 256.696 162.517 261.953 116.146Z" fill="#EAE4FC"/>
<path opacity="0.7" d="M261.953 116.146C265.49 85.066 254.982 53.8592 232.927 31.689C222.073 20.8001 207.243 10.5114 187.537 5.54877C132.273 -8.36963 96.4496 4.39467 78.5438 38.2443C60.638 72.0939 9.25766 66.2715 1.06358 124.669C-7.1305 183.066 32.6108 247.28 99.9523 250.783C167.294 254.285 158.627 220.776 195.465 206.385C223.643 195.386 256.696 162.517 261.953 116.146Z" fill="white"/>
<path d="M165.701 19.0426H95.0411C86.8506 19.0426 80.2109 25.6823 80.2109 33.8727V217.172C80.2109 225.362 86.8506 232.002 95.0411 232.002H165.701C173.891 232.002 180.531 225.362 180.531 217.172V33.8727C180.531 25.6823 173.891 19.0426 165.701 19.0426Z" fill="#EAE4FC" stroke="#170658" stroke-width="0.577048" stroke-linecap="round" stroke-linejoin="round"/>
<path d="M177.035 33.8612V217.184C177.035 218.694 176.737 220.19 176.159 221.586C175.581 222.982 174.733 224.25 173.664 225.318C172.596 226.386 171.327 227.233 169.931 227.81C168.535 228.388 167.039 228.685 165.529 228.684H95.2095C94.6862 228.686 94.1636 228.649 93.6456 228.574C90.8912 228.199 88.366 226.838 86.538 224.744C84.7099 222.649 83.7028 219.964 83.7031 217.184V33.8612C83.7031 30.8095 84.9154 27.8828 87.0732 25.725C89.2311 23.5671 92.1578 22.3549 95.2095 22.3549H97.2522C103.6 22.3549 116.191 22.4703 116.208 22.5337C118.955 22.5337 120.623 23.0069 121.869 24.2649C123.854 26.2499 126.174 28.9621 129.203 29.2794C132.371 29.6084 134.887 27.0405 136.947 25.0035C139.256 22.6953 142.36 22.3664 145.488 22.3664H165.529C168.578 22.3664 171.503 23.5771 173.661 25.7324C175.818 27.8878 177.032 30.8115 177.035 33.8612Z" fill="#F9F9FA" stroke="#170658" stroke-width="0.577048" stroke-linecap="round" stroke-linejoin="round"/>
<path d="M180.496 80.302V53.7982C180.977 53.7982 181.439 53.9889 181.779 54.3286C182.12 54.6682 182.312 55.1291 182.314 55.6101V78.4843C182.315 78.7232 182.268 78.96 182.177 79.1808C182.086 79.4017 181.952 79.6024 181.783 79.7713C181.614 79.9403 181.413 80.0741 181.193 80.1652C180.972 80.2563 180.735 80.3028 180.496 80.302Z" fill="#EAE4FC" stroke="#170658" stroke-width="0.577048" stroke-linecap="round" stroke-linejoin="round"/>
<path d="M180.496 103.147V89.9214C180.978 89.9214 181.441 90.1129 181.781 90.4538C182.122 90.7947 182.314 91.257 182.314 91.7391V101.33C182.314 101.812 182.122 102.274 181.781 102.615C181.441 102.956 180.978 103.147 180.496 103.147Z" fill="#EAE4FC" stroke="#170658" stroke-width="0.577048" stroke-linecap="round" stroke-linejoin="round"/>
<path d="M143.726 108.013C151.276 100.463 151.276 88.2213 143.726 80.671C136.176 73.1207 123.934 73.1207 116.384 80.671C108.834 88.2213 108.834 100.463 116.384 108.013C123.934 115.563 136.176 115.563 143.726 108.013Z" fill="#8966F0"/>
<path d="M155.439 223.813H104.678C104.564 223.814 104.451 223.792 104.345 223.749C104.239 223.706 104.143 223.642 104.062 223.561C103.981 223.481 103.917 223.385 103.873 223.28C103.829 223.174 103.807 223.061 103.807 222.947C103.806 222.832 103.828 222.718 103.872 222.612C103.915 222.506 103.979 222.41 104.06 222.329C104.142 222.248 104.238 222.184 104.344 222.14C104.45 222.096 104.564 222.074 104.678 222.075H155.439C155.553 222.075 155.666 222.098 155.772 222.141C155.877 222.185 155.973 222.25 156.054 222.331C156.134 222.412 156.198 222.508 156.241 222.613C156.284 222.719 156.306 222.832 156.306 222.947C156.306 223.177 156.214 223.397 156.052 223.56C155.889 223.722 155.669 223.813 155.439 223.813Z" fill="#8966F0"/>
<path d="M157.092 124.545H103.021C101.905 124.545 101 125.449 101 126.565V132.939C101 134.055 101.905 134.96 103.021 134.96H157.092C158.208 134.96 159.112 134.055 159.112 132.939V126.565C159.112 125.449 158.208 124.545 157.092 124.545Z" fill="#EAE4FC"/>
<path d="M157.092 144.024H103.021C101.905 144.024 101 144.929 101 146.045V152.419C101 153.535 101.905 154.44 103.021 154.44H157.092C158.208 154.44 159.112 153.535 159.112 152.419V146.045C159.112 144.929 158.208 144.024 157.092 144.024Z" fill="#EAE4FC"/>
<path d="M139.682 103.986L133.993 100.711V98.0052C134.817 97.0087 135.414 95.8446 135.742 94.594C135.938 94.6635 136.144 94.6993 136.352 94.6998C137.057 94.6998 137.505 92.513 137.581 90.9509C138.402 89.2126 137.284 88.1947 137.284 88.1947C137.284 88.1947 137.747 87.7312 138.055 85.8719C138.362 84.0125 136.971 84.7885 135.888 83.0854C134.805 81.3823 134.029 79.528 130.471 79.528C129.491 79.4958 128.524 79.7592 127.695 80.284C126.867 80.8088 126.215 81.5707 125.826 82.4707C124.94 82.4739 124.058 82.577 123.195 82.778C122.107 83.0854 121.8 86.6478 122.727 88.0436C123.142 88.8063 123.363 89.6593 123.372 90.5277C123.125 90.2254 122.868 90.1447 122.727 90.83C122.419 92.3769 123.659 94.5436 123.659 94.5436L124.299 94.3622C124.621 95.6987 125.243 96.9444 126.118 98.0052V100.711L120.429 103.986C119.765 104.37 119.213 104.921 118.829 105.586C118.445 106.25 118.243 107.003 118.242 107.77V109.645C121.626 112.259 125.78 113.676 130.056 113.676C134.331 113.676 138.486 112.259 141.869 109.645V107.77C141.869 107.003 141.667 106.249 141.284 105.585C140.9 104.92 140.347 104.369 139.682 103.986Z" fill="#263238"/>
<path d="M108.36 151.85C108.23 151.848 108.105 151.795 108.013 151.704C107.963 151.659 107.924 151.605 107.897 151.544C107.87 151.483 107.856 151.417 107.856 151.351C107.858 151.26 107.884 151.171 107.932 151.094L108.839 149.643L107.07 149.698C107.004 149.702 106.937 149.692 106.874 149.669C106.812 149.645 106.755 149.609 106.708 149.562C106.625 149.47 106.58 149.351 106.58 149.227C106.58 149.103 106.625 148.984 106.708 148.892C106.754 148.843 106.811 148.805 106.873 148.781C106.936 148.757 107.003 148.746 107.07 148.751L108.814 148.816L107.917 147.37C107.868 147.291 107.842 147.201 107.841 147.108C107.841 147.042 107.855 146.976 107.881 146.915C107.908 146.854 107.948 146.8 107.998 146.755C108.09 146.664 108.215 146.611 108.345 146.609C108.431 146.61 108.515 146.635 108.587 146.681C108.66 146.728 108.717 146.794 108.753 146.871L109.615 148.428L110.467 146.881C110.507 146.799 110.569 146.729 110.646 146.679C110.724 146.63 110.813 146.602 110.905 146.599C110.969 146.6 111.032 146.613 111.09 146.639C111.148 146.665 111.2 146.703 111.243 146.75C111.335 146.846 111.386 146.975 111.384 147.108C111.383 147.195 111.361 147.28 111.318 147.355L110.406 148.816L112.175 148.751C112.242 148.746 112.309 148.757 112.372 148.781C112.435 148.805 112.491 148.843 112.538 148.892C112.623 148.981 112.67 149.101 112.669 149.224C112.668 149.349 112.622 149.47 112.538 149.562C112.49 149.609 112.433 149.645 112.371 149.669C112.308 149.692 112.241 149.702 112.175 149.698L110.396 149.643L111.283 151.079C111.333 151.159 111.359 151.251 111.358 151.346C111.358 151.479 111.305 151.608 111.211 151.702C111.116 151.797 110.988 151.85 110.855 151.85C110.768 151.849 110.684 151.822 110.612 151.774C110.541 151.725 110.485 151.657 110.451 151.578L109.61 150.066L108.774 151.578C108.736 151.657 108.678 151.724 108.605 151.772C108.532 151.82 108.448 151.847 108.36 151.85Z" fill="#263238"/>
<path d="M116.534 151.85C116.403 151.848 116.279 151.795 116.186 151.704C116.137 151.659 116.097 151.605 116.07 151.544C116.043 151.483 116.029 151.417 116.03 151.351C116.031 151.26 116.058 151.171 116.105 151.094L117.012 149.643L115.249 149.698C115.182 149.701 115.114 149.691 115.051 149.667C114.988 149.644 114.93 149.608 114.881 149.562C114.814 149.493 114.77 149.406 114.753 149.311C114.737 149.216 114.749 149.119 114.789 149.031C114.829 148.944 114.894 148.87 114.976 148.82C115.058 148.77 115.153 148.746 115.249 148.751L116.987 148.816L116.09 147.37C116.042 147.291 116.015 147.201 116.015 147.108C116.014 147.042 116.028 146.976 116.055 146.915C116.082 146.854 116.121 146.8 116.171 146.755C116.264 146.664 116.388 146.611 116.519 146.609C116.605 146.61 116.688 146.635 116.761 146.681C116.833 146.728 116.891 146.794 116.927 146.871L117.788 148.428L118.64 146.881C118.68 146.799 118.743 146.729 118.82 146.679C118.897 146.63 118.987 146.602 119.078 146.599C119.142 146.599 119.205 146.612 119.263 146.638C119.322 146.664 119.374 146.703 119.416 146.75C119.463 146.798 119.5 146.853 119.525 146.915C119.55 146.976 119.562 147.042 119.562 147.108C119.56 147.195 119.536 147.28 119.492 147.355L118.58 148.816L120.353 148.761C120.42 148.756 120.486 148.767 120.548 148.791C120.61 148.816 120.666 148.853 120.711 148.902C120.797 148.991 120.844 149.111 120.842 149.235C120.842 149.359 120.795 149.48 120.711 149.572C120.664 149.619 120.608 149.655 120.547 149.679C120.485 149.702 120.419 149.712 120.353 149.708L118.569 149.653L119.456 151.089C119.506 151.169 119.532 151.262 119.532 151.356C119.532 151.489 119.479 151.618 119.384 151.712C119.29 151.807 119.162 151.86 119.028 151.86C118.942 151.859 118.857 151.832 118.786 151.784C118.714 151.736 118.658 151.667 118.625 151.588L117.783 150.076L116.947 151.588C116.908 151.665 116.85 151.73 116.777 151.776C116.704 151.822 116.62 151.848 116.534 151.85Z" fill="#263238"/>
<path d="M124.712 151.85C124.579 151.849 124.453 151.797 124.359 151.704C124.309 151.659 124.27 151.605 124.243 151.544C124.216 151.483 124.202 151.417 124.203 151.351C124.204 151.26 124.23 151.171 124.278 151.094L125.185 149.643L123.422 149.698C123.327 149.702 123.233 149.677 123.152 149.628C123.071 149.578 123.006 149.505 122.967 149.418C122.928 149.332 122.915 149.236 122.93 149.142C122.946 149.048 122.989 148.961 123.054 148.892C123.101 148.843 123.159 148.806 123.222 148.781C123.286 148.757 123.354 148.747 123.422 148.751L125.16 148.816L124.263 147.37C124.214 147.291 124.188 147.201 124.187 147.108C124.189 147.042 124.204 146.977 124.231 146.916C124.257 146.856 124.296 146.801 124.344 146.755C124.438 146.662 124.564 146.61 124.696 146.609C124.781 146.611 124.864 146.636 124.936 146.683C125.007 146.729 125.064 146.794 125.1 146.871L125.961 148.428L126.813 146.881C126.853 146.799 126.915 146.729 126.993 146.679C127.07 146.63 127.159 146.602 127.251 146.599C127.315 146.599 127.378 146.612 127.436 146.638C127.494 146.664 127.546 146.703 127.589 146.75C127.635 146.798 127.672 146.853 127.697 146.915C127.722 146.976 127.735 147.042 127.735 147.108C127.733 147.195 127.709 147.28 127.664 147.355L126.752 148.816L128.526 148.751C128.591 148.744 128.657 148.752 128.719 148.773C128.781 148.794 128.838 148.828 128.886 148.873C128.933 148.918 128.971 148.972 128.996 149.033C129.021 149.094 129.032 149.159 129.03 149.224C129.031 149.349 128.986 149.469 128.904 149.562C128.856 149.609 128.799 149.645 128.737 149.669C128.674 149.692 128.608 149.702 128.541 149.698L126.762 149.643L127.644 151.079C127.694 151.159 127.72 151.251 127.72 151.346C127.718 151.412 127.703 151.477 127.677 151.538C127.65 151.598 127.611 151.653 127.563 151.698C127.52 151.746 127.467 151.783 127.408 151.809C127.349 151.835 127.285 151.849 127.221 151.85C127.135 151.848 127.052 151.822 126.981 151.773C126.91 151.725 126.855 151.657 126.823 151.578L125.976 150.066L125.14 151.578C125.102 151.659 125.042 151.728 124.966 151.777C124.89 151.825 124.802 151.85 124.712 151.85Z" fill="#263238"/>
<path d="M132.885 151.85C132.753 151.849 132.626 151.797 132.532 151.704C132.437 151.611 132.383 151.484 132.381 151.351C132.379 151.26 132.404 151.171 132.452 151.094L133.359 149.643L131.595 149.698C131.528 149.701 131.46 149.691 131.397 149.667C131.334 149.644 131.276 149.608 131.227 149.562C131.145 149.47 131.1 149.351 131.1 149.227C131.1 149.103 131.145 148.984 131.227 148.892C131.276 148.845 131.334 148.808 131.397 148.784C131.46 148.76 131.527 148.748 131.595 148.751L133.338 148.816L132.447 147.37C132.398 147.291 132.372 147.201 132.371 147.108C132.373 147.042 132.387 146.977 132.414 146.916C132.441 146.856 132.479 146.801 132.527 146.755C132.621 146.662 132.748 146.61 132.88 146.609C132.966 146.61 133.05 146.635 133.122 146.681C133.194 146.728 133.252 146.794 133.288 146.871L134.145 148.428L134.996 146.881C135.037 146.799 135.099 146.729 135.176 146.679C135.253 146.63 135.343 146.602 135.435 146.599C135.498 146.599 135.561 146.612 135.62 146.638C135.678 146.664 135.73 146.703 135.772 146.75C135.819 146.798 135.856 146.853 135.881 146.915C135.906 146.976 135.919 147.042 135.918 147.108C135.916 147.195 135.892 147.28 135.848 147.355L134.936 148.816L136.709 148.751C136.775 148.744 136.84 148.752 136.902 148.773C136.965 148.794 137.021 148.828 137.069 148.873C137.117 148.918 137.154 148.972 137.179 149.033C137.204 149.094 137.216 149.159 137.213 149.224C137.214 149.349 137.169 149.469 137.087 149.562C137.04 149.609 136.983 149.645 136.92 149.669C136.858 149.692 136.791 149.702 136.724 149.698L134.946 149.643L135.828 151.079C135.877 151.159 135.903 151.251 135.903 151.346C135.904 151.412 135.89 151.478 135.863 151.539C135.836 151.6 135.797 151.654 135.747 151.698C135.703 151.746 135.65 151.783 135.591 151.809C135.532 151.835 135.469 151.849 135.404 151.85C135.319 151.848 135.235 151.822 135.165 151.773C135.094 151.725 135.039 151.657 135.006 151.578L134.16 150.066L133.323 151.578C133.285 151.661 133.223 151.731 133.145 151.779C133.067 151.828 132.977 151.852 132.885 151.85Z" fill="#263238"/>
<path d="M141.059 151.85C140.927 151.849 140.8 151.797 140.706 151.704C140.628 151.624 140.578 151.522 140.565 151.412C140.551 151.301 140.574 151.19 140.63 151.094L141.532 149.643L139.769 149.698C139.702 149.701 139.634 149.691 139.571 149.667C139.508 149.644 139.45 149.608 139.401 149.562C139.319 149.47 139.273 149.351 139.273 149.227C139.273 149.103 139.319 148.984 139.401 148.892C139.45 148.845 139.507 148.808 139.571 148.784C139.634 148.76 139.701 148.748 139.769 148.751L141.512 148.816L140.615 147.37C140.567 147.291 140.54 147.201 140.54 147.108C140.542 146.975 140.596 146.848 140.691 146.755C140.785 146.662 140.911 146.61 141.044 146.609C141.129 146.61 141.213 146.635 141.286 146.681C141.358 146.728 141.416 146.794 141.452 146.871L142.308 148.428L143.16 146.881C143.2 146.799 143.263 146.729 143.34 146.679C143.417 146.63 143.506 146.602 143.598 146.599C143.663 146.599 143.727 146.612 143.786 146.638C143.845 146.664 143.898 146.703 143.941 146.75C144.033 146.846 144.084 146.975 144.082 147.108C144.08 147.195 144.056 147.28 144.011 147.355L143.099 148.816L144.873 148.751C144.938 148.744 145.004 148.752 145.066 148.773C145.128 148.794 145.185 148.828 145.233 148.873C145.281 148.918 145.318 148.972 145.343 149.033C145.368 149.094 145.379 149.159 145.377 149.224C145.378 149.349 145.333 149.469 145.251 149.562C145.204 149.609 145.147 149.645 145.084 149.669C145.022 149.692 144.955 149.702 144.888 149.698L143.11 149.643L143.991 151.079C144.041 151.159 144.067 151.251 144.067 151.346C144.067 151.412 144.054 151.478 144.027 151.539C144 151.6 143.96 151.654 143.911 151.698C143.867 151.746 143.814 151.783 143.755 151.809C143.696 151.835 143.632 151.849 143.568 151.85C143.482 151.848 143.399 151.822 143.328 151.773C143.258 151.725 143.202 151.657 143.17 151.578L142.323 150.066L141.487 151.578C141.449 151.659 141.389 151.728 141.313 151.777C141.237 151.825 141.149 151.85 141.059 151.85Z" fill="#263238"/>
<path d="M149.231 151.85C149.101 151.848 148.976 151.795 148.884 151.704C148.834 151.659 148.795 151.605 148.768 151.544C148.741 151.483 148.727 151.417 148.727 151.351C148.729 151.26 148.755 151.171 148.803 151.094L149.705 149.643L147.941 149.698C147.877 149.703 147.811 149.694 147.75 149.673C147.689 149.651 147.633 149.617 147.585 149.572C147.538 149.528 147.5 149.474 147.475 149.414C147.449 149.354 147.437 149.29 147.438 149.224C147.437 149.163 147.449 149.102 147.472 149.045C147.496 148.988 147.53 148.936 147.574 148.892C147.62 148.843 147.677 148.805 147.739 148.781C147.802 148.757 147.869 148.746 147.936 148.751L149.68 148.816L148.783 147.37C148.734 147.291 148.708 147.201 148.707 147.108C148.709 146.975 148.764 146.848 148.858 146.755C148.952 146.662 149.079 146.61 149.211 146.609C149.297 146.61 149.381 146.635 149.453 146.681C149.525 146.728 149.583 146.794 149.619 146.871L150.476 148.428L151.333 146.881C151.373 146.8 151.434 146.73 151.51 146.681C151.587 146.631 151.675 146.603 151.766 146.599C151.83 146.599 151.894 146.612 151.953 146.638C152.012 146.664 152.065 146.703 152.108 146.75C152.201 146.846 152.252 146.975 152.25 147.108C152.249 147.195 152.227 147.28 152.184 147.355L151.272 148.816L153.041 148.751C153.108 148.746 153.175 148.757 153.238 148.781C153.3 148.805 153.357 148.843 153.403 148.892C153.489 148.981 153.536 149.101 153.534 149.224C153.534 149.349 153.487 149.47 153.403 149.562C153.356 149.609 153.299 149.645 153.237 149.669C153.174 149.692 153.107 149.702 153.041 149.698L151.262 149.643L152.144 151.079C152.193 151.159 152.22 151.251 152.219 151.346C152.217 151.479 152.163 151.605 152.068 151.698C151.976 151.792 151.852 151.846 151.721 151.85C151.635 151.848 151.551 151.822 151.481 151.773C151.41 151.725 151.355 151.657 151.322 151.578L150.476 150.066L149.639 151.578C149.603 151.656 149.546 151.723 149.474 151.771C149.402 151.819 149.318 151.846 149.231 151.85Z" fill="#263238"/>
</svg>
