<svg width="235" height="370" viewBox="0 0 235 370" fill="none" xmlns="http://www.w3.org/2000/svg">
<path d="M28.6741 341.302L28.1741 341.3L28.6741 341.302L29.9953 27.1691C30.0301 20.0703 32.8799 13.2753 37.9193 8.27537C42.9586 3.27546 49.7758 0.479139 56.8746 0.500117L182.172 1.08041C189.277 1.11288 196.078 3.96526 201.08 9.01054C206.083 14.0558 208.877 20.8811 208.85 27.986L207.519 342.119C207.485 349.226 204.629 356.029 199.58 361.031C194.532 366.034 187.703 368.827 180.596 368.797L55.299 368.207C48.2026 368.163 41.4136 365.306 36.4219 360.261C31.4302 355.217 28.6438 348.398 28.6741 341.302Z" fill="#F6F4FD" stroke="#263238"/>
<path d="M78.2036 10.9722L56.9382 10.8739C54.427 10.8634 51.9382 11.3475 49.6141 12.2988C47.29 13.25 45.176 14.6498 43.3928 16.418C41.6096 18.1863 40.1922 20.2884 39.2214 22.6045C38.2507 24.9206 37.7456 27.4051 37.7351 29.9164L36.4406 336.533C36.4192 341.6 38.4113 346.469 41.9789 350.069C45.5465 353.668 50.3974 355.703 55.4652 355.727L180.513 356.307C183.024 356.319 185.513 355.836 187.837 354.886C190.161 353.935 192.275 352.536 194.058 350.769C195.841 349.001 197.259 346.9 198.23 344.584C199.201 342.269 199.706 339.784 199.716 337.274L78.2036 10.9722ZM78.2036 10.9722H86.7473M78.2036 10.9722H86.7473M86.7473 10.9722C88.3473 11.0166 89.8643 11.6938 90.9656 12.8553C92.0668 14.0168 92.6624 15.5678 92.6216 17.1679V21.5691C92.5808 23.1692 93.1763 24.7202 94.2776 25.8817C95.3789 27.0432 96.8959 27.7204 98.4959 27.7648L86.7473 10.9722ZM56.9359 11.3739C56.936 11.3739 56.9361 11.3739 56.9361 11.3739L78.2013 11.4722H78.2036H86.7402C88.2053 11.5146 89.5941 12.1356 90.6027 13.1993C91.6129 14.2648 92.1592 15.6874 92.1218 17.1551L92.1216 17.1551V17.1679V21.563C92.0792 23.2931 92.7239 24.9697 93.9148 26.2257C95.1072 27.4833 96.7497 28.2166 98.482 28.2647L98.482 28.2648L98.4936 28.2648L145.854 28.488V28.4882L145.866 28.4879C147.598 28.4549 149.245 27.7359 150.447 26.4888C151.648 25.2428 152.305 23.5716 152.275 21.8417L152.276 17.4357L152.275 17.4275C152.251 15.9608 152.81 14.5446 153.83 13.4899C154.848 12.4365 156.242 11.8297 157.707 11.8025L181.993 11.9096C184.44 11.9221 186.86 12.4168 189.116 13.3654C191.372 14.3139 193.418 15.6978 195.139 17.4378C196.86 19.1778 198.221 21.2399 199.144 23.5061C200.067 25.7724 200.535 28.1984 200.52 30.6454L200.52 30.6463L199.216 337.271C199.206 339.717 198.714 342.136 197.769 344.391C196.823 346.646 195.443 348.692 193.706 350.414C191.969 352.135 189.911 353.497 187.647 354.423C185.384 355.348 182.961 355.819 180.516 355.807L55.4675 355.227C50.5323 355.204 45.8082 353.222 42.334 349.717C38.8598 346.211 36.9198 341.47 36.9406 336.535L38.2351 29.9185C38.2454 27.4729 38.7372 25.0533 39.6826 22.7978C40.6279 20.5423 42.0083 18.4951 43.7449 16.7731C45.4814 15.051 47.5401 13.6879 49.8035 12.7615C52.0668 11.8352 54.4904 11.3637 56.9359 11.3739Z" fill="white" stroke="black"/>
<path fill-rule="evenodd" clip-rule="evenodd" d="M38.5 226.971V132.866C54.5372 106.026 83.8786 88.0525 117.418 88.0525C153.301 88.0525 184.379 108.626 199.5 138.62V221.217C184.379 251.211 153.301 271.785 117.418 271.785C83.8786 271.785 54.5372 253.811 38.5 226.971Z" fill="#EAE4FC"/>
<path d="M95.6717 202.555C95.6717 202.555 101.27 216.801 99.7374 226.982C98.2047 237.162 92.6063 242.777 80.3768 248.875C68.1474 254.974 48.819 263.638 46.77 269.753C44.721 275.867 46.77 304.457 46.77 304.457H196.444C196.444 304.457 192.878 274.851 185.247 264.654C177.615 254.458 147.074 246.342 138.459 240.728C129.843 235.113 133.376 203.055 133.376 203.055C133.376 203.055 110.434 210.17 95.6717 202.555Z" fill="white" stroke="#263238" stroke-linecap="round" stroke-linejoin="round"/>
<path d="M78.0849 250.07C75.3099 251.425 72.2606 252.909 69.2113 254.426C74.5193 270.56 69.6147 291.066 65.0811 304.441H171.08C169.408 300.896 168.272 297.123 167.708 293.244C165.982 281.127 167.128 262.832 167.934 253.393C164.353 251.78 160.593 250.247 156.947 248.795C151.639 261.363 138.361 285.774 116.08 282.757C93.9929 279.804 82.5217 260.186 78.0849 250.07Z" fill="#170658" stroke="#263238" stroke-linecap="round" stroke-linejoin="round"/>
<path d="M70.2122 210.703C70.2122 210.703 73.2453 218.334 84.539 219.851C95.8327 221.367 90.2504 204.976 123.615 203.83C147.106 203.023 123.744 222.384 128.843 223.416C133.941 224.449 146.59 222.9 153.785 206.105C160.981 189.31 162.433 146.539 147.671 132.793C132.908 119.047 89.5889 119.547 83.0224 131.776C76.456 144.006 80.9734 165.367 74.9555 177.08C68.9376 188.793 66.1303 204.588 70.2122 210.703Z" fill="#263238" stroke="#263238" stroke-linecap="round" stroke-linejoin="round"/>
<path d="M84.5391 171.449C84.5391 171.449 80.4734 160.752 78.9406 168.4C77.4079 176.047 78.9407 183.662 82.5062 186.728C86.0718 189.793 88.1047 189.261 88.1047 189.261L84.5391 171.449Z" fill="white" stroke="#263238" stroke-linecap="round" stroke-linejoin="round"/>
<path d="M100.561 116.965C100.561 116.965 91.9618 119.111 86.2181 134.89C80.4745 150.669 84.9597 192.133 88.5414 196.44C92.1231 200.748 104.046 218.641 115.517 219.351C122.826 219.802 141.154 203.007 144.026 194.408C146.897 185.808 147.898 147.087 145.736 137.762C143.574 128.436 125.665 106.914 100.561 116.965Z" fill="white" stroke="#263238" stroke-linecap="round" stroke-linejoin="round"/>
<path d="M105.804 167.932C105.804 168.399 105.665 168.855 105.406 169.243C105.146 169.63 104.777 169.932 104.346 170.11C103.915 170.288 103.44 170.333 102.983 170.241C102.525 170.149 102.106 169.923 101.777 169.592C101.448 169.261 101.225 168.84 101.136 168.382C101.047 167.924 101.096 167.45 101.277 167.02C101.457 166.589 101.762 166.223 102.151 165.966C102.541 165.709 102.998 165.574 103.464 165.577C103.773 165.577 104.079 165.638 104.363 165.756C104.648 165.875 104.907 166.049 105.124 166.268C105.342 166.487 105.514 166.746 105.63 167.032C105.747 167.318 105.806 167.624 105.804 167.932Z" fill="#263238"/>
<path d="M129.213 167.932C129.213 168.398 129.075 168.854 128.816 169.241C128.557 169.628 128.189 169.93 127.759 170.108C127.329 170.287 126.855 170.333 126.398 170.243C125.941 170.152 125.521 169.927 125.192 169.598C124.862 169.268 124.638 168.849 124.547 168.392C124.456 167.935 124.503 167.461 124.681 167.031C124.86 166.6 125.161 166.233 125.549 165.974C125.936 165.715 126.392 165.577 126.857 165.577C127.167 165.575 127.475 165.634 127.761 165.752C128.048 165.869 128.309 166.043 128.528 166.262C128.747 166.481 128.92 166.742 129.038 167.028C129.156 167.315 129.215 167.622 129.213 167.932Z" fill="#263238"/>
<path d="M106.385 192.117C106.385 192.117 114.016 196.408 124.955 192.117" stroke="#263238" stroke-linecap="round" stroke-linejoin="round"/>
<path d="M120.194 176.418C120.194 176.418 123.534 180.694 120.194 183.082C118.734 184.08 117.025 184.652 115.259 184.734C113.492 184.817 111.738 184.407 110.191 183.55C107.335 182.13 110.675 175.934 110.675 175.934" stroke="#263238" stroke-linecap="round" stroke-linejoin="round"/>
<path d="M107.563 157.139C106.121 155.579 104.252 154.479 102.188 153.977C100.125 153.475 97.9592 153.592 95.9623 154.315C88.7182 156.735 88.3633 162.753 88.3633 162.753C88.3633 162.753 92.7678 157.139 96.7045 157.074C100.641 157.01 106.24 161.43 107.563 157.139Z" fill="#263238"/>
<path d="M120.678 157.671C122.028 156.037 123.832 154.839 125.861 154.227C127.891 153.616 130.056 153.618 132.084 154.235C139.458 156.251 140.151 162.301 140.151 162.301C140.151 162.301 135.424 156.945 131.504 157.09C127.583 157.235 122.227 161.898 120.678 157.671Z" fill="#263238"/>
<path d="M107.886 129.76C107.886 129.76 95.1559 126.275 90.0576 134.342C84.9594 142.409 87.5246 158.268 79.8772 172.514C72.2298 186.761 76.8279 208.654 77.8443 211.72C78.8608 214.785 71.2295 218.851 67.1637 203.572C63.098 188.293 74.795 173.531 75.8115 157.752C76.8279 141.973 73.2462 124.661 89.0412 115.497C104.836 106.333 107.886 111.932 107.886 111.932V129.76Z" fill="#263238" stroke="#263238" stroke-linecap="round" stroke-linejoin="round"/>
<path d="M170.501 153.702C167.451 144.538 167.951 127.727 155.738 113.981C148.075 105.365 133.425 100.364 121.405 100.073C119.469 99.6727 117.485 99.5585 115.516 99.7344C96.1558 101.348 83.9586 111.448 87.5242 119.095C91.0898 126.742 107.885 129.792 107.885 129.792L110.434 130.808C110.348 129.945 110.316 129.078 110.337 128.211C113.08 126.936 117.759 126.097 122.648 131.308C131.158 140.834 135.867 153.158 135.877 165.931C135.377 185.292 145.041 192.407 145.041 200.555C145.041 208.702 130.795 218.883 127.73 221.432C124.342 224.255 140.637 225.643 141.653 225.578C158.061 224.562 168.968 213.849 175.809 199.554C183.859 182.743 175.76 169.465 170.501 153.702Z" fill="#263238" stroke="#263238" stroke-linecap="round" stroke-linejoin="round"/>
<path d="M152.011 214.559C151.253 215.802 150.274 216.895 149.123 217.786" stroke="white" stroke-linecap="round" stroke-linejoin="round"/>
<path d="M107.884 127.71C107.884 127.71 95.6711 121.095 105.852 116.013C116.032 110.931 134.892 126.694 139.442 141.456C143.992 156.219 140.459 173.03 147.09 184.727C150.22 190.293 154.285 199.522 153.979 207.315" stroke="white" stroke-linecap="round" stroke-linejoin="round"/>
<path d="M98.8021 118.659C98.4149 117.256 99.1894 115.239 102.787 112.448C111.951 105.317 128.763 108.882 137.41 118.046C146.058 127.21 149.124 138.407 150.14 151.637C151.156 164.867 153.189 173.063 160.369 181.13C167.548 189.196 171.566 197.925 164.435 208.105" stroke="white" stroke-linecap="round" stroke-linejoin="round"/>
<path d="M98.2046 127.711C98.2046 127.711 83.9585 121.612 92.1061 113.965" stroke="white" stroke-linecap="round" stroke-linejoin="round"/>
<path d="M80.3613 209.606C81.4642 211.225 82.8529 212.631 84.4593 213.752" stroke="white" stroke-linecap="round" stroke-linejoin="round"/>
<path d="M77.3432 178.629C77.3432 178.629 73.7615 193.843 78.0208 205.088" stroke="white" stroke-linecap="round" stroke-linejoin="round"/>
<path d="M151.268 123.048C155.278 129.765 157.829 137.253 158.754 145.022C160.787 163.35 155.188 169.465 163.852 179.129C167.634 183.137 169.805 188.399 169.951 193.907" stroke="white" stroke-linecap="round" stroke-linejoin="round"/>
<path d="M145.041 114.481C145.041 114.481 145.783 115.239 146.913 116.675" stroke="white" stroke-linecap="round" stroke-linejoin="round"/>
<rect x="25.4668" y="305" width="184" height="65" fill="url(#paint0_linear_810_1789)"/>
<path d="M22 124V97H49" stroke="#2504CA" stroke-width="4"/>
<path d="M187 97L214 97L214 124" stroke="#2504CA" stroke-width="4"/>
<path d="M214 245L214 272L187 272" stroke="#2504CA" stroke-width="4"/>
<path d="M49 272L22 272L22 245" stroke="#2504CA" stroke-width="4"/>
<line opacity="0.45" x1="2" y1="236" x2="233" y2="236" stroke="#8966F0" stroke-width="4" stroke-linecap="round"/>
<defs>
<linearGradient id="paint0_linear_810_1789" x1="117.467" y1="305" x2="117.467" y2="337.055" gradientUnits="userSpaceOnUse">
<stop stop-color="white" stop-opacity="0"/>
<stop offset="1" stop-color="white"/>
</linearGradient>
</defs>
</svg>
