<svg width="160" height="259" viewBox="0 0 160 259" fill="none" xmlns="http://www.w3.org/2000/svg">
<path d="M18 47.3588V16.4552L74.1883 48.9642V80.6704L18 47.3588Z" fill="#8F90FC"/>
<path d="M74.1883 48.9641L103.085 33.3117L46.0942 0L18 16.4552L74.1883 48.9641Z" fill="#6A6CF9"/>
<path d="M83.0178 85.4866V54.1816L110.711 69.0314V101.139L83.0178 85.4866Z" fill="#3F639C"/>
<path d="M139.206 53.7803L110.711 69.4327V101.139L139.206 85.8879V53.7803Z" fill="#2C4B7B"/>
<path d="M110.711 38.5292L83.0178 54.1816L110.711 69.4328L139.206 53.7803L110.711 38.5292Z" fill="#21406F"/>
<path d="M19.6055 85.0852V55.787L46.4956 71.8408V101.139L19.6055 85.0852Z" fill="#3F639C"/>
<path d="M54.9238 106.758V77.4596L112.718 110.771V139.668L54.9238 106.758Z" fill="#3F639C"/>
<path d="M139.608 124.818V94.3162L112.316 111.173V140.07L139.608 124.818Z" fill="#2C4B7B"/>
<path d="M18.8027 125.621V94.7175L77.3991 128.029V158.933L18.8027 125.621Z" fill="#3F639C"/>
<path d="M84.6233 162.144V132.845L112.717 148.498V179L84.6233 162.144Z" fill="#3F639C"/>
<path d="M140.41 162.545V132.845L112.316 148.498V178.599L140.41 162.545Z" fill="#2C4B7B"/>
<g clip-path="url(#clip0_1281_309)">
<path d="M158.055 229.79C157.411 229.114 156.638 228.575 155.781 228.205C154.924 227.834 154.002 227.64 153.068 227.633H142.247C141.255 227.633 140.304 227.239 139.602 226.538C138.901 225.836 138.507 224.885 138.507 223.893C138.507 222.901 138.901 221.95 139.602 221.248C140.304 220.547 141.255 220.153 142.247 220.153H156.584C156.994 220.117 157.376 219.929 157.654 219.626C157.932 219.322 158.086 218.925 158.086 218.514C158.086 218.102 157.932 217.705 157.654 217.402C157.376 217.098 156.994 216.91 156.584 216.874H142.272C140.462 216.938 138.747 217.7 137.486 218.999C136.224 220.298 135.513 222.034 135.502 223.845C135.491 225.656 136.18 227.401 137.425 228.716C138.671 230.03 140.376 230.813 142.185 230.9H153.006C153.998 230.9 154.949 231.294 155.651 231.995C156.352 232.696 156.746 233.648 156.746 234.64C156.746 235.632 156.352 236.583 155.651 237.284C154.949 237.986 153.998 238.38 153.006 238.38H138.669C138.442 238.36 138.213 238.388 137.997 238.461C137.781 238.534 137.582 238.652 137.414 238.806C137.246 238.96 137.112 239.148 137.02 239.356C136.928 239.565 136.88 239.791 136.88 240.019C136.88 240.247 136.928 240.473 137.02 240.682C137.112 240.891 137.246 241.078 137.414 241.232C137.582 241.386 137.781 241.504 137.997 241.577C138.213 241.651 138.442 241.678 138.669 241.658H152.582C154.443 241.685 156.243 240.999 157.613 239.74C158.983 238.481 159.82 236.745 159.95 234.889C159.992 233.956 159.845 233.023 159.52 232.147C159.194 231.271 158.696 230.47 158.055 229.79Z" fill="white"/>
<path d="M86.6448 216.463C84.1939 216.463 81.798 217.19 79.7602 218.551C77.7223 219.913 76.1339 221.848 75.196 224.113C74.2581 226.377 74.0126 228.869 74.4908 231.273C74.9689 233.676 76.1491 235.885 77.8822 237.618C79.6153 239.351 81.8234 240.531 84.2272 241.009C86.631 241.487 89.1226 241.242 91.387 240.304C93.6513 239.366 95.5867 237.778 96.9484 235.74C98.31 233.702 99.0369 231.306 99.0369 228.855C99.0369 227.228 98.7163 225.616 98.0936 224.113C97.4708 222.609 96.5581 221.243 95.4074 220.093C94.2567 218.942 92.8905 218.029 91.387 217.406C89.8835 216.783 88.2721 216.463 86.6448 216.463V216.463ZM86.6448 237.968C84.8423 237.968 83.0805 237.434 81.5818 236.433C80.0831 235.431 78.915 234.008 78.2252 232.343C77.5355 230.677 77.3549 228.845 77.7066 227.077C78.0582 225.309 78.9262 223.685 80.2007 222.411C81.4752 221.136 83.099 220.269 84.8668 219.917C86.6346 219.565 88.4671 219.746 90.1324 220.435C91.7976 221.125 93.2208 222.293 94.2222 223.792C95.2235 225.291 95.7582 227.053 95.7582 228.855C95.7582 231.272 94.7979 233.59 93.0889 235.299C91.3798 237.008 89.0618 237.968 86.6448 237.968V237.968Z" fill="white"/>
<path d="M21.6799 220.689L21.2312 220.24C19.9091 218.817 18.2498 217.749 16.4065 217.136C14.618 216.537 12.7169 216.351 10.8463 216.593C8.97568 216.835 7.18435 217.498 5.60722 218.533C4.0301 219.568 2.70823 220.947 1.7413 222.566C0.774373 224.186 0.187536 226.003 0.0249751 227.883V228.282C-0.0447105 230.08 0.275783 231.872 0.964405 233.535C1.65303 235.197 2.69341 236.691 4.01417 237.914C5.33492 239.136 6.90469 240.058 8.61559 240.616C10.3265 241.175 12.138 241.356 13.9256 241.147L14.6486 241.01C14.8727 240.995 15.0885 240.919 15.2732 240.791C15.4578 240.664 15.6045 240.488 15.6978 240.284C15.791 240.08 15.8272 239.854 15.8028 239.631C15.7783 239.407 15.694 239.195 15.5587 239.016L15.1723 238.405C15.0125 238.179 14.7912 238.004 14.5349 237.9C14.2786 237.796 13.9979 237.768 13.7261 237.819C12.179 238.063 10.595 237.902 9.1286 237.352C7.6622 236.802 6.36339 235.881 5.35886 234.679C4.35433 233.478 3.67843 232.036 3.39691 230.495C3.11539 228.955 3.23789 227.367 3.75256 225.888C4.54006 223.606 6.20042 221.731 8.36936 220.672C10.5383 219.613 13.0387 219.458 15.3219 220.24C15.9646 220.459 16.5796 220.752 17.1545 221.113C17.1545 221.113 20.8198 223.145 17.5036 225.439L17.3789 225.514C17.3219 225.556 17.2678 225.602 17.2169 225.651L14.5489 227.396C14.2874 227.583 14.0841 227.839 13.9626 228.136C13.8411 228.433 13.8064 228.758 13.8626 229.074C13.9187 229.39 14.0633 229.684 14.2797 229.921C14.4961 230.158 14.7753 230.329 15.0849 230.413C15.2854 230.455 15.4921 230.456 15.6932 230.418C15.8943 230.379 16.0859 230.302 16.2569 230.189L20.72 227.272C21.2525 226.924 21.704 226.465 22.0438 225.928C22.3837 225.39 22.6041 224.785 22.6898 224.155C22.7785 223.539 22.7342 222.911 22.56 222.313C22.3859 221.715 22.0858 221.161 21.6799 220.689V220.689Z" fill="white"/>
<path d="M48.5708 221.163C47.371 220.008 45.952 219.105 44.3975 218.508C42.843 217.91 41.1845 217.631 39.52 217.685C39.1894 217.685 38.8722 217.816 38.6384 218.05C38.4046 218.284 38.2733 218.601 38.2733 218.931V219.654C38.2723 219.824 38.3059 219.993 38.3724 220.149C38.4389 220.306 38.5366 220.447 38.6597 220.565C38.7777 220.682 38.9178 220.774 39.072 220.836C39.2261 220.898 39.3911 220.929 39.5573 220.926C40.7857 220.892 42.0085 221.104 43.1539 221.55C44.2992 221.995 45.3441 222.665 46.2271 223.519C47.1011 224.362 47.7949 225.373 48.2663 226.492C48.7378 227.61 48.9772 228.813 48.9699 230.027C48.9703 231.296 48.7055 232.552 48.1924 233.713C47.6792 234.875 46.9291 235.916 45.9901 236.77C45.0511 237.625 43.944 238.274 42.7396 238.675C41.5352 239.077 40.2603 239.223 38.9964 239.103C36.7126 238.827 34.6112 237.717 33.0951 235.987C31.579 234.257 30.7549 232.028 30.7807 229.728V208.534C30.7807 208.114 30.6138 207.711 30.3169 207.414C30.0199 207.117 29.6173 206.951 29.1974 206.951C28.7477 206.951 28.3165 207.129 27.9985 207.447C27.6805 207.765 27.5019 208.196 27.5019 208.646V229.616C27.4568 232.919 28.7012 236.109 30.9709 238.509C33.2407 240.909 36.3568 242.33 39.6571 242.469C42.1452 242.517 44.5898 241.814 46.6723 240.451C48.7549 239.089 50.3785 237.131 51.3314 234.832C52.2844 232.533 52.5223 230.001 52.0143 227.564C51.5063 225.128 50.2759 222.902 48.4836 221.175L48.5708 221.163Z" fill="white"/>
<path d="M29.2224 203.634C29.5509 203.634 29.8719 203.537 30.1448 203.354C30.4178 203.171 30.6303 202.912 30.7554 202.608C30.8805 202.304 30.9126 201.97 30.8476 201.648C30.7826 201.326 30.6234 201.031 30.3903 200.8C30.1572 200.568 29.8607 200.411 29.5382 200.349C29.2158 200.286 28.8819 200.321 28.5792 200.448C28.2764 200.576 28.0183 200.79 27.8376 201.064C27.6569 201.339 27.5618 201.66 27.5643 201.989C27.5642 202.206 27.6072 202.421 27.6907 202.622C27.7742 202.822 27.8965 203.004 28.0506 203.157C28.2048 203.31 28.3877 203.431 28.5888 203.513C28.7899 203.595 29.0053 203.636 29.2224 203.634Z" fill="white"/>
<path d="M62.3842 205.717C61.9488 205.72 61.5321 205.894 61.2241 206.202C60.9162 206.51 60.7418 206.927 60.7385 207.362V239.614C60.7743 240.024 60.9627 240.406 61.2661 240.684C61.5696 240.962 61.9663 241.117 62.378 241.117C62.7897 241.117 63.1864 240.962 63.4899 240.684C63.7933 240.406 63.9815 240.024 64.0173 239.614V207.362C64.0173 206.928 63.8457 206.511 63.5398 206.203C63.2338 205.895 62.8185 205.72 62.3842 205.717Z" fill="white"/>
<path d="M68.9669 237.943C68.639 237.943 68.3183 238.041 68.0456 238.223C67.7729 238.405 67.5606 238.664 67.4351 238.967C67.3096 239.27 67.2767 239.603 67.3407 239.925C67.4047 240.247 67.5625 240.542 67.7944 240.774C68.0262 241.006 68.3218 241.164 68.6434 241.228C68.965 241.292 69.2984 241.259 69.6014 241.133C69.9044 241.008 70.1634 240.795 70.3456 240.523C70.5278 240.25 70.625 239.929 70.625 239.601C70.625 239.162 70.4503 238.74 70.1394 238.429C69.8284 238.118 69.4067 237.943 68.9669 237.943Z" fill="white"/>
<path d="M125.317 220.265C123.499 218.602 121.228 217.515 118.793 217.141C116.357 216.768 113.865 217.125 111.632 218.167C109.399 219.208 107.525 220.889 106.246 222.995C104.967 225.102 104.341 227.54 104.448 230.002C104.656 233.229 106.111 236.249 108.505 238.424C110.898 240.599 114.043 241.759 117.276 241.658C117.607 241.658 117.924 241.527 118.158 241.293C118.391 241.06 118.523 240.742 118.523 240.412V239.676C118.523 239.505 118.488 239.335 118.42 239.178C118.352 239.021 118.252 238.879 118.127 238.762C118.002 238.645 117.854 238.555 117.693 238.498C117.531 238.441 117.36 238.418 117.189 238.43C115.961 238.46 114.739 238.246 113.594 237.801C112.449 237.356 111.404 236.688 110.519 235.836C109.644 234.992 108.95 233.979 108.478 232.858C108.007 231.737 107.768 230.532 107.776 229.316C107.775 228.118 108.01 226.932 108.468 225.826C108.926 224.719 109.599 223.714 110.447 222.868C111.295 222.023 112.302 221.353 113.41 220.898C114.518 220.442 115.704 220.211 116.902 220.215H117.775C120.057 220.494 122.157 221.605 123.673 223.334C125.188 225.064 126.014 227.291 125.99 229.591V251.146C125.99 251.476 126.122 251.794 126.356 252.027C126.589 252.261 126.906 252.392 127.237 252.392H127.973C128.303 252.392 128.62 252.261 128.854 252.027C129.088 251.794 129.219 251.476 129.219 251.146V229.279C129.225 227.589 128.881 225.916 128.21 224.364C127.538 222.813 126.553 221.418 125.317 220.265V220.265Z" fill="white"/>
<path d="M127.549 255.709C127.22 255.709 126.899 255.806 126.626 255.989C126.353 256.172 126.141 256.432 126.016 256.735C125.891 257.039 125.858 257.373 125.923 257.695C125.988 258.017 126.148 258.312 126.381 258.544C126.614 258.775 126.91 258.932 127.233 258.995C127.555 259.057 127.889 259.023 128.192 258.895C128.495 258.768 128.753 258.553 128.933 258.279C129.114 258.005 129.209 257.683 129.207 257.355C129.207 257.137 129.164 256.922 129.08 256.722C128.997 256.521 128.875 256.339 128.72 256.186C128.566 256.033 128.383 255.912 128.182 255.831C127.981 255.749 127.766 255.707 127.549 255.709V255.709Z" fill="white"/>
</g>
<defs>
<clipPath id="clip0_1281_309">
<rect width="160" height="58.6692" fill="white" transform="translate(0 200.331)"/>
</clipPath>
</defs>
</svg>
