<svg width="54" height="45" viewBox="0 0 54 45" fill="none" xmlns="http://www.w3.org/2000/svg">
<path d="M22.089 21.8438L21.6317 21.3848C20.2847 19.929 18.5941 18.8372 16.716 18.21C14.8938 17.5971 12.9568 17.4072 11.0509 17.6547C9.14498 17.9021 7.31985 18.5803 5.71297 19.6385C4.10609 20.6966 2.75928 22.107 1.77411 23.7633C0.788933 25.4196 0.191024 27.2788 0.0253957 29.2007V29.6086C-0.0456048 31.4478 0.280936 33.2806 0.98255 34.9811C1.68417 36.6816 2.74418 38.2095 4.08985 39.4597C5.43553 40.7099 7.03492 41.6528 8.7781 42.2237C10.5213 42.7946 12.367 42.98 14.1883 42.7669L14.9249 42.6265C15.1533 42.6109 15.3731 42.5336 15.5613 42.4029C15.7494 42.2721 15.8989 42.0928 15.9939 41.8838C16.0889 41.6748 16.1258 41.444 16.1009 41.2156C16.0759 40.9873 15.99 40.7699 15.8522 40.5865L15.4585 39.9618C15.2957 39.7309 15.0703 39.5517 14.8091 39.4455C14.548 39.3393 14.262 39.3106 13.985 39.3626C12.4087 39.6124 10.7949 39.4478 9.30079 38.8851C7.80672 38.3223 6.4834 37.3806 5.45992 36.1517C4.43644 34.9227 3.74778 33.4485 3.46095 31.8727C3.17412 30.297 3.29893 28.6734 3.82331 27.1605C4.62567 24.8272 6.31736 22.9087 8.52722 21.8259C10.7371 20.7431 13.2847 20.5845 15.6109 21.3848C16.2658 21.6084 16.8924 21.9078 17.4781 22.2772C17.4781 22.2772 21.2125 24.3555 17.8338 26.7015L17.7068 26.7781C17.6487 26.8211 17.5935 26.8679 17.5417 26.9183L14.8234 28.7034C14.557 28.8937 14.3497 29.156 14.226 29.4598C14.1022 29.7636 14.0669 30.0963 14.1241 30.4195C14.1813 30.7427 14.3286 31.0429 14.5491 31.2853C14.7696 31.5278 15.0541 31.7023 15.3695 31.7889C15.5738 31.8312 15.7844 31.8327 15.9892 31.7934C16.1941 31.754 16.3893 31.6745 16.5636 31.5594L21.1109 28.5759C21.6534 28.22 22.1134 27.7511 22.4597 27.2011C22.806 26.6512 23.0305 26.033 23.1179 25.3884C23.2083 24.7581 23.1631 24.1155 22.9856 23.5042C22.8082 22.8928 22.5025 22.3267 22.089 21.8438Z" fill="white"/>
<path d="M49.4872 22.3285C48.2647 21.1473 46.819 20.224 45.2351 19.613C43.6512 19.002 41.9615 18.7158 40.2656 18.7711C39.9287 18.7711 39.6056 18.9056 39.3674 19.1447C39.1291 19.3838 38.9954 19.708 38.9954 20.0462V20.7856C38.9943 20.9595 39.0286 21.1319 39.0963 21.2919C39.164 21.452 39.2637 21.5965 39.3891 21.7165C39.5093 21.8362 39.6521 21.9305 39.8091 21.994C39.9662 22.0575 40.1343 22.0888 40.3036 22.0862C41.5552 22.0516 42.801 22.2684 43.968 22.7238C45.135 23.1793 46.1995 23.8642 47.0992 24.7383C47.9897 25.5999 48.6966 26.6341 49.1769 27.7782C49.6573 28.9222 49.9012 30.1524 49.8937 31.3939C49.8942 32.6923 49.6244 33.9765 49.1016 35.1642C48.5788 36.3518 47.8145 37.4168 46.8578 38.2907C45.9011 39.1646 44.773 39.8281 43.5459 40.2389C42.3188 40.6497 41.0198 40.7987 39.732 40.6761C37.4052 40.3935 35.2642 39.2587 33.7195 37.4893C32.1747 35.7199 31.335 33.4404 31.3614 31.0879V9.41252C31.3614 8.98306 31.1913 8.57113 30.8888 8.26746C30.5863 7.96378 30.176 7.79321 29.7482 7.79321C29.29 7.79321 28.8507 7.97588 28.5267 8.30107C28.2027 8.62627 28.0207 9.06733 28.0207 9.52722V30.9732C27.9748 34.3513 29.2427 37.6142 31.5552 40.0688C33.8677 42.5234 37.0426 43.9762 40.4053 44.1186C42.9403 44.1676 45.4311 43.4486 47.5529 42.0554C49.6747 40.6621 51.329 38.6592 52.2999 36.3081C53.2708 33.9571 53.5132 31.3669 52.9956 28.8754C52.478 26.384 51.2244 24.1069 49.3983 22.3413L49.4872 22.3285Z" fill="white"/>
<path d="M29.774 4.40151C30.1087 4.4015 30.4357 4.30173 30.7138 4.11482C30.9919 3.92792 31.2084 3.66231 31.3359 3.35171C31.4634 3.0411 31.4961 2.69952 31.4298 2.37023C31.3636 2.04093 31.2014 1.73885 30.9639 1.50221C30.7264 1.26556 30.4243 1.10502 30.0957 1.04104C29.7672 0.977055 29.427 1.01252 29.1186 1.14283C28.8101 1.27314 28.5471 1.49248 28.363 1.77303C28.1789 2.05357 28.082 2.38263 28.0845 2.71855C28.0845 2.94065 28.1283 3.16053 28.2134 3.36556C28.2984 3.57059 28.423 3.75666 28.5801 3.91311C28.7371 4.06956 28.9235 4.19333 29.1284 4.27716C29.3332 4.36098 29.5527 4.4032 29.774 4.40151Z" fill="white"/>
</svg>
