<svg width="78" height="78" viewBox="0 0 78 78" fill="none" xmlns="http://www.w3.org/2000/svg">
<mask id="mask0_2591_5058" style="mask-type:alpha" maskUnits="userSpaceOnUse" x="0" y="0" width="78" height="78">
<path d="M77.5 39C77.5 60.263 60.263 77.5 39 77.5C17.737 77.5 0.5 60.263 0.5 39C0.5 17.737 17.737 0.5 39 0.5C60.263 0.5 77.5 17.737 77.5 39Z" fill="#EAE4FC" stroke="black"/>
</mask>
<g mask="url(#mask0_2591_5058)">
<path d="M22.7053 29.2521C22.7053 29.2521 21.5524 22.8413 22.8934 18.3603C23.1805 17.412 23.6983 16.5496 24.4004 15.8503C25.1025 15.1511 25.967 14.6369 26.9165 14.3536C26.9165 14.3536 27.6279 9.86438 36.8353 9.52913C46.0426 9.19387 53.3447 13.1107 51.5539 29.2767L49.248 32.9236L36.7453 20.8543C36.7453 20.8543 26.0334 27.7803 25.093 31.0756C24.1527 34.371 22.7053 29.2521 22.7053 29.2521Z" fill="#3B2645"/>
<path d="M44.6452 54.8379L44.5996 54.5367L43.7901 49.1807L43.79 49.1798L43.0931 44.5117H30.3025L29.4733 51.2522L29.4732 51.2532L29.0644 54.524L29.0251 54.8378L28.7248 54.9368L25.7511 55.9174C25.7506 55.9176 25.7502 55.9177 25.7498 55.9179C22.9139 56.87 18.4811 58.383 14.4602 59.8465C12.4492 60.5784 10.5447 61.2966 8.99612 61.9253C7.43329 62.5597 6.27275 63.0873 5.71975 63.4376L44.6452 54.8379ZM44.6452 54.8379L44.9337 54.9356M44.6452 54.8379L44.9337 54.9356M44.9337 54.9356L47.1089 55.6717L47.1107 55.6723C49.7504 56.555 54.3415 58.1112 58.5818 59.6444C60.7023 60.4112 62.7315 61.1708 64.3836 61.8368C66.0515 62.5091 67.2923 63.0694 67.868 63.4369L67.8716 63.4391C68.1277 63.5995 68.4254 64.0049 68.7214 64.7296C69.0084 65.4323 69.2613 66.3518 69.4814 67.4255C69.9212 69.5704 70.2168 72.2607 70.4145 74.9063C70.612 77.5484 70.7109 80.1305 70.7603 82.0533C70.785 83.0143 70.7974 83.8098 70.8036 84.3648C70.8051 84.5025 70.8062 84.6255 70.8071 84.7324M44.9337 54.9356L70.8071 84.7324M70.8071 84.7324H2.82265C2.82351 84.6254 2.82464 84.5025 2.82616 84.3647C2.83225 83.8097 2.84445 83.0142 2.86884 82.0531C2.91766 80.1303 3.01525 77.548 3.2102 74.9058C3.4054 72.2601 3.69717 69.5695 4.13137 67.4243C4.34872 66.3504 4.59838 65.4306 4.88187 64.7275C5.17434 64.0022 5.46819 63.5973 5.71948 63.4378L70.8071 84.7324Z" fill="white" stroke="black"/>
<path d="M44.2846 49.1061C38.3726 51.8209 32.1417 51.5592 28.969 51.1995L29.8603 44.02H43.5241L44.2846 49.1061Z" fill="#3B2645"/>
<path d="M49.107 32.5484L49.1555 32.4762L49.1767 32.3924L49.1767 32.3924L49.1767 32.3922L49.1768 32.3919L49.1769 32.3913L49.1787 32.3845L49.1872 32.3531C49.1951 32.3246 49.2075 32.2816 49.2243 32.2266C49.2582 32.1165 49.3099 31.9596 49.3804 31.7767C49.5231 31.4066 49.7353 30.9502 50.0191 30.5606C50.3067 30.1658 50.6309 29.89 50.9831 29.7912C51.31 29.6995 51.7598 29.7333 52.3784 30.1683C52.9356 30.5601 53.24 31.1905 53.3022 31.9811C53.3649 32.7773 53.1757 33.7024 52.7755 34.5897C52.0232 36.2572 50.6268 37.6016 49.0701 37.7835C49.0536 37.7033 49.0354 37.6125 49.0164 37.5126C48.9349 37.0853 48.8375 36.4966 48.7735 35.8594C48.7092 35.2199 48.6798 34.5452 48.729 33.9419C48.7791 33.3257 48.9068 32.8466 49.107 32.5484Z" fill="white" stroke="black"/>
<path d="M51.6849 31.8608C51.106 32.1287 50.6071 32.543 50.2375 33.0629C49.8002 33.5181 49.4657 34.0618 49.2563 34.6574C49.2072 34.8373 49.4689 34.919 49.5752 34.7882C49.8695 34.4448 50.0985 34.0441 50.3929 33.668C50.6189 33.9044 50.8998 34.0813 51.2106 34.1831C51.4559 34.2404 51.5949 33.9296 51.4723 33.7415C51.2828 33.5171 51.0453 33.3382 50.7772 33.2182C51.1868 32.8953 51.5672 32.5368 51.9138 32.147C51.9402 32.1137 51.9545 32.0724 51.9544 32.0298C51.9543 31.9873 51.9398 31.9461 51.9132 31.9129C51.8866 31.8797 51.8496 31.8564 51.8081 31.847C51.7666 31.8375 51.7232 31.8424 51.6849 31.8608Z" fill="#3B2645"/>
<path d="M24.5431 31.9674L24.5432 31.9677L24.5432 31.9679L24.5432 31.9679L24.5646 32.0522L24.6136 32.1246C24.8108 32.4158 24.9374 32.8882 24.9873 33.5005C25.036 34.0995 25.0069 34.7711 24.9431 35.4099C24.8795 36.0462 24.7829 36.6363 24.7018 37.068C24.6817 37.1751 24.6626 37.2723 24.6453 37.3577C23.0908 37.1738 21.698 35.8307 20.9473 34.1646C20.5475 33.2773 20.3585 32.352 20.4209 31.5556C20.4828 30.7646 20.7865 30.1342 21.3418 29.7426C21.9581 29.3079 22.4066 29.2742 22.733 29.3659C23.085 29.4647 23.4095 29.7406 23.6977 30.1356C23.9821 30.5253 24.195 30.9819 24.3384 31.3521C24.4092 31.535 24.4612 31.6919 24.4952 31.8021C24.5122 31.8571 24.5246 31.9001 24.5326 31.9286L24.5412 31.96L24.543 31.9669L24.5431 31.9674Z" fill="white" stroke="black"/>
<path d="M22.0267 31.4356C22.607 31.7011 23.1065 32.1159 23.4741 32.6376C23.9119 33.0908 24.2491 33.6314 24.4635 34.2239C24.4635 34.412 24.2509 34.4856 24.1446 34.363C23.8502 34.0195 23.6212 33.6189 23.3269 33.2427C23.098 33.4756 22.8181 33.652 22.5092 33.7579C22.2639 33.8151 22.1167 33.5044 22.2475 33.3163C22.4338 33.092 22.6687 32.913 22.9344 32.793C22.5292 32.4678 22.1518 32.1095 21.806 31.7218C21.768 31.6925 21.7432 31.6494 21.7371 31.6018C21.7309 31.5543 21.7439 31.5062 21.7732 31.4683C21.8025 31.4303 21.8457 31.4056 21.8932 31.3994C21.9407 31.3933 21.9888 31.4063 22.0267 31.4356Z" fill="#3B2645"/>
<path d="M48.7831 26.7459L48.7831 26.7459L48.7842 26.7508C49.7999 31.3928 49.4127 36.2319 47.6719 40.6533C45.9728 44.8231 42.7962 49.1459 36.8354 49.1459C30.8742 49.1459 27.6896 44.8227 25.9907 40.6533C24.2498 36.2319 23.8626 31.3928 24.8783 26.7508L24.8784 26.7508L24.8796 26.745C26.1667 20.5092 29.185 17.676 31.8211 16.3764C33.1508 15.7208 34.4025 15.4461 35.3208 15.3355C35.7795 15.2802 36.1533 15.2661 36.4096 15.2656C36.5377 15.2654 36.6362 15.2685 36.701 15.2716C36.7334 15.2731 36.7574 15.2746 36.7724 15.2757L36.7882 15.2768L36.7901 15.277L36.7907 15.277L36.7909 15.277L36.791 15.277L36.8354 15.2811L36.8799 15.277L36.88 15.277L36.8802 15.277L36.8808 15.277L36.8826 15.2768L36.8983 15.2756C36.9133 15.2746 36.9372 15.2731 36.9694 15.2716C37.034 15.2685 37.1322 15.2654 37.2598 15.2656C37.5152 15.2661 37.8877 15.2802 38.345 15.3355C39.2605 15.446 40.5089 15.7207 41.836 16.3762C44.4672 17.6758 47.4838 20.5093 48.7831 26.7459Z" fill="white" stroke="black"/>
<path d="M37.5305 36.8816C36.9581 36.8244 35.6743 37.2332 35.3799 36.6281C35.0855 36.023 35.8951 33.0711 36.0014 32.5396C36.4406 30.7488 36.7872 28.9366 37.0399 27.1101C37.0399 27.012 36.8763 26.9711 36.8354 27.1101C35.6661 30.1438 35.3636 33.8398 34.7258 37.037C34.7169 37.0787 34.7178 37.1218 34.7283 37.1631C34.7388 37.2044 34.7586 37.2427 34.7863 37.2751C34.814 37.3075 34.8487 37.3331 34.8878 37.35C34.9269 37.3668 34.9694 37.3744 35.0119 37.3723C35.8296 37.3232 36.6473 37.454 37.465 37.4213C37.7676 37.3723 37.8248 36.9143 37.5305 36.8816Z" fill="#3B2645"/>
<path d="M32.8203 40.5366H40.6784C40.6784 40.5366 39.2066 43.325 36.7453 43.325C34.284 43.325 32.8203 40.5366 32.8203 40.5366Z" fill="#3B2645"/>
<path d="M31.4058 31.1247C31.4058 31.1247 30.3346 31.5254 30.4982 29.6201C30.6454 27.9111 31.4058 28.1401 31.4058 28.1401C31.4058 28.1401 32.1581 28.1401 32.0436 29.6365C31.9291 31.1329 31.4058 31.1247 31.4058 31.1247Z" fill="#3B2645"/>
<path d="M41.668 31.1247C41.668 31.1247 40.5969 31.5254 40.7604 29.6201C40.9076 27.9111 41.668 28.1401 41.668 28.1401C41.668 28.1401 42.4203 28.1401 42.3059 29.6365C42.1914 31.1329 41.668 31.1247 41.668 31.1247Z" fill="#3B2645"/>
<path d="M32.8532 25.5152C31.9292 25.041 30.1956 24.9183 29.5251 25.875C29.4991 25.9185 29.485 25.968 29.4844 26.0186C29.4838 26.0692 29.4965 26.1191 29.5215 26.1632C29.5464 26.2073 29.5826 26.2439 29.6263 26.2694C29.6701 26.295 29.7198 26.3084 29.7704 26.3084C30.2283 26.3084 30.6372 26.0631 31.0951 26.0222C31.5873 26.0014 32.0789 26.0764 32.5425 26.243C32.9677 26.382 33.262 25.7197 32.8532 25.5152Z" fill="#3B2645"/>
<path d="M43.1154 25.5152C42.1914 25.041 40.466 24.9183 39.7873 25.875C39.7613 25.9185 39.7472 25.968 39.7466 26.0186C39.746 26.0692 39.7587 26.1191 39.7837 26.1632C39.8086 26.2073 39.8448 26.2439 39.8885 26.2694C39.9323 26.295 39.982 26.3084 40.0326 26.3084C40.4987 26.3084 40.8994 26.0631 41.3655 26.0222C41.855 26.0007 42.3441 26.0758 42.8047 26.243C42.8971 26.2661 42.9948 26.2555 43.0802 26.2131C43.1655 26.1707 43.2329 26.0993 43.2704 26.0116C43.3078 25.924 43.3127 25.8259 43.2843 25.7349C43.2559 25.6439 43.196 25.566 43.1154 25.5152Z" fill="#3B2645"/>
<path d="M29.4841 17.2972C26.8158 20.9933 24.9294 25.1946 23.9401 29.6445L22.7053 27.4858C22.7053 27.4858 24.7332 15.5392 29.4841 17.2972Z" fill="#3B2645"/>
<path d="M28.8137 11.7614C28.8137 11.7614 32.6896 8.00818 46.3616 9.51276C48.3448 9.73092 50.3372 9.19047 51.9383 8C51.9383 8 54.5141 15.6537 47.49 17.9106C40.4659 20.1674 33.0984 19.8158 29.5005 17.2973C25.9026 14.7788 28.8137 11.7614 28.8137 11.7614Z" fill="#3B2645"/>
<path d="M33.8753 32.6213H26.6958C26.4009 32.6213 26.118 32.5042 25.9094 32.2956C25.7009 32.0871 25.5837 31.8042 25.5837 31.5093V27.7478C25.5837 27.6018 25.6125 27.4572 25.6684 27.3223C25.7243 27.1873 25.8062 27.0647 25.9094 26.9615C26.0127 26.8582 26.1353 26.7763 26.2702 26.7204C26.4052 26.6645 26.5498 26.6357 26.6958 26.6357H33.8753C34.0213 26.6357 34.1659 26.6645 34.3008 26.7204C34.4358 26.7763 34.5583 26.8582 34.6616 26.9615C34.7648 27.0647 34.8468 27.1873 34.9027 27.3223C34.9586 27.4572 34.9873 27.6018 34.9873 27.7478V31.5093C34.9873 31.8042 34.8701 32.0871 34.6616 32.2956C34.453 32.5042 34.1702 32.6213 33.8753 32.6213ZM26.6958 27.249C26.5642 27.2511 26.4385 27.3044 26.3454 27.3974C26.2524 27.4905 26.1991 27.6162 26.197 27.7478V31.5093C26.197 31.6416 26.2496 31.7684 26.3431 31.862C26.4366 31.9555 26.5635 32.0081 26.6958 32.0081H33.8753C33.9408 32.0081 34.0056 31.9951 34.0661 31.9701C34.1266 31.945 34.1817 31.9083 34.228 31.862C34.2743 31.8157 34.311 31.7607 34.3361 31.7001C34.3611 31.6396 34.3741 31.5748 34.3741 31.5093V27.7478C34.3741 27.6823 34.3611 27.6174 34.3361 27.5569C34.311 27.4964 34.2743 27.4414 34.228 27.3951C34.1817 27.3488 34.1266 27.3121 34.0661 27.287C34.0056 27.2619 33.9408 27.249 33.8753 27.249H26.6958Z" fill="black"/>
<path d="M46.5576 32.6213H39.3782C39.0832 32.6213 38.8004 32.5042 38.5918 32.2956C38.3833 32.0871 38.2661 31.8042 38.2661 31.5093V27.7478C38.2661 27.6018 38.2949 27.4572 38.3508 27.3223C38.4066 27.1873 38.4886 27.0647 38.5918 26.9615C38.6951 26.8582 38.8177 26.7763 38.9526 26.7204C39.0875 26.6645 39.2321 26.6357 39.3782 26.6357H46.5576C46.7036 26.6357 46.8482 26.6645 46.9832 26.7204C47.1181 26.7763 47.2407 26.8582 47.344 26.9615C47.4472 27.0647 47.5292 27.1873 47.5851 27.3223C47.6409 27.4572 47.6697 27.6018 47.6697 27.7478V31.5093C47.6697 31.8042 47.5525 32.0871 47.344 32.2956C47.1354 32.5042 46.8525 32.6213 46.5576 32.6213ZM39.3782 27.249C39.2459 27.249 39.119 27.3016 39.0255 27.3951C38.9319 27.4887 38.8794 27.6155 38.8794 27.7478V31.5093C38.8794 31.6416 38.9319 31.7684 39.0255 31.862C39.119 31.9555 39.2459 32.0081 39.3782 32.0081H46.5576C46.6899 32.0081 46.8168 31.9555 46.9103 31.862C47.0038 31.7684 47.0564 31.6416 47.0564 31.5093V27.7478C47.0543 27.6162 47.0011 27.4905 46.908 27.3974C46.8149 27.3044 46.6892 27.2511 46.5576 27.249H39.3782Z" fill="black"/>
<path d="M38.577 29.334H34.374V29.9473H38.577V29.334Z" fill="black"/>
<path d="M52.2001 57.4712V84.8643H21.9451L23.1716 57.4712C23.1716 57.4712 30.129 60.8558 37.1297 60.8558C44.1305 60.8558 52.2001 57.4712 52.2001 57.4712Z" fill="#3B2645"/>
<path d="M27.7834 85.2318H2.32007C2.32007 85.2318 2.32008 65.0018 5.45189 63.0148C7.83958 61.5021 19.9171 57.3481 25.5919 55.4429C26.0335 59.2943 27.5789 73.833 27.7834 85.2318Z" fill="#3B2645"/>
<path d="M71.3096 85.232H45.1431C45.3557 73.5797 46.942 58.6566 47.3263 55.1978C52.6087 56.964 65.7083 61.4287 68.1941 63.015C71.3096 65.002 71.3096 85.232 71.3096 85.232Z" fill="#3B2645"/>
</g>
</svg>
