<svg width="78" height="78" viewBox="0 0 78 78" fill="none" xmlns="http://www.w3.org/2000/svg">
<mask id="mask0_2591_5022" style="mask-type:alpha" maskUnits="userSpaceOnUse" x="0" y="0" width="78" height="78">
<path d="M39 78C60.5391 78 78 60.5391 78 39C78 17.4609 60.5391 0 39 0C17.4609 0 0 17.4609 0 39C0 60.5391 17.4609 78 39 78Z" fill="#EAE4FC"/>
</mask>
<g mask="url(#mask0_2591_5022)">
<path d="M23.6457 27.9311C23.6457 27.9311 22.4099 21.0689 23.8472 16.2574C24.1534 15.2411 24.708 14.3171 25.4608 13.5689C26.2136 12.8207 27.141 12.2718 28.1592 11.9718C28.1592 11.9718 28.9216 7.16035 38.7899 6.80102C48.6582 6.4417 56.4845 10.6397 54.5652 27.9574L52.0938 31.875L38.6935 18.9305C38.6935 18.9305 27.2126 26.3536 26.2047 29.8855C25.1969 33.4174 23.6457 27.9311 23.6457 27.9311Z" fill="#263238"/>
<mask id="path-3-inside-1_2591_5022" fill="white">
<path fill-rule="evenodd" clip-rule="evenodd" d="M47.6245 54.9621L47.6415 54.9592L46.7739 49.21L45.9588 43.7588H31.3141L30.3676 51.4536L29.9294 54.9591H29.903C29.903 54.9591 28.5271 55.4148 26.3974 56.1334C20.1662 58.228 7.68619 62.5224 5.1972 64.1175C1.83181 66.2559 1.83179 87.9382 1.83179 87.9382H75.7302C75.7302 87.9382 75.7302 66.2559 72.3561 64.0912C69.7356 62.426 56.1864 57.7986 50.3233 55.8355L47.6245 54.9621Z"/>
</mask>
<path fill-rule="evenodd" clip-rule="evenodd" d="M47.6245 54.9621L47.6415 54.9592L46.7739 49.21L45.9588 43.7588H31.3141L30.3676 51.4536L29.9294 54.9591H29.903C29.903 54.9591 28.5271 55.4148 26.3974 56.1334C20.1662 58.228 7.68619 62.5224 5.1972 64.1175C1.83181 66.2559 1.83179 87.9382 1.83179 87.9382H75.7302C75.7302 87.9382 75.7302 66.2559 72.3561 64.0912C69.7356 62.426 56.1864 57.7986 50.3233 55.8355L47.6245 54.9621Z" fill="white"/>
<path d="M47.6415 54.9592L47.8067 55.9455L48.7771 55.7829L48.6303 54.81L47.6415 54.9592ZM47.6245 54.9621L47.4593 53.9758L47.3166 55.9135L47.6245 54.9621ZM46.7739 49.21L45.7849 49.3579L45.7851 49.3593L46.7739 49.21ZM45.9588 43.7588L46.9478 43.6109L46.8204 42.7588H45.9588V43.7588ZM31.3141 43.7588V42.7588H30.4296L30.3216 43.6367L31.3141 43.7588ZM30.3676 51.4536L31.3598 51.5777L31.3601 51.5757L30.3676 51.4536ZM29.9294 54.9591V55.9591H30.8122L30.9217 55.0831L29.9294 54.9591ZM29.903 54.9591V53.9591H29.7418L29.5886 54.0098L29.903 54.9591ZM26.3974 56.1334L26.7161 57.0813L26.7172 57.0809L26.3974 56.1334ZM5.1972 64.1175L5.73351 64.9615L5.73676 64.9594L5.1972 64.1175ZM1.83179 87.9382L0.831787 87.9381L0.831786 88.9382H1.83179V87.9382ZM75.7302 87.9382V88.9382H76.7302V87.9382H75.7302ZM72.3561 64.0912L72.8961 63.2495L72.8924 63.2472L72.3561 64.0912ZM50.3233 55.8355L50.6408 54.8871L50.6312 54.884L50.3233 55.8355ZM47.4763 53.973L47.4593 53.9758L47.7897 55.9483L47.8067 55.9455L47.4763 53.973ZM45.7851 49.3593L46.6527 55.1085L48.6303 54.81L47.7627 49.0608L45.7851 49.3593ZM44.9698 43.9067L45.7849 49.3579L47.7629 49.0622L46.9478 43.6109L44.9698 43.9067ZM31.3141 44.7588H45.9588V42.7588H31.3141V44.7588ZM31.3601 51.5757L32.3066 43.8809L30.3216 43.6367L29.375 51.3315L31.3601 51.5757ZM30.9217 55.0831L31.3598 51.5777L29.3753 51.3296L28.9371 54.835L30.9217 55.0831ZM29.903 55.9591H29.9294V53.9591H29.903V55.9591ZM26.7172 57.0809C27.7809 56.722 28.6563 56.4287 29.2656 56.2253C29.5703 56.1235 29.8084 56.0442 29.9703 55.9904C30.0512 55.9635 30.1131 55.943 30.1547 55.9291C30.1755 55.9222 30.1912 55.917 30.2017 55.9135C30.207 55.9118 30.211 55.9105 30.2136 55.9096C30.2149 55.9092 30.2159 55.9089 30.2165 55.9086C30.2168 55.9085 30.2171 55.9085 30.2172 55.9084C30.2173 55.9084 30.2174 55.9084 30.2174 55.9084C30.2174 55.9083 30.2174 55.9083 30.2175 55.9083C30.2175 55.9083 30.2175 55.9083 29.903 54.9591C29.5886 54.0098 29.5886 54.0098 29.5886 54.0098C29.5886 54.0098 29.5886 54.0098 29.5886 54.0098C29.5885 54.0098 29.5884 54.0098 29.5884 54.0099C29.5882 54.0099 29.5879 54.01 29.5876 54.0101C29.5869 54.0103 29.5858 54.0107 29.5845 54.0111C29.5818 54.012 29.5777 54.0134 29.5724 54.0151C29.5617 54.0187 29.5458 54.024 29.5248 54.0309C29.4829 54.0449 29.4206 54.0655 29.3393 54.0926C29.1766 54.1466 28.9377 54.2262 28.6321 54.3282C28.0211 54.5323 27.1437 54.8262 26.0777 55.1859L26.7172 57.0809ZM5.73676 64.9594C6.26967 64.6179 7.43141 64.0822 9.06115 63.4176C10.6618 62.7647 12.6367 62.0178 14.7365 61.2523C18.9347 59.7218 23.6033 58.1277 26.7161 57.0813L26.0788 55.1855C22.9603 56.2338 18.2733 57.8342 14.0515 59.3733C11.9413 60.1426 9.93994 60.8992 8.30587 61.5657C6.70086 62.2202 5.36923 62.8195 4.65765 63.2755L5.73676 64.9594ZM1.83179 87.9382C2.83179 87.9382 2.83179 87.9381 2.83179 87.9381C2.83179 87.9379 2.83179 87.9377 2.83179 87.9375C2.83179 87.9369 2.83179 87.936 2.83179 87.9348C2.83179 87.9324 2.83179 87.9287 2.8318 87.9237C2.83181 87.9136 2.83184 87.8985 2.83189 87.8784C2.83199 87.8382 2.83219 87.778 2.8326 87.6993C2.83341 87.5418 2.83504 87.3098 2.8383 87.0133C2.84483 86.4204 2.8579 85.5699 2.88405 84.5423C2.93639 82.4859 3.041 79.726 3.24975 76.9035C3.45901 74.0741 3.77084 71.2123 4.23163 68.9404C4.46252 67.802 4.72405 66.8464 5.0136 66.1294C5.3212 65.3678 5.59218 65.0513 5.73351 64.9615L4.6609 63.2735C3.96088 63.7183 3.49568 64.5471 3.15912 65.3805C2.80451 66.2586 2.51391 67.3478 2.27154 68.5428C1.78581 70.9377 1.46662 73.8974 1.2552 76.756C1.04327 79.6213 0.937531 82.4157 0.884699 84.4914C0.858266 85.53 0.845041 86.3902 0.838422 86.9913C0.835112 87.2919 0.833454 87.5278 0.832622 87.689C0.832207 87.7695 0.831998 87.8314 0.831893 87.8734C0.831841 87.8944 0.831814 87.9104 0.831801 87.9212C0.831794 87.9266 0.831791 87.9308 0.831789 87.9336C0.831788 87.935 0.831788 87.9361 0.831787 87.9369C0.831787 87.9372 0.831787 87.9376 0.831787 87.9378C0.831787 87.938 0.831787 87.9381 1.83179 87.9382ZM75.7302 86.9382H1.83179V88.9382H75.7302V86.9382ZM71.8161 64.9329C71.9616 65.0262 72.2342 65.3479 72.5425 66.1117C72.833 66.8314 73.0953 67.7893 73.3268 68.9295C73.7888 71.2051 74.1014 74.0694 74.3112 76.9003C74.5205 79.7244 74.6254 82.4851 74.6778 84.542C74.704 85.5698 74.7171 86.4203 74.7237 87.0133C74.727 87.3098 74.7286 87.5418 74.7294 87.6993C74.7298 87.778 74.73 87.8382 74.7301 87.8784C74.7302 87.8985 74.7302 87.9136 74.7302 87.9237C74.7302 87.9287 74.7302 87.9324 74.7302 87.9348C74.7302 87.936 74.7302 87.9369 74.7302 87.9375C74.7302 87.9377 74.7302 87.9379 74.7302 87.9381C74.7302 87.9381 74.7302 87.9381 75.7302 87.9382C76.7302 87.9382 76.7302 87.938 76.7302 87.9378C76.7302 87.9376 76.7302 87.9372 76.7302 87.9369C76.7302 87.9361 76.7302 87.935 76.7302 87.9336C76.7302 87.9308 76.7302 87.9266 76.7302 87.9212C76.7302 87.9103 76.7302 87.8944 76.7301 87.8734C76.73 87.8314 76.7298 87.7695 76.7294 87.689C76.7285 87.5278 76.7269 87.2919 76.7236 86.9912C76.7169 86.39 76.7037 85.5297 76.6772 84.491C76.6242 82.4148 76.5182 79.6196 76.3057 76.7525C76.0938 73.8923 75.7737 70.9302 75.2868 68.5315C75.0438 67.3346 74.7525 66.2434 74.3971 65.3631C74.0596 64.5267 73.5941 63.6974 72.8961 63.2495L71.8161 64.9329ZM50.0058 56.7837C52.9346 57.7644 57.7788 59.409 62.2152 61.0153C64.4342 61.8187 66.5439 62.6099 68.2581 63.3021C70.0025 64.0064 71.2546 64.5761 71.8198 64.9352L72.8924 63.2472C72.1474 62.7737 70.7231 62.1405 69.0069 61.4475C67.2603 60.7423 65.125 59.9418 62.8961 59.1348C58.4371 57.5203 53.5751 55.8697 50.6408 54.8872L50.0058 56.7837ZM47.3166 55.9135L50.0154 56.7869L50.6312 54.884L47.9324 54.0107L47.3166 55.9135Z" fill="black" mask="url(#path-3-inside-1_2591_5022)"/>
<path d="M46.774 49.2188C40.4376 52.1197 33.7593 51.848 30.3589 51.4536L31.3142 43.7588H45.9589L46.774 49.2188Z" fill="#263238"/>
<path d="M51.9134 31.4425L51.9614 31.3708L51.9824 31.2875L51.9824 31.2875L51.9825 31.2873L51.9825 31.287L51.9827 31.2862L51.9847 31.2787L51.994 31.2447C52.0025 31.2138 52.0158 31.1674 52.034 31.1082C52.0704 30.9895 52.1261 30.8205 52.2021 30.6237C52.3556 30.2257 52.5844 29.7336 52.891 29.3132C53.2014 28.8876 53.5546 28.5858 53.9426 28.4778C54.3055 28.3768 54.7987 28.4183 55.4687 28.8914C56.0777 29.3213 56.4075 30.0093 56.4748 30.8639C56.5425 31.7242 56.3381 32.7206 55.9072 33.6747C55.094 35.4754 53.5761 36.9349 51.8777 37.1213C51.8573 37.0229 51.8345 36.9088 51.8103 36.7813C51.7227 36.32 51.6181 35.6889 51.5493 35.0069C51.4803 34.3225 51.4487 33.6005 51.5016 32.9532C51.5555 32.2935 51.6928 31.7727 51.9134 31.4425Z" fill="white" stroke="black"/>
<path d="M54.7051 30.7354C54.087 31.0221 53.5529 31.4627 53.1539 32.015C52.6836 32.5185 52.3251 33.1158 52.1022 33.7678C52.0496 33.9606 52.3301 34.0482 52.444 33.9168C52.7595 33.5399 53.0049 33.1105 53.3204 32.7161C53.5632 32.9668 53.8643 33.1535 54.1968 33.2594C54.4597 33.3296 54.6087 32.9878 54.4773 32.795C54.2785 32.5342 54.0159 32.3289 53.7148 32.199C54.1519 31.8474 54.5594 31.4605 54.933 31.0421C54.9664 31.0095 54.9868 30.966 54.9905 30.9195C54.9942 30.873 54.9808 30.8267 54.953 30.7893C54.9252 30.7518 54.8848 30.7257 54.8392 30.7158C54.7936 30.7059 54.746 30.7129 54.7051 30.7354Z" fill="#263238"/>
<path d="M25.6501 30.8323L25.6501 30.8326L25.6502 30.8327L25.6502 30.8327L25.671 30.9147L25.718 30.9855C25.9372 31.316 26.0735 31.8373 26.1271 32.4973C26.1796 33.1449 26.1482 33.8672 26.0797 34.5517C26.0114 35.2339 25.9077 35.865 25.8207 36.3265C25.7968 36.4535 25.7742 36.5675 25.754 36.6657C24.0564 36.4789 22.5406 35.0198 21.7285 33.2193C21.2982 32.2652 21.0939 31.2687 21.1613 30.4082C21.2283 29.5531 21.5573 28.8652 22.1642 28.4354C22.8318 27.9627 23.3236 27.9213 23.686 28.0222C24.0737 28.1302 24.4273 28.4321 24.7383 28.858C25.0456 29.2785 25.2751 29.7707 25.4293 30.1688C25.5056 30.3657 25.5616 30.5346 25.5983 30.6533C25.6166 30.7126 25.6299 30.7591 25.6385 30.7899L25.6479 30.8239L25.6498 30.8315L25.6501 30.8323Z" fill="white" stroke="black"/>
<path d="M22.918 30.2797C23.5395 30.5608 24.075 31.0025 24.4692 31.5593C24.9387 32.0482 25.3001 32.6305 25.5297 33.2683C25.5297 33.4611 25.3018 33.5487 25.1879 33.4173C24.8724 33.0404 24.627 32.611 24.3115 32.2166C24.0659 32.4638 23.7657 32.6499 23.4351 32.76C23.1721 32.8301 23.0231 32.4883 23.1546 32.2955C23.3533 32.0519 23.6051 31.857 23.8907 31.7258C23.4565 31.3773 23.052 30.9933 22.6814 30.5777C22.6507 30.5438 22.6329 30.5002 22.6315 30.4545C22.63 30.4088 22.6447 30.3641 22.6732 30.3283C22.7016 30.2925 22.7418 30.2679 22.7866 30.2591C22.8315 30.2502 22.878 30.2575 22.918 30.2797Z" fill="#263238"/>
<path d="M51.6304 25.2372L51.6304 25.2372L51.6318 25.2433C52.7348 30.2224 52.3281 35.4173 50.4637 40.1641C48.6409 44.646 45.2273 49.2884 38.8161 49.2884C32.4044 49.2884 28.9822 44.6453 27.1596 40.1638C25.2906 35.4184 24.875 30.2244 25.9657 25.2421L25.9657 25.2421L25.9669 25.2363C27.3486 18.5426 30.5901 15.4988 33.4258 14.1029C34.8552 13.3992 36.2009 13.1049 37.1882 12.9868C37.6814 12.9278 38.0834 12.9129 38.3593 12.9126C38.4972 12.9124 38.6033 12.9159 38.6734 12.9193C38.7084 12.9209 38.7344 12.9226 38.7507 12.9237L38.768 12.925L38.7705 12.9252L38.771 12.9253L38.7711 12.9253L38.7713 12.9253L38.8162 12.9294L38.8612 12.9253L38.8613 12.9253L38.8615 12.9253L38.862 12.9252L38.8644 12.925L38.8815 12.9237C38.8977 12.9226 38.9235 12.9209 38.9583 12.9193C39.0279 12.9159 39.1333 12.9124 39.2703 12.9126C39.5445 12.9129 39.9442 12.9278 40.4346 12.9867C41.4163 13.1048 42.755 13.399 44.1783 14.1025C47.0021 15.4983 50.2357 18.5423 51.6304 25.2372Z" fill="white" stroke="black"/>
<path d="M39.5346 36.1168C38.9211 36.0554 37.5451 36.4849 37.2296 35.8451C36.9141 35.2053 37.7818 32.024 37.8957 31.4631C38.3665 29.5467 38.738 27.6072 39.0087 25.6525C39.0087 25.6262 38.9996 25.6006 38.9829 25.5803C38.9662 25.5599 38.9429 25.546 38.9171 25.5408C38.8913 25.5356 38.8645 25.5396 38.8412 25.5519C38.818 25.5643 38.7997 25.5844 38.7896 25.6087C37.5451 28.8601 37.2121 32.8215 36.5285 36.2395C36.5175 36.2847 36.5172 36.332 36.5277 36.3774C36.5382 36.4228 36.5592 36.4651 36.5891 36.5008C36.6189 36.5366 36.6567 36.5649 36.6995 36.5835C36.7422 36.602 36.7887 36.6103 36.8352 36.6076C37.7116 36.5462 38.588 36.6952 39.4644 36.6076C39.7887 36.6426 39.8501 36.1431 39.5346 36.1168Z" fill="#263238"/>
<path d="M34.4866 40.0254H42.9088C42.9088 40.0254 41.3313 43.0139 38.6933 43.0139C36.0553 43.0139 34.4866 40.0254 34.4866 40.0254Z" fill="#263238"/>
<path d="M32.9703 29.9466C32.9703 29.9466 31.8222 30.3761 31.9975 28.334C32.1552 26.4936 32.9703 26.7477 32.9703 26.7477C32.9703 26.7477 33.7766 26.7477 33.6539 28.3428C33.5312 29.9379 32.9703 29.9466 32.9703 29.9466Z" fill="#3B2645"/>
<path d="M43.9693 29.9466C43.9693 29.9466 42.8212 30.3761 42.9965 28.334C43.1542 26.4936 43.9693 26.7477 43.9693 26.7477C43.9693 26.7477 44.7755 26.7477 44.6528 28.3428C44.5301 29.9379 43.9693 29.9466 43.9693 29.9466Z" fill="#3B2645"/>
<path d="M34.5218 23.9257C33.5577 23.4349 31.6735 23.2859 30.9285 24.3113C30.9028 24.3576 30.8895 24.4098 30.8899 24.4628C30.8903 24.5157 30.9045 24.5677 30.9309 24.6136C30.9574 24.6595 30.9953 24.6977 31.041 24.7246C31.0866 24.7515 31.1385 24.7661 31.1914 24.767C31.6822 24.767 32.1204 24.5041 32.6112 24.4603C33.1395 24.4365 33.6672 24.52 34.1625 24.7057C34.6445 24.8546 34.96 24.1448 34.5218 23.9257Z" fill="#3B2645"/>
<path d="M45.5204 23.926C44.5301 23.4177 42.6809 23.2863 41.9535 24.3204C41.9274 24.3674 41.914 24.4204 41.9148 24.4741C41.9156 24.5278 41.9305 24.5803 41.9581 24.6265C41.9856 24.6726 42.0247 24.7107 42.0716 24.737C42.1185 24.7633 42.1714 24.7768 42.2251 24.7761C42.7159 24.7761 43.1454 24.5132 43.6449 24.4694C44.1704 24.4451 44.6953 24.5286 45.1874 24.7148C45.6519 24.855 45.9586 24.1451 45.5204 23.926Z" fill="#3B2645"/>
<path d="M30.9285 15.118C30.9285 15.118 37.1773 16.3975 41.4454 14.04C45.7135 11.6825 52.8387 23.7944 52.6809 28.8337L54.0131 23.0932L47.5802 10.9638L35.3982 10.0874C35.3982 10.0874 29.7366 13.1198 30.9285 15.118Z" fill="#263238"/>
<path d="M30.9282 15.1176C28.0673 19.0816 26.0454 23.5877 24.9861 28.3601L23.6453 26.0639C23.6453 26.0639 25.8187 13.2334 30.9282 15.1176Z" fill="#263238"/>
<path d="M38.9055 64.046L38.9282 64.0468L38.9509 64.0457C42.5946 63.8571 46.1845 62.8241 49.5712 60.9956C51.3268 60.1065 53.0436 59.0809 54.7136 57.9243V87.1317H23.3214L25.2812 58.0488C25.904 58.6135 26.5452 59.1401 27.203 59.627C30.7807 62.3632 34.7928 63.8852 38.9055 64.046Z" fill="#A3B4E6" stroke="black"/>
<path d="M28.7199 87.938H1.83179C1.83179 87.938 1.83181 66.2558 5.1972 64.1173C7.23923 62.8115 15.9945 59.7353 22.515 57.4567C23.9435 56.9571 25.2756 56.5102 26.3974 56.1333C26.6341 58.3331 27.0722 62.5486 27.5104 67.623C28.0538 73.8279 28.5709 81.2773 28.7199 87.938Z" fill="#58469E"/>
<path d="M75.7302 87.9387H48.0095C48.141 81.6549 48.623 74.5823 49.1226 68.5702C49.6046 62.8735 50.1041 58.1147 50.3495 55.8623L55.2136 57.5099C61.7165 59.7448 70.3666 62.8735 72.3823 64.118C75.7302 66.2565 75.7302 87.9387 75.7302 87.9387Z" fill="#58469E"/>
<path d="M28.7198 87.938H25.1178L20.6482 73.8191L25.5298 68.0349L20.6482 66.5538L22.5149 57.4567C23.9435 56.9571 25.2756 56.5102 26.3974 56.1333C26.634 58.3331 27.0722 62.5486 27.5104 67.623C28.0538 73.8279 28.5709 81.2773 28.7198 87.938Z" fill="#263238"/>
<path d="M52.1724 68.0356L57.0628 73.8198L52.5844 87.9387H48.0095C48.141 81.6549 48.623 74.5823 49.1226 68.5702C49.6046 62.8735 50.1041 58.1147 50.3495 55.8623L55.2136 57.5099L57.0628 66.5544L52.1724 68.0356Z" fill="#263238"/>
</g>
</svg>
