<svg width="78" height="78" viewBox="0 0 78 78" fill="none" xmlns="http://www.w3.org/2000/svg">
<mask id="mask0_2591_5060" style="mask-type:alpha" maskUnits="userSpaceOnUse" x="0" y="0" width="78" height="78">
<path d="M77.5 39C77.5 60.263 60.263 77.5 39 77.5C17.737 77.5 0.5 60.263 0.5 39C0.5 17.737 17.737 0.5 39 0.5C60.263 0.5 77.5 17.737 77.5 39Z" fill="#EAE4FC" stroke="black"/>
</mask>
<g mask="url(#mask0_2591_5060)">
<path d="M24.7565 35.36C24.7565 35.36 22.3967 30.1078 24.178 24.8097C24.919 22.662 26.08 20.6831 27.5934 18.9884C29.1067 17.2938 30.9422 15.9173 32.9928 14.939C38.9153 12.3037 48.3912 13.6627 52.4405 21.5776C56.4898 29.4926 51.862 39.8408 50.3653 41.4018C48.8686 42.9627 27.7774 42.017 24.7565 35.36Z" fill="#3B2645"/>
<mask id="path-3-inside-1_2591_5060" fill="white">
<path fill-rule="evenodd" clip-rule="evenodd" d="M45.6927 60.0545L45.7007 60.0505C44.5852 58.0808 43.8882 55.9021 43.6532 53.6506C43.3968 52.0079 43.2923 50.345 43.341 48.6831H33.1029C33.1634 50.8752 32.963 53.0668 32.5061 55.2116C32.1987 56.9133 31.6025 58.5499 30.7431 60.0505L30.7791 60.0685C29.4713 60.5997 27.377 61.1031 25.0742 61.6567C24.2871 61.846 23.4757 62.041 22.663 62.2451C20.8449 62.7042 19.0085 63.2092 17.4292 63.7785C15.0877 64.6324 13.288 65.6516 12.8381 66.9371C11.3414 71.1793 9 90.8106 9 90.8106H67.4165C67.4165 90.8106 65.0934 71.1793 63.6335 66.9371C63.1652 65.7343 61.6134 64.761 59.4923 63.9529C57.7825 63.3125 56.0345 62.7789 54.2585 62.3553C53.319 62.1156 52.3766 61.8883 51.4667 61.6689C49.1294 61.1052 47.0059 60.5931 45.6927 60.0545Z"/>
</mask>
<path fill-rule="evenodd" clip-rule="evenodd" d="M45.6927 60.0545L45.7007 60.0505C44.5852 58.0808 43.8882 55.9021 43.6532 53.6506C43.3968 52.0079 43.2923 50.345 43.341 48.6831H33.1029C33.1634 50.8752 32.963 53.0668 32.5061 55.2116C32.1987 56.9133 31.6025 58.5499 30.7431 60.0505L30.7791 60.0685C29.4713 60.5997 27.377 61.1031 25.0742 61.6567C24.2871 61.846 23.4757 62.041 22.663 62.2451C20.8449 62.7042 19.0085 63.2092 17.4292 63.7785C15.0877 64.6324 13.288 65.6516 12.8381 66.9371C11.3414 71.1793 9 90.8106 9 90.8106H67.4165C67.4165 90.8106 65.0934 71.1793 63.6335 66.9371C63.1652 65.7343 61.6134 64.761 59.4923 63.9529C57.7825 63.3125 56.0345 62.7789 54.2585 62.3553C53.319 62.1156 52.3766 61.8883 51.4667 61.6689C49.1294 61.1052 47.0059 60.5931 45.6927 60.0545Z" fill="white"/>
<path d="M45.7007 60.0505L46.1466 60.9456L47.0906 60.4754L46.5709 59.5577L45.7007 60.0505ZM45.6927 60.0545L45.2468 59.1594L43.2724 60.1429L45.3133 60.9798L45.6927 60.0545ZM43.6532 53.6506L44.6478 53.5468L44.6451 53.5215L44.6412 53.4964L43.6532 53.6506ZM43.341 48.6831L44.3406 48.7124L44.3707 47.6831H43.341V48.6831ZM33.1029 48.6831V47.6831H32.075L32.1033 48.7107L33.1029 48.6831ZM32.5061 55.2116L31.528 55.0032L31.5248 55.0185L31.522 55.0338L32.5061 55.2116ZM30.7431 60.0505L29.8753 59.5536L29.349 60.4727L30.2968 60.9454L30.7431 60.0505ZM30.7791 60.0685L31.1554 60.995L33.2067 60.1618L31.2254 59.1736L30.7791 60.0685ZM25.0742 61.6567L25.308 62.629V62.629L25.0742 61.6567ZM22.663 62.2451L22.4195 61.2752L22.4181 61.2755L22.663 62.2451ZM17.4292 63.7785L17.09 62.8377L17.0865 62.839L17.4292 63.7785ZM12.8381 66.9371L13.7811 67.2698L13.782 67.2675L12.8381 66.9371ZM9 90.8106L8.00704 90.6921L7.87364 91.8106H9V90.8106ZM67.4165 90.8106V91.8106H68.5418L68.4095 90.6931L67.4165 90.8106ZM63.6335 66.9371L64.579 66.6117L64.5725 66.5929L64.5653 66.5743L63.6335 66.9371ZM59.4923 63.9529L59.8483 63.0184L59.8431 63.0165L59.4923 63.9529ZM54.2585 62.3553L54.0113 63.3242L54.0189 63.3262L54.0265 63.328L54.2585 62.3553ZM51.4667 61.6689L51.7011 60.6967L51.4667 61.6689ZM45.2549 59.1554L45.2468 59.1594L46.1385 60.9497L46.1466 60.9456L45.2549 59.1554ZM42.6586 53.7544C42.9079 56.1427 43.6473 58.4538 44.8306 60.5433L46.5709 59.5577C45.5232 57.7077 44.8685 55.6614 44.6478 53.5468L42.6586 53.7544ZM42.3414 48.6538C42.2909 50.3771 42.3992 52.1014 42.6651 53.8048L44.6412 53.4964C44.3943 51.9144 44.2937 50.3129 44.3406 48.7124L42.3414 48.6538ZM33.1029 49.6831H43.341V47.6831H33.1029V49.6831ZM33.4841 55.4199C33.9575 53.1976 34.1652 50.9269 34.1026 48.6556L32.1033 48.7107C32.1616 50.8236 31.9684 52.9359 31.528 55.0032L33.4841 55.4199ZM31.6109 60.5475C32.527 58.9478 33.1625 57.2033 33.4902 55.3893L31.522 55.0338C31.2349 56.6233 30.678 58.1519 29.8753 59.5536L31.6109 60.5475ZM31.2254 59.1736L31.1895 59.1557L30.2968 60.9454L30.3328 60.9633L31.2254 59.1736ZM25.308 62.629C27.5752 62.084 29.7605 61.5616 31.1554 60.995L30.4028 59.142C29.1821 59.6378 27.1788 60.1223 24.8405 60.6844L25.308 62.629ZM22.9065 63.215C23.7135 63.0124 24.5201 62.8184 25.308 62.629L24.8405 60.6844C24.0541 60.8735 23.2379 61.0697 22.4195 61.2752L22.9065 63.215ZM17.7683 64.7192C19.2998 64.1671 21.0976 63.6718 22.9078 63.2146L22.4181 61.2755C20.5922 61.7366 18.7171 62.2512 17.09 62.8377L17.7683 64.7192ZM13.782 67.2675C13.9001 66.9298 14.2468 66.5067 14.9715 66.033C15.679 65.5705 16.6339 65.1329 17.7718 64.718L17.0865 62.839C15.883 63.278 14.7673 63.777 13.8771 64.359C13.0041 64.9297 12.226 65.6589 11.8942 66.6068L13.782 67.2675ZM9 90.8106C9.99296 90.929 9.99297 90.9289 9.99298 90.9288C9.993 90.9287 9.99302 90.9285 9.99306 90.9282C9.99313 90.9276 9.99323 90.9268 9.99337 90.9256C9.99364 90.9233 9.99406 90.9198 9.99462 90.9151C9.99573 90.9058 9.99741 90.8918 9.99963 90.8733C10.0041 90.8363 10.0107 90.7812 10.0194 90.7091C10.0369 90.5649 10.0627 90.3525 10.0961 90.0807C10.1629 89.5369 10.26 88.7549 10.3812 87.8033C10.6237 85.8996 10.9625 83.3181 11.3479 80.6053C11.7334 77.8911 12.1646 75.0519 12.5918 72.6308C13.024 70.1813 13.4388 68.2401 13.7811 67.2698L11.8951 66.6044C11.4891 67.7552 11.05 69.8587 10.6222 72.2832C10.1894 74.736 9.75465 77.6001 9.36774 80.324C8.98063 83.0493 8.64053 85.6408 8.39725 87.5505C8.27559 88.5056 8.17809 89.2905 8.11099 89.8368C8.07744 90.11 8.05148 90.3236 8.03389 90.469C8.0251 90.5417 8.0184 90.5974 8.0139 90.6349C8.01164 90.6537 8.00993 90.6679 8.00879 90.6775C8.00821 90.6823 8.00778 90.6859 8.00749 90.6884C8.00734 90.6896 8.00723 90.6905 8.00716 90.6911C8.00712 90.6915 8.00709 90.6917 8.00707 90.6919C8.00705 90.692 8.00704 90.6921 9 90.8106ZM67.4165 89.8106H9V91.8106H67.4165V89.8106ZM62.6879 67.2625C63.0226 68.2353 63.43 70.1789 63.8552 72.6281C64.2756 75.0497 64.7012 77.8893 65.0822 80.6036C65.4629 83.3167 65.7983 85.8983 66.0386 87.8021C66.1586 88.7538 66.2549 89.5358 66.3211 90.0796C66.3542 90.3515 66.3798 90.5639 66.3971 90.7082C66.4058 90.7803 66.4124 90.8354 66.4168 90.8724C66.419 90.8909 66.4207 90.9049 66.4218 90.9142C66.4223 90.9189 66.4227 90.9224 66.423 90.9247C66.4231 90.9259 66.4232 90.9267 66.4233 90.9273C66.4233 90.9276 66.4234 90.9278 66.4234 90.9279C66.4234 90.928 66.4234 90.9281 67.4165 90.8106C68.4095 90.6931 68.4095 90.693 68.4095 90.6928C68.4095 90.6926 68.4095 90.6924 68.4094 90.6921C68.4094 90.6914 68.4092 90.6905 68.4091 90.6893C68.4088 90.6868 68.4084 90.6832 68.4078 90.6784C68.4067 90.6688 68.405 90.6546 68.4027 90.6358C68.3983 90.5983 68.3916 90.5427 68.3829 90.47C68.3655 90.3246 68.3397 90.111 68.3065 89.8379C68.2399 89.2916 68.1433 88.5067 68.0228 87.5517C67.7818 85.642 67.4452 83.0507 67.0627 80.3257C66.6805 77.6019 66.2515 74.7382 65.8257 72.2859C65.4048 69.8611 64.9742 67.7601 64.579 66.6117L62.6879 67.2625ZM59.1363 64.8874C60.1561 65.2759 60.9921 65.6872 61.6119 66.1181C62.2398 66.5545 62.5681 66.9571 62.7016 67.2999L64.5653 66.5743C64.2305 65.7143 63.5488 65.0288 62.7535 64.4759C61.95 63.9174 60.9496 63.438 59.8483 63.0185L59.1363 64.8874ZM54.0265 63.328C55.7622 63.742 57.4705 64.2635 59.1415 64.8894L59.8431 63.0165C58.0945 62.3615 56.3068 61.8158 54.4905 61.3826L54.0265 63.328ZM51.2322 62.641C52.1432 62.8607 53.0792 63.0864 54.0113 63.3242L54.5057 61.3863C53.5588 61.1447 52.6101 60.916 51.7011 60.6967L51.2322 62.641ZM45.3133 60.9798C46.7151 61.5546 48.9315 62.0861 51.2322 62.641L51.7011 60.6967C49.3273 60.1242 47.2967 59.6315 46.0721 59.1293L45.3133 60.9798Z" fill="black" mask="url(#path-3-inside-1_2591_5060)"/>
<path d="M43.6532 53.6506C39.9803 55.588 34.8475 55.4136 32.5061 55.2116C32.963 53.0668 33.1634 50.8752 33.103 48.6831H43.341C43.2923 50.345 43.3968 52.0079 43.6532 53.6506Z" fill="#3B2645"/>
<path d="M27.1735 38.1361L27.1735 38.1364L27.1736 38.1365L27.1736 38.1366L27.1938 38.2162L27.2388 38.2856C27.4564 38.6208 27.5904 39.1381 27.643 39.7854C27.6947 40.4213 27.664 41.1273 27.5968 41.7956C27.5298 42.4617 27.4279 43.0771 27.3425 43.528C27.3193 43.6505 27.2973 43.7606 27.2777 43.8561C25.6161 43.6696 24.1306 42.2378 23.3335 40.4695C22.9106 39.5313 22.7101 38.552 22.7763 37.7076C22.8421 36.8687 23.165 36.1962 23.7591 35.7776C24.4143 35.3159 24.8955 35.2772 25.2492 35.3764C25.6283 35.4827 25.9746 35.7787 26.2797 36.1972C26.5809 36.6103 26.806 37.0937 26.9572 37.4847C27.032 37.6781 27.0869 37.8441 27.1228 37.9606C27.1407 38.0188 27.1538 38.0644 27.1622 38.0946L27.1713 38.128L27.1733 38.1353L27.1735 38.1361Z" fill="white" stroke="black"/>
<path d="M24.4994 37.5818C25.1099 37.8631 25.6356 38.3001 26.0237 38.849C26.4828 39.3307 26.8363 39.903 27.0612 40.5293C27.1071 40.7221 26.8409 40.8048 26.7307 40.667C26.4185 40.3089 26.1798 39.8774 25.886 39.4917C25.647 39.7382 25.3503 39.9212 25.0228 40.0243C24.7657 40.0886 24.6097 39.758 24.7474 39.5652C24.9432 39.3278 25.1915 39.1391 25.4727 39.0143C25.0379 38.6891 24.6324 38.3266 24.2607 37.9308C24.2144 37.8991 24.1827 37.8504 24.1723 37.7953C24.162 37.7402 24.174 37.6832 24.2056 37.6369C24.2373 37.5907 24.286 37.5589 24.3411 37.5485C24.3962 37.5382 24.4532 37.5502 24.4994 37.5818Z" fill="#3B2645"/>
<path d="M49.4676 38.2916L49.516 38.2195L49.5371 38.1357L49.5371 38.1357L49.5371 38.1355L49.5372 38.1352L49.5374 38.1345L49.5393 38.1271L49.5483 38.0937C49.5567 38.0635 49.5697 38.0179 49.5875 37.9597C49.6232 37.8432 49.6777 37.6772 49.7521 37.4839C49.9025 37.0928 50.1265 36.6095 50.4266 36.1965C50.7306 35.7782 51.0757 35.4825 51.4536 35.3763C51.8062 35.2773 52.2867 35.3158 52.9421 35.7776C53.5362 36.1962 53.8591 36.8687 53.9249 37.7076C53.9911 38.552 53.7906 39.5313 53.3677 40.4695C52.5687 42.242 51.078 43.6764 49.4116 43.8574C49.3907 43.7615 49.3673 43.6497 49.3427 43.5246C49.2544 43.0755 49.1513 42.4612 49.085 41.796C49.0184 41.1286 48.9903 40.4236 49.0463 39.7888C49.1034 39.1431 49.2431 38.6267 49.4676 38.2916Z" fill="white" stroke="black"/>
<path d="M52.174 37.5818C51.5636 37.8631 51.0378 38.3001 50.6498 38.849C50.1906 39.3306 49.8372 39.903 49.6122 40.5293C49.5663 40.7221 49.8326 40.8048 49.9427 40.667C50.2641 40.3089 50.4937 39.8774 50.7875 39.4917C51.0265 39.7382 51.3232 39.9212 51.6507 40.0243C51.9078 40.0886 52.0638 39.758 51.9261 39.5652C51.7323 39.3257 51.4834 39.1367 51.2007 39.0142C51.6311 38.6737 52.0306 38.2958 52.3944 37.8848C52.4223 37.8519 52.4384 37.8105 52.44 37.7674C52.4416 37.7242 52.4286 37.6817 52.4032 37.6468C52.3778 37.6119 52.3414 37.5865 52.2999 37.5747C52.2583 37.5629 52.214 37.5654 52.174 37.5818Z" fill="#3B2645"/>
<path d="M49.3618 31.7524L49.3617 31.7524L49.3628 31.7571C50.3089 36.0871 49.9465 40.6007 48.3216 44.7243C46.7416 48.6509 43.7652 52.6732 38.2267 52.6732C32.6905 52.6732 29.7224 48.6176 28.1314 44.7233C26.51 40.5991 26.1509 36.0861 27.0998 31.7574L27.0998 31.7574L27.1012 31.7505C28.2887 25.9388 31.0991 23.3039 33.5524 22.0962C34.7907 21.4866 35.9573 21.2314 36.8135 21.1287C37.2411 21.0775 37.5896 21.0645 37.8282 21.0641C37.9475 21.0639 38.0392 21.0669 38.0994 21.0697C38.1295 21.0712 38.1517 21.0726 38.1655 21.0735L38.1799 21.0746L38.1814 21.0747L38.182 21.0748L38.1823 21.0748L38.1823 21.0748L38.2276 21.0789L38.2728 21.0746L38.2729 21.0746L38.2732 21.0746L38.2738 21.0745L38.2752 21.0744L38.2895 21.0733C38.3032 21.0723 38.3252 21.0709 38.3551 21.0694C38.415 21.0663 38.5061 21.0631 38.6247 21.063C38.8621 21.0627 39.2088 21.0748 39.6346 21.125C40.487 21.2255 41.6494 21.4782 42.8852 22.086C45.3336 23.2902 48.1471 25.9254 49.3618 31.7524Z" fill="white" stroke="black"/>
<path d="M32.7356 36.728C32.7356 36.728 31.7255 37.1044 31.8816 35.3047C32.0194 33.6887 32.7356 33.909 32.7356 33.909C32.7356 33.909 33.4426 33.909 33.3416 35.3139C33.2406 36.7188 32.7356 36.728 32.7356 36.728Z" fill="#3B2645"/>
<path d="M43.0932 36.728C43.0932 36.728 42.074 37.1044 42.2301 35.3047C42.3679 33.6887 43.0932 33.909 43.0932 33.909C43.0932 33.909 43.7911 33.909 43.69 35.3139C43.589 36.7188 43.0932 36.728 43.0932 36.728Z" fill="#3B2645"/>
<path d="M40.4394 44.7256C39.63 45.0995 38.7794 45.3768 37.9052 45.552C37.0512 45.6071 36.3075 45.1756 35.4995 45.1847C35.477 45.1849 35.455 45.191 35.4356 45.2024C35.4162 45.2138 35.4001 45.23 35.389 45.2495C35.3778 45.269 35.372 45.2911 35.3721 45.3136C35.3721 45.3361 35.378 45.3581 35.3893 45.3776C36.3075 46.8283 39.8334 46.3784 40.6506 45.0011C40.6669 44.9687 40.6737 44.9324 40.6703 44.8964C40.6669 44.8603 40.6534 44.8259 40.6314 44.7972C40.6093 44.7684 40.5796 44.7465 40.5457 44.7338C40.5117 44.7212 40.4749 44.7183 40.4394 44.7256Z" fill="#3B2645"/>
<path d="M34.2784 31.2463C33.7592 30.9189 33.1434 30.7795 32.5339 30.8515C31.9921 30.8515 31.2116 30.8515 30.8535 31.3106C30.8535 31.3749 30.8535 31.4483 30.8535 31.4759C31.3615 31.5414 31.8771 31.5196 32.3778 31.4116C32.9533 31.4891 33.5326 31.5351 34.1131 31.5494C34.2876 31.5034 34.407 31.3565 34.2784 31.2463Z" fill="#3B2645"/>
<path d="M44.7826 31.0351C44.6148 30.7943 44.3802 30.6077 44.1078 30.4984C43.8354 30.3891 43.5369 30.3618 43.2492 30.4199C42.6982 30.475 41.8627 30.6311 41.5688 31.1545C41.5584 31.174 41.5525 31.1956 41.5516 31.2178C41.5507 31.2399 41.5549 31.2619 41.5637 31.2822C41.5726 31.3026 41.5858 31.3206 41.6026 31.3351C41.6194 31.3495 41.6393 31.36 41.6607 31.3657C42.1014 31.485 42.4871 31.2187 42.9186 31.1361C43.471 31.062 44.0331 31.1283 44.553 31.3289C44.5915 31.3395 44.6322 31.3384 44.67 31.3259C44.7079 31.3134 44.7412 31.2899 44.7657 31.2585C44.7902 31.2271 44.805 31.1891 44.808 31.1493C44.811 31.1096 44.8021 31.0698 44.7826 31.0351Z" fill="#3B2645"/>
<path d="M37.9696 41.4014C37.5197 41.3004 36.4362 41.3188 36.2617 40.9607C36.0873 40.6026 36.9596 38.8396 37.0514 38.4356C37.4535 37.0373 37.5567 35.57 37.3544 34.1292C37.3488 34.113 37.3383 34.099 37.3243 34.089C37.3103 34.0791 37.2935 34.0737 37.2764 34.0737C37.2592 34.0737 37.2425 34.0791 37.2285 34.089C37.2145 34.099 37.204 34.113 37.1983 34.1292C36.9229 35.3229 36.9045 36.5625 36.6566 37.8021C36.4087 39.0416 35.9588 40.1618 35.5915 41.3555C35.5831 41.3879 35.5822 41.4218 35.5889 41.4545C35.5956 41.4873 35.6096 41.5182 35.6299 41.5447C35.6503 41.5712 35.6764 41.5928 35.7063 41.6078C35.7362 41.6227 35.7692 41.6307 35.8026 41.631C36.5184 41.7686 37.2538 41.7686 37.9696 41.631C37.9945 41.6239 38.0165 41.6088 38.0321 41.5881C38.0477 41.5674 38.0562 41.5421 38.0562 41.5162C38.0562 41.4903 38.0477 41.465 38.0321 41.4443C38.0165 41.4236 37.9945 41.4086 37.9696 41.4014Z" fill="#3B2645"/>
<path d="M33.1305 14.434C32.3583 13.1938 31.9107 11.7792 31.8289 10.3206C31.747 8.86196 32.0336 7.40619 32.6623 6.08743C33.3159 4.7788 34.2726 3.64525 35.4529 2.78119C36.6332 1.91713 38.0028 1.34756 39.4478 1.11992C41.3623 0.774332 43.3363 1.18229 44.9571 2.25849C46.9771 3.69089 47.9596 6.19762 48.3544 8.64005C48.6695 10.2741 48.6004 11.959 48.1525 13.5617C47.7575 14.7387 47.0742 15.7981 46.1648 16.6433C45.2554 17.4885 44.1489 18.0927 42.9462 18.4006C39.8702 19.1444 34.8476 17.0876 33.1305 14.434Z" fill="#3B2645"/>
<path d="M59.4648 63.9349C58.1296 72.8364 57.3506 81.8125 57.1325 90.8109H19.7706C19.552 81.7532 18.7608 72.7183 17.4016 63.7605C18.9809 63.1912 20.8173 62.6862 22.6354 62.2271C23.3591 65.6083 23.9017 69.0259 24.2606 72.4651H52.7251C53.0738 69.074 53.5948 65.7029 54.2861 62.3648C56.0428 62.7816 57.7723 63.306 59.4648 63.9349Z" fill="#9669A4"/>
<path d="M27.0703 26.6828C27.0703 26.6828 35.4168 30.5852 49.6123 26.6828C49.6123 26.6828 44.9754 16.4448 38.2174 17.1793C31.4594 17.9139 27.0703 26.6828 27.0703 26.6828Z" fill="#3B2645"/>
</g>
</svg>
