<svg width="24" height="24" viewBox="0 0 24 24" fill="none" xmlns="http://www.w3.org/2000/svg">
<path d="M18 8.4C18 6.70261 17.3679 5.07475 16.2426 3.87452C15.1174 2.67428 13.5913 2 12 2C10.4087 2 8.88258 2.67428 7.75736 3.87452C6.63214 5.07475 6 6.70261 6 8.4C6 15.8667 3 18 3 18H21C21 18 18 15.8667 18 8.4Z" stroke="#170658" stroke-width="1.5" stroke-linecap="round" stroke-linejoin="round"/>
<path d="M13.7295 21C13.5537 21.3031 13.3014 21.5547 12.9977 21.7295C12.6941 21.9044 12.3499 21.9965 11.9995 21.9965C11.6491 21.9965 11.3049 21.9044 11.0013 21.7295C10.6977 21.5547 10.4453 21.3031 10.2695 21" stroke="#170658" stroke-width="1.5" stroke-linecap="round" stroke-linejoin="round"/>
</svg>
