<svg width="16" height="16" viewBox="0 0 16 16" fill="none" xmlns="http://www.w3.org/2000/svg">
<path d="M6.66699 6.00768L6.67456 5.99927" stroke="#170658" stroke-width="0.880893" stroke-linecap="round" stroke-linejoin="round"/>
<path d="M9.33301 6.00768L9.34058 5.99927" stroke="#170658" stroke-width="0.880893" stroke-linecap="round" stroke-linejoin="round"/>
<path d="M6.66699 8.67442L6.67456 8.66602" stroke="#170658" stroke-width="0.880893" stroke-linecap="round" stroke-linejoin="round"/>
<path d="M9.33301 8.67442L9.34058 8.66602" stroke="#170658" stroke-width="0.880893" stroke-linecap="round" stroke-linejoin="round"/>
<path d="M6.66699 11.3409L6.67456 11.3325" stroke="#170658" stroke-width="0.880893" stroke-linecap="round" stroke-linejoin="round"/>
<path d="M9.33301 11.3409L9.34058 11.3325" stroke="#170658" stroke-width="0.880893" stroke-linecap="round" stroke-linejoin="round"/>
<path d="M4 13.6V3.73333C4 3.51242 4.17909 3.33333 4.4 3.33333H8V2.4C8 2.17909 8.17907 2 8.4 2H11.6C11.8209 2 12 2.17909 12 2.4V13.6C12 13.8209 11.8209 14 11.6 14H4.4C4.17909 14 4 13.8209 4 13.6Z" stroke="#170658" stroke-width="0.880893" stroke-linecap="round" stroke-linejoin="round"/>
</svg>
