<svg width="61" height="61" viewBox="0 0 61 61" fill="none" xmlns="http://www.w3.org/2000/svg">
<circle cx="30.3105" cy="30.644" r="30.3105" fill="#F6F4FD"/>
<path d="M39 25.3531V34.647C39 34.8649 38.8819 35.0656 38.6914 35.1715L30.2914 39.8381C30.1102 39.9388 29.8898 39.9388 29.7086 39.8381L21.3086 35.1715C21.1182 35.0656 21 34.8649 21 34.647L21 25.3531C21 25.1352 21.1181 24.9344 21.3086 24.8286L29.7086 20.1619C29.8898 20.0613 30.1102 20.0613 30.2914 20.1619L38.6914 24.8286C38.8818 24.9344 39 25.1352 39 25.3531Z" stroke="#2504CA" stroke-width="1.5" stroke-linecap="round" stroke-linejoin="round"/>
<path d="M21.5293 25.2936L29.7095 29.8382C29.8907 29.9389 30.1111 29.9389 30.2923 29.8382L38.5009 25.2778" stroke="#2504CA" stroke-width="1.5" stroke-linecap="round" stroke-linejoin="round"/>
<path d="M30 39V30" stroke="#2504CA" stroke-width="1.5" stroke-linecap="round" stroke-linejoin="round"/>
</svg>
