<svg width="62" height="61" viewBox="0 0 62 61" fill="none" xmlns="http://www.w3.org/2000/svg">
<circle cx="30.9316" cy="30.3105" r="30.3105" fill="#F6F4FD"/>
<path d="M21.6211 30H22.6211M30.6211 21V22M38.6211 30H39.6211M24.2211 23.6L24.9211 24.3M37.0211 23.6L36.3211 24.3" stroke="#2504CA" stroke-width="1.5" stroke-linecap="round" stroke-linejoin="round"/>
<path d="M27.6211 34C26.7816 33.3704 26.1614 32.4925 25.8485 31.4908C25.5356 30.4892 25.5458 29.4144 25.8777 28.4189C26.2095 27.4233 26.8462 26.5574 27.6975 25.9438C28.5489 25.3302 29.5717 25 30.6211 25C31.6705 25 32.6933 25.3302 33.5446 25.9438C34.396 26.5574 35.0327 27.4233 35.3645 28.4189C35.6964 29.4144 35.7066 30.4892 35.3937 31.4908C35.0808 32.4925 34.4606 33.3704 33.6211 34C33.2307 34.3865 32.9367 34.8594 32.763 35.3806C32.5892 35.9018 32.5406 36.4566 32.6211 37C32.6211 37.5304 32.4104 38.0391 32.0353 38.4142C31.6602 38.7893 31.1515 39 30.6211 39C30.0907 39 29.582 38.7893 29.2069 38.4142C28.8318 38.0391 28.6211 37.5304 28.6211 37C28.7015 36.4566 28.6529 35.9018 28.4792 35.3806C28.3055 34.8594 28.0115 34.3865 27.6211 34" stroke="#2504CA" stroke-width="1.5" stroke-linecap="round" stroke-linejoin="round"/>
<path d="M28.3203 35H32.9203" stroke="#2504CA" stroke-width="1.5" stroke-linecap="round" stroke-linejoin="round"/>
</svg>
