<svg width="61" height="61" viewBox="0 0 61 61" fill="none" xmlns="http://www.w3.org/2000/svg">
<circle cx="30.3105" cy="30.3105" r="30.3105" fill="#F6F4FD"/>
<path d="M24.5 34.7288V37M28 26.2308C27.2009 25.4931 25.7935 24.98 24.5 24.9479L28 26.2308ZM21 33.2308C21.7519 34.1562 23.1499 34.684 24.5 34.7288L21 33.2308ZM24.5 24.9479C22.961 24.9096 21.5833 25.5523 21.5833 27.3077C21.5833 30.5385 28 28.9231 28 32.1538C28 33.9965 26.2922 34.7882 24.5 34.7288V24.9479ZM24.5 24.9479V23V24.9479Z" stroke="#2504CA" stroke-width="1.5" stroke-linecap="round" stroke-linejoin="round"/>
<path d="M39 30L35.16 34M31 30H39H31ZM39 30L35.16 26L39 30Z" stroke="#2504CA" stroke-width="1.5" stroke-linecap="round" stroke-linejoin="round"/>
</svg>
