<svg width="20" height="20" viewBox="0 0 20 20" fill="none" xmlns="http://www.w3.org/2000/svg">
<circle cx="10" cy="10" r="10" fill="url(#paint0_linear_1921_222)"/>
<path d="M6.04297 7.29733V5.33203L9.61624 7.39943V9.41577L6.04297 7.29733Z" fill="#8F90FC"/>
<path d="M9.61624 7.3995L11.4539 6.40409L7.82961 4.28564L6.04297 5.3321L9.61624 7.3995Z" fill="#6A6CF9"/>
<path d="M10.1797 9.72203V7.7312L11.9408 8.67557V10.7174L10.1797 9.72203Z" fill="#3F639C"/>
<path d="M13.7497 7.70557L11.9375 8.70098V10.7173L13.7497 9.74744V7.70557Z" fill="#2C4B7B"/>
<path d="M11.9408 6.73584L10.1797 7.73125L11.9408 8.70114L13.753 7.70573L11.9408 6.73584Z" fill="#21406F"/>
<path d="M6.14453 9.6967V7.8335L7.8546 8.85443V10.7176L6.14453 9.6967Z" fill="#3F639C"/>
<path d="M8.39062 11.0749V9.21167L12.066 11.3301V13.1678L8.39062 11.0749Z" fill="#3F639C"/>
<path d="M13.7747 12.2235V10.2837L12.0391 11.3557V13.1934L13.7747 12.2235Z" fill="#2C4B7B"/>
<path d="M6.09375 12.2744V10.3091L9.82017 12.4275V14.3928L6.09375 12.2744Z" fill="#3F639C"/>
<path d="M10.2812 14.5971V12.7339L12.0679 13.7293V15.6691L10.2812 14.5971Z" fill="#3F639C"/>
<path d="M13.8257 14.6226V12.7339L12.0391 13.7293V15.6436L13.8257 14.6226Z" fill="#2C4B7B"/>
<defs>
<linearGradient id="paint0_linear_1921_222" x1="15.7792" y1="-2.20779" x2="2.01299" y2="24.026" gradientUnits="userSpaceOnUse">
<stop stop-color="#E2E2E2"/>
<stop offset="0.660459" stop-color="#FCFCFC"/>
<stop offset="0.9375" stop-color="#E6E5E9"/>
</linearGradient>
</defs>
</svg>
