<svg width="22" height="22" viewBox="0 0 22 22" fill="none" xmlns="http://www.w3.org/2000/svg">
<path d="M17.4167 18.3333H4.58333C3.57081 18.3333 2.75 17.5125 2.75 16.5V8.24999C2.75 7.23747 3.57081 6.41666 4.58333 6.41666H17.4167C18.4292 6.41666 19.25 7.23747 19.25 8.24999V16.5C19.25 17.5125 18.4292 18.3333 17.4167 18.3333Z" stroke="#170658" stroke-width="1.5"/>
<path d="M6.41699 6.41667V3.3C6.41699 2.99624 6.66324 2.75 6.96699 2.75H15.0337C15.3374 2.75 15.5837 2.99624 15.5837 3.3V6.41667" stroke="#170658" stroke-width="1.5"/>
<path d="M9.16699 2.75V6.41667" stroke="#170658" stroke-width="1.5"/>
<path d="M11 2.75V6.41667" stroke="#170658" stroke-width="1.5"/>
<path d="M15.1253 12.8333C14.8722 12.8333 14.667 12.6281 14.667 12.375C14.667 12.1219 14.8722 11.9167 15.1253 11.9167C15.3784 11.9167 15.5837 12.1219 15.5837 12.375C15.5837 12.6281 15.3784 12.8333 15.1253 12.8333Z" fill="#170658" stroke="#170658" stroke-width="1.5" stroke-linecap="round" stroke-linejoin="round"/>
</svg>
