<svg width="61" height="61" viewBox="0 0 61 61" fill="none" xmlns="http://www.w3.org/2000/svg">
<circle cx="30.3105" cy="30.3105" r="30.3105" fill="#F6F4FD"/>
<g clip-path="url(#clip0_1281_966)">
<path d="M34.9324 31.0896C34.4372 28.5977 36.8025 27.1363 36.8025 27.1363C36.8025 27.1363 35.881 25.803 34.3322 25.46C32.7842 25.1163 32.0095 25.5458 31.2363 25.8679C30.4623 26.1908 30.0761 26.1908 30.0761 26.1908C28.9591 26.1908 28.1426 25.0082 26.0146 25.5466C24.5485 25.9165 23.0051 27.609 22.7263 29.6289C22.4474 31.6496 23.0492 34.228 24.2093 36.2264C25.3695 38.2262 26.5514 38.9778 27.3903 38.9994C28.2291 39.0203 29.0665 38.3985 30.0761 38.2471C31.0864 38.0972 31.7082 38.6132 32.6993 38.8921C33.6864 39.1702 34.0325 38.9122 35.1695 37.9451C36.3096 36.9779 37.3416 34.2041 37.3416 34.2041C37.3416 34.2041 35.4275 33.583 34.9324 31.0896Z" fill="#2504CA"/>
<path d="M32.74 23.848C33.8368 22.7303 33.4653 21 33.4653 21C33.4653 21 31.925 21.2704 30.893 22.344C29.8618 23.4185 30.0325 25.1156 30.0325 25.1156C30.0325 25.1156 31.6431 24.965 32.74 23.848Z" fill="#2504CA"/>
</g>
<defs>
<clipPath id="clip0_1281_966">
<rect width="18" height="18" fill="white" transform="translate(21 21)"/>
</clipPath>
</defs>
</svg>
