<svg width="61" height="61" viewBox="0 0 61 61" fill="none" xmlns="http://www.w3.org/2000/svg">
<circle cx="30.3105" cy="30.3105" r="30.3105" fill="#F6F4FD"/>
<g clip-path="url(#clip0_1281_965)">
<path d="M22 30.3105C22 26.0128 25.4964 22.5164 29.7941 22.5164C31.5298 22.5164 33.1727 23.0748 34.5451 24.1313L32.7339 26.4841C31.8853 25.8309 30.8687 25.4855 29.7941 25.4855C27.1337 25.4855 24.9692 27.65 24.9692 30.3105C24.9692 32.9709 27.1337 35.1354 29.7941 35.1354C31.9369 35.1354 33.7578 33.7315 34.3854 31.7951H29.7941V28.8259H37.5882V30.3105C37.5882 34.6082 34.0918 38.1046 29.7941 38.1046C25.4964 38.1046 22 34.6082 22 30.3105Z" fill="#2504CA"/>
</g>
<defs>
<clipPath id="clip0_1281_965">
<rect width="15.5882" height="15.5882" fill="white" transform="translate(22 22.5164)"/>
</clipPath>
</defs>
</svg>
