<svg width="46" height="46" viewBox="0 0 46 46" fill="none" xmlns="http://www.w3.org/2000/svg">
<circle cx="23" cy="23" r="23" fill="url(#paint0_angular_1281_1076)"/>
<path d="M17.1841 18.6372L21.4369 15.5481C21.9143 15.1987 22.495 15.0193 23.0863 15.0385C23.8075 15.0565 24.5052 15.2988 25.0824 15.7316C25.6594 16.1644 26.0875 16.7663 26.3067 17.4535C26.5535 18.2271 26.7791 18.7499 26.9834 19.022C27.6009 19.8457 28.4018 20.5142 29.3227 20.9744C30.2436 21.4347 31.2591 21.6738 32.2885 21.6732V24.327C30.9182 24.3285 29.5646 24.0262 28.3251 23.4418C27.0856 22.8574 25.9912 22.0054 25.1204 20.9473L24.1956 26.1953L26.9304 28.4909L29.8801 36.5957L27.3855 37.5033L24.6786 30.0673L20.1803 26.2922C19.8112 25.9941 19.5287 25.6024 19.3623 25.1582C19.1959 24.7138 19.1517 24.2329 19.2342 23.7657L19.9096 19.9375L19.0113 20.5904L16.189 24.4756L14.042 22.9152L17.1616 18.6212L17.1841 18.6372ZM24.9904 14.3751C24.2866 14.3751 23.6116 14.0955 23.1139 13.5978C22.6161 13.1001 22.3366 12.4251 22.3366 11.7212C22.3366 11.0174 22.6161 10.3424 23.1139 9.84468C23.6116 9.34698 24.2866 9.06738 24.9904 9.06738C25.6943 9.06738 26.3693 9.34698 26.8669 9.84468C27.3647 10.3424 27.6443 11.0174 27.6443 11.7212C27.6443 12.4251 27.3647 13.1001 26.8669 13.5978C26.3693 14.0955 25.6943 14.3751 24.9904 14.3751ZM21.0468 31.8652L16.7821 36.9474L14.7492 35.2423L18.6982 30.537L19.688 27.6443L22.0645 29.6347L21.0468 31.8652Z" fill="white"/>
<defs>
<radialGradient id="paint0_angular_1281_1076" cx="0" cy="0" r="1" gradientUnits="userSpaceOnUse" gradientTransform="translate(23.653 28.75) rotate(-37.3472) scale(35.0288 69.6314)">
<stop stop-color="#37C3B6"/>
<stop offset="0.272705" stop-color="#147C72"/>
<stop offset="0.765625" stop-color="#37C3B6"/>
<stop offset="0.953125" stop-color="#33BFC8"/>
</radialGradient>
</defs>
</svg>
