<svg width="45" height="42" viewBox="0 0 45 42" fill="none" xmlns="http://www.w3.org/2000/svg">
<rect width="45" height="42" rx="15" fill="#1B1B33"/>
<path d="M28.6663 18.9081C28.6663 19.9391 28.2705 20.9294 27.5635 21.6619C25.9363 23.3487 24.3579 25.1075 22.6699 26.7331C22.2829 27.1003 21.6691 27.0869 21.2989 26.7031L16.4355 21.6619C14.9655 20.1381 14.9655 17.6782 16.4355 16.1544C17.92 14.6156 20.3383 14.6156 21.8227 16.1544L21.9995 16.3376L22.1762 16.1545C22.8879 15.4163 23.8573 15 24.8699 15C25.8825 15 26.8517 15.4163 27.5635 16.1544C28.2705 16.887 28.6663 17.8772 28.6663 18.9081Z" stroke="white" stroke-width="1.5" stroke-linejoin="round"/>
</svg>
