<svg width="30" height="30" viewBox="0 0 30 30" fill="none" xmlns="http://www.w3.org/2000/svg">
<rect width="30" height="30" rx="15" fill="#C33772"/>
<path d="M21.6663 12.9081C21.6663 13.9391 21.2705 14.9294 20.5635 15.6619C18.9363 17.3487 17.3579 19.1075 15.6699 20.7331C15.2829 21.1003 14.6691 21.0869 14.2989 20.7031L9.43551 15.6619C7.96551 14.1381 7.96551 11.6782 9.43551 10.1544C10.92 8.61563 13.3383 8.61563 14.8227 10.1544L14.9995 10.3376L15.1762 10.1545C15.8879 9.41633 16.8573 9 17.8699 9C18.8825 9 19.8517 9.41629 20.5635 10.1544C21.2705 10.887 21.6663 11.8772 21.6663 12.9081Z" stroke="#F9F9FA" stroke-width="1.5" stroke-linejoin="round"/>
</svg>
