<svg width="22" height="22" viewBox="0 0 22 22" fill="none" xmlns="http://www.w3.org/2000/svg">
<path d="M6.41699 8.25825L6.42533 8.24899" stroke="#170658" stroke-width="1.5" stroke-linecap="round" stroke-linejoin="round"/>
<path d="M10.083 8.25825L10.0913 8.24899" stroke="#170658" stroke-width="1.5" stroke-linecap="round" stroke-linejoin="round"/>
<path d="M6.41699 11.9249L6.42533 11.9156" stroke="#170658" stroke-width="1.5" stroke-linecap="round" stroke-linejoin="round"/>
<path d="M10.083 11.9249L10.0913 11.9156" stroke="#170658" stroke-width="1.5" stroke-linecap="round" stroke-linejoin="round"/>
<path d="M6.41699 15.5916L6.42533 15.5823" stroke="#170658" stroke-width="1.5" stroke-linecap="round" stroke-linejoin="round"/>
<path d="M10.083 15.5916L10.0913 15.5823" stroke="#170658" stroke-width="1.5" stroke-linecap="round" stroke-linejoin="round"/>
<path d="M13.75 15.5833H15.5833M13.75 19.25H3.3C2.99624 19.25 2.75 19.0038 2.75 18.7V5.13333C2.75 4.82958 2.99624 4.58333 3.3 4.58333H8.25V3.3C8.25 2.99624 8.49624 2.75 8.8 2.75H13.2C13.5038 2.75 13.75 2.99624 13.75 3.3V8.25V19.25ZM13.75 19.25H18.7C19.0038 19.25 19.25 19.0038 19.25 18.7V8.8C19.25 8.49624 19.0038 8.25 18.7 8.25H13.75V19.25ZM13.75 19.25V15.5833V19.25ZM13.75 8.25V11.9167V8.25ZM13.75 11.9167H15.5833H13.75ZM13.75 11.9167V15.5833V11.9167Z" stroke="#170658" stroke-width="1.5" stroke-linecap="round" stroke-linejoin="round"/>
</svg>
