<svg width="20" height="20" viewBox="0 0 20 20" fill="none" xmlns="http://www.w3.org/2000/svg">
<path d="M12.5 4.16667L7.5 2.5M7.5 15.8333L3.15812 17.2807C2.83435 17.3886 2.5 17.1476 2.5 16.8062V4.52705C2.5 4.31183 2.63772 4.12076 2.84188 4.05271L7.5 2.5V15.8333ZM7.5 15.8333L12.5 17.5L7.5 15.8333ZM7.5 15.8333V2.5V15.8333ZM12.5 17.5L17.1581 15.9473C17.3623 15.8793 17.5 15.6882 17.5 15.4729V3.19372C17.5 2.85243 17.1657 2.61145 16.8419 2.71938L12.5 4.16667V17.5ZM12.5 17.5V4.16667V17.5Z" stroke="black" stroke-width="1.5" stroke-linecap="round" stroke-linejoin="round"/>
</svg>
