<svg width="25" height="16" viewBox="0 0 25 16" fill="none" xmlns="http://www.w3.org/2000/svg">
<path d="M9.10352 1.64917H15.8508V13.7729H9.10352V1.64917Z" fill="#FF5F00"/>
<path d="M9.53193 7.7112C9.53193 5.24793 10.6886 3.06305 12.4664 1.6493C11.1599 0.621158 9.51056 0 7.71129 0C3.44857 0 0 3.44857 0 7.7112C0 11.9737 3.44857 15.4224 7.7112 15.4224C9.51047 15.4224 11.1598 14.8012 12.4664 13.773C10.6886 12.3807 9.53193 10.1745 9.53193 7.7112Z" fill="#EB001B"/>
<path d="M24.9547 7.7112C24.9547 11.9737 21.5061 15.4224 17.2435 15.4224C15.4442 15.4224 13.7949 14.8012 12.4883 13.773C14.2876 12.3593 15.4228 10.1745 15.4228 7.7112C15.4228 5.24793 14.2661 3.06305 12.4883 1.6493C13.7948 0.621158 15.4442 0 17.2435 0C21.5061 0 24.9548 3.47003 24.9548 7.7112H24.9547Z" fill="#F79E1B"/>
</svg>
