<svg width="45" height="36" viewBox="0 0 45 36" fill="none" xmlns="http://www.w3.org/2000/svg">
<path d="M16.416 2.97412H28.5833V24.8366H16.416V2.97412Z" fill="#FF5F00"/>
<path d="M8.18925 35.8409V33.5234C8.18925 32.6348 7.64837 32.0556 6.72127 32.0556C6.2578 32.0556 5.75563 32.2101 5.40794 32.7123C5.13768 32.2873 4.75146 32.0556 4.17204 32.0556C3.78564 32.0556 3.3996 32.1714 3.09045 32.5963V32.1328H2.2793V35.8409H3.09045V33.7937C3.09045 33.1372 3.43813 32.828 3.97902 32.828C4.51955 32.828 4.79017 33.1757 4.79017 33.7937V35.8409H5.60132V33.7937C5.60132 33.1372 5.98736 32.828 6.48953 32.828C7.03042 32.828 7.30068 33.1757 7.30068 33.7937V35.8409H8.18925V35.8409ZM20.2018 32.1328H18.8887V31.0127H18.0775V32.1328H17.3436V32.8666H18.0774V34.5663C18.0774 35.4162 18.425 35.9182 19.3522 35.9182C19.6998 35.9182 20.0859 35.8024 20.3565 35.6479L20.1246 34.9525C19.8929 35.107 19.6226 35.1457 19.4294 35.1457C19.0432 35.1457 18.8887 34.914 18.8887 34.5276V32.8666H20.2018V32.1328V32.1328ZM27.0774 32.0554C26.614 32.0554 26.305 32.2873 26.1118 32.5963V32.1328H25.3006V35.8409H26.1118V33.7551C26.1118 33.1372 26.3821 32.7895 26.8842 32.7895C27.0387 32.7895 27.2319 32.8282 27.3864 32.8668L27.6181 32.0943C27.4637 32.0556 27.2319 32.0556 27.0774 32.0556V32.0554ZM16.687 32.4418C16.3006 32.1714 15.7599 32.0556 15.1805 32.0556C14.2535 32.0556 13.6356 32.5191 13.6356 33.253C13.6356 33.8711 14.099 34.2186 14.9102 34.3346L15.2964 34.3733C15.7213 34.4503 15.9531 34.5663 15.9531 34.7595C15.9531 35.0298 15.6441 35.223 15.1032 35.223C14.5625 35.223 14.1376 35.0298 13.8671 34.8367L13.4809 35.4547C13.9058 35.7637 14.4853 35.9182 15.0645 35.9182C16.1461 35.9182 16.7642 35.4162 16.7642 34.7208C16.7642 34.0641 16.262 33.7164 15.4894 33.6007L15.1032 33.562C14.7555 33.5232 14.4853 33.4462 14.4853 33.2144C14.4853 32.944 14.7555 32.7895 15.1805 32.7895C15.6441 32.7895 16.1076 32.9825 16.3393 33.0985L16.687 32.4418V32.4418ZM38.2405 32.0556C37.7769 32.0556 37.4679 32.2873 37.2747 32.5963V32.1328H36.4635V35.8409H37.2747V33.7551C37.2747 33.1372 37.5451 32.7895 38.0471 32.7895C38.2018 32.7895 38.395 32.8282 38.5495 32.8668L38.7812 32.0943C38.6267 32.0556 38.395 32.0556 38.2405 32.0556V32.0556ZM27.8886 33.9869C27.8886 35.107 28.661 35.9182 29.8586 35.9182C30.3993 35.9182 30.7855 35.8024 31.1717 35.4934L30.7855 34.8367C30.4765 35.0685 30.1675 35.1843 29.8199 35.1843C29.1632 35.1843 28.6997 34.7208 28.6997 33.9869C28.6997 33.2917 29.1632 32.828 29.8199 32.7895C30.1675 32.7895 30.4765 32.9053 30.7855 33.1372L31.1717 32.4805C30.7855 32.1714 30.3993 32.0556 29.8586 32.0556C28.661 32.0556 27.8886 32.8668 27.8886 33.9869ZM35.3821 33.9869V32.1328H34.571V32.5963C34.3005 32.2488 33.9143 32.0556 33.4121 32.0556C32.3693 32.0556 31.5581 32.8668 31.5581 33.9869C31.5581 35.107 32.3693 35.9182 33.4121 35.9182C33.9529 35.9182 34.3392 35.7251 34.571 35.3774V35.8409H35.3821V33.9869V33.9869ZM32.4078 33.9869C32.4078 33.3302 32.8327 32.7895 33.5279 32.7895C34.1846 32.7895 34.6482 33.2917 34.6482 33.9869C34.6482 34.6435 34.1846 35.1843 33.5279 35.1843C32.8327 35.1455 32.4078 34.6435 32.4078 33.9869V33.9869ZM22.7127 32.0556C21.6311 32.0556 20.8585 32.828 20.8585 33.9869C20.8585 35.1457 21.6309 35.9182 22.7512 35.9182C23.292 35.9182 23.8328 35.7637 24.2578 35.4162L23.8714 34.8367C23.5624 35.0685 23.1762 35.223 22.79 35.223C22.2878 35.223 21.7856 34.9912 21.6697 34.3344H24.4123V34.0256C24.451 32.828 23.7556 32.0556 22.7125 32.0556H22.7127ZM22.7127 32.7508C23.2147 32.7508 23.5626 33.06 23.6396 33.6394H21.7084C21.7856 33.1372 22.1333 32.7508 22.7127 32.7508ZM42.837 33.9869V30.665H42.0258V32.5963C41.7554 32.2488 41.3692 32.0556 40.867 32.0556C39.8241 32.0556 39.0129 32.8668 39.0129 33.9869C39.0129 35.107 39.8241 35.9182 40.867 35.9182C41.4079 35.9182 41.7941 35.7251 42.0258 35.3774V35.8409H42.837V33.9869V33.9869ZM39.8628 33.9869C39.8628 33.3302 40.2876 32.7895 40.9829 32.7895C41.6396 32.7895 42.1031 33.2917 42.1031 33.9869C42.1031 34.6435 41.6396 35.1843 40.9829 35.1843C40.2876 35.1455 39.8628 34.6435 39.8628 33.9869V33.9869ZM12.747 33.9869V32.1328H11.9359V32.5963C11.6654 32.2488 11.2792 32.0556 10.777 32.0556C9.73413 32.0556 8.92298 32.8668 8.92298 33.9869C8.92298 35.107 9.73413 35.9182 10.777 35.9182C11.3179 35.9182 11.7041 35.7251 11.9359 35.3774V35.8409H12.747V33.9869V33.9869ZM9.73413 33.9869C9.73413 33.3302 10.1591 32.7895 10.8543 32.7895C11.5109 32.7895 11.9746 33.2917 11.9746 33.9869C11.9746 34.6435 11.5109 35.1843 10.8543 35.1843C10.1591 35.1455 9.73413 34.6435 9.73413 33.9869V33.9869Z" fill="white"/>
<path d="M17.1888 13.9055C17.1888 9.46353 19.2746 5.52356 22.4805 2.97416C20.1244 1.12013 17.1503 0 13.9057 0C6.21876 0 0 6.21876 0 13.9055C0 21.5921 6.21876 27.811 13.9055 27.811C17.1501 27.811 20.1243 26.6909 22.4805 24.8367C19.2746 22.326 17.1888 18.3475 17.1888 13.9055V13.9055Z" fill="#EB001B"/>
<path d="M45 13.9055C45 21.5921 38.7812 27.811 31.0945 27.811C27.8499 27.811 24.8757 26.6909 22.5195 24.8367C25.7641 22.2874 27.8114 18.3475 27.8114 13.9055C27.8114 9.46353 25.7254 5.52356 22.5195 2.97416C24.8756 1.12013 27.8499 0 31.0945 0C38.7812 0 45.0002 6.25747 45.0002 13.9055H45Z" fill="#F79E1B"/>
</svg>
