<svg width="36" height="36" viewBox="0 0 36 36" fill="none" xmlns="http://www.w3.org/2000/svg">
<g filter="url(#filter0_b_1286_2035)">
<circle cx="18" cy="18" r="18" fill="url(#paint0_linear_1286_2035)" fill-opacity="0.75"/>
<circle cx="18" cy="18" r="17.5" stroke="url(#paint1_linear_1286_2035)"/>
</g>
<path d="M15.5007 11.3333H12.1673C11.7071 11.3333 11.334 11.7063 11.334 12.1666V15.4999C11.334 15.9602 11.7071 16.3333 12.1673 16.3333H15.5007C15.9609 16.3333 16.334 15.9602 16.334 15.4999V12.1666C16.334 11.7063 15.9609 11.3333 15.5007 11.3333Z" stroke="#EAE4FC" stroke-width="1.5" stroke-linecap="round" stroke-linejoin="round"/>
<path d="M13.834 22.1667V22.1751" stroke="#EAE4FC" stroke-width="1.5" stroke-linecap="round" stroke-linejoin="round"/>
<path d="M23.8327 11.3333H20.4993C20.0391 11.3333 19.666 11.7063 19.666 12.1666V15.4999C19.666 15.9602 20.0391 16.3333 20.4993 16.3333H23.8327C24.2929 16.3333 24.666 15.9602 24.666 15.4999V12.1666C24.666 11.7063 24.2929 11.3333 23.8327 11.3333Z" stroke="#EAE4FC" stroke-width="1.5" stroke-linecap="round" stroke-linejoin="round"/>
<path d="M13.834 13.8333V13.8416" stroke="#EAE4FC" stroke-width="1.5" stroke-linecap="round" stroke-linejoin="round"/>
<path d="M15.5007 19.6667H12.1673C11.7071 19.6667 11.334 20.0398 11.334 20.5001V23.8334C11.334 24.2937 11.7071 24.6667 12.1673 24.6667H15.5007C15.9609 24.6667 16.334 24.2937 16.334 23.8334V20.5001C16.334 20.0398 15.9609 19.6667 15.5007 19.6667Z" stroke="#EAE4FC" stroke-width="1.5" stroke-linecap="round" stroke-linejoin="round"/>
<path d="M22.166 13.8333V13.8416" stroke="#EAE4FC" stroke-width="1.5" stroke-linecap="round" stroke-linejoin="round"/>
<path d="M19.666 19.6667H22.166" stroke="#EAE4FC" stroke-width="1.5" stroke-linecap="round" stroke-linejoin="round"/>
<path d="M24.666 19.6667V19.6751" stroke="#EAE4FC" stroke-width="1.5" stroke-linecap="round" stroke-linejoin="round"/>
<path d="M19.666 19.6667V22.1667" stroke="#EAE4FC" stroke-width="1.5" stroke-linecap="round" stroke-linejoin="round"/>
<path d="M19.666 24.6667H22.166" stroke="#EAE4FC" stroke-width="1.5" stroke-linecap="round" stroke-linejoin="round"/>
<path d="M22.166 22.1667H24.666" stroke="#EAE4FC" stroke-width="1.5" stroke-linecap="round" stroke-linejoin="round"/>
<path d="M24.666 22.1667V24.6667" stroke="#EAE4FC" stroke-width="1.5" stroke-linecap="round" stroke-linejoin="round"/>
<defs>
<filter id="filter0_b_1286_2035" x="-4" y="-4" width="44" height="44" filterUnits="userSpaceOnUse" color-interpolation-filters="sRGB">
<feFlood flood-opacity="0" result="BackgroundImageFix"/>
<feGaussianBlur in="BackgroundImage" stdDeviation="2"/>
<feComposite in2="SourceAlpha" operator="in" result="effect1_backgroundBlur_1286_2035"/>
<feBlend mode="normal" in="SourceGraphic" in2="effect1_backgroundBlur_1286_2035" result="shape"/>
</filter>
<linearGradient id="paint0_linear_1286_2035" x1="18" y1="-12.1034" x2="18" y2="40.3448" gradientUnits="userSpaceOnUse">
<stop stop-color="white"/>
<stop offset="0.927378" stop-color="white" stop-opacity="0"/>
</linearGradient>
<linearGradient id="paint1_linear_1286_2035" x1="18" y1="0" x2="18" y2="36" gradientUnits="userSpaceOnUse">
<stop stop-color="white" stop-opacity="0.35"/>
<stop offset="1" stop-color="white" stop-opacity="0"/>
</linearGradient>
</defs>
</svg>
