<svg width="61" height="61" viewBox="0 0 61 61" fill="none" xmlns="http://www.w3.org/2000/svg">
<circle cx="30.5526" cy="30.3105" r="30.3105" fill="#F6F4FD"/>
<path d="M22.2422 24.6665V23.6665C22.2422 23.1361 22.4529 22.6274 22.828 22.2523C23.203 21.8772 23.7118 21.6665 24.2422 21.6665H26.2422" stroke="#2504CA" stroke-width="1.5" stroke-linecap="round" stroke-linejoin="round"/>
<path d="M22.2422 34.6665V35.6665C22.2422 36.1969 22.4529 36.7056 22.828 37.0807C23.203 37.4558 23.7118 37.6665 24.2422 37.6665H26.2422" stroke="#2504CA" stroke-width="1.5" stroke-linecap="round" stroke-linejoin="round"/>
<path d="M34.2422 21.6665H36.2422C36.7726 21.6665 37.2813 21.8772 37.6564 22.2523C38.0315 22.6274 38.2422 23.1361 38.2422 23.6665V24.6665" stroke="#2504CA" stroke-width="1.5" stroke-linecap="round" stroke-linejoin="round"/>
<path d="M34.2422 37.6665H36.2422C36.7726 37.6665 37.2813 37.4558 37.6564 37.0807C38.0315 36.7056 38.2422 36.1969 38.2422 35.6665V34.6665" stroke="#2504CA" stroke-width="1.5" stroke-linecap="round" stroke-linejoin="round"/>
<path d="M23.2422 29.6665H37.2422" stroke="#2504CA" stroke-width="1.5" stroke-linecap="round" stroke-linejoin="round"/>
</svg>
