<svg width="61" height="61" viewBox="0 0 61 61" fill="none" xmlns="http://www.w3.org/2000/svg">
<circle cx="30.3105" cy="30.3105" r="30.3105" fill="#F6F4FD"/>
<path d="M32.2718 28.445L36 20L32.2718 28.445ZM27.3161 28.6323L23 20L27.3161 28.6323ZM30.7615 28.0479L26.835 20L30.7615 28.0479ZM32.36 20L31.32 22.5L32.36 20ZM24 34C24 37.3137 26.6863 40 30 40C33.3137 40 36 37.3137 36 34C36 30.6863 33.3137 28 30 28C26.6863 28 24 30.6863 24 34Z" stroke="#2504CA" stroke-width="1.5" stroke-linecap="round" stroke-linejoin="round"/>
<path d="M28.5 33L30.5 31.5V36.5" stroke="#2504CA" stroke-width="1.5" stroke-linecap="round" stroke-linejoin="round"/>
</svg>
