<svg width="61" height="61" viewBox="0 0 61 61" fill="none" xmlns="http://www.w3.org/2000/svg">
<circle cx="30.3105" cy="30.3105" r="30.3105" fill="#F6F4FD"/>
<path d="M27 29C29.2091 29 31 27.2091 31 25C31 22.7909 29.2091 21 27 21C24.7909 21 23 22.7909 23 25C23 27.2091 24.7909 29 27 29Z" stroke="#2504CA" stroke-width="1.5" stroke-linecap="round" stroke-linejoin="round"/>
<path d="M21 39V37C21 35.9391 21.4214 34.9217 22.1716 34.1716C22.9217 33.4214 23.9391 33 25 33H29C30.0609 33 31.0783 33.4214 31.8284 34.1716C32.5786 34.9217 33 35.9391 33 37V39" stroke="#2504CA" stroke-width="1.5" stroke-linecap="round" stroke-linejoin="round"/>
<path d="M34 21.1301C34.8604 21.3504 35.623 21.8508 36.1676 22.5524C36.7122 23.254 37.0078 24.117 37.0078 25.0051C37.0078 25.8933 36.7122 26.7562 36.1676 27.4578C35.623 28.1594 34.8604 28.6598 34 28.8801" stroke="#2504CA" stroke-width="1.5" stroke-linecap="round" stroke-linejoin="round"/>
<path d="M39 38.9999V36.9999C38.9949 36.1171 38.6979 35.2607 38.1553 34.5643C37.6126 33.8679 36.8548 33.3706 36 33.1499" stroke="#2504CA" stroke-width="1.5" stroke-linecap="round" stroke-linejoin="round"/>
</svg>
