<svg width="61" height="61" viewBox="0 0 61 61" fill="none" xmlns="http://www.w3.org/2000/svg">
<circle cx="30.3105" cy="30.3105" r="30.3105" fill="#F6F4FD"/>
<path d="M30 33C31.6569 33 33 31.6569 33 30C33 28.3431 31.6569 27 30 27C28.3431 27 27 28.3431 27 30C27 31.6569 28.3431 33 30 33Z" stroke="#2504CA" stroke-width="1.5" stroke-linecap="round" stroke-linejoin="round"/>
<path d="M37 24H23C21.8954 24 21 24.8954 21 26V34C21 35.1046 21.8954 36 23 36H37C38.1046 36 39 35.1046 39 34V26C39 24.8954 38.1046 24 37 24Z" stroke="#2504CA" stroke-width="1.5" stroke-linecap="round" stroke-linejoin="round"/>
<path d="M36 30H36.01" stroke="#2504CA" stroke-width="1.5" stroke-linecap="round" stroke-linejoin="round"/>
<path d="M24 30H24.01" stroke="#2504CA" stroke-width="1.5" stroke-linecap="round" stroke-linejoin="round"/>
</svg>
