<svg width="61" height="61" viewBox="0 0 61 61" fill="none" xmlns="http://www.w3.org/2000/svg">
<circle cx="30.3105" cy="30.3105" r="30.3105" fill="#F6F4FD"/>
<path d="M23 38C24.1046 38 25 37.1046 25 36C25 34.8954 24.1046 34 23 34C21.8954 34 21 34.8954 21 36C21 37.1046 21.8954 38 23 38Z" stroke="#2504CA" stroke-width="1.5" stroke-linecap="round" stroke-linejoin="round"/>
<path d="M37 26C38.1046 26 39 25.1046 39 24C39 22.8954 38.1046 22 37 22C35.8954 22 35 22.8954 35 24C35 25.1046 35.8954 26 37 26Z" stroke="#2504CA" stroke-width="1.5" stroke-linecap="round" stroke-linejoin="round"/>
<path d="M37 26V31C37 32.3261 36.4732 33.5979 35.5355 34.5355C34.5979 35.4732 33.3261 36 32 36H29M29 36L32 33M29 36L32 39" stroke="#2504CA" stroke-width="1.5" stroke-linecap="round" stroke-linejoin="round"/>
<path d="M23 34V29C23 27.6739 23.5268 26.4021 24.4645 25.4645C25.4021 24.5268 26.6739 24 28 24H31M31 24L28 21M31 24L28 27" stroke="#2504CA" stroke-width="1.5" stroke-linecap="round" stroke-linejoin="round"/>
</svg>
