<svg width="24" height="24" viewBox="0 0 24 24" fill="none" xmlns="http://www.w3.org/2000/svg">
<path d="M2 20V19C2 15.134 5.13401 12 9 12" stroke="#BA3635" stroke-width="1.5" stroke-linecap="round" stroke-linejoin="round"/>
<path d="M15.804 12.3134C16.4458 11.6087 17.5546 11.6087 18.1964 12.3134C18.5208 12.6696 18.987 12.8627 19.4682 12.8402C20.4203 12.7957 21.2044 13.5798 21.1599 14.5319C21.1374 15.0131 21.3305 15.4793 21.6867 15.8037C22.3914 16.4455 22.3914 17.5543 21.6867 18.1961C21.3305 18.5205 21.1374 18.9867 21.1599 19.4679C21.2044 20.42 20.4203 21.2041 19.4682 21.1596C18.987 21.1371 18.5208 21.3302 18.1964 21.6864C17.5546 22.3911 16.4458 22.3911 15.804 21.6864C15.4796 21.3302 15.0134 21.1371 14.5322 21.1596C13.5801 21.2041 12.796 20.42 12.8405 19.4679C12.863 18.9867 12.6699 18.5205 12.3137 18.1961C11.609 17.5543 11.609 16.4455 12.3137 15.8037C12.6699 15.4793 12.863 15.0131 12.8405 14.5319C12.796 13.5798 13.5801 12.7957 14.5322 12.8402C15.0134 12.8627 15.4796 12.6696 15.804 12.3134Z" stroke="#BA3635" stroke-width="1.5"/>
<path d="M15.3633 17.0001L16.4543 18.091L18.6361 15.9092" stroke="#BA3635" stroke-width="1.5" stroke-linecap="round" stroke-linejoin="round"/>
<path d="M9 12C11.2091 12 13 10.2091 13 8C13 5.79086 11.2091 4 9 4C6.79086 4 5 5.79086 5 8C5 10.2091 6.79086 12 9 12Z" stroke="#BA3635" stroke-width="1.5" stroke-linecap="round" stroke-linejoin="round"/>
</svg>
