<svg width="22" height="22" viewBox="0 0 22 22" fill="none" xmlns="http://www.w3.org/2000/svg">
<path d="M17.4167 18.3334H4.58333C3.57081 18.3334 2.75 17.5126 2.75 16.5001V8.25008C2.75 7.23756 3.57081 6.41675 4.58333 6.41675H17.4167C18.4292 6.41675 19.25 7.23756 19.25 8.25008V16.5001C19.25 17.5126 18.4292 18.3334 17.4167 18.3334Z" stroke="#170658" stroke-width="1.5"/>
<path d="M6.41602 6.41667V3.3C6.41602 2.99624 6.66226 2.75 6.96602 2.75H15.0327C15.3365 2.75 15.5827 2.99624 15.5827 3.3V6.41667" stroke="#170658" stroke-width="1.5"/>
<path d="M9.16602 2.75V6.41667" stroke="#170658" stroke-width="1.5"/>
<path d="M11 2.75V6.41667" stroke="#170658" stroke-width="1.5"/>
<path d="M15.1243 12.8334C14.8713 12.8334 14.666 12.6282 14.666 12.3751C14.666 12.122 14.8713 11.9167 15.1243 11.9167C15.3774 11.9167 15.5827 12.122 15.5827 12.3751C15.5827 12.6282 15.3774 12.8334 15.1243 12.8334Z" fill="#170658" stroke="#170658" stroke-width="1.5" stroke-linecap="round" stroke-linejoin="round"/>
</svg>
