<svg width="78" height="78" viewBox="0 0 78 78" fill="none" xmlns="http://www.w3.org/2000/svg">
<path d="M77.5 39C77.5 60.263 60.263 77.5 39 77.5C17.737 77.5 0.5 60.263 0.5 39C0.5 17.737 17.737 0.5 39 0.5C60.263 0.5 77.5 17.737 77.5 39Z" fill="#EAE4FC" stroke="black"/>
<g clip-path="url(#clip0_2926_4098)">
<path d="M38.499 58.3079C35.0018 58.3488 31.0273 57.8966 27.5551 56.4468C27.4756 56.5922 27.3983 56.7376 27.3279 56.8831C27.2574 57.0285 27.2052 57.1262 27.1438 57.2467C30.4867 59.5364 34.4541 60.7401 38.5058 60.6939C42.5574 60.7398 46.5247 59.5361 49.8678 57.2467C49.8041 57.124 49.7451 57.0012 49.6792 56.8808C49.6133 56.7604 49.5292 56.5899 49.4519 56.4491C45.9706 57.8966 41.9962 58.3488 38.499 58.3079Z" fill="#AAA7A0"/>
<path d="M19.4652 46.7165C19.6212 46.5948 19.7844 46.4825 19.9538 46.3802C20.4603 46.0442 21.0347 45.8239 21.636 45.7352C22.2373 45.6464 22.8508 45.6913 23.4328 45.8666C24.1873 46.112 24.8417 46.587 25.553 46.9369C26.2642 47.2868 27.1027 47.5164 27.8435 47.2346C26.8573 48.0572 25.4257 47.989 24.1532 47.8322C22.8806 47.6754 21.4876 47.4936 20.3946 48.164C20.2662 48.2533 20.1292 48.3294 19.9856 48.3912C21.2309 51.6044 23.7146 54.2199 27.2436 56.0129C27.3522 56.0715 27.4337 56.1701 27.4709 56.2878C27.481 56.331 27.4856 56.3753 27.4845 56.4196C27.5051 56.4301 27.5264 56.4392 27.5481 56.4469C31.0204 57.8967 34.9948 58.3489 38.492 58.308C41.9892 58.3489 45.9636 57.8967 49.4381 56.4492L49.5018 56.4219C49.4994 56.3768 49.504 56.3316 49.5154 56.2878C49.5325 56.2286 49.5615 56.1735 49.6005 56.1259C49.6396 56.0782 49.6879 56.039 49.7426 56.0106C53.2717 54.2199 55.7554 51.6044 57.0007 48.3935C56.8564 48.3316 56.7186 48.2555 56.5894 48.1663C55.4963 47.4846 54.1056 47.6754 52.8308 47.8345C51.556 47.9936 50.1267 48.0617 49.1404 47.2369C49.8812 47.5186 50.7198 47.2914 51.431 46.9392C52.1423 46.587 52.7945 46.1143 53.5512 45.8689C54.1332 45.6936 54.7467 45.6487 55.348 45.7375C55.9493 45.8262 56.5237 46.0464 57.0302 46.3824C57.2017 46.4855 57.3664 46.5993 57.5233 46.7233C57.6824 46.0802 57.8142 45.4462 57.9096 44.819C56.8393 44.3469 55.8261 43.7546 54.8896 43.0534C54.0059 42.3664 52.9961 41.8592 51.9173 41.5604C52.7831 41.2627 53.9148 41.4354 54.8487 41.7877C55.6077 42.0717 56.294 42.5171 57.012 42.8966C57.3527 43.0818 57.7104 43.234 58.0801 43.3511C58.2493 41.3453 58.0318 39.3257 57.4393 37.4019C57.3578 37.4783 57.251 37.522 57.1393 37.5246C57.0218 37.5254 56.9086 37.4806 56.8234 37.3997C56.7773 37.3591 56.7398 37.3096 56.7134 37.2542C56.6869 37.1987 56.6719 37.1385 56.6694 37.0771C56.6668 37.0157 56.6767 36.9545 56.6985 36.897C56.7203 36.8396 56.7535 36.7872 56.7962 36.7429C56.948 36.5763 57.0842 36.396 57.2029 36.2044C57.4646 35.7734 57.6809 35.3165 57.8483 34.8409C57.8483 34.825 57.8483 34.8069 57.8665 34.7909C57.9142 34.6614 57.9596 34.5273 58.0028 34.391C58.0278 34.3137 58.0505 34.2388 58.0732 34.1638C58.096 34.0888 58.1164 34.0183 58.1369 33.9365C58.2891 33.4002 58.4209 32.823 58.5323 32.2118C58.5323 32.1936 58.5323 32.1754 58.5323 32.1572C58.5595 32.005 58.5868 31.8505 58.6118 31.7028L58.6254 31.605C58.6527 31.4323 58.68 31.2551 58.705 31.0778C58.73 30.9006 58.7504 30.7324 58.7709 30.5575C58.772 30.5363 58.772 30.515 58.7709 30.4938C59.0194 28.2448 59.0825 25.9792 58.9595 23.7198C58.9606 23.7039 58.9606 23.688 58.9595 23.6721C58.9595 23.6085 58.9595 23.5494 58.9595 23.488C58.9163 22.8495 58.8595 22.2382 58.7845 21.6701C58.53 19.7363 58.171 19.075 58.0369 18.9637C57.9229 18.9526 57.8083 18.9473 57.6938 18.9478C57.6438 18.9478 57.5961 18.9478 57.5483 18.9478C57.5006 18.9478 57.4052 18.9478 57.3211 18.9478L57.1597 18.966C57.087 18.966 57.0143 18.9841 56.9325 18.9978L56.778 19.025C56.6894 19.0432 56.603 19.0637 56.5144 19.0864L56.4008 19.1137C52.49 20.1794 47.3612 25.5991 45.9841 28.0737C45.9545 28.1274 45.9145 28.1746 45.8666 28.2128C45.8187 28.2509 45.7637 28.2793 45.7048 28.2962C45.6459 28.313 45.5843 28.3181 45.5234 28.3112C45.4625 28.3042 45.4036 28.2853 45.3501 28.2555C45.2426 28.1948 45.1635 28.0942 45.1299 27.9755C45.0963 27.8567 45.1109 27.7295 45.1706 27.6215C45.4619 27.1151 45.7852 26.6278 46.1386 26.1626C45.026 25.848 43.8836 25.65 42.73 25.5718C41.8211 27.5965 42.5937 29.3804 42.7527 30.1552C43.0449 31.4224 42.8485 32.7532 42.2028 33.882C42.4732 32.3436 42.0688 30.8143 41.3257 28.9691C40.9164 27.8959 40.7692 26.7406 40.8962 25.5991V25.4946C40.5372 25.4946 40.1758 25.4946 39.8214 25.4946C39.7964 26.808 39.5941 28.101 39.4532 29.4031C39.2419 31.2346 38.6783 35.8999 38.4556 35.8999C38.2329 35.8999 37.6694 31.2346 37.4603 29.4031C37.272 28.108 37.1491 26.8043 37.0922 25.4968C36.8786 25.4968 36.6741 25.4968 36.4696 25.4968H36.0151C36.0151 25.5309 36.0151 25.5696 36.0151 25.6036C36.1413 26.7453 35.9933 27.9006 35.5833 28.9736C34.8403 30.8188 34.4471 32.3481 34.7085 33.8865C34.0615 32.7582 33.865 31.4269 34.1585 30.1598C34.3176 29.3849 35.0675 27.6011 34.179 25.5741C33.0253 25.6514 31.8828 25.8494 30.7704 26.1649C31.1253 26.6303 31.4494 27.1184 31.7407 27.6261C31.7706 27.6795 31.7896 27.7383 31.7967 27.799C31.8039 27.8598 31.799 27.9214 31.7823 27.9803C31.7656 28.0391 31.7375 28.0941 31.6996 28.1422C31.6616 28.1902 31.6146 28.2302 31.5612 28.2601C31.5081 28.291 31.4493 28.3109 31.3883 28.3185C31.3274 28.3261 31.2655 28.3213 31.2064 28.3043C31.1474 28.2873 31.0924 28.2585 31.0448 28.2197C30.9972 28.1808 30.958 28.1327 30.9295 28.0783C29.7933 26.0331 26.1211 22.0132 22.6761 20.0544L22.6488 20.0408C22.5216 19.9681 22.3966 19.8999 22.2693 19.834L22.1489 19.7727C22.0557 19.7249 21.9603 19.6795 21.8671 19.6363L21.7126 19.5636C21.6308 19.525 21.549 19.4909 21.4695 19.4568L21.2945 19.3841L21.0673 19.3C20.9445 19.2568 20.8264 19.2159 20.7059 19.1796L20.5378 19.1296C20.4651 19.1084 20.3893 19.0902 20.3105 19.075C20.256 19.0614 20.2037 19.0478 20.1515 19.0387L19.9379 18.9978L19.7765 18.975C19.7084 18.975 19.6425 18.9569 19.5743 18.9523H19.3948H19.2243C19.1105 18.9519 18.9968 18.9572 18.8835 18.9682C18.7494 19.0796 18.3904 19.7408 18.1359 21.6747C18.0495 22.3337 17.9836 23.0563 17.9427 23.8175C17.8401 25.8237 17.8811 27.8346 18.0654 29.8348V29.8598C18.0836 30.0394 18.104 30.2166 18.1245 30.3961C18.1245 30.4666 18.1404 30.537 18.1495 30.6052C18.1586 30.6734 18.1677 30.7506 18.1768 30.8324C18.3063 31.8889 18.5121 32.9347 18.7926 33.9615C18.8108 34.0297 18.8312 34.0956 18.8494 34.1638L18.9244 34.391C18.9698 34.5319 19.0153 34.6682 19.063 34.8L19.0766 34.8387C19.2454 35.3141 19.4624 35.7709 19.7243 36.2021V36.2157C19.8428 36.4042 19.9773 36.5822 20.1265 36.7475C20.1692 36.7916 20.2026 36.8439 20.2246 36.9012C20.2466 36.9586 20.2567 37.0198 20.2544 37.0812C20.2521 37.1426 20.2373 37.2028 20.211 37.2584C20.1847 37.3139 20.1475 37.3635 20.1015 37.4042C20.0163 37.4851 19.9031 37.5299 19.7856 37.5292C19.6732 37.5271 19.5655 37.4834 19.4834 37.4065C18.8896 39.33 18.6705 41.3495 18.838 43.3556C19.2086 43.239 19.567 43.0868 19.9083 42.9011C20.6287 42.5216 21.3127 42.0763 22.0716 41.7922C23.0056 41.4513 24.1373 41.2786 25.003 41.565C23.6578 41.9604 22.8193 42.3921 22.0307 43.0579C21.1488 43.8407 20.1285 44.4519 19.0221 44.8599C19.0221 44.8736 19.0221 44.8872 19.0221 44.8986C19.1789 45.4667 19.3084 46.0825 19.4652 46.7165ZM56.453 22.5268C57.212 22.6222 57.1188 27.9806 56.2122 31.58C55.919 32.7481 55.5304 33.7343 55.076 34.3069C53.3967 31.7655 51.0984 29.6932 48.3974 28.2851C48.6831 27.7572 49.0326 27.2665 49.4381 26.8239C51.2242 24.7742 54.5306 22.2882 56.453 22.5268V22.5268ZM20.7878 31.58C19.8788 27.9715 19.7856 22.6222 20.5446 22.5268C22.4693 22.2837 25.7711 24.7742 27.5572 26.8148C27.9626 27.258 28.3128 27.7486 28.6003 28.276C25.8987 29.6843 23.5997 31.7565 21.9194 34.2978C21.4581 33.7343 21.0809 32.7412 20.7878 31.58ZM43.9412 40.1356C45.3047 39.0608 48.1133 39.2698 49.12 40.5901C49.604 41.2264 49.6722 42.1194 48.9632 43.2534C48.4729 43.997 47.737 44.5447 46.884 44.8009C45.8205 45.1508 44.9093 45.1281 43.9117 44.5009C42.5596 43.6487 42.73 41.09 43.9412 40.1356ZM38.4988 45.6803C39.4078 45.6803 40.2713 45.703 40.3167 46.3756C40.3413 46.6947 40.2392 47.0106 40.0327 47.255C39.5782 47.8731 39.0351 48.164 38.4943 48.1799C37.9534 48.1526 37.4171 47.8731 36.9559 47.255C36.7504 47.01 36.6485 46.6946 36.6718 46.3756C36.7195 45.6939 37.5989 45.6712 38.4988 45.6803V45.6803ZM34.5198 51.1227C35.4288 51.2272 36.9718 50.5137 37.7148 50.1705C38.1693 49.9592 38.3125 49.9001 38.4738 49.8978H38.5374C38.8021 49.9444 39.0566 50.0367 39.2896 50.1705C40.0327 50.5137 41.5802 51.2272 42.4846 51.1227C43.1345 51.0477 43.6208 50.9159 43.9298 50.5114C43.9654 50.461 44.0108 50.4184 44.0633 50.3861C44.1159 50.3538 44.1744 50.3326 44.2354 50.3236C44.2965 50.3147 44.3586 50.3183 44.4182 50.3342C44.4778 50.35 44.5335 50.3779 44.582 50.416C44.6806 50.4897 44.7459 50.5994 44.7638 50.7212C44.7817 50.843 44.7506 50.9669 44.6775 51.0659C44.1457 51.7817 43.314 51.9748 42.5914 52.0475C41.4302 52.1793 39.7827 51.4226 38.8988 51.0159C38.7556 50.95 38.5965 50.875 38.5056 50.8386C38.417 50.875 38.2579 50.95 38.1125 51.0159C37.299 51.3908 35.8401 52.0634 34.7039 52.0634C34.609 52.064 34.5141 52.0587 34.4199 52.0475C33.6859 51.9635 32.8655 51.7817 32.3338 51.0659C32.2961 51.0174 32.2685 50.9619 32.2529 50.9025C32.2372 50.8432 32.2337 50.7812 32.2427 50.7205C32.2516 50.6598 32.2727 50.6015 32.3048 50.5491C32.3368 50.4968 32.3792 50.4515 32.4292 50.416C32.4777 50.3782 32.5332 50.3507 32.5926 50.335C32.6519 50.3194 32.7138 50.3159 32.7746 50.3248C32.8353 50.3337 32.8936 50.3549 32.946 50.3869C32.9983 50.419 33.0436 50.4613 33.0791 50.5114C33.3768 50.9204 33.8699 51.0477 34.5198 51.1227V51.1227ZM33.0564 40.1356C34.2699 41.09 34.4403 43.6487 33.086 44.5032C32.0907 45.1304 31.1794 45.1531 30.1137 44.8031C29.2606 44.547 28.5247 43.9992 28.0344 43.2556C27.3254 42.1194 27.3936 41.2286 27.8776 40.5924C28.8866 39.2698 31.693 39.0608 33.0564 40.1356V40.1356Z" fill="#D9D9D9"/>
<path d="M56.2122 31.58C57.1211 27.9714 57.212 22.6222 56.453 22.5268C54.5306 22.2836 51.2265 24.7742 49.4404 26.8148C50.8668 27.0132 52.2253 27.5491 53.403 28.3778C54.5808 29.2066 55.5438 30.3044 56.2122 31.58V31.58Z" fill="#E3D2E8"/>
<path d="M48.3997 28.2759C51.1007 29.6841 53.399 31.7564 55.0782 34.2977C55.5327 33.7342 55.919 32.748 56.2144 31.5709C55.5469 30.294 54.5842 29.1948 53.4064 28.3648C52.2286 27.5349 50.8697 26.998 49.4427 26.7988C49.0353 27.2462 48.685 27.7423 48.3997 28.2759V28.2759Z" fill="#9669A4"/>
<path d="M27.5573 26.8148C25.7734 24.7696 22.4694 22.2836 20.5447 22.5268C19.7857 22.6222 19.8811 27.9806 20.7878 31.58C21.4558 30.3046 22.4185 29.2069 23.5958 28.3781C24.7732 27.5493 26.1312 27.0134 27.5573 26.8148Z" fill="#E3D2E8"/>
<path d="M28.6003 28.2756C28.3129 27.7482 27.9627 27.2576 27.5573 26.8145C26.1306 27.0138 24.7721 27.5507 23.5947 28.3807C22.4173 29.2107 21.455 30.3098 20.7878 31.5865C21.081 32.7545 21.4696 33.7407 21.924 34.3134C23.6011 31.7668 25.8986 29.689 28.6003 28.2756V28.2756Z" fill="#9669A4"/>
<path d="M44.1618 42.2284C44.6617 42.3148 45.5252 41.8239 45.7683 41.3422C45.82 41.2382 45.8423 41.1221 45.8331 41.0064C45.8239 40.8907 45.7834 40.7796 45.7159 40.6851C45.6485 40.5906 45.5567 40.5162 45.4502 40.4698C45.3438 40.4235 45.2267 40.4069 45.1116 40.4219C44.7521 40.4719 44.4228 40.6503 44.1845 40.9241C43.9832 41.116 43.8493 41.3679 43.8027 41.6421C43.7641 42.0125 43.9209 42.1875 44.1618 42.2284Z" fill="white"/>
<path d="M29.5616 40.4216C29.2013 40.4711 28.8711 40.6495 28.6322 40.9238C28.4309 41.1158 28.297 41.3676 28.2505 41.6419C28.2118 42.0123 28.3686 42.1872 28.6095 42.2282C29.1094 42.3145 29.973 41.8237 30.2161 41.3419C30.2684 41.2382 30.2914 41.1221 30.2826 41.0063C30.2738 40.8904 30.2336 40.7792 30.1663 40.6845C30.0989 40.5898 30.007 40.5153 29.9005 40.469C29.794 40.4227 29.6768 40.4063 29.5616 40.4216V40.4216Z" fill="white"/>
<path d="M38.4965 35.8931C38.7237 35.8931 39.2827 31.2279 39.4941 29.3963C39.6463 28.0942 39.8372 26.8012 39.8622 25.4878H39.719C39.3146 25.4878 38.9123 25.4878 38.5101 25.5105H38.167C37.8716 25.5105 37.5784 25.5105 37.2853 25.5105H37.1331C37.1899 26.818 37.3128 28.1217 37.5012 29.4168C37.7102 31.2279 38.2738 35.8931 38.4965 35.8931Z" fill="#262625"/>
<path d="M41.3597 28.9667C42.1028 30.8119 42.5073 32.3412 42.2369 33.8796C42.8826 32.7508 43.0789 31.4201 42.7868 30.1529C42.6277 29.378 41.8665 27.5942 42.7641 25.5695C42.1581 25.524 41.5521 25.4982 40.9461 25.4922V25.5967C40.814 26.7369 40.9558 27.8922 41.3597 28.9667V28.9667Z" fill="#262625"/>
<path d="M34.2199 30.1527C33.9264 31.4198 34.1228 32.7511 34.7698 33.8794C34.4994 32.341 34.9016 30.8117 35.6447 28.9665C36.0546 27.8935 36.2026 26.7382 36.0764 25.5965C36.0764 25.5625 36.0764 25.5238 36.0764 25.4897C35.4697 25.4897 34.9243 25.5193 34.4267 25.5534L34.2494 25.567C35.1288 27.594 34.3721 29.3778 34.2199 30.1527Z" fill="#262625"/>
<path d="M24.1533 47.8323C25.4258 47.9891 26.8574 48.0595 27.8437 47.2346C27.1029 47.5164 26.253 47.2892 25.5531 46.9369C24.8532 46.5847 24.1897 46.1121 23.4329 45.8666C22.8513 45.6907 22.2379 45.645 21.6366 45.733C21.0353 45.821 20.4608 46.0404 19.9539 46.3757C19.7845 46.478 19.6214 46.5903 19.4653 46.712C19.4858 46.7915 19.5017 46.8665 19.5221 46.9392C19.6466 47.4268 19.7983 47.9071 19.9766 48.3776C20.1202 48.3158 20.2573 48.2397 20.3857 48.1504C21.4946 47.4937 22.8785 47.6732 24.1533 47.8323Z" fill="#262625"/>
<path d="M25.0666 41.558C24.2008 41.2603 23.0692 41.433 22.1352 41.7852C21.3762 42.0693 20.6923 42.5146 19.9719 42.8941C19.6306 43.0798 19.2722 43.232 18.9016 43.3486C18.9016 43.3713 18.9016 43.3918 18.9016 43.4123C18.9448 43.9372 19.0039 44.4144 19.0811 44.8734C20.1875 44.4654 21.2079 43.8542 22.0898 43.0714C22.8828 42.3851 23.7214 41.9534 25.0666 41.558Z" fill="#262625"/>
<path d="M53.5626 45.8666C52.8081 46.112 52.1537 46.5869 51.4424 46.9368C50.7312 47.2868 49.8927 47.5163 49.1519 47.2345C50.1381 48.0572 51.5697 47.989 52.8422 47.8322C54.1148 47.6754 55.5077 47.4936 56.6008 48.1639C56.73 48.2532 56.8678 48.3293 57.0121 48.3912C57.1904 47.9198 57.3421 47.4388 57.4666 46.9505C57.487 46.8732 57.5029 46.796 57.5234 46.7233C57.3664 46.5993 57.2017 46.4854 57.0303 46.3824C56.5253 46.0477 55.953 45.828 55.3538 45.7389C54.7546 45.6497 54.1431 45.6933 53.5626 45.8666V45.8666Z" fill="#262625"/>
<path d="M54.8601 41.774C53.9261 41.4331 52.7945 41.2604 51.9287 41.5468C53.0075 41.8455 54.0173 42.3527 54.901 43.0397C55.8375 43.7409 56.8507 44.3333 57.921 44.8054C58.0006 44.3032 58.0551 43.8078 58.0915 43.317C57.7218 43.1999 57.3641 43.0477 57.0234 42.8625C56.3053 42.5125 55.6191 42.0581 54.8601 41.774Z" fill="#262625"/>
<path d="M38.4988 48.1796C39.0396 48.1523 39.5759 47.8728 40.0372 47.2547C40.2437 47.0103 40.3458 46.6944 40.3212 46.3753C40.2712 45.6936 39.3986 45.6709 38.5033 45.68C37.608 45.6891 36.7308 45.7027 36.6854 46.3753C36.6621 46.6942 36.764 47.0097 36.9694 47.2547C37.4217 47.8728 37.9579 48.1523 38.4988 48.1796Z" fill="#231F20"/>
<path d="M27.8777 40.5919C27.3936 41.2282 27.3255 42.1213 28.0345 43.2552C28.5247 43.9988 29.2606 44.5465 30.1137 44.8027C31.1794 45.1526 32.0907 45.1299 33.086 44.5027C34.4494 43.6483 34.2699 41.0941 33.0564 40.1352C31.693 39.0603 28.8866 39.2694 27.8777 40.5919ZM30.2159 41.3418C29.9751 41.8236 29.1093 42.3144 28.6094 42.2281C28.3685 42.1872 28.2117 42.0008 28.2503 41.6418C28.2969 41.3675 28.4308 41.1157 28.6321 40.9237C28.871 40.6495 29.2012 40.471 29.5615 40.4215C29.6767 40.4062 29.7938 40.4226 29.9004 40.4689C30.0069 40.5152 30.0988 40.5897 30.1661 40.6844C30.2334 40.7791 30.2736 40.8904 30.2824 41.0062C30.2912 41.122 30.2682 41.2381 30.2159 41.3418V41.3418Z" fill="#231F20"/>
<path d="M43.9118 44.5028C44.9094 45.13 45.8206 45.1527 46.8841 44.8028C47.7371 44.5466 48.473 43.9989 48.9633 43.2553C49.6723 42.1191 49.6041 41.2283 49.1201 40.592C48.1134 39.2695 45.307 39.0604 43.9413 40.1375C42.7301 41.0897 42.5597 43.6484 43.9118 44.5028ZM44.1845 40.9238C44.4228 40.65 44.7521 40.4716 45.1116 40.4216C45.2267 40.4066 45.3438 40.4232 45.4502 40.4695C45.5567 40.5159 45.6485 40.5903 45.7159 40.6848C45.7834 40.7793 45.8239 40.8904 45.8331 41.0061C45.8423 41.1218 45.8199 41.2379 45.7683 41.3419C45.5252 41.8236 44.6617 42.3145 44.1617 42.2281C43.9209 42.1872 43.7641 42.0009 43.8027 41.6419C43.8488 41.3668 43.9827 41.1141 44.1845 40.9215V40.9238Z" fill="#231F20"/>
<path d="M33.0837 50.511C33.0482 50.461 33.0029 50.4186 32.9505 50.3865C32.8982 50.3545 32.8399 50.3334 32.7792 50.3244C32.7184 50.3155 32.6565 50.319 32.5972 50.3347C32.5378 50.3503 32.4823 50.3778 32.4338 50.4156C32.3838 50.4511 32.3414 50.4964 32.3094 50.5488C32.2773 50.6011 32.2562 50.6594 32.2473 50.7201C32.2383 50.7809 32.2418 50.8428 32.2575 50.9021C32.2731 50.9615 32.3007 51.0171 32.3384 51.0655C32.8701 51.7813 33.7018 51.9744 34.4245 52.0472C34.5187 52.0583 34.6136 52.0636 34.7085 52.0631C35.8447 52.0631 37.3013 51.3813 38.1171 51.0155C38.2625 50.9496 38.4216 50.8746 38.5102 50.8382C38.6011 50.8746 38.7602 50.9496 38.9033 51.0155C39.7873 51.4222 41.4348 52.179 42.596 52.0472C43.3277 51.9631 44.1503 51.7813 44.682 51.0655C44.7552 50.9665 44.7862 50.8426 44.7684 50.7208C44.7505 50.5991 44.6851 50.4893 44.5866 50.4156C44.5381 50.3775 44.4824 50.3496 44.4228 50.3338C44.3632 50.3179 44.301 50.3143 44.24 50.3233C44.179 50.3322 44.1205 50.3534 44.0679 50.3857C44.0154 50.418 43.97 50.4606 43.9344 50.511C43.6345 50.9155 43.1391 51.0473 42.4892 51.1223C41.5802 51.2268 40.0373 50.5133 39.2942 50.1702C39.0612 50.0363 38.8067 49.944 38.542 49.8975H38.4852C38.3239 49.8975 38.1853 49.9588 37.7262 50.1702C36.9832 50.5133 35.4357 51.2268 34.5312 51.1223C33.87 51.0473 33.3769 50.92 33.0837 50.511Z" fill="#231F20"/>
<path d="M15.0181 49.2139C15.0477 49.311 15.108 49.3958 15.1899 49.4557C15.2719 49.5155 15.3711 49.5471 15.4726 49.5457C15.518 49.5456 15.5632 49.5387 15.6067 49.5252L19.0425 48.4981C19.237 49.0344 19.4647 49.558 19.7242 50.066L17.4518 51.7022C17.4011 51.737 17.3579 51.7818 17.325 51.8338C17.2921 51.8858 17.2701 51.9439 17.2603 52.0047C17.2505 52.0655 17.2532 52.1276 17.2682 52.1873C17.2831 52.247 17.31 52.3031 17.3473 52.3521C17.3898 52.4125 17.4463 52.4617 17.512 52.4953C17.5778 52.529 17.6507 52.5461 17.7245 52.5452C17.8224 52.5445 17.9176 52.5135 17.9972 52.4566L20.1719 50.8818C21.499 53.0838 23.4464 54.9426 25.9506 56.3742C26.8732 56.4197 27.5413 56.4469 27.5413 56.4469L27.4777 56.4219C27.4789 56.3768 27.4743 56.3318 27.464 56.2879C27.4269 56.1702 27.3454 56.0715 27.2368 56.0129C23.7078 54.22 21.224 51.6044 19.9787 48.3913C19.8004 47.9207 19.6487 47.4405 19.5243 46.9528C19.5038 46.871 19.4879 46.7961 19.4675 46.7256C19.3107 46.0916 19.1811 45.4781 19.0925 44.9077C19.0925 44.8963 19.0925 44.8827 19.0925 44.8691C19.0152 44.4146 18.9562 43.9328 18.913 43.4079C18.913 43.3875 18.913 43.367 18.913 43.3443C18.7455 41.3382 18.9646 39.3186 19.5583 37.3951C19.6404 37.472 19.7481 37.5158 19.8606 37.5179C19.9781 37.5186 20.0913 37.4738 20.1764 37.3929C20.2224 37.3522 20.2597 37.3025 20.286 37.247C20.3123 37.1915 20.327 37.1312 20.3294 37.0699C20.3317 37.0085 20.3216 36.9473 20.2996 36.8899C20.2776 36.8325 20.2442 36.7802 20.2014 36.7362C20.0523 36.5708 19.9177 36.3929 19.7992 36.2044V36.1908C19.5374 35.7596 19.3204 35.3027 19.1516 34.8273L19.138 34.7887C19.0902 34.6569 19.0448 34.5206 18.9993 34.3797L18.9244 34.1524C18.9062 34.0843 18.8857 34.0184 18.8675 33.9502C18.587 32.9234 18.3812 31.8776 18.2517 30.8211C18.2517 30.7461 18.2313 30.6757 18.2245 30.5939C18.2176 30.5121 18.2063 30.4552 18.1995 30.3848C18.179 30.2053 18.1586 30.028 18.1404 29.8485V29.8235C17.956 27.8232 17.915 25.8123 18.0177 23.8062C18.0586 23.045 18.1245 22.3223 18.2108 21.6633C18.4653 19.7295 18.8244 19.0683 18.9584 18.9569C19.0717 18.9458 19.1855 18.9405 19.2993 18.941H19.4697H19.6492C19.7174 18.941 19.7833 18.9546 19.8515 18.9637L20.0128 18.9864L20.2264 19.0274C20.2787 19.0274 20.331 19.0501 20.3855 19.0637C20.44 19.0773 20.5309 19.0978 20.6127 19.1182L20.7809 19.1682C20.9013 19.2046 21.0081 19.2455 21.1422 19.2887L21.3695 19.3728L21.5444 19.4455C21.624 19.4796 21.7058 19.5137 21.7876 19.5523L21.9421 19.625C22.0353 19.6682 22.1307 19.7136 22.2239 19.7613L22.3443 19.8227C22.4716 19.8886 22.5965 19.9568 22.7238 20.0295L22.7511 20.0431C26.196 22.0019 29.8705 26.0309 31.0044 28.067C31.0329 28.1214 31.0721 28.1695 31.1198 28.2083C31.1674 28.2472 31.2224 28.276 31.2814 28.293C31.3405 28.31 31.4023 28.3148 31.4633 28.3072C31.5243 28.2996 31.5831 28.2797 31.6361 28.2487C31.6896 28.2189 31.7366 28.1788 31.7745 28.1308C31.8125 28.0828 31.8406 28.0278 31.8572 27.9689C31.8739 27.9101 31.8788 27.8485 31.8717 27.7877C31.8646 27.7269 31.8455 27.6682 31.8157 27.6147C31.5135 27.1053 31.178 26.6165 30.8113 26.1513C31.9237 25.8358 33.0661 25.6378 34.2199 25.5605L34.3971 25.5469C34.8948 25.5128 35.4401 25.4923 36.0469 25.4832H36.5013C36.7059 25.4832 36.9104 25.4832 37.124 25.4832H37.2762C37.5694 25.4832 37.8625 25.4832 38.1579 25.4832H38.5011C38.9033 25.4832 39.3055 25.4651 39.71 25.4605H39.8531C40.2076 25.4605 40.5689 25.4605 40.928 25.4605C41.534 25.4605 42.1399 25.4863 42.7459 25.5378C43.8995 25.6159 45.0419 25.8139 46.1545 26.1286C45.8011 26.5938 45.4777 27.0811 45.1865 27.5875C45.1268 27.6955 45.1122 27.8227 45.1458 27.9414C45.1794 28.0601 45.2585 28.1608 45.366 28.2215C45.4195 28.2512 45.4784 28.2701 45.5393 28.2771C45.6001 28.2841 45.6618 28.279 45.7207 28.2621C45.7796 28.2452 45.8345 28.2169 45.8825 28.1787C45.9304 28.1405 45.9703 28.0933 46 28.0397C47.377 25.565 52.5059 20.1454 56.4167 19.0796L56.5303 19.0524C56.6189 19.0296 56.7052 19.0092 56.7939 18.991L56.9484 18.9637C57.0211 18.9501 57.0938 18.941 57.1756 18.9319L57.337 18.9137C57.4097 18.9137 57.4801 18.9137 57.5642 18.9137C57.6483 18.9137 57.6596 18.9137 57.7096 18.9137C57.8242 18.9133 57.9387 18.9186 58.0528 18.9296C58.1868 19.041 58.5459 19.7023 58.8004 21.6361C58.8754 22.1974 58.9322 22.8086 58.9753 23.454C58.9753 23.5153 58.9753 23.5744 58.9753 23.6381C58.9765 23.6539 58.9765 23.6699 58.9753 23.6858C59.0983 25.9451 59.0353 28.2108 58.7867 30.4598V30.5234L58.7186 31.0438C58.6936 31.221 58.6663 31.3983 58.639 31.571L58.6254 31.6687C58.6004 31.8232 58.5732 31.9778 58.5459 32.1232C58.5459 32.1414 58.5459 32.1595 58.5459 32.1777C58.4345 32.789 58.3027 33.3662 58.1505 33.9025C58.13 33.9775 58.1096 34.0502 58.0869 34.1297C58.0641 34.2092 58.0414 34.282 58.0164 34.3569C57.9732 34.4933 57.9278 34.6274 57.8801 34.7569C57.8801 34.7728 57.8687 34.791 57.8619 34.8069C57.6945 35.2825 57.4782 35.7394 57.2165 36.1703V36.1703C57.0978 36.362 56.9616 36.5423 56.8098 36.7089C56.7671 36.7531 56.7339 36.8056 56.7121 36.863C56.6903 36.9204 56.6804 36.9817 56.683 37.0431C56.6855 37.1045 56.7005 37.1647 56.7269 37.2201C56.7534 37.2756 56.7909 37.325 56.837 37.3656C56.9222 37.4465 57.0354 37.4913 57.1529 37.4906C57.2646 37.4879 57.3713 37.4442 57.4529 37.3679C58.0454 39.2916 58.2629 41.3112 58.0937 43.317C58.0573 43.8078 58.0028 44.3032 57.9233 44.8054C57.8278 45.4326 57.696 46.0666 57.5369 46.7097C57.5165 46.787 57.5006 46.8642 57.4801 46.9369C57.3557 47.4253 57.2039 47.9063 57.0256 48.3776C55.7804 51.5885 53.2966 54.2041 49.7676 55.9947C49.7129 56.0231 49.6646 56.0623 49.6255 56.11C49.5864 56.1576 49.5575 56.2127 49.5404 56.272C49.529 56.3157 49.5244 56.3609 49.5267 56.406L49.4631 56.4333C49.5426 56.5742 49.6176 56.7196 49.6903 56.865C49.7631 57.0105 49.8153 57.1082 49.8789 57.2309L50.8152 57.0037C50.747 56.8673 50.6834 56.7287 50.6129 56.5946C53.3398 55.1335 55.4304 53.186 56.8348 50.8546L59.0117 52.4293C59.0907 52.4875 59.1863 52.5186 59.2844 52.518C59.3583 52.5188 59.4312 52.5017 59.4969 52.468C59.5626 52.4344 59.6192 52.3852 59.6616 52.3248C59.7332 52.2245 59.7625 52.1 59.7429 51.9784C59.7233 51.8567 59.6566 51.7477 59.5571 51.6749L57.2847 50.0388C57.5442 49.5308 57.7719 49.0071 57.9664 48.4708L61.4023 49.4979C61.4457 49.5112 61.4909 49.5181 61.5363 49.5184C61.6379 49.5202 61.7373 49.4888 61.8193 49.4289C61.9014 49.369 61.9616 49.2839 61.9908 49.1866C62.0099 49.1282 62.017 49.0664 62.0116 49.0052C62.0061 48.9439 61.9883 48.8844 61.9592 48.8302C61.9301 48.7761 61.8903 48.7284 61.8423 48.69C61.7942 48.6517 61.7388 48.6235 61.6795 48.6072L58.2709 47.5869C58.3118 47.4437 58.3573 47.3028 58.3936 47.1596C58.5088 46.7158 58.6095 46.2772 58.6958 45.8439L61.5 45.9553H61.5182C61.6376 45.9518 61.7512 45.9029 61.8357 45.8184C61.9202 45.7339 61.9692 45.6202 61.9727 45.5008C61.9764 45.4389 61.9674 45.3768 61.9462 45.3185C61.9251 45.2602 61.8922 45.2068 61.8496 45.1616C61.807 45.1165 61.7556 45.0806 61.6986 45.0561C61.6417 45.0315 61.5802 45.0189 61.5182 45.019L58.8413 44.9122C59.3094 41.8831 59.0685 39.0404 58.1255 36.4316C58.1527 36.3862 58.1755 36.3339 58.2028 36.2862L58.2982 36.1067C58.3436 36.0158 58.3868 35.9226 58.43 35.8295C58.4732 35.7363 58.4845 35.7136 58.5095 35.6522C58.555 35.5477 58.6004 35.4386 58.6436 35.3273L58.7049 35.1659C58.7549 35.0364 58.8027 34.9001 58.8481 34.7637C58.8481 34.7251 58.8731 34.6887 58.8845 34.6524C60.2979 30.2962 60.2206 23.0154 59.4139 19.8045C59.4139 19.7909 59.4139 19.775 59.4139 19.7613L59.3662 19.5841C59.3435 19.5091 59.323 19.4318 59.3026 19.3568C59.2987 19.342 59.2933 19.3275 59.2867 19.3137C59.264 19.2364 59.239 19.1591 59.214 19.0864C59.1337 18.8594 59.0253 18.6434 58.8913 18.4434V18.4434C58.8407 18.3723 58.7837 18.3061 58.7208 18.2457L58.664 18.1934C58.6146 18.1544 58.5622 18.1194 58.5072 18.0889L58.4459 18.0548C58.3744 18.0198 58.2976 17.9968 58.2186 17.9866C58.0891 17.973 57.9551 17.9661 57.821 17.9639H57.721C57.6165 17.9639 57.5119 17.9639 57.4074 17.9775H57.2938C57.187 17.9775 57.0802 18.0002 56.9711 18.0161L56.8689 18.0321C56.7371 18.0548 56.603 18.082 56.4689 18.1139H56.4439C56.3008 18.1479 56.1576 18.1888 56.0144 18.232L55.8576 18.2843L55.5804 18.4252L55.3532 18.5115L55.1805 18.5797L54.8919 18.7047L54.8487 18.7229C51.9128 20.0499 48.7837 22.9586 46.8089 25.3719C44.4775 24.6197 42.021 24.5356 39.7168 24.5606C39.3078 24.5606 38.901 24.5606 38.5124 24.5834H38.1943C37.8921 24.5834 37.5876 24.5834 37.3035 24.5834C37.0195 24.5834 36.7786 24.5834 36.515 24.5834C35.7015 24.5834 34.9925 24.6106 34.3539 24.6561C32.9453 24.7318 31.5515 24.9822 30.2045 25.4014C28.1344 22.8723 24.7985 19.8 21.7467 18.5842H21.733C21.6171 18.5388 21.5058 18.4933 21.3831 18.4524L21.2854 18.4183C21.1854 18.3843 21.0854 18.3502 20.9854 18.3206C20.8854 18.2911 20.8104 18.2706 20.7241 18.2479L20.4673 18.1866C20.3688 18.1638 20.2711 18.1434 20.1742 18.1252L20.031 18.1048C19.9356 18.0911 19.8424 18.0775 19.7492 18.0684L19.6129 18.057C19.5129 18.057 19.4152 18.057 19.3175 18.057H19.2061C19.0721 18.057 18.9403 18.057 18.8107 18.0798C18.7319 18.0905 18.6552 18.1136 18.5835 18.1479L18.5221 18.182C18.468 18.2129 18.4164 18.2478 18.3676 18.2866L18.3108 18.3388C18.2472 18.3992 18.1894 18.4654 18.1381 18.5365V18.5365C18.068 18.6365 18.0064 18.7421 17.954 18.8524V18.8524C17.9032 18.9584 17.8577 19.0668 17.8177 19.1773C17.7927 19.241 17.77 19.3159 17.745 19.3887C17.74 19.4087 17.7339 19.4284 17.7268 19.4477C17.7063 19.5114 17.6882 19.5818 17.6677 19.65C17.6473 19.7182 17.6314 19.7795 17.6154 19.8477C17.6144 19.8545 17.6144 19.8614 17.6154 19.8681C16.8065 23.0699 16.7269 30.3712 18.1426 34.7342C18.1426 34.7683 18.1654 34.8001 18.1767 34.8342C18.2222 34.975 18.2699 35.1137 18.3199 35.2477C18.3404 35.3023 18.3631 35.3545 18.3835 35.4068C18.4267 35.5181 18.4699 35.634 18.5153 35.734L18.5971 35.9113C18.6403 36.0044 18.6835 36.0976 18.7289 36.1862C18.7744 36.2748 18.7926 36.3089 18.8244 36.368C18.8562 36.4271 18.8766 36.468 18.9039 36.5157C18.1042 38.7561 17.7988 41.1429 18.0086 43.5124C18.0517 44.0442 18.1108 44.5305 18.1881 44.9918L15.5067 45.0986C15.4446 45.0985 15.3832 45.1111 15.3262 45.1356C15.2692 45.1601 15.2178 45.196 15.1753 45.2412C15.1327 45.2863 15.0998 45.3397 15.0786 45.398C15.0575 45.4563 15.0485 45.5184 15.0522 45.5803C15.0522 45.7009 15.1001 45.8165 15.1853 45.9017C15.2705 45.9869 15.3861 46.0348 15.5067 46.0348H15.5248L18.3335 45.9235C18.4176 46.3507 18.5153 46.787 18.6312 47.2392C18.6698 47.3823 18.713 47.5232 18.7562 47.6664L15.3476 48.6867C15.236 48.7163 15.1398 48.7872 15.0786 48.8851C15.0174 48.9831 14.9958 49.1006 15.0181 49.2139V49.2139Z" fill="#231F20"/>
</g>
<defs>
<clipPath id="clip0_2926_4098">
<rect width="47" height="42.6961" fill="white" transform="translate(15 18)"/>
</clipPath>
</defs>
</svg>
