<svg width="78" height="78" viewBox="0 0 78 78" fill="none" xmlns="http://www.w3.org/2000/svg">
<path d="M77.5 39C77.5 60.263 60.263 77.5 39 77.5C17.737 77.5 0.5 60.263 0.5 39C0.5 17.737 17.737 0.5 39 0.5C60.263 0.5 77.5 17.737 77.5 39Z" fill="#EAE4FC" stroke="black"/>
<g clip-path="url(#clip0_2926_4096)">
<path d="M39.2988 59.2549C45.2625 59.2549 49.7689 58.3215 53.2071 56.8331C53.2591 56.718 53.3513 56.6258 53.4664 56.5738C54.5688 56.0693 55.621 55.4616 56.609 54.7588C60.1768 52.2022 61.7378 48.5774 61.3825 43.6794C61.3825 43.6612 61.3825 43.6483 61.3825 43.6301C59.8527 43.5705 57.8069 43.223 57.5373 42.8237C58.2425 42.4711 59.8475 42.3985 61.2658 42.5151C61.1932 41.9343 61.0973 41.3406 60.9703 40.7001C60.9703 40.6301 60.9391 40.5549 60.9236 40.4849C45.737 37.3397 42.1666 27.1211 41.7595 22.5809H41.7439C40.8183 22.5498 39.8511 22.5524 38.7854 22.5809C37.686 22.5472 36.7111 22.5446 35.788 22.5809H35.6947C35.2876 27.1133 31.7327 37.2982 16.611 40.4719C16.5928 40.5497 16.5773 40.6301 16.5617 40.7053C16.4347 41.3587 16.3387 41.9525 16.2661 42.5203C17.6585 42.4166 19.1935 42.4918 19.8806 42.8367C19.6213 43.2282 17.6637 43.5653 16.1494 43.6379C16.1494 43.656 16.1494 43.6716 16.1494 43.6897C15.7942 48.5877 17.3551 52.2126 20.9229 54.7718C21.9112 55.4741 22.9633 56.0818 24.0655 56.5868C24.1807 56.6388 24.2729 56.731 24.3248 56.8461C27.763 58.3344 32.2721 59.2679 38.2357 59.2679L39.2988 59.2549ZM44.5572 38.1358C45.2988 37.2023 46.4734 37.1349 48.0991 37.8013C50.2694 38.688 51.9884 41.0528 49.8597 43.3656C48.4725 44.8695 45.9703 44.1098 44.6557 42.51C43.6601 41.3198 43.323 39.6759 44.5572 38.1358ZM29.438 37.8013C31.0638 37.1349 32.2384 37.2023 32.9799 38.1358C34.2038 39.6759 33.8667 41.3198 32.8814 42.51C31.5538 44.1098 29.0647 44.8695 27.6775 43.3656C25.5331 41.0528 27.2574 38.688 29.4277 37.8013H29.438Z" fill="white"/>
<path d="M19.8728 42.816C19.1857 42.4711 17.6507 42.3959 16.2583 42.4996L16.2427 42.6137C16.2012 42.9378 16.1675 43.2671 16.1416 43.6172C17.6559 43.5446 19.6083 43.2023 19.8728 42.816Z" fill="#9669A4"/>
<path d="M57.5217 42.8157C57.781 43.215 59.8372 43.5624 61.367 43.6221C61.3411 43.2642 61.3073 42.9401 61.2685 42.6316C61.2685 42.5901 61.2685 42.5486 61.2503 42.5071C59.8398 42.3904 58.2348 42.463 57.5217 42.8157Z" fill="#9669A4"/>
<path d="M35.6871 22.5651C32.4278 22.6921 29.7234 23.2341 27.4469 24.2245C27.3627 24.2602 27.2709 24.2736 27.1801 24.2637C27.0893 24.2537 27.0026 24.2206 26.9283 24.1675C23.3604 21.5746 19.0355 19.3499 17.4201 20.2548C16.0148 21.0327 15.9085 30.7301 17.6353 36.2426C17.6688 36.3463 17.6688 36.4579 17.6353 36.5616C17.376 37.3394 17.1608 38.1173 16.9404 38.9989C16.8082 39.5174 16.6993 40.0023 16.6085 40.4483C31.7251 37.2824 35.28 27.0975 35.6871 22.5651ZM26.5549 28.9047L20.4434 33.8494C20.3131 33.954 20.1585 34.0241 19.9939 34.0532C19.8294 34.0823 19.6601 34.0696 19.5018 34.0161C19.3435 33.9626 19.2011 33.8702 19.0879 33.7472C18.9747 33.6243 18.8942 33.4748 18.854 33.3126C18.7321 32.8589 18.6232 32.3637 18.5273 31.8477C17.8687 28.3161 17.8402 23.6852 18.8099 23.1303C20.1426 22.368 23.4771 24.3309 25.6448 26.3041C26.0096 26.6302 26.3559 26.9764 26.682 27.3412C26.7789 27.451 26.8526 27.5792 26.8988 27.7182C26.945 27.8572 26.9627 28.004 26.9508 28.15C26.939 28.2959 26.8978 28.438 26.8298 28.5677C26.7617 28.6974 26.6682 28.812 26.5549 28.9047V28.9047Z" fill="#9669A4"/>
<path d="M60.9159 40.4666C60.8199 39.9947 60.7111 39.5046 60.5814 38.9964C60.3973 38.26 60.1847 37.5029 59.928 36.681C59.8945 36.5773 59.8945 36.4657 59.928 36.362C61.7845 30.598 61.4578 20.9732 60.1873 20.255C58.5641 19.3474 54.2236 21.5773 50.648 24.1884C50.5738 24.2417 50.487 24.2749 50.3962 24.2849C50.3053 24.2949 50.2135 24.2813 50.1294 24.2454C47.8243 23.2342 45.0888 22.6897 41.7673 22.5626C42.1589 27.1028 45.7293 37.3214 60.9159 40.4666ZM50.8269 27.3491C51.153 26.9843 51.4993 26.6381 51.8641 26.312C54.0343 24.3388 57.3662 22.3759 58.699 23.1383C59.6687 23.6931 59.6402 28.3241 58.9842 31.8556C58.8856 32.3742 58.7767 32.8668 58.6549 33.3206C58.6146 33.4828 58.5342 33.6322 58.421 33.7552C58.3078 33.8781 58.1654 33.9706 58.0071 34.024C57.8488 34.0775 57.6795 34.0903 57.5149 34.0611C57.3503 34.032 57.1958 33.9619 57.0654 33.8573L50.9591 28.9126C50.8454 28.8203 50.7515 28.706 50.683 28.5765C50.6145 28.447 50.5728 28.305 50.5605 28.159C50.5481 28.013 50.5654 27.8661 50.6112 27.7269C50.6569 27.5878 50.7303 27.4593 50.8269 27.3491V27.3491Z" fill="#9669A4"/>
<path d="M46.017 38.1799C45.2002 37.9206 44.1475 39.6319 44.7205 40.2101C45.7888 41.2654 47.0412 38.5169 46.017 38.1799Z" fill="white"/>
<path d="M29.5599 38.6491C28.7458 38.3898 27.6904 40.1011 28.2635 40.6793C29.3318 41.7347 30.5841 38.9862 29.5599 38.6491Z" fill="white"/>
<path d="M58.9868 31.848C59.6428 28.3165 59.6713 23.6855 58.7016 23.1307C57.3689 22.3684 54.0344 24.3312 51.8667 26.3044C54.8604 27.1762 57.4076 29.1594 58.9868 31.848V31.848Z" fill="#E3D2E8"/>
<path d="M50.9619 28.9049L57.0681 33.8495C57.1985 33.9541 57.3531 34.0242 57.5176 34.0533C57.6822 34.0825 57.8514 34.0697 58.0098 34.0163C58.1681 33.9628 58.3105 33.8703 58.4237 33.7474C58.5369 33.6244 58.6173 33.475 58.6576 33.3128C58.7795 32.859 58.8884 32.3638 58.9869 31.8478C57.4077 29.1593 54.8605 27.176 51.8668 26.3042C51.502 26.6303 51.1557 26.9766 50.8296 27.3414C50.733 27.4515 50.6596 27.58 50.6138 27.7191C50.5681 27.8583 50.5509 28.0053 50.5632 28.1512C50.5755 28.2972 50.6172 28.4392 50.6857 28.5687C50.7542 28.6982 50.8481 28.8125 50.9619 28.9049V28.9049Z" fill="#664570"/>
<path d="M25.6499 26.3044C23.4822 24.3312 20.1478 22.3684 18.815 23.1307C17.8453 23.6855 17.8738 28.3165 18.5324 31.848C20.1106 29.1596 22.6569 27.1763 25.6499 26.3044V26.3044Z" fill="#E3D2E8"/>
<path d="M25.65 26.3042C22.657 27.1762 20.1107 29.1594 18.5325 31.8478C18.6284 32.3664 18.7373 32.859 18.8592 33.3128C18.8994 33.475 18.9799 33.6244 19.0931 33.7474C19.2063 33.8703 19.3486 33.9628 19.507 34.0163C19.6653 34.0697 19.8345 34.0825 19.9991 34.0533C20.1637 34.0242 20.3183 33.9541 20.4486 33.8495L26.5549 28.9049C26.6676 28.8128 26.7608 28.699 26.8288 28.5703C26.8968 28.4416 26.9384 28.3005 26.9509 28.1555C26.9635 28.0104 26.9469 27.8643 26.902 27.7258C26.8571 27.5873 26.7849 27.4593 26.6897 27.3491C26.363 26.9816 26.0159 26.6327 25.65 26.3042Z" fill="#664570"/>
<path d="M49.8494 43.3654C51.9859 41.0526 50.259 38.6982 48.0888 37.8011C46.463 37.1347 45.2884 37.2021 44.5469 38.1356C43.323 39.6757 43.6601 41.3196 44.6454 42.5098C45.973 44.1096 48.4622 44.8693 49.8494 43.3654ZM46.0171 38.1796C47.0413 38.5167 45.7889 41.2652 44.7206 40.2099C44.1476 39.6317 45.2003 37.9126 46.0171 38.1796Z" fill="#231F20"/>
<path d="M32.8712 42.5098C33.8565 41.3196 34.1936 39.6757 32.9697 38.1356C32.2282 37.2021 31.0536 37.1347 29.4278 37.8011C27.2576 38.6878 25.5385 41.0526 27.6672 43.3654C29.0544 44.8693 31.5436 44.1096 32.8712 42.5098ZM29.5601 38.649C30.5843 38.986 29.3319 41.7345 28.2636 40.6792C27.7036 40.0906 28.7407 38.3819 29.5601 38.649Z" fill="#231F20"/>
<path d="M33.05 49.8397C33.0095 49.7826 32.9578 49.7343 32.8981 49.6977C32.8384 49.6611 32.7718 49.637 32.7025 49.6268C32.6332 49.6167 32.5626 49.6206 32.4948 49.6385C32.4271 49.6564 32.3637 49.6878 32.3085 49.7308C32.2514 49.7714 32.2031 49.8231 32.1665 49.8828C32.1299 49.9425 32.1058 50.009 32.0956 50.0783C32.0854 50.1476 32.0894 50.2183 32.1072 50.286C32.1251 50.3537 32.1565 50.4171 32.1996 50.4724C32.8063 51.2866 33.7553 51.494 34.5799 51.5925C34.6836 51.5925 34.7925 51.6081 34.904 51.6081C36.2004 51.6081 37.8625 50.8432 38.7933 50.4153C38.9593 50.3376 39.1408 50.2546 39.2419 50.2131C39.3456 50.2546 39.5271 50.3376 39.6905 50.4153C40.6991 50.8795 42.5789 51.7429 43.9039 51.5925C44.7388 51.494 45.6775 51.2866 46.2842 50.4724C46.3677 50.3595 46.4031 50.2181 46.3827 50.0791C46.3623 49.9402 46.2877 49.815 46.1753 49.7308C46.12 49.6874 46.0564 49.6556 45.9884 49.6375C45.9204 49.6194 45.8495 49.6153 45.7798 49.6255C45.7102 49.6357 45.6434 49.6599 45.5834 49.6967C45.5235 49.7336 45.4717 49.7822 45.4311 49.8397C45.0889 50.3013 44.5236 50.4516 43.7821 50.5372C42.7449 50.6565 40.9843 49.8423 40.1364 49.4508C39.8706 49.2981 39.5802 49.1928 39.2782 49.1396H39.2134C39.0293 49.1396 38.8711 49.2096 38.3474 49.4508C37.4995 49.8423 35.7337 50.6565 34.7017 50.5372C33.9576 50.462 33.4079 50.3013 33.05 49.8397Z" fill="#231F20"/>
<path d="M39.1433 47.7784C39.7604 47.7447 40.3723 47.4284 40.8987 46.7231C41.1331 46.4435 41.2494 46.0836 41.2228 45.7197C41.1657 44.9418 40.1701 44.9159 39.1485 44.9262C38.1269 44.9366 37.126 44.9522 37.0742 45.7197C37.0462 46.0837 37.1626 46.4442 37.3983 46.7231C37.9143 47.4284 38.5262 47.7447 39.1433 47.7784Z" fill="#231F20"/>
<path d="M11.5289 49.7439C11.5539 49.7466 11.5791 49.7466 11.6041 49.7439L15.6153 49.1735C15.8168 49.8451 16.0771 50.4975 16.3932 51.1234L13.5721 52.5365C13.4468 52.6004 13.3518 52.7111 13.3076 52.8445C13.2635 52.978 13.2737 53.1236 13.3361 53.2495C13.3806 53.3374 13.4484 53.4112 13.5321 53.4629C13.6159 53.5146 13.7123 53.5422 13.8107 53.5425C13.8936 53.5429 13.9754 53.5233 14.0492 53.4855L16.9014 52.0542C17.7846 53.457 18.9374 54.6705 20.2929 55.6246C21.1823 56.2569 22.1214 56.8162 23.101 57.2971L24.2963 57.3178C24.333 57.2539 24.3557 57.183 24.3629 57.1097C24.37 57.0363 24.3615 56.9623 24.3378 56.8926C24.3378 56.8744 24.3171 56.8614 24.3093 56.8433C24.2573 56.7282 24.1651 56.636 24.05 56.584C22.9478 56.079 21.8956 55.4713 20.9074 54.769C17.3396 52.2098 15.7787 48.5849 16.1339 43.6869C16.1326 43.6697 16.1326 43.6523 16.1339 43.6351C16.1572 43.285 16.1909 42.9557 16.2324 42.6316L16.248 42.5175C16.3206 41.9471 16.4165 41.3533 16.5436 40.7025C16.5591 40.6273 16.5747 40.5469 16.5928 40.4692C16.6836 40.0232 16.7925 39.5461 16.9247 39.0197C17.1451 38.1485 17.3733 37.3525 17.6196 36.5824C17.6531 36.4787 17.6531 36.3671 17.6196 36.2635C15.8927 30.751 15.9991 21.0639 17.4044 20.2757C19.0198 19.3708 23.3447 21.5877 26.9125 24.1883C26.9869 24.2414 27.0736 24.2745 27.1644 24.2845C27.2552 24.2945 27.347 24.281 27.4311 24.2454C29.7155 23.2549 32.4121 22.713 35.6714 22.5859H35.7647C36.693 22.5548 37.6627 22.5574 38.7621 22.5859C39.8278 22.5522 40.7949 22.5496 41.7206 22.5859H41.7362C45.0577 22.7052 47.7932 23.2575 50.0982 24.2687C50.1823 24.3046 50.2742 24.3182 50.365 24.3082C50.4558 24.2982 50.5426 24.265 50.6168 24.2117C54.195 21.6006 58.5329 19.3708 60.1561 20.2783C61.4344 20.9965 61.7611 30.6213 59.8968 36.3853C59.8633 36.489 59.8633 36.6006 59.8968 36.7043C60.1561 37.5262 60.3661 38.2833 60.5502 39.0197C60.6799 39.5383 60.7888 40.018 60.8847 40.4899C60.9002 40.5599 60.9184 40.6351 60.9314 40.7051C61.0584 41.3559 61.1544 41.9497 61.227 42.5201C61.227 42.5616 61.227 42.6031 61.2451 42.6446C61.284 42.9531 61.3177 43.2773 61.3436 43.6351C61.3436 43.6532 61.3436 43.6662 61.3436 43.6843C61.6989 48.5823 60.1379 52.2072 56.5701 54.7638C55.5822 55.4666 54.5299 56.0743 53.4275 56.5788C53.3124 56.6308 53.2202 56.723 53.1682 56.8381C53.1682 56.8563 53.1475 56.8692 53.1397 56.8874C53.1016 56.9974 53.1016 57.117 53.1397 57.2271L54.4543 57.4708L54.3687 57.2919C55.3489 56.8121 56.2881 56.2527 57.1769 55.6195C58.5325 54.6647 59.686 53.4513 60.571 52.049L63.4231 53.4803C63.497 53.5181 63.5788 53.5377 63.6617 53.5373C63.7601 53.537 63.8565 53.5094 63.9402 53.4577C64.0239 53.406 64.0918 53.3322 64.1362 53.2444C64.1693 53.1824 64.1894 53.1144 64.1954 53.0444C64.2014 52.9744 64.1931 52.9039 64.171 52.8373C64.1489 52.7706 64.1136 52.7091 64.067 52.6565C64.0205 52.6039 63.9637 52.5613 63.9002 52.5313L61.0895 51.1208C61.4035 50.494 61.6637 49.8417 61.8674 49.1709L65.876 49.7413C65.901 49.7439 65.9262 49.7439 65.9512 49.7413C66.0786 49.7423 66.2019 49.6963 66.2976 49.6121C66.3932 49.5279 66.4545 49.4115 66.4698 49.285C66.4898 49.1458 66.4539 49.0043 66.3698 48.8916C66.2857 48.7788 66.1604 48.704 66.0212 48.6835L62.1319 48.1286C62.2622 47.4852 62.3489 46.8338 62.3912 46.1787L65.2434 45.9842C65.3134 45.981 65.382 45.9637 65.4451 45.9332C65.5082 45.9027 65.5645 45.8598 65.6105 45.8069C65.6566 45.7541 65.6914 45.6925 65.713 45.6258C65.7345 45.5591 65.7424 45.4888 65.736 45.419C65.726 45.2788 65.661 45.1483 65.555 45.056C65.4491 44.9637 65.311 44.9171 65.1708 44.9263L62.4456 45.113C62.4456 44.6152 62.4456 44.1122 62.4015 43.591C62.373 43.1943 62.3367 42.8339 62.2926 42.4968C62.2149 41.859 62.1086 41.2003 61.9685 40.4743C61.8596 39.922 61.7274 39.3361 61.5744 38.7371C61.3981 38.0292 61.1958 37.3032 60.9547 36.5228C62.5442 31.3836 62.959 20.6153 60.6617 19.3267C58.0429 17.8617 52.2918 21.6603 50.2227 23.1512C47.8502 22.1581 45.0706 21.6188 41.7362 21.4969C40.7897 21.4632 39.7967 21.4658 38.7413 21.4969C37.6523 21.4606 36.667 21.458 35.7077 21.4969C32.4017 21.6188 29.6351 22.1529 27.2678 23.1305C25.1935 21.6525 19.471 17.8643 16.8599 19.3267C14.5263 20.6231 14.9801 31.254 16.5332 36.3957C16.2998 37.1347 16.082 37.9022 15.8694 38.7293C15.7086 39.3672 15.5816 39.935 15.4753 40.4666C15.3353 41.1874 15.216 41.8434 15.1538 42.4709C15.1071 42.8287 15.0708 43.1917 15.0423 43.5832C15.006 44.1018 14.9956 44.6204 15.0008 45.1053L12.2731 44.9186C12.1329 44.9093 11.9947 44.9559 11.8888 45.0482C11.7829 45.1406 11.7178 45.2711 11.7078 45.4112C11.7014 45.481 11.7093 45.5514 11.7308 45.618C11.7524 45.6847 11.7873 45.7463 11.8333 45.7992C11.8793 45.852 11.9356 45.8949 11.9987 45.9254C12.0618 45.9559 12.1304 45.9733 12.2005 45.9765L15.0526 46.1709C15.095 46.826 15.1816 47.4774 15.3119 48.1208L11.4226 48.6757C11.3535 48.6855 11.2869 48.7089 11.2269 48.7445C11.1668 48.78 11.1143 48.8271 11.0724 48.883C11.0305 48.9388 11 49.0024 10.9827 49.07C10.9654 49.1377 10.9615 49.2081 10.9714 49.2772C10.9846 49.4126 11.0504 49.5373 11.1547 49.6246C11.259 49.7119 11.3933 49.7548 11.5289 49.7439V49.7439Z" fill="#231F20"/>
</g>
<defs>
<clipPath id="clip0_2926_4096">
<rect width="55.5165" height="40.2547" fill="white" transform="translate(11 19)"/>
</clipPath>
</defs>
</svg>
