<svg width="78" height="78" viewBox="0 0 78 78" fill="none" xmlns="http://www.w3.org/2000/svg">
<path d="M77.5 39C77.5 60.263 60.263 77.5 39 77.5C17.737 77.5 0.5 60.263 0.5 39C0.5 17.737 17.737 0.5 39 0.5C60.263 0.5 77.5 17.737 77.5 39Z" fill="#EAE4FC" stroke="black"/>
<g clip-path="url(#clip0_2926_4097)">
<path d="M29.5996 55.8827C29.5996 55.9134 29.5996 55.9441 29.5996 55.9748C29.6193 56.1764 29.6302 56.3781 29.6368 56.5775C29.6368 56.6301 29.6368 56.6827 29.6368 56.7353C29.6368 56.9457 29.6368 57.1539 29.6368 57.3599C29.6368 57.3884 29.6368 57.4191 29.6368 57.4498C31.9951 58.6684 35.1863 59.4224 38.704 59.4224C42.1012 59.4224 45.1938 58.721 47.5258 57.5747V57.5638C47.5104 57.2986 47.5039 57.029 47.5082 56.7572C47.5082 56.7397 47.5082 56.72 47.5082 56.7024C47.5082 56.4328 47.528 56.1611 47.5565 55.8871C47.5552 55.8784 47.5552 55.8695 47.5565 55.8608C47.5615 55.8063 47.5696 55.7522 47.5806 55.6986C47.5806 55.6986 47.5806 55.6789 47.5806 55.6679C47.5897 55.6282 47.6022 55.5894 47.6178 55.5518C47.6219 55.5386 47.6278 55.526 47.6354 55.5145C47.6472 55.4883 47.6603 55.4627 47.6748 55.4378C47.6833 55.424 47.6936 55.4115 47.7055 55.4005C47.7137 55.3879 47.7233 55.3762 47.734 55.3655C46.1011 55.8718 44.1352 55.9879 42.6338 56.1304C41.3056 56.2575 35.8175 56.2575 34.4893 56.1304C32.9858 55.9879 31.0176 55.8718 29.387 55.3633C29.4382 55.4162 29.4784 55.4788 29.5053 55.5474C29.5518 55.6544 29.5835 55.7672 29.5996 55.8827Z" fill="#9669A4"/>
<path d="M52.0254 39.4029L52.1131 38.7958C52.7202 34.5263 52.5207 30.6864 51.5191 27.3637C51.2046 26.2922 50.7437 25.2692 50.1493 24.3238C50.101 24.2471 50.0243 24.1441 49.9301 24.0213C49.3975 23.2849 48.9679 22.6296 49.0534 22.0707C44.9044 20.0608 39.8481 19.6225 35.6838 20.0477C33.0663 20.3168 30.5118 21.0189 28.1245 22.1255C28.1661 22.6712 27.7453 23.309 27.2303 24.0191C27.1426 24.1419 27.0659 24.2383 27.0111 24.3238C26.4168 25.2695 25.9552 26.2924 25.6391 27.3637V27.3637C24.6375 30.6776 24.438 34.5241 25.0451 38.7958L25.1328 39.4029C25.6741 43.1661 26.2286 47.0455 25.5711 50.9271C26.0862 52.3013 26.8029 53.8333 28.0456 54.6727C28.1208 54.727 28.1768 54.8038 28.2056 54.8919C28.3811 55.0381 28.5948 55.1309 28.8215 55.1593C29.0122 55.2338 29.2072 55.3018 29.4067 55.3653C31.0373 55.8738 33.0055 55.99 34.509 56.1324C35.8372 56.2596 41.3253 56.2596 42.6535 56.1324C44.1549 55.99 46.1209 55.8738 47.7537 55.3675C47.9531 55.304 48.1482 55.236 48.3367 55.1615H48.3915H48.4309L48.5054 55.144L48.5646 55.1264L48.6238 55.1067L48.6939 55.0804L48.74 55.0563L48.8189 55.0147L48.8561 54.9884L48.8956 54.9599C48.9254 54.8639 48.9873 54.7811 49.0709 54.7253L49.1038 54.7056C50.3509 53.875 51.0764 52.3342 51.5892 50.9512C50.9295 47.0455 51.484 43.1661 52.0254 39.4029ZM26.9716 33.8841C26.9364 33.7936 26.9197 33.6969 26.9223 33.5998C26.9249 33.5027 26.9469 33.4071 26.987 33.3187C27.0856 33.1795 27.2227 33.0721 27.3815 33.0096C28.8017 32.2864 31.7299 30.9691 32.9134 32.3061C33.7704 33.277 33.5995 35.0961 32.7359 35.9575C31.6663 37.0271 30.2527 36.5953 28.8697 35.8786C28.0171 35.4359 27.2215 34.7608 26.9716 33.8841V33.8841ZM48.5515 52.8514C48.1877 53.422 47.6816 53.8881 47.083 54.2037C45.3143 55.2163 43.094 55.4968 41.0755 55.6371C38.5878 55.8081 35.9052 55.7664 33.4614 55.3171C31.7409 55.0015 29.5338 54.4404 28.6067 52.8514C27.2149 50.4778 26.2111 44.3036 32.6745 39.1618C33.6345 38.3969 34.7304 37.7723 35.4668 36.8057C37.1523 34.5986 35.8482 28.1199 37.1084 25.7594C37.698 24.6635 39.4426 24.6218 40.0497 25.7594C41.31 28.1199 40.0059 34.5986 41.6913 36.8057C42.4278 37.7723 43.5236 38.3969 44.4836 39.1618C50.947 44.3102 49.9432 50.4778 48.5515 52.8514V52.8514ZM50.1865 33.8841C49.9345 34.7608 49.1411 35.4359 48.2885 35.8786C46.9055 36.5953 45.4918 37.0271 44.4222 35.9575C43.5587 35.0961 43.3856 33.277 44.2447 32.3061C45.4283 30.9691 48.3564 32.2864 49.7767 33.0096C49.9354 33.0721 50.0725 33.1795 50.1712 33.3187C50.2509 33.4977 50.2564 33.701 50.1865 33.8841V33.8841Z" fill="#D9D9D9"/>
<path d="M44.4836 39.1619C43.5236 38.397 42.4277 37.7724 41.6913 36.8058C40.0058 34.5987 41.3099 28.12 40.0497 25.7595C39.4426 24.622 37.6979 24.6636 37.1084 25.7595C35.8481 28.12 37.1522 34.5987 35.4668 36.8058C34.7303 37.7724 33.6345 38.397 32.6745 39.1619C26.2111 44.3103 27.2149 50.4779 28.6066 52.8515C29.5337 54.4339 31.7408 55.0016 33.4613 55.3172C35.9051 55.7665 38.5878 55.8082 41.0754 55.6372C43.094 55.4969 45.3142 55.2164 47.083 54.2038C47.6816 53.8882 48.1877 53.4221 48.5514 52.8515C49.9432 50.4779 50.947 44.3103 44.4836 39.1619ZM38.9034 40.5668C40.6108 40.5997 43.0217 40.8123 42.9976 43.0983C42.9769 43.6044 42.8009 44.0919 42.4935 44.4944C42.2908 44.7618 42.0501 44.9981 41.779 45.1958C41.2836 45.5608 40.7351 45.8476 40.1527 46.0462C39.8615 46.1507 39.5625 46.232 39.2585 46.2895C38.937 46.3421 38.6079 46.3242 38.2941 46.2369C37.6897 46.0916 37.109 45.8614 36.5692 45.553C36.0802 45.2924 35.6515 44.9317 35.3111 44.4944C35.0037 44.0919 34.8277 43.6044 34.807 43.0983C34.7851 40.8013 37.1697 40.5164 38.9034 40.5668Z" fill="white"/>
<path d="M35.9052 43.0479C36.3435 43.129 36.8301 42.9515 37.2487 42.7104C37.4806 42.5914 37.6811 42.4194 37.8339 42.2085C38.4915 41.163 36.9309 41.3603 36.2449 41.6737C35.4647 42.0309 34.943 42.8638 35.9052 43.0479Z" fill="white"/>
<path d="M24.2452 39.5299L24.1575 38.9228C23.5307 34.5218 23.7411 30.546 24.78 27.105C25.1179 25.9544 25.6136 24.8561 26.2528 23.8415C26.3076 23.7538 26.3953 23.6223 26.4983 23.4908C26.6714 23.2519 27.169 22.5637 27.2238 22.259H27.2106C26.7738 22.1002 26.3121 22.0208 25.8473 22.0245C25.7421 22.0245 25.6282 22.0245 25.5252 22.0245C23.1669 22.1911 20.2891 24.0519 16.7319 27.7231C12.4317 32.1416 7.00719 38.7716 9.55399 45.3161C9.8054 45.9125 10.1445 46.4681 10.56 46.9643C11.9978 43.8498 13.9462 40.0801 14.5249 40.3014C14.915 40.4439 13.887 45.9868 14.172 50.6026C14.2224 51.4048 14.3407 52.2004 14.4701 52.9938C14.5336 53.2612 14.5906 53.5264 14.6432 53.7894C14.8098 54.5872 14.9654 55.3411 15.3007 55.946C15.642 56.5797 16.2142 57.0577 16.8985 57.2808C17.6439 57.5492 18.4406 57.6443 19.2282 57.5588C20.0158 57.4734 20.7737 57.2097 21.4442 56.7877C23.2962 55.6019 24.1269 53.4058 24.4973 51.7708C25.42 47.7051 24.8238 43.5496 24.2452 39.5299Z" fill="#9669A4"/>
<path d="M14.5249 40.2948C13.9463 40.0756 11.9978 43.8432 10.5601 46.9576C10.6061 47.0168 10.6455 47.0716 10.6959 47.133C11.0225 47.5407 11.3885 47.9483 11.7392 48.3428C12.6817 49.3992 13.6548 50.4907 14.1063 51.7269C14.2536 52.1412 14.3752 52.5643 14.4701 52.9937C14.3408 52.2003 14.2224 51.4047 14.172 50.6025C13.8871 45.9801 14.9151 40.4372 14.5249 40.2948Z" fill="#664570"/>
<path d="M62.6335 40.2948C63.2121 40.0756 65.1606 43.841 66.5984 46.9577C67.0134 46.4623 67.3517 45.9075 67.6022 45.3117C70.1512 38.765 64.7266 32.135 60.4264 27.7164C56.9196 24.1067 53.9586 22.1933 51.631 22.0179C51.0585 21.9681 50.482 22.0428 49.9412 22.2371V22.2371C49.9938 22.5396 50.4957 23.23 50.671 23.4711C50.7718 23.6113 50.8595 23.7319 50.9143 23.8217C51.5528 24.8349 52.0477 25.9317 52.385 27.0808C53.426 30.5241 53.6364 34.4999 53.0096 38.8987L52.9219 39.508C52.3433 43.5276 51.745 47.6832 52.6786 51.7488C53.049 53.3839 53.8797 55.58 55.7317 56.7657C56.4018 57.1877 57.1593 57.4514 57.9465 57.5368C58.7338 57.6223 59.5302 57.5272 60.2752 57.2588C60.9608 57.037 61.534 56.5588 61.8752 55.9241C62.2017 55.3192 62.3573 54.563 62.5327 53.7652C62.5853 53.5044 62.6423 53.2392 62.7058 52.9718C62.8351 52.1784 62.9535 51.3828 63.0039 50.5806C63.2779 45.9802 62.2434 40.4373 62.6335 40.2948Z" fill="#9669A4"/>
<path d="M62.6335 40.295C62.2434 40.4374 63.2713 45.9803 62.9864 50.5961C62.936 51.3983 62.8176 52.1939 62.6883 52.9873C62.7836 52.558 62.9051 52.1349 63.0521 51.7205C63.5036 50.4843 64.4768 49.3929 65.4192 48.3364C65.7699 47.9419 66.1337 47.5343 66.4603 47.131L66.5984 46.9513C65.1606 43.8412 63.2121 40.0736 62.6335 40.295Z" fill="#664570"/>
<path d="M47.718 55.3979C47.7055 55.4094 47.6946 55.4226 47.6858 55.4371C47.6946 55.4226 47.7055 55.4094 47.718 55.3979V55.3979Z" fill="#4C453F"/>
<path d="M47.5982 55.6655C47.5982 55.677 47.5982 55.6862 47.5982 55.6977C47.5982 55.7092 47.5959 55.677 47.5982 55.6655Z" fill="#4C453F"/>
<path d="M47.5279 57.5614C47.5125 57.2962 47.506 57.0267 47.5104 56.7549C47.4972 57.0267 47.5125 57.2962 47.5279 57.5614Z" fill="#4C453F"/>
<path d="M47.5127 56.7C47.5127 56.4304 47.5346 56.1587 47.5609 55.8825C47.5599 55.8745 47.5599 55.8664 47.5609 55.8584C47.5597 55.8671 47.5597 55.876 47.5609 55.8847C47.5324 56.1587 47.5193 56.4304 47.5127 56.7Z" fill="#4C453F"/>
<path d="M47.6536 55.5122C47.6457 55.5243 47.6395 55.5375 47.6353 55.5513C47.6395 55.5375 47.6457 55.5243 47.6536 55.5122Z" fill="#4C453F"/>
<path d="M48.4331 55.1372L48.5076 55.1196L48.4331 55.1372Z" fill="#4C453F"/>
<path d="M48.3389 55.1548L48.398 55.1416L48.3389 55.1548Z" fill="#4C453F"/>
<path d="M48.8123 54.992L48.8514 54.9644L48.8123 54.992Z" fill="#4C453F"/>
<path d="M48.696 55.0563L48.7421 55.0322L48.696 55.0563Z" fill="#4C453F"/>
<path d="M48.5669 55.1023L48.6261 55.0825L48.5669 55.1023Z" fill="#4C453F"/>
<path d="M29.4045 55.3608C29.4573 55.413 29.4983 55.4758 29.5251 55.545C29.4976 55.4762 29.4566 55.4136 29.4045 55.3608V55.3608Z" fill="#4C453F"/>
<path d="M29.6455 56.7354C29.6455 56.9458 29.6455 57.154 29.6455 57.36C29.6499 57.154 29.6499 56.9458 29.6455 56.7354Z" fill="#4C453F"/>
<path d="M29.6413 56.5773C29.6413 56.3779 29.6237 56.1762 29.604 55.9746C29.6215 56.1762 29.6347 56.3779 29.6413 56.5773Z" fill="#4C453F"/>
<path d="M29.6345 57.443C29.6345 57.4123 29.6345 57.3816 29.6345 57.3531C29.6433 57.1471 29.6433 56.9389 29.6345 56.7285C29.6345 56.6759 29.6345 56.6233 29.6345 56.5707C29.6345 56.3712 29.6148 56.1696 29.5973 55.968C29.5973 55.9373 29.5973 55.9066 29.5973 55.8759C29.5871 55.7604 29.5613 55.6469 29.5206 55.5384C29.4938 55.4692 29.4528 55.4065 29.4 55.3543C29.2006 55.2907 29.0055 55.2228 28.8148 55.1483C28.5882 55.1198 28.3745 55.027 28.1989 54.8809C28.2127 54.9049 28.223 54.9307 28.2296 54.9576C28.241 55.0158 28.2405 55.0757 28.2281 55.1338C28.2157 55.1918 28.1916 55.2467 28.1573 55.2951C27.9886 55.5362 27.822 55.7773 27.6642 56.0271L27.6138 56.1082C28.2342 56.6288 28.9122 57.0767 29.6345 57.443V57.443Z" fill="#332D29"/>
<path d="M48.8124 54.9903L48.7335 55.032L48.6875 55.0561L48.6173 55.0824L48.5582 55.1021L48.499 55.1196L48.4245 55.1372H48.385L48.3259 55.1503C48.1374 55.2248 47.9423 55.2928 47.7428 55.3563C47.7322 55.367 47.7226 55.3788 47.7144 55.3914C47.7024 55.4023 47.6921 55.4149 47.6837 55.4287C47.6692 55.4535 47.656 55.4791 47.6442 55.5054C47.6367 55.5169 47.6307 55.5295 47.6267 55.5426C47.611 55.5802 47.5986 55.6191 47.5894 55.6588C47.5894 55.6697 47.5894 55.6785 47.5894 55.6895C47.5785 55.7431 47.5704 55.7972 47.5653 55.8517C47.5643 55.8597 47.5643 55.8678 47.5653 55.8758C47.539 56.1519 47.5237 56.4237 47.5171 56.6933C47.5171 56.7108 47.5171 56.7306 47.5171 56.7481C47.5171 57.0199 47.5171 57.2894 47.5346 57.5546V57.5656C48.2618 57.2143 48.9482 56.7843 49.5817 56.2834C49.5775 56.2735 49.5723 56.264 49.5664 56.2549C49.391 55.9744 49.196 55.6785 48.9505 55.3278C48.9157 55.278 48.8914 55.2216 48.879 55.1621C48.8666 55.1026 48.8663 55.0412 48.8782 54.9816C48.8853 54.9629 48.8933 54.9446 48.9023 54.9268L48.8628 54.9553L48.8124 54.9903Z" fill="#332D29"/>
<path d="M36.5692 45.5418C37.109 45.8501 37.6897 46.0804 38.2941 46.2256C38.608 46.313 38.937 46.3309 39.2585 46.2782C39.5625 46.2208 39.8615 46.1395 40.1527 46.035C40.7351 45.8364 41.2836 45.5496 41.779 45.1846C42.0501 44.9869 42.2908 44.7506 42.4935 44.4832C42.8009 44.0807 42.9769 43.5932 42.9976 43.0871C43.0217 40.8011 40.6108 40.5885 38.9034 40.5556C37.1961 40.5227 34.783 40.8011 34.8071 43.0871C34.8277 43.5932 35.0037 44.0807 35.3112 44.4832C35.6515 44.9205 36.0802 45.2812 36.5692 45.5418ZM36.2449 41.6734C36.9309 41.36 38.498 41.1627 37.8339 42.2082C37.681 42.4192 37.4805 42.5911 37.2487 42.7101C36.83 42.9512 36.3369 43.1287 35.9051 43.0476C34.943 42.8635 35.4646 42.0307 36.2449 41.6734V41.6734Z" fill="#231F20"/>
<path d="M49.7768 33.0094C48.3565 32.2862 45.4283 30.9689 44.2448 32.3059C43.3857 33.2768 43.5588 35.096 44.4223 35.9573C45.4919 37.0269 46.9056 36.5951 48.2886 35.8784C49.1411 35.4401 49.9346 34.7606 50.1866 33.8839C50.2565 33.7008 50.251 33.4975 50.1712 33.3185C50.0726 33.1793 49.9355 33.0719 49.7768 33.0094Z" fill="#231F20"/>
<path d="M28.8676 35.8784C30.2506 36.5951 31.6642 37.0269 32.7338 35.9573C33.5973 35.096 33.7683 33.2768 32.9113 32.3059C31.7278 30.9689 28.7996 32.2862 27.3794 33.0094C27.2206 33.0719 27.0835 33.1793 26.9849 33.3185C26.9448 33.407 26.9228 33.5026 26.9202 33.5997C26.9176 33.6968 26.9343 33.7934 26.9695 33.8839C27.2216 34.7606 28.0172 35.4357 28.8676 35.8784Z" fill="#231F20"/>
<path d="M61.0685 27.0897C57.3426 23.2652 54.2741 21.3167 51.6945 21.1348C51.0189 21.0823 50.3398 21.1704 49.7 21.3934C45.3297 19.2017 39.9709 18.702 35.5852 19.1535C32.7759 19.405 30.0364 20.1686 27.5021 21.4066C26.8497 21.172 26.1548 21.0793 25.4637 21.1348C22.8731 21.3167 19.8069 23.2652 16.0897 27.0897C11.6163 31.6924 5.98358 38.6095 8.71887 45.634C9.03116 46.3869 9.46344 47.0841 9.99886 47.6986C10.3386 48.1216 10.7112 48.5381 11.0706 48.9413C11.9473 49.9342 12.87 50.9599 13.2624 52.0361C13.4777 52.6677 13.6455 53.3146 13.7642 53.9714C13.944 54.8349 14.1127 55.6502 14.5007 56.3823C14.9461 57.2097 15.6898 57.8366 16.5806 58.1357C17.2416 58.3762 17.9397 58.4986 18.6431 58.4973C19.8063 58.5029 20.947 58.1759 21.9307 57.5549C22.6135 57.1106 23.208 56.5436 23.684 55.8826C24.4119 54.8544 24.9432 53.7003 25.2511 52.4788C25.7136 53.4717 26.3163 54.4514 27.1864 55.1571L27.7497 55.9374C27.8856 55.727 28.0259 55.5188 28.1705 55.3127C28.2048 55.2643 28.2289 55.2094 28.2413 55.1514C28.2538 55.0934 28.2543 55.0334 28.2429 54.9752C28.2363 54.9483 28.2259 54.9225 28.2122 54.8985C28.1834 54.8103 28.1274 54.7336 28.0522 54.6793C26.8095 53.8399 26.0928 52.3078 25.5777 50.9336C26.2352 47.0521 25.6851 43.1727 25.1394 39.4095L25.0517 38.8024C24.4446 34.5307 24.644 30.6929 25.6457 27.3703C25.9618 26.299 26.4234 25.2761 27.0177 24.3303C27.0659 24.2536 27.1426 24.1484 27.2369 24.0257C27.7519 23.3156 28.1727 22.6778 28.1311 22.132C30.5184 21.0255 33.0729 20.3233 35.6904 20.0543C39.8547 19.6291 44.9132 20.0674 49.06 22.0772C48.9833 22.6361 49.4128 23.2914 49.9367 24.0279C50.0243 24.1506 50.1011 24.247 50.1558 24.3303C50.7503 25.2757 51.2112 26.2987 51.5257 27.3703V27.3703C52.5273 30.6864 52.7267 34.5329 52.1196 38.8024L52.032 39.4095C51.4906 43.1727 50.9361 47.0521 51.5936 50.9336C51.0764 52.3166 50.3553 53.8574 49.1082 54.6881L49.0753 54.7078C48.9917 54.7636 48.9298 54.8464 48.9 54.9423C48.891 54.9602 48.883 54.9785 48.8759 54.9971C48.8638 55.0551 48.8636 55.1148 48.8753 55.1728C48.887 55.2308 48.9103 55.2859 48.9438 55.3346L49.5641 56.2705C49.4457 56.0798 50.0791 55.4092 49.9345 55.1944C50.8309 54.4799 51.449 53.487 51.9202 52.4744C52.2053 53.593 52.6725 54.6571 53.3032 55.624C53.8119 56.3907 54.471 57.0461 55.2407 57.5505C56.2244 58.1714 57.365 58.4983 58.5283 58.4929C59.2309 58.494 59.9282 58.3716 60.5885 58.1313C61.4786 57.8319 62.2215 57.205 62.6663 56.3779C63.0564 55.6568 63.2252 54.8437 63.4049 53.967C63.5237 53.311 63.6915 52.6648 63.9068 52.0339C64.2991 50.9577 65.2218 49.932 66.0985 48.9392C66.458 48.5359 66.8306 48.1172 67.1659 47.7008C67.7033 47.0853 68.1371 46.3865 68.4503 45.6318C71.168 38.6095 65.5418 31.6858 61.0685 27.0897ZM26.4982 23.4909C26.3952 23.6334 26.3076 23.7539 26.2528 23.8416C25.6135 24.8562 25.1179 25.9545 24.7799 27.1051C23.741 30.5461 23.5306 34.5219 24.1575 38.9229L24.2451 39.53C24.8238 43.5497 25.4199 47.7052 24.4884 51.7709C24.118 53.4059 23.2873 55.602 21.4353 56.7878C20.7648 57.2098 20.007 57.4735 19.2194 57.5589C18.4318 57.6444 17.6351 57.5493 16.8897 57.2809C16.2054 57.0578 15.6332 56.5798 15.2919 55.9461C14.9653 55.3412 14.8097 54.5873 14.6344 53.7895C14.5818 53.5265 14.5248 53.2613 14.4612 52.9939C14.3663 52.5645 14.2447 52.1414 14.0974 51.727C13.6459 50.4909 12.6728 49.3994 11.7303 48.343C11.3797 47.9485 11.0136 47.5408 10.6871 47.1332C10.6367 47.0718 10.5972 47.017 10.5512 46.9578C10.1357 46.4616 9.79657 45.9061 9.54516 45.3096C6.99836 38.7651 12.4229 32.1351 16.7231 27.7166C20.2803 24.0564 23.158 22.1956 25.5163 22.0181C25.6259 22.0181 25.7355 22.0181 25.8385 22.0181C26.3033 22.0143 26.765 22.0937 27.2018 22.2526H27.2149C27.1689 22.5638 26.6758 23.252 26.4982 23.4909ZM67.6021 45.3118C67.3516 45.9076 67.0133 46.4624 66.5983 46.9578L66.4602 47.1375C66.1336 47.5408 65.7698 47.9485 65.4191 48.343C64.4767 49.3994 63.5035 50.4909 63.052 51.727C62.905 52.1415 62.7835 52.5646 62.6882 52.9939C62.6246 53.2613 62.5677 53.5265 62.5151 53.7873C62.3485 54.5851 62.1929 55.3412 61.8575 55.9461C61.5164 56.5808 60.9431 57.0591 60.2576 57.2809C59.5125 57.5493 58.7161 57.6443 57.9289 57.5589C57.1416 57.4734 56.3842 57.2097 55.7141 56.7878C53.8621 55.602 53.0314 53.4059 52.661 51.7709C51.7273 47.7052 52.3257 43.5497 52.9043 39.53L52.9919 38.9207C53.6188 34.5219 53.4084 30.5461 52.3673 27.1029C52.0301 25.9538 51.5352 24.857 50.8967 23.8438C50.8419 23.7539 50.7542 23.6246 50.6534 23.4931C50.478 23.252 49.9761 22.5616 49.9235 22.2591C50.4643 22.0649 51.0409 21.9901 51.6134 22.04C53.941 22.2043 56.8998 24.1177 60.4088 27.7385C64.7265 32.1351 70.1511 38.7651 67.6021 45.3118V45.3118Z" fill="#231F20"/>
<path d="M35.9511 50.0416C36.052 50.0416 36.1528 50.0416 36.2514 50.0306C37.2389 49.9374 38.1691 49.525 38.9012 48.8558C39.6345 49.5246 40.5652 49.9369 41.5532 50.0306C41.6541 50.0306 41.7527 50.0416 41.8535 50.0416C42.8899 50.0377 43.8886 49.6523 44.6589 48.9589C44.7465 48.8785 44.7986 48.7667 44.8039 48.648C44.8093 48.5293 44.7674 48.4133 44.6874 48.3254C44.6067 48.2378 44.4946 48.1856 44.3755 48.1802C44.2564 48.1749 44.1401 48.2168 44.0518 48.297C43.7232 48.5919 43.3388 48.8179 42.9213 48.9618C42.5038 49.1056 42.0617 49.1642 41.6212 49.1342C40.7102 49.0541 39.8654 48.6254 39.2629 47.9375C39.2187 47.8856 39.163 47.8447 39.1002 47.818C39.0374 47.7914 38.9693 47.7798 38.9012 47.7841C38.8636 47.7822 38.826 47.7859 38.7895 47.795V47.795C38.6941 47.814 38.6077 47.8641 38.544 47.9375C37.9414 48.6254 37.0966 49.0541 36.1857 49.1342C35.7451 49.1651 35.3027 49.1069 34.8851 48.963C34.4675 48.8192 34.0832 48.5926 33.755 48.297C33.6668 48.2168 33.5504 48.1749 33.4314 48.1802C33.3123 48.1856 33.2002 48.2378 33.1194 48.3254C33.0395 48.4133 32.9976 48.5293 33.0029 48.648C33.0082 48.7667 33.0604 48.8785 33.1479 48.9589C33.9174 49.6523 34.9154 50.0378 35.9511 50.0416V50.0416Z" fill="#231F20"/>
<path d="M31.5195 34.9821C31.7365 34.5958 31.7991 34.1416 31.6948 33.7109C31.6645 33.4726 31.5731 33.2461 31.4296 33.0534C30.6735 32.1526 30.2768 33.5772 30.3338 34.2698C30.3776 35.0501 30.9825 35.7602 31.5195 34.9821Z" fill="white"/>
<path d="M46.7872 35.0437C47.0572 34.6922 47.1826 34.2508 47.1379 33.8098C47.1414 33.5673 47.0826 33.3281 46.9669 33.115C46.3401 32.1178 45.7506 33.4744 45.7023 34.167C45.6475 34.956 46.1494 35.7451 46.7872 35.0437Z" fill="white"/>
</g>
<defs>
<clipPath id="clip0_2926_4097">
<rect width="61.1604" height="40.42" fill="white" transform="translate(8 19)"/>
</clipPath>
</defs>
</svg>
