<svg width="78" height="78" viewBox="0 0 78 78" fill="none" xmlns="http://www.w3.org/2000/svg">
<path d="M77.5 39C77.5 60.263 60.263 77.5 39 77.5C17.737 77.5 0.5 60.263 0.5 39C0.5 17.737 17.737 0.5 39 0.5C60.263 0.5 77.5 17.737 77.5 39Z" fill="#EAE4FC" stroke="black"/>
<g clip-path="url(#clip0_2926_4099)">
<path d="M28.7511 25.7038C27.016 27.8369 24.7528 30.4747 22.8409 32.5924C22.4475 33.0332 22.0983 33.4078 21.7844 33.7493C21.8022 34.4212 21.8583 35.0914 21.9524 35.7569C23.0863 43.7385 25.4888 49.7809 29.1313 53.7188C29.1699 53.7645 29.1998 53.8168 29.2197 53.8731C30.7005 55.3319 33.2887 57.7846 39.1061 57.7317C44.9234 57.6788 47.4674 55.2636 48.7913 53.84C48.8107 53.7959 48.8368 53.7551 48.8687 53.7188C52.5001 49.7809 54.9137 43.7385 56.0475 35.7569C56.1427 35.0915 56.1988 34.4212 56.2155 33.7493C55.9017 33.4078 55.5524 33.0287 55.159 32.5924C53.2494 30.4747 50.9839 27.8369 49.2488 25.7038C49.2114 25.6591 49.1832 25.6074 49.166 25.5517C49.1487 25.4961 49.1426 25.4376 49.1482 25.3796C49.1537 25.3216 49.1708 25.2653 49.1983 25.2139C49.2258 25.1625 49.2633 25.117 49.3085 25.0802C48.3493 23.9497 47.6332 22.8258 47.2419 21.7174C47.1712 21.7429 47.0948 21.749 47.0209 21.735C46.9029 21.7136 46.7982 21.6463 46.7298 21.548C46.6614 21.4497 46.635 21.3283 46.6562 21.2106C46.6562 21.1709 46.6783 21.1334 46.6872 21.0938C42.638 19.7033 38.5668 19.3639 34.8005 20.1264C33.614 20.3672 32.4451 20.6875 31.3017 21.0849C31.3128 21.129 31.326 21.1687 31.3349 21.2106C31.3561 21.3283 31.3297 21.4497 31.2613 21.548C31.1929 21.6463 31.0882 21.7136 30.9702 21.735C30.896 21.7473 30.8199 21.7404 30.7491 21.7152C30.3579 22.817 29.644 23.9497 28.6826 25.0802C28.7285 25.1164 28.7667 25.1614 28.795 25.2124C28.8233 25.2635 28.8412 25.3197 28.8476 25.3777C28.854 25.4357 28.8487 25.4944 28.8321 25.5504C28.8156 25.6064 28.788 25.6585 28.7511 25.7038ZM44.7775 33.7978C45.0362 33.5628 45.3599 33.4109 45.7064 33.3618C46.0529 33.3127 46.4062 33.3686 46.7203 33.5224C47.3945 33.8419 47.9691 34.4347 48.4885 35.0649C49.0079 35.6952 49.4875 36.4334 49.3991 37.3016C49.3085 38.2029 48.6123 38.7957 47.936 39.0646C46.5236 39.6287 44.6736 38.6987 44.0636 36.8477C43.6591 35.5982 44.0526 34.4192 44.7775 33.8V33.7978ZM38.759 36.9424C38.826 36.8849 38.9115 36.8532 39 36.8532C39.0884 36.8532 39.1739 36.8849 39.2409 36.9424C40.2576 37.7049 46.7049 43.8156 47.1977 47.423C47.4364 47.9276 49.5605 47.3238 49.629 47.9365C49.682 48.3772 48.7228 48.84 48.6631 49.3644C48.8598 49.8052 50.3363 49.1727 49.7815 50.063C48.0133 52.8969 43.7255 55.3628 42.0788 55.852C40.0769 56.4554 37.9407 56.4554 35.9388 55.852C34.2944 55.3628 29.6838 52.7492 28.2361 50.063C27.7388 49.1396 29.1578 49.8007 29.3545 49.3644C29.2948 48.84 28.3356 48.3728 28.3886 47.9365C28.4593 47.3238 30.5546 47.9827 30.7911 47.4781C31.2641 43.8773 37.7423 37.7093 38.759 36.9424ZM31.2796 33.5202C31.5938 33.3664 31.9471 33.3105 32.2935 33.3596C32.64 33.4087 32.9637 33.5606 33.2224 33.7956C33.9474 34.4148 34.3408 35.5938 33.9297 36.8477C33.3197 38.6987 31.4697 39.6287 30.0596 39.0646C29.381 38.7935 28.6848 38.2007 28.5942 37.3016C28.5058 36.4334 29.0075 35.6621 29.5048 35.0649C30.0021 34.4677 30.6055 33.8441 31.2796 33.5246V33.5202Z" fill="#D9D9D9"/>
<path d="M39.1171 57.7339C33.2998 57.7868 30.7182 55.3342 29.2307 53.8753C29.2737 53.9836 29.2737 54.1042 29.2307 54.2125C29.1445 54.402 29.0605 54.5959 28.9788 54.7965C30.3535 56.8084 33.4854 59.6643 39.0199 59.6643C44.6936 59.6643 47.7238 56.7996 49.0411 54.7502C48.9659 54.5673 48.8886 54.3866 48.8201 54.2125C48.7931 54.1545 48.7792 54.0913 48.7792 54.0274C48.7792 53.9635 48.7931 53.9003 48.8201 53.8423C47.4674 55.2658 44.8947 57.681 39.1171 57.7339Z" fill="#9669A4"/>
<path d="M28.3799 47.9411C28.3268 48.3819 29.2861 48.8446 29.3457 49.3691C29.149 49.8098 27.7301 49.1487 28.2274 50.0677C29.6751 52.7539 34.2856 55.3674 35.9301 55.8567C37.932 56.4601 40.0682 56.4601 42.0701 55.8567C43.7167 55.3674 48.009 52.9016 49.7728 50.0677C50.3275 49.1862 48.8511 49.8054 48.6544 49.3691C48.7141 48.8446 49.6733 48.3774 49.6203 47.9411C49.5495 47.3285 47.4255 47.9411 47.189 47.4277C46.7072 43.8203 40.2599 37.7096 39.2322 36.9471C39.1652 36.8896 39.0797 36.8579 38.9912 36.8579C38.9028 36.8579 38.8173 36.8896 38.7503 36.9471C37.7336 37.7096 31.2554 43.8776 30.7736 47.4828C30.5459 47.9874 28.4506 47.3285 28.3799 47.9411ZM36.9998 45.6295C37.3492 45.5277 37.7073 45.4584 38.0696 45.4224C38.2375 45.4025 38.4033 45.3893 38.5713 45.3805C39.3415 45.3312 40.1146 45.4056 40.8611 45.6008C41.4689 45.7639 42.1872 46.0989 42.269 46.8063C42.269 46.8349 42.269 46.8657 42.269 46.8966C42.269 46.9649 42.269 47.0332 42.269 47.1037C42.2116 47.9499 41.5816 48.556 40.839 48.8865C39.9275 49.2773 38.9149 49.3684 37.948 49.1465C37.6058 49.0719 37.2746 48.9542 36.9622 48.7961C36.2284 48.4193 35.6869 47.7516 35.7157 46.8966C35.7444 46.1826 36.403 45.8124 37.0042 45.6295H36.9998ZM33.1628 51.4031C33.2439 51.315 33.3566 51.2626 33.4763 51.2572C33.596 51.2519 33.713 51.294 33.8016 51.3744C34.1328 51.6712 34.5205 51.8986 34.9415 52.0432C35.3626 52.1878 35.8085 52.2466 36.2527 52.2162C37.172 52.1358 38.0247 51.7048 38.6332 51.013C38.6969 50.9396 38.7831 50.8893 38.8785 50.8698C38.9161 50.8606 38.9548 50.8569 38.9934 50.8588C39.0617 50.8548 39.13 50.8666 39.1929 50.8934C39.2558 50.9202 39.3116 50.9611 39.3559 51.013C39.9644 51.7048 40.8171 52.1358 41.7363 52.2162C42.1828 52.2481 42.6311 52.1899 43.0545 52.0453C43.4779 51.9007 43.8677 51.6725 44.2008 51.3744C44.2894 51.294 44.4064 51.2519 44.5261 51.2572C44.6458 51.2626 44.7585 51.315 44.8395 51.4031C44.8798 51.4469 44.911 51.4982 44.9314 51.554C44.9517 51.6099 44.9608 51.6692 44.9581 51.7285C44.9555 51.7879 44.9411 51.8462 44.9158 51.9C44.8905 51.9538 44.8548 52.0021 44.8108 52.0421C44.0341 52.7378 43.028 53.1245 41.9839 53.1285C41.8822 53.1285 41.7806 53.1285 41.6789 53.1175C40.6797 53.0228 39.7389 52.6049 39.0001 51.9275C38.2618 52.6003 37.3237 53.015 36.3279 53.1087C36.2262 53.1087 36.1246 53.1197 36.0229 53.1197C34.9786 53.1167 33.9721 52.7299 33.196 52.0333C33.152 51.9942 33.1162 51.9467 33.0909 51.8936C33.0655 51.8406 33.0511 51.783 33.0484 51.7242C33.0457 51.6655 33.0549 51.6068 33.0753 51.5517C33.0957 51.4965 33.127 51.446 33.1673 51.4031H33.1628Z" fill="white"/>
<path d="M30.7182 36.7377C30.9267 36.6345 31.1124 36.4906 31.2643 36.3146C31.4162 36.1386 31.5311 35.9341 31.6022 35.713C31.708 35.4822 31.747 35.2265 31.715 34.9748C31.4939 33.7452 30.307 34.7787 29.9667 35.4155C29.5732 36.1471 29.7633 37.1211 30.7182 36.7377Z" fill="white"/>
<path d="M45.35 36.3695C45.7392 36.1516 46.0313 35.7949 46.1678 35.3712C46.2687 35.149 46.3099 34.9045 46.2871 34.6616C46.1081 33.4915 45.0185 34.5074 44.6958 35.1266C44.3289 35.8406 44.4792 36.7595 45.35 36.3695Z" fill="white"/>
<path d="M36.7898 47.3374C37.2009 47.5093 37.7071 47.4233 38.1491 47.2558C38.3946 47.1761 38.6158 47.0359 38.7923 46.8482C39.5858 45.8896 38.0232 45.7772 37.3093 45.9667C36.4959 46.1849 35.8726 46.9495 36.7898 47.3374Z" fill="white"/>
<path d="M14.9216 26.4268C15.3283 29.113 16.9108 31.9888 18.0513 33.7495C18.1021 33.6239 18.1508 33.5093 18.195 33.4057C18.9388 31.6102 19.5699 29.7702 20.0847 27.8966C20.0938 27.8381 20.1258 27.7857 20.1737 27.7508C20.2215 27.7158 20.2814 27.7013 20.34 27.7104C20.3986 27.7194 20.4512 27.7513 20.4863 27.7991C20.5213 27.8468 20.5358 27.9065 20.5268 27.9649C20.6098 29.943 20.5677 31.9243 20.4008 33.8971C22.2441 31.9645 25.3738 28.4233 28.046 25.1398C28.0826 25.0926 28.1284 25.0533 28.1806 25.0242C28.2329 24.9952 28.2906 24.977 28.3501 24.9708C28.4096 24.9646 28.4697 24.9706 28.5269 24.9883C28.584 25.0059 28.637 25.035 28.6825 25.0737V25.0737C29.6418 23.9432 30.3579 22.8194 30.7491 21.7087C30.671 21.6857 30.6007 21.6417 30.5461 21.5814C30.4915 21.5211 30.4547 21.447 30.4397 21.3672C30.2761 20.4703 29.4893 19.9172 28.8616 19.6042C26.5762 18.5024 22.6596 18.6699 20.1333 19.9943C16.5881 21.8718 14.705 25.0032 14.9216 26.4268Z" fill="#9669A4"/>
<path d="M20.5289 27.9647C20.538 27.9062 20.5234 27.8466 20.4884 27.7989C20.4534 27.7511 20.4008 27.7192 20.3422 27.7102C20.2835 27.7011 20.2237 27.7156 20.1758 27.7505C20.128 27.7855 20.096 27.8379 20.0869 27.8964C19.5721 29.77 18.941 31.61 18.1971 33.4055C18.1529 33.5091 18.1043 33.6259 18.0535 33.7493C18.4955 34.4104 18.8602 34.9238 19.0856 35.1971C19.3531 34.9767 19.815 34.5161 20.4118 33.8969C20.5758 31.9239 20.6149 29.9426 20.5289 27.9647Z" fill="#664570"/>
<path d="M49.3152 25.0739C49.3607 25.0352 49.4137 25.0061 49.4708 24.9884C49.528 24.9708 49.5881 24.9648 49.6476 24.971C49.7071 24.9772 49.7648 24.9954 49.8171 25.0244C49.8693 25.0535 49.9151 25.0928 49.9517 25.14C52.6239 28.4234 55.7536 31.9713 57.5969 33.8973C57.4311 31.9244 57.389 29.9432 57.4709 27.9651C57.4618 27.9066 57.4764 27.847 57.5114 27.7993C57.5465 27.7515 57.5991 27.7196 57.6577 27.7106C57.7163 27.7015 57.7761 27.716 57.824 27.751C57.8719 27.7859 57.9039 27.8383 57.913 27.8968C58.4278 29.7704 59.0589 31.6104 59.8027 33.4059L59.9464 33.7497C61.0935 31.9868 62.6694 29.122 63.0761 26.4269C63.2971 25.0034 61.4118 21.872 57.8555 20.0099C55.327 18.6877 51.4127 18.5092 49.1295 19.6199C48.4996 19.9262 47.7127 20.4793 47.5492 21.3828C47.5346 21.463 47.4979 21.5376 47.4432 21.5983C47.3886 21.659 47.3182 21.7034 47.2397 21.7265C47.631 22.8284 48.3449 23.9589 49.3063 25.0893L49.3152 25.0739Z" fill="#9669A4"/>
<path d="M57.9152 27.9076C57.9107 27.8786 57.9006 27.8509 57.8853 27.8258C57.87 27.8008 57.85 27.7791 57.8263 27.7618C57.8026 27.7445 57.7757 27.732 57.7472 27.7251C57.7186 27.7182 57.689 27.7169 57.66 27.7214C57.6309 27.7259 57.6031 27.736 57.578 27.7512C57.5529 27.7664 57.531 27.7864 57.5137 27.8101C57.4964 27.8337 57.4839 27.8605 57.4769 27.889C57.47 27.9174 57.4687 27.947 57.4732 27.9759C57.3913 29.954 57.4334 31.9353 57.5992 33.9081C58.1893 34.5274 58.6513 34.9835 58.9253 35.2083C59.1463 34.935 59.5221 34.426 59.9553 33.7605L59.805 33.4167C59.0612 31.6212 58.43 29.7812 57.9152 27.9076V27.9076Z" fill="#664570"/>
<path d="M36.0229 53.1285C36.1246 53.1285 36.2263 53.1285 36.3279 53.1174C37.3248 53.0213 38.263 52.6035 39.0001 51.9275C39.7384 52.6003 40.6765 53.0149 41.6723 53.1086C41.774 53.1086 41.8756 53.1196 41.9773 53.1196C43.0214 53.1156 44.0275 52.7289 44.8042 52.0332C44.8482 51.9932 44.8839 51.9449 44.9092 51.8911C44.9345 51.8373 44.9489 51.779 44.9516 51.7197C44.9542 51.6603 44.9451 51.601 44.9248 51.5451C44.9044 51.4893 44.8732 51.438 44.8329 51.3942C44.7519 51.3062 44.6392 51.2537 44.5195 51.2484C44.3998 51.243 44.2828 51.2851 44.1942 51.3655C43.8627 51.662 43.475 51.8892 43.054 52.0338C42.633 52.1784 42.1873 52.2374 41.743 52.2073C40.8237 52.1269 39.971 51.6959 39.3626 51.0041C39.3182 50.9522 39.2624 50.9113 39.1995 50.8845C39.1366 50.8577 39.0684 50.8459 39.0001 50.8499C38.9615 50.848 38.9227 50.8517 38.8852 50.8609V50.8609C38.7898 50.8804 38.7036 50.9308 38.6398 51.0041C38.0314 51.6959 37.1787 52.1269 36.2594 52.2073C35.8165 52.2383 35.3718 52.1806 34.9515 52.0375C34.5313 51.8945 34.1441 51.669 33.8127 51.3743C33.724 51.2939 33.6071 51.2518 33.4874 51.2572C33.3676 51.2625 33.2549 51.315 33.1739 51.403C33.1322 51.4461 33.0998 51.4972 33.0786 51.5532C33.0574 51.6092 33.0478 51.6689 33.0505 51.7287C33.0532 51.7885 33.0681 51.8471 33.0942 51.901C33.1204 51.9549 33.1573 52.0029 33.2026 52.0421C33.9771 52.7371 34.9809 53.1238 36.0229 53.1285V53.1285Z" fill="#231F20"/>
<path d="M47.9426 39.0692C48.6189 38.7982 49.3152 38.2054 49.4058 37.3063C49.4942 36.4381 48.9925 35.6668 48.4952 35.0696C47.9979 34.4724 47.39 33.8466 46.727 33.527C46.4128 33.3733 46.0595 33.3173 45.713 33.3664C45.3665 33.4156 45.0429 33.5675 44.7842 33.8025C44.0592 34.4217 43.6658 35.6007 44.0769 36.8545C44.6803 38.7056 46.5303 39.6333 47.9426 39.0692ZM44.6958 35.1269C45.0185 34.5076 46.1081 33.4918 46.2871 34.6619C46.3099 34.9048 46.2687 35.1493 46.1678 35.3715C46.0313 35.7952 45.7392 36.1518 45.35 36.3697C44.4792 36.7598 44.3289 35.8409 44.6958 35.1269V35.1269Z" fill="#231F20"/>
<path d="M28.5942 37.3041C28.6849 38.2054 29.3811 38.7982 30.0596 39.067C31.4698 39.6312 33.3197 38.7012 33.9298 36.8501C34.3409 35.5963 33.9474 34.4261 33.2225 33.7981C32.9638 33.5631 32.6401 33.4112 32.2936 33.362C31.9471 33.3129 31.5938 33.3689 31.2797 33.5226C30.6166 33.8422 30.0309 34.4349 29.5115 35.0652C28.9921 35.6954 28.508 36.4359 28.5942 37.3041ZM29.9624 35.42C30.3028 34.7787 31.4808 33.7452 31.7107 34.9793C31.7427 35.231 31.7037 35.4866 31.598 35.7175C31.5268 35.9385 31.4119 36.1431 31.26 36.3191C31.1082 36.4951 30.9224 36.639 30.7139 36.7422C29.7635 37.1212 29.5734 36.1472 29.9624 35.42Z" fill="#231F20"/>
<path d="M36.9688 48.7873C37.2811 48.9453 37.6123 49.0631 37.9545 49.1377C38.9214 49.3596 39.934 49.2685 40.8455 48.8777C41.5881 48.5471 42.2181 47.9411 42.2755 47.0949C42.2755 47.0244 42.2755 46.9561 42.2755 46.8878C42.2755 46.8569 42.2755 46.8261 42.2755 46.7974C42.196 46.0901 41.4754 45.7551 40.8676 45.592C40.1211 45.3968 39.348 45.3224 38.5778 45.3717C38.4098 45.3717 38.244 45.3937 38.0761 45.4135C37.7138 45.4496 37.3557 45.5189 37.0063 45.6207C36.4051 45.8036 35.7465 46.1738 35.7244 46.879C35.6934 47.7406 36.2438 48.4017 36.9688 48.7873ZM37.3091 45.9777C38.023 45.786 39.5857 45.8983 38.7922 46.8591C38.6157 47.0469 38.3944 47.1871 38.149 47.2668C37.707 47.4343 37.2008 47.5202 36.7897 47.3483C35.8725 46.9495 36.4958 46.1848 37.3091 45.9777Z" fill="#231F20"/>
<path d="M18.8404 36.1889C18.8976 36.2141 18.9591 36.2283 19.0216 36.2307C19.2581 36.2307 19.6604 35.9751 20.9224 34.6639C20.9534 35.0672 20.9976 35.4727 21.0572 35.8848C22.1955 43.9061 24.6201 50.0366 28.2648 54.1134C28.2029 54.2522 28.1455 54.3998 28.0858 54.5541L28.95 54.7921C29.0318 54.5916 29.1158 54.3976 29.202 54.2081C29.2449 54.0998 29.2449 53.9793 29.202 53.871C29.1821 53.8146 29.1522 53.7624 29.1136 53.7167C25.4821 49.7788 23.0686 43.7364 21.9347 35.7547C21.8406 35.0893 21.7845 34.419 21.7667 33.7472C22.0806 33.4056 22.4298 33.0266 22.8232 32.5903C24.7351 30.4726 26.9984 27.8348 28.7334 25.7017C28.7708 25.6569 28.799 25.6053 28.8163 25.5496C28.8335 25.494 28.8396 25.4354 28.834 25.3775C28.8285 25.3195 28.8115 25.2631 28.7839 25.2117C28.7564 25.1604 28.719 25.1149 28.6737 25.078V25.078C28.6282 25.0393 28.5752 25.0103 28.5181 24.9926C28.4609 24.9749 28.4008 24.969 28.3412 24.9752C28.2817 24.9814 28.2241 24.9995 28.1718 25.0286C28.1195 25.0576 28.0737 25.0969 28.0372 25.1442C25.365 28.4276 22.2353 31.9755 20.392 33.9015C19.8018 34.5207 19.3399 34.9768 19.0658 35.2016C18.6973 34.7369 18.3527 34.2536 18.0336 33.7538C16.8865 31.9909 15.3106 29.1262 14.9039 26.4311C14.6829 25.0075 16.5705 21.8761 20.1245 20.0141C22.6508 18.6919 26.5674 18.5134 28.8527 19.624C29.4805 19.9303 30.2673 20.4834 30.4309 21.3869C30.4459 21.4668 30.4827 21.5409 30.5373 21.6012C30.5919 21.6615 30.6622 21.7055 30.7403 21.7285C30.8111 21.7537 30.8871 21.7606 30.9613 21.7483C31.0794 21.7269 31.1841 21.6596 31.2524 21.5613C31.3208 21.463 31.3473 21.3416 31.326 21.2239C31.326 21.182 31.3039 21.1423 31.2928 21.0982C32.4362 20.7008 33.6051 20.3805 34.7917 20.1397C38.5491 19.3772 42.6292 19.7166 46.6783 21.1071C46.6783 21.1467 46.6562 21.1842 46.6474 21.2239C46.6261 21.3416 46.6526 21.463 46.7209 21.5613C46.7893 21.6596 46.894 21.7269 47.0121 21.7483C47.086 21.7623 47.1623 21.7562 47.2331 21.7307C47.3115 21.7075 47.382 21.6632 47.4366 21.6025C47.4912 21.5418 47.5279 21.4672 47.5425 21.3869C47.7061 20.49 48.4929 19.9369 49.1228 19.624C51.406 18.5222 55.3115 18.6897 57.8489 20.0141C61.4051 21.8761 63.286 25.0075 63.0694 26.4311C62.6628 29.1195 61.0802 31.9953 59.9397 33.7538C59.4977 34.4149 59.133 34.9284 58.9098 35.2016C58.6401 34.9813 58.1782 34.5207 57.5836 33.9015C55.7403 31.9689 52.6106 28.4276 49.9384 25.1442C49.9018 25.0969 49.856 25.0576 49.8038 25.0286C49.7515 24.9995 49.6939 24.9814 49.6343 24.9752C49.5748 24.969 49.5147 24.9749 49.4575 24.9926C49.4004 25.0103 49.3474 25.0393 49.3019 25.078V25.078C49.2566 25.1149 49.2192 25.1604 49.1916 25.2117C49.1641 25.2631 49.1471 25.3195 49.1416 25.3775C49.136 25.4354 49.142 25.494 49.1593 25.5496C49.1766 25.6053 49.2048 25.6569 49.2422 25.7017C50.9772 27.8348 53.2427 30.4726 55.1524 32.5903C55.5458 33.031 55.895 33.4056 56.2089 33.7472C56.1922 34.4191 56.1361 35.0894 56.0409 35.7547C54.907 43.7364 52.4935 49.7788 48.862 53.7167C48.8302 53.7529 48.8041 53.7938 48.7847 53.8379C48.7577 53.8959 48.7438 53.9591 48.7438 54.023C48.7438 54.087 48.7577 54.1501 48.7847 54.2081C48.8642 54.3822 48.9416 54.5629 49.0057 54.7458C49.0057 54.7458 49.3328 54.6224 49.8544 54.4329C49.808 54.3249 49.766 54.2125 49.7196 54.109C53.3643 50.0322 55.7889 43.9016 56.9272 35.8803C56.9869 35.4683 57.0311 35.0628 57.062 34.6595C58.3241 35.9817 58.7263 36.2263 58.9628 36.2263C59.0247 36.2242 59.0855 36.21 59.1418 36.1845C59.6612 35.9883 63.286 30.9838 63.958 26.5567C64.2541 24.6043 62.0373 21.1842 58.2644 19.2053C55.5126 17.7641 51.2314 17.5834 48.7184 18.8042C48.0236 19.1144 47.4335 19.6179 47.0187 20.2543C42.7993 18.7998 38.5491 18.445 34.6104 19.2384C33.3681 19.4918 32.1445 19.829 30.9481 20.2476C30.5331 19.6139 29.9438 19.1127 29.2506 18.8042C26.7375 17.5834 22.4563 17.7641 19.7046 19.2053C15.9317 21.1886 13.7148 24.6021 14.011 26.5567C14.6984 30.9926 18.3232 35.9927 18.8404 36.1889Z" fill="#231F20"/>
</g>
<defs>
<clipPath id="clip0_2926_4099">
<rect width="50" height="41.6667" fill="white" transform="translate(14 18)"/>
</clipPath>
</defs>
</svg>
