<svg width="78" height="78" viewBox="0 0 78 78" fill="none" xmlns="http://www.w3.org/2000/svg">
<path d="M77.5 39C77.5 60.263 60.263 77.5 39 77.5C17.737 77.5 0.5 60.263 0.5 39C0.5 17.737 17.737 0.5 39 0.5C60.263 0.5 77.5 17.737 77.5 39Z" fill="#EAE4FC" stroke="black"/>
<mask id="mask0_2926_3991" style="mask-type:alpha" maskUnits="userSpaceOnUse" x="0" y="0" width="78" height="78">
<path d="M39 78C60.5391 78 78 60.5391 78 39C78 17.4609 60.5391 0 39 0C17.4609 0 0 17.4609 0 39C0 60.5391 17.4609 78 39 78Z" fill="#EAE4FC"/>
</mask>
<g mask="url(#mask0_2926_3991)">
<path d="M23.4775 28.9541C23.4775 28.9541 22.175 21.7627 23.6793 16.7361C24.3306 14.5897 26.6238 6.81128 39.2729 6.82962C49.6104 6.82962 57.7925 10.8472 55.7836 28.9816L53.2061 33.0726L39.227 19.5338C39.227 19.5338 27.2475 27.303 26.1468 30.9996C25.0461 34.6962 23.4775 28.9541 23.4775 28.9541Z" fill="#3B2645"/>
<path d="M43.3282 68.6897L43.3124 68.7077L43.2983 68.7271L40.178 73.0353L38.821 71.9972L36.22 67.9343L30.5608 57.1402L30.9999 53.6358L31.0001 53.6347L31.9367 46.02H46.3912L47.1805 51.2994L47.1806 51.3001L48.0759 57.2235L46.5859 64.9946L43.3282 68.6897Z" fill="white" stroke="black"/>
<path d="M47.6751 51.2254C41.0433 54.2707 34.0537 53.9772 30.5039 53.5736L31.5037 45.52H46.8312L47.6751 51.2254Z" fill="#221627"/>
<path d="M53.0436 32.6173L53.0921 32.5451L53.1132 32.4612L53.1132 32.4612L53.1133 32.4611L53.1133 32.4608L53.1136 32.4598L53.1157 32.4518L53.1254 32.4159C53.1344 32.3835 53.1484 32.3347 53.1675 32.2724C53.2058 32.1478 53.2643 31.9704 53.344 31.7637C53.5051 31.346 53.7454 30.8285 54.068 30.3856C54.3945 29.9374 54.7684 29.6158 55.1822 29.4997C55.5707 29.3907 56.0938 29.4358 56.7988 29.9315C57.4425 30.3841 57.79 31.1102 57.8607 32.01C57.9318 32.9155 57.7164 33.9634 57.2637 34.9659C56.4063 36.8643 54.8006 38.4069 52.9994 38.59C52.9772 38.4823 52.9519 38.3556 52.9251 38.2131C52.8342 37.7299 52.7258 37.069 52.6548 36.3548C52.5836 35.6383 52.5515 34.8819 52.6078 34.2038C52.6652 33.5132 52.8098 32.9654 53.0436 32.6173Z" fill="white" stroke="black"/>
<path d="M55.9854 31.8802C55.3361 32.1806 54.7764 32.6454 54.3619 33.2286C53.8681 33.7367 53.4923 34.3474 53.2611 35.0172C53.2061 35.219 53.4905 35.3107 53.6097 35.164C53.9491 34.7787 54.1967 34.3293 54.527 33.9073C54.7812 34.1716 55.0961 34.37 55.4442 34.4852C55.7194 34.5494 55.8845 34.2009 55.7378 33.9899C55.5306 33.7364 55.2667 33.5352 54.9673 33.4029C55.4247 33.0382 55.8511 32.6363 56.2423 32.2012C56.2719 32.1638 56.2879 32.1175 56.2878 32.0698C56.2876 32.022 56.2713 31.9758 56.2415 31.9386C56.2117 31.9013 56.1702 31.8752 56.1237 31.8646C56.0772 31.854 56.0284 31.8595 55.9854 31.8802Z" fill="#3B2645"/>
<path d="M25.5888 31.9838L25.5889 31.984L25.5889 31.9842L25.5889 31.9842L25.6101 32.0681L25.6586 32.1403C25.8924 32.4883 26.037 33.0361 26.0943 33.7268C26.1506 34.4049 26.1185 35.1613 26.0473 35.8778C25.9764 36.5919 25.868 37.2529 25.777 37.7361C25.7502 37.8785 25.725 38.0052 25.7028 38.1129C23.9016 37.9298 22.2959 36.3872 21.4385 34.4888C20.9857 33.4864 20.7703 32.4384 20.8415 31.533C20.9122 30.6331 21.2597 29.907 21.9033 29.4544C22.6083 28.9587 23.1315 28.9137 23.52 29.0227C23.9338 29.1387 24.3076 29.4603 24.6341 29.9085C24.9568 30.3515 25.1971 30.8689 25.3582 31.2866C25.4379 31.4933 25.4964 31.6707 25.5346 31.7954C25.5537 31.8576 25.5677 31.9064 25.5767 31.9389L25.5865 31.9748L25.5886 31.9828L25.5888 31.9838Z" fill="white" stroke="black"/>
<path d="M22.7166 31.4031C23.366 31.7036 23.9256 32.1684 24.3402 32.7515C24.834 33.2597 25.2098 33.8704 25.4409 34.5402C25.496 34.742 25.2116 34.8337 25.0924 34.6869C24.753 34.3017 24.5053 33.8522 24.1751 33.4303C23.9209 33.6946 23.606 33.8929 23.2578 34.0082C22.9827 34.0724 22.8175 33.7238 22.9643 33.5128C23.1733 33.2612 23.4368 33.0605 23.7348 32.9258C23.2774 32.5611 22.8509 32.1592 22.4598 31.7242C22.4302 31.6867 22.4142 31.6404 22.4143 31.5927C22.4144 31.545 22.4307 31.4988 22.4605 31.4615C22.4903 31.4242 22.5319 31.3982 22.5784 31.3876C22.6249 31.377 22.6736 31.3825 22.7166 31.4031Z" fill="#3B2645"/>
<path d="M52.5392 38.7432L52.5381 38.7473C52.2795 39.774 51.9497 40.7814 51.5511 41.7623C49.6331 46.4487 46.036 51.3304 39.319 51.3304C32.6023 51.3304 29.0054 46.4489 27.106 41.7642C26.2316 39.5917 25.6595 37.3095 25.4059 34.9815C25.0888 32.0262 25.2378 29.0393 25.8476 26.1303L25.8477 26.13C27.3132 19.1168 30.7107 15.9244 33.6811 14.46C35.1778 13.7221 36.5854 13.4135 37.6177 13.2897C38.1334 13.2278 38.5538 13.2123 38.8424 13.2119C38.9866 13.2118 39.0977 13.2154 39.1711 13.2189C39.2078 13.2207 39.235 13.2224 39.2522 13.2236L39.2705 13.225L39.2732 13.2252L39.2738 13.2253L39.2738 13.2253L39.274 13.2253L39.319 13.2294L39.3639 13.2253L39.3641 13.2253L39.3642 13.2253L39.3647 13.2252L39.3675 13.225L39.3858 13.2236C39.4031 13.2224 39.4305 13.2207 39.4673 13.2189C39.541 13.2154 39.6525 13.2118 39.7972 13.2119C40.0868 13.2123 40.5085 13.2278 41.0257 13.2897C42.061 13.4136 43.472 13.7222 44.971 14.4601C47.9457 15.9245 51.3427 19.1164 52.7901 26.1288L52.7906 26.131C53.3854 28.9468 53.5465 31.837 53.2684 34.7015C53.1291 36.0654 52.8853 37.4166 52.5392 38.7432Z" fill="white" stroke="black"/>
<path d="M40.0893 36.6228C39.4472 36.5677 38.0071 36.9897 37.6769 36.3751C37.3467 35.7605 38.2731 32.706 38.3924 32.1557C38.8958 30.3122 39.2909 28.4408 39.5756 26.5512C39.5756 26.4503 39.4013 26.4044 39.3555 26.5512C38.0346 29.6791 37.6677 33.504 36.9431 36.797C36.9341 36.8423 36.936 36.8891 36.9485 36.9335C36.961 36.978 36.9838 37.0188 37.0151 37.0528C37.0464 37.0868 37.0853 37.1129 37.1285 37.129C37.1718 37.1451 37.2182 37.1508 37.2641 37.1456C38.1814 37.0906 39.0986 37.219 40.0159 37.1456C40.3278 37.1548 40.392 36.6503 40.0893 36.6228Z" fill="#3B2645"/>
<path d="M33.2374 31.0548C33.2374 31.0548 32.0266 31.5043 32.2101 29.367C32.3752 27.4499 33.2374 27.7068 33.2374 27.7068C33.2374 27.7068 34.0721 27.7068 33.9437 29.3854C33.8153 31.064 33.2374 31.0548 33.2374 31.0548Z" fill="#3B2645"/>
<path d="M44.7491 31.0548C44.7491 31.0548 43.5475 31.5043 43.731 29.367C43.8961 27.4499 44.7491 27.7068 44.7491 27.7068C44.7491 27.7068 45.593 27.7068 45.4646 29.3854C45.3362 31.064 44.7491 31.0548 44.7491 31.0548Z" fill="#3B2645"/>
<path d="M34.8516 24.7623C33.8151 24.2302 31.8797 24.0927 31.1275 25.1659C31.0983 25.2146 31.0825 25.2702 31.0818 25.327C31.0811 25.3837 31.0955 25.4397 31.1234 25.4891C31.1514 25.5385 31.192 25.5797 31.2411 25.6083C31.2901 25.6369 31.3459 25.652 31.4027 25.652C31.9163 25.652 32.375 25.3768 32.8886 25.331C33.4408 25.3076 33.9922 25.3917 34.5122 25.5786C34.615 25.6008 34.7222 25.5862 34.8153 25.5374C34.9084 25.4887 34.9815 25.4088 35.0219 25.3118C35.0622 25.2147 35.0673 25.1066 35.0362 25.0062C35.0051 24.9058 34.9398 24.8195 34.8516 24.7623Z" fill="#3B2645"/>
<path d="M46.3727 24.7623C45.3362 24.2302 43.3916 24.0927 42.6395 25.1659C42.6103 25.2146 42.5945 25.2702 42.5938 25.327C42.5931 25.3837 42.6074 25.4397 42.6354 25.4891C42.6634 25.5385 42.704 25.5797 42.753 25.6083C42.8021 25.6369 42.8578 25.652 42.9146 25.652C43.4283 25.652 43.8869 25.3768 44.4006 25.331C44.9527 25.3076 45.5041 25.3917 46.0242 25.5786C46.5103 25.7346 46.8314 24.9916 46.3727 24.7623Z" fill="#3B2645"/>
<path d="M31.0817 15.5438C28.0886 19.6899 25.9724 24.4028 24.8626 29.3945L23.4775 26.9729C23.4775 26.9729 25.7432 13.5717 31.0817 15.5438Z" fill="#3B2645"/>
<path d="M31.0819 15.5439C35.7938 16.6512 40.6435 17.0561 45.4738 16.7455C53.5091 16.2319 53.2522 14.7459 53.2522 14.7459L40.328 9.63672C40.328 9.63672 28.7796 12.0308 31.0819 15.5439Z" fill="#3B2645"/>
<path d="M53.7656 34.751C53.6237 36.1408 53.3753 37.5177 53.0226 38.8695C52.7583 39.919 52.4211 40.9489 52.0137 41.9515C50.069 46.703 46.345 51.8305 39.3187 51.8305C32.2924 51.8305 28.5683 46.703 26.6421 41.9515C25.7504 39.7363 25.1671 37.4092 24.9084 35.0353L26 34.751C27.5135 37.1175 29.348 40.649 31.8338 40.8875C40.2818 33.5494 46.9137 41.4562 46.9137 41.4562C49.9957 40.9792 52.4173 34.751 52.4173 34.751H53.7656Z" fill="#3B2645"/>
<path d="M35.7876 40.8237H42.6671C42.6671 40.8237 41.3737 43.2637 39.2273 43.2637C37.0809 43.2637 35.7876 40.8237 35.7876 40.8237Z" fill="white"/>
<path d="M78 91.7501H0.646973C0.646973 91.7501 0.646973 69.0569 4.16927 66.828C4.40345 66.6753 4.64874 66.5404 4.90309 66.4244C9.48942 64.0854 26.1194 58.5359 29.4675 57.426L34.4757 64.2596L39.3281 69.4147L43.7585 64.755L48.6383 57.2334L48.7759 57.2793C50.4362 57.8204 66.1214 63.0213 72.4047 65.7731C72.9917 66.0391 73.5054 66.2685 73.909 66.4794C74.1475 66.5987 74.3585 66.7271 74.5236 66.828C78 69.0569 78 91.7501 78 91.7501Z" fill="#58469E"/>
<path d="M36.9155 61.0034L39.3187 69.3872L41.5935 61.0034L47.0971 65.1953L39.5847 73.7167L33.9986 66.6079C33.9986 66.6079 33.7693 61.4162 36.9155 61.0034Z" fill="#DADEEA"/>
<path d="M26.0002 58.5819L30.4306 54.124L36.9157 61.031L33.0724 67.1951L26.0002 58.5819Z" fill="#A3B4E6"/>
<path d="M52.509 58.5819L48.0786 54.124L41.5935 61.031L45.4368 67.1951L52.509 58.5819Z" fill="#A3B4E6"/>
<path d="M9.18672 91.75H0.646973C0.646973 91.75 0.646973 69.0569 4.16927 66.8279C4.40345 66.6752 4.64874 66.5403 4.90309 66.4243C6.60003 69.809 8.90237 77.0371 9.18672 91.75Z" fill="#A3B4E6"/>
<path d="M77.9999 91.7502H69.5886C69.9097 77.1198 72.1478 69.8825 73.8631 66.4795C74.1016 66.5987 74.3125 66.7272 74.4776 66.8281C77.9999 69.057 77.9999 91.7502 77.9999 91.7502Z" fill="#A3B4E6"/>
<path d="M50.3076 81.3569C50.3076 81.3569 55.9029 76.4037 61.3974 76.3945C61.3974 76.3945 63.5071 77.2292 63.0851 83.8794L50.3076 81.3569Z" fill="white"/>
</g>
</svg>
