<svg width="78" height="78" viewBox="0 0 78 78" fill="none" xmlns="http://www.w3.org/2000/svg">
<path d="M77.5 39C77.5 60.263 60.263 77.5 39 77.5C17.737 77.5 0.5 60.263 0.5 39C0.5 17.737 17.737 0.5 39 0.5C60.263 0.5 77.5 17.737 77.5 39Z" fill="#EAE4FC" stroke="black"/>
<mask id="mask0_2926_3994" style="mask-type:alpha" maskUnits="userSpaceOnUse" x="0" y="0" width="78" height="78">
<path d="M77.5 39C77.5 60.263 60.263 77.5 39 77.5C17.737 77.5 0.5 60.263 0.5 39C0.5 17.737 17.737 0.5 39 0.5C60.263 0.5 77.5 17.737 77.5 39Z" fill="#EAE4FC" stroke="black"/>
</mask>
<g mask="url(#mask0_2926_3994)">
<path d="M25.566 16.5253C25.566 16.5253 15.1867 40.6307 33.1025 44.9774C57.7946 50.9604 56.5551 17.0542 49.5061 10.9886C42.4571 4.923 25.566 16.5253 25.566 16.5253Z" fill="#3B2645"/>
<path d="M22.8887 26.3097C22.8887 26.3097 21.7235 19.8309 23.0787 15.3023C23.3668 14.3442 23.8884 13.4725 24.5966 12.7658C25.3048 12.059 26.1775 11.5392 27.1363 11.2531C27.1776 11.2531 27.8552 6.71629 37.1685 6.37748C46.4817 6.03866 53.853 9.997 52.0432 26.3344L49.7211 30.0201L37.0858 17.8228C37.0858 17.8228 26.2603 24.8222 25.31 28.1525C24.3596 31.4828 22.8887 26.3097 22.8887 26.3097Z" fill="#3B2645"/>
<path d="M28.8529 52.2839L28.8944 52.2702H29.257L29.3119 51.8323L29.723 48.5516L29.7232 48.5505L30.5617 41.7339H43.4973L44.2021 46.4479L44.2023 46.4487L45.0179 51.8449L45.0822 52.2702H45.434L45.4599 52.2788L45.7566 52.3773C46.0156 52.4635 46.3934 52.5894 46.8682 52.7484C47.818 53.0663 49.1559 53.5164 50.7085 54.045L50.7089 54.0451C53.8102 55.0982 57.7699 56.4704 61.2169 57.7459C62.9407 58.3837 64.5328 58.9961 65.8236 59.5314C67.1244 60.0708 68.0852 60.5183 68.5736 60.8268C68.8299 60.9936 69.1267 61.4089 69.4211 62.1439C69.7072 62.8583 69.959 63.7912 70.1781 64.879C70.6159 67.0522 70.91 69.7749 71.1068 72.4507C71.3033 75.1232 71.4017 77.734 71.4509 79.6778C71.4755 80.6493 71.4878 81.4535 71.4939 82.0145C71.4955 82.1561 71.4966 82.2821 71.4975 82.3915H2.82264C2.8235 82.2821 2.82467 82.1561 2.82622 82.0145C2.83238 81.4536 2.8447 80.6495 2.86936 79.6781C2.91869 77.7346 3.01732 75.1243 3.21434 72.4529C3.41162 69.7781 3.70651 67.0571 4.1454 64.8864C4.36508 63.7998 4.61749 62.8684 4.90424 62.1557C5.1997 61.4214 5.49734 61.0085 5.75375 60.844C6.22168 60.5475 7.12924 60.1211 8.36015 59.6066C9.58044 59.0966 11.0862 58.5129 12.7263 57.9014C16.0058 56.6787 19.8081 55.35 22.9098 54.2844C24.644 53.694 26.1594 53.184 27.2412 52.8217C27.7822 52.6405 28.2147 52.4963 28.5119 52.3973L28.8529 52.2839Z" fill="white" stroke="black"/>
<path d="M44.6968 46.3739C38.7138 49.1175 32.4168 48.8531 29.2188 48.4895L30.1195 41.2339H43.9282L44.6968 46.3739Z" fill="#3B2645"/>
<path d="M49.5658 29.6376L49.6143 29.5654L49.6354 29.4816L49.6354 29.4815L49.6355 29.4813L49.6356 29.4811L49.6357 29.4805L49.6375 29.4735L49.6462 29.4417C49.6542 29.4129 49.6666 29.3694 49.6837 29.3138C49.7179 29.2024 49.7702 29.0437 49.8415 28.8587C49.9859 28.4845 50.2005 28.0227 50.4877 27.6285C50.7786 27.2291 51.1072 26.9493 51.4647 26.849C51.797 26.7557 52.2532 26.7905 52.8793 27.2308C53.4441 27.6279 53.7522 28.2667 53.8151 29.0667C53.8783 29.8724 53.6867 30.8081 53.2815 31.7054C52.5198 33.3919 51.1047 34.7533 49.5243 34.9366C49.5067 34.8499 49.4872 34.7512 49.4667 34.6421C49.3849 34.2077 49.2875 33.6138 49.2238 32.9722C49.1598 32.3283 49.1311 31.6501 49.1815 31.0433C49.2329 30.424 49.3622 29.9406 49.5658 29.6376Z" fill="white" stroke="black"/>
<path d="M52.1752 28.946C51.5902 29.2167 51.0861 29.6354 50.7126 30.1608C50.2724 30.6191 49.9344 31.1655 49.7209 31.7639C49.6713 31.954 49.9275 32.0366 50.0349 31.9044C50.3407 31.5573 50.5638 31.1524 50.8613 30.7723C51.0904 31.0104 51.374 31.1891 51.6877 31.2929C51.9439 31.3507 52.0843 31.0367 51.9604 30.8467C51.769 30.6198 51.5289 30.4391 51.258 30.3178C51.6719 29.9914 52.0563 29.6291 52.4066 29.2352C52.4333 29.2015 52.4477 29.1598 52.4476 29.1168C52.4475 29.0738 52.4328 29.0321 52.406 28.9986C52.3791 28.965 52.3417 28.9415 52.2998 28.932C52.2579 28.9224 52.214 28.9274 52.1752 28.946Z" fill="black"/>
<path d="M24.7424 29.0514L24.7425 29.0517L24.7426 29.0518L24.7426 29.0519L24.7637 29.1357L24.8122 29.2079C25.0158 29.5109 25.1451 29.9944 25.1965 30.6136C25.2469 31.2205 25.2182 31.8986 25.1543 32.5425C25.0905 33.1841 24.9931 33.7781 24.9114 34.2124C24.8908 34.3215 24.8714 34.4202 24.8537 34.5068C23.2781 34.3231 21.8669 32.9626 21.1071 31.2761C20.7027 30.3788 20.5115 29.4428 20.5746 28.6369C20.6372 27.8364 20.9447 27.1976 21.5075 26.8007C22.1315 26.3607 22.5857 26.3262 22.9165 26.4192C23.2727 26.5194 23.6005 26.7989 23.8911 27.1985C24.1779 27.5928 24.3923 28.0546 24.5365 28.4289C24.6078 28.6139 24.6601 28.7726 24.6943 28.884C24.7114 28.9396 24.7238 28.9832 24.7318 29.012L24.7405 29.0438L24.7423 29.0508L24.7424 29.0514Z" fill="white" stroke="black"/>
<path d="M22.2028 28.5163C22.7893 28.7847 23.294 29.2039 23.6655 29.7311C24.1083 30.1873 24.4466 30.7343 24.6571 31.3343C24.7067 31.5243 24.4505 31.5987 24.3431 31.4747C24.0456 31.1277 23.8142 30.7227 23.5167 30.3426C23.2833 30.5753 23.001 30.7531 22.6904 30.8632C22.4424 30.9211 22.2937 30.607 22.4259 30.417C22.6119 30.1879 22.8498 30.0065 23.1201 29.8881C22.7098 29.5574 22.3258 29.1955 21.9714 28.8055C21.9447 28.7718 21.9303 28.7301 21.9304 28.6871C21.9305 28.6441 21.9452 28.6025 21.9721 28.5689C21.9989 28.5353 22.0363 28.5119 22.0783 28.5023C22.1202 28.4928 22.1641 28.4977 22.2028 28.5163Z" fill="black"/>
<path d="M37.1232 12.1809L37.1237 12.181L37.124 12.181L37.124 12.181L37.1685 12.185L37.213 12.181L37.213 12.181L37.2133 12.181L37.2138 12.1809L37.2158 12.1808L37.2317 12.1796C37.2468 12.1785 37.271 12.177 37.3037 12.1754C37.369 12.1724 37.4683 12.1692 37.5973 12.1694C37.8556 12.17 38.2323 12.1842 38.6947 12.2401C39.6204 12.3519 40.8826 12.6296 42.2244 13.2923C44.8851 14.6065 47.9347 17.4714 49.2481 23.7757L49.7375 23.6737L49.2491 23.7806C50.2758 28.4728 49.8844 33.3643 48.1248 37.8335C46.4074 42.0483 43.1958 46.4196 37.1684 46.4196C31.1407 46.4196 27.921 42.0479 26.2038 37.8336C24.4441 33.3643 24.0527 28.4728 25.0794 23.7806L25.0794 23.7806L25.0806 23.7748C26.3817 17.4713 29.433 14.6067 32.0986 13.2925C33.443 12.6297 34.7087 12.3519 35.6372 12.2401C36.101 12.1842 36.4789 12.17 36.7381 12.1694C36.8676 12.1692 36.9673 12.1724 37.0329 12.1755C37.0657 12.177 37.09 12.1785 37.1052 12.1796L37.1212 12.1808L37.1232 12.1809Z" fill="white" stroke="black"/>
<path d="M37.8542 34.0199C37.2758 33.9621 35.9784 34.367 35.6809 33.7637C35.3834 33.1605 36.2015 30.169 36.3006 29.6319C36.7515 27.8231 37.1046 25.9914 37.3584 24.1447C37.3584 24.0456 37.1931 24.0042 37.1518 24.1447C35.9701 27.2106 35.6643 30.9458 35.0198 34.1769C35.0109 34.219 35.0117 34.2626 35.0223 34.3044C35.0329 34.3461 35.053 34.3848 35.081 34.4176C35.1089 34.4503 35.144 34.4762 35.1835 34.4932C35.2231 34.5102 35.266 34.5179 35.309 34.5157C36.1354 34.4579 36.9618 34.5984 37.7881 34.5653C38.1104 34.5157 38.1683 34.053 37.8542 34.0199Z" fill="black"/>
<path d="M31.6811 28.2019C31.6811 28.2019 30.5985 28.6068 30.7556 26.6814C30.9043 24.9543 31.6811 25.1856 31.6811 25.1856C31.6811 25.1856 32.4331 25.1856 32.3257 26.6979C32.2182 28.2102 31.6811 28.2019 31.6811 28.2019Z" fill="#3B2645"/>
<path d="M42.0521 28.2019C42.0521 28.2019 40.9696 28.6068 41.1348 26.6814C41.2836 24.9543 42.0521 25.1856 42.0521 25.1856C42.0521 25.1856 42.8124 25.1856 42.6967 26.6979C42.581 28.2102 42.0521 28.2019 42.0521 28.2019Z" fill="#3B2645"/>
<path d="M33.1438 22.5332C32.21 22.0539 30.4581 21.93 29.7804 22.8968C29.7541 22.9407 29.7399 22.9908 29.7393 23.0419C29.7386 23.0931 29.7516 23.1435 29.7768 23.1881C29.802 23.2326 29.8385 23.2696 29.8827 23.2954C29.9269 23.3212 29.9772 23.3348 30.0283 23.3348C30.4911 23.3348 30.9043 23.0869 31.3671 23.0456C31.8645 23.0245 32.3613 23.1003 32.8298 23.2687C33.2595 23.4092 33.557 22.7398 33.1438 22.5332Z" fill="#3B2645"/>
<path d="M43.5149 22.5332C42.5811 22.0539 40.8292 21.93 40.1515 22.8968C40.1252 22.9407 40.111 22.9908 40.1104 23.0419C40.1097 23.0931 40.1227 23.1435 40.1479 23.1881C40.1731 23.2326 40.2097 23.2696 40.2538 23.2954C40.298 23.3212 40.3483 23.3348 40.3994 23.3348C40.8705 23.3348 41.2754 23.0869 41.7382 23.0456C42.2356 23.0245 42.7324 23.1003 43.2009 23.2687C43.2943 23.2921 43.393 23.2814 43.4793 23.2385C43.5655 23.1957 43.6337 23.1235 43.6715 23.0349C43.7093 22.9463 43.7144 22.8471 43.6856 22.7552C43.6569 22.6632 43.5964 22.5846 43.5149 22.5332V22.5332Z" fill="#3B2645"/>
<path d="M29.7391 14.2283C27.0425 17.9636 25.1361 22.2095 24.1363 26.7066L22.8884 24.558C22.8884 24.558 24.9378 12.4434 29.7391 14.2283Z" fill="#3B2645"/>
<path d="M33.9619 30.0116H26.7476C26.4496 30.0116 26.1637 29.8932 25.9529 29.6824C25.7422 29.4716 25.6238 29.1858 25.6238 28.8877V25.1112C25.6238 24.8131 25.7422 24.5272 25.9529 24.3165C26.1637 24.1057 26.4496 23.9873 26.7476 23.9873H33.9619C34.1095 23.9873 34.2556 24.0164 34.392 24.0729C34.5283 24.1293 34.6522 24.2121 34.7566 24.3165C34.861 24.4208 34.9437 24.5447 35.0002 24.6811C35.0567 24.8174 35.0858 24.9636 35.0858 25.1112V28.8877C35.0858 29.0353 35.0567 29.1814 35.0002 29.3178C34.9437 29.4542 34.861 29.578 34.7566 29.6824C34.6522 29.7868 34.5283 29.8696 34.392 29.926C34.2556 29.9825 34.1095 30.0116 33.9619 30.0116ZM26.7476 24.6071C26.6139 24.6071 26.4857 24.6602 26.3912 24.7547C26.2967 24.8493 26.2436 24.9775 26.2436 25.1112V28.8877C26.2436 29.0214 26.2967 29.1496 26.3912 29.2442C26.4857 29.3387 26.6139 29.3918 26.7476 29.3918H33.9619C34.0956 29.3918 34.2238 29.3387 34.3184 29.2442C34.4129 29.1496 34.466 29.0214 34.466 28.8877V25.1112C34.4639 24.9781 34.4101 24.8512 34.316 24.7571C34.2219 24.663 34.0949 24.6092 33.9619 24.6071H26.7476Z" fill="#3B2645"/>
<path d="M46.7129 30.0116H39.5069C39.2088 30.0116 38.923 29.8932 38.7122 29.6824C38.5014 29.4716 38.3831 29.1858 38.3831 28.8877V25.1112C38.3831 24.8131 38.5014 24.5272 38.7122 24.3165C38.923 24.1057 39.2088 23.9873 39.5069 23.9873H46.7212C47.0193 23.9873 47.3051 24.1057 47.5159 24.3165C47.7266 24.5272 47.845 24.8131 47.845 25.1112V28.8877C47.845 29.036 47.8157 29.1828 47.7587 29.3197C47.7017 29.4566 47.6182 29.5809 47.513 29.6853C47.4077 29.7898 47.2829 29.8724 47.1455 29.9284C47.0082 29.9844 46.8612 30.0127 46.7129 30.0116V30.0116ZM39.5069 24.6071C39.3732 24.6071 39.245 24.6602 39.1505 24.7547C39.0559 24.8493 39.0028 24.9775 39.0028 25.1112V28.8877C39.0028 29.0214 39.0559 29.1496 39.1505 29.2442C39.245 29.3387 39.3732 29.3918 39.5069 29.3918H46.7212C46.8549 29.3918 46.9831 29.3387 47.0776 29.2442C47.1722 29.1496 47.2253 29.0214 47.2253 28.8877V25.1112C47.2231 24.9781 47.1693 24.8512 47.0753 24.7571C46.9812 24.663 46.8542 24.6092 46.7212 24.6071H39.5069Z" fill="#3B2645"/>
<path d="M38.6888 26.6895H34.4578V27.3092H38.6888V26.6895Z" fill="#3B2645"/>
<path d="M29.7393 14.228C29.7393 14.228 35.6644 17.2773 47.1758 17.1203L49.7128 13.509C49.7128 13.509 42.1928 6.55094 35.5983 8.90611C29.0038 11.2613 29.7393 14.228 29.7393 14.228Z" fill="#3B2645"/>
<path d="M52.3157 57.3072L55.6212 82.7978H22.4175V57.6873C22.4175 57.6873 40.9779 61.3647 52.4314 56.6709L52.3157 57.3072Z" fill="#DADEEA"/>
<path d="M72.0001 82.8916H2.32007C2.32007 82.8916 2.32007 62.447 5.48509 60.4224C7.40228 59.2077 15.5255 56.2905 21.649 54.1998L22.7481 53.828L31.2432 82.8916H47.7707L50.8283 53.5718C51.2828 53.7288 51.7539 53.8858 52.2414 54.0676C58.4062 56.1666 66.8352 59.1663 68.7689 60.4059C72.0001 62.4471 72.0001 82.8916 72.0001 82.8916Z" fill="#715EBA"/>
<path d="M36.0777 35.0362C36.0777 35.0362 30.8302 35.532 30.7393 39.0111C30.6484 42.4901 29.508 46.1096 36.0777 46.9195C42.6474 47.7293 42.8044 42.4984 43.1019 40.3085C43.3994 38.1186 42.3582 34.904 36.0777 35.0362Z" fill="#3B2645"/>
<path d="M34.3171 40.8621C33.9649 40.6303 33.7019 40.2857 33.5712 39.8848C33.4406 39.4838 33.4501 39.0504 33.5982 38.6556C33.9535 37.6475 34.4246 37.4574 36.2343 37.1351C39.7134 36.5071 40.548 38.7879 40.11 40.0522C39.8952 40.6803 36.2426 41.738 34.3171 40.8621Z" fill="white"/>
<path d="M38.1929 38.1932C37.587 38.4409 36.9385 38.5673 36.2839 38.5651C35.7768 38.4532 35.2576 38.406 34.7386 38.4246C34.7203 38.4296 34.7034 38.4388 34.6892 38.4514C34.675 38.4639 34.6639 38.4796 34.6567 38.4972C34.6495 38.5148 34.6464 38.5337 34.6478 38.5527C34.6491 38.5716 34.6547 38.59 34.6642 38.6064C34.8771 38.8233 35.1365 38.9889 35.4229 39.0906C35.7092 39.1923 36.015 39.2273 36.317 39.1931C37.0571 39.2336 37.7956 39.0887 38.4656 38.7717C38.7548 38.6064 38.5234 38.0692 38.1929 38.1932Z" fill="black"/>
<path d="M58.6963 67.0964C62.0464 63.1298 58.8957 58.5572 56.9015 56.7667L50.9191 54.2876L47.7708 83.2107H53.013C55.406 83.2107 56.6024 79.0789 56.9015 77.0129C56.1039 75.3602 55.3461 71.063 58.6963 67.0964Z" fill="#58469E"/>
<path d="M17.5962 68.8817C13.0985 65.6934 15.4084 60.3027 17.1256 58.0058L22.9458 54.0376L31.6615 83.211L26.7033 83.211C24.1458 83.7963 22.9223 80.9358 22.5715 78.2528C22.5715 75.5644 22.0939 72.07 17.5962 68.8817Z" fill="#58469E"/>
<path d="M58.9267 54.2878C59.2573 51.6434 50.6629 49.3296 45.2915 49.3296V52.6351L60.9926 57.5933C60.8549 57.0424 58.5962 56.9322 58.9267 54.2878Z" fill="#58469E"/>
</g>
</svg>
