<svg width="78" height="78" viewBox="0 0 78 78" fill="none" xmlns="http://www.w3.org/2000/svg">
<path d="M77.5 39C77.5 60.263 60.263 77.5 39 77.5C17.737 77.5 0.5 60.263 0.5 39C0.5 17.737 17.737 0.5 39 0.5C60.263 0.5 77.5 17.737 77.5 39Z" fill="#EAE4FC" stroke="black"/>
<mask id="mask0_2926_3995" style="mask-type:alpha" maskUnits="userSpaceOnUse" x="0" y="0" width="78" height="78">
<path d="M77.5 39C77.5 60.263 60.263 77.5 39 77.5C17.737 77.5 0.5 60.263 0.5 39C0.5 17.737 17.737 0.5 39 0.5C60.263 0.5 77.5 17.737 77.5 39Z" fill="#EAE4FC" stroke="black"/>
</mask>
<g mask="url(#mask0_2926_3995)">
<path d="M69.8155 76.9158C69.8168 77.0295 69.8179 77.1323 69.8186 77.2236H6.50268C6.50345 77.132 6.50442 77.0288 6.50568 76.9146C6.51136 76.3971 6.52273 75.6552 6.54548 74.7589C6.59101 72.9657 6.68201 70.5576 6.8638 68.0937C7.04585 65.6263 7.31789 63.1182 7.72248 61.1192C7.92502 60.1185 8.15741 59.2627 8.42075 58.6096C8.69318 57.934 8.96411 57.565 9.18915 57.4222C9.86946 56.9906 11.5295 56.2779 13.6987 55.4378C15.847 54.6057 18.4416 53.6684 20.9485 52.7876C23.4548 51.9071 25.8702 51.0844 27.6594 50.4816C28.5539 50.1803 29.2916 49.934 29.8057 49.7631C30.0627 49.6776 30.2638 49.611 30.4006 49.5658L30.5336 49.5218H30.972L31.0576 48.5292L31.001 48.5194L31.3232 45.9415L31.3234 45.9405L32.0931 39.6826H43.9654L44.611 44.0008L44.6111 44.0014L45.2928 48.5186L45.2322 48.5287L45.3148 49.5218H45.7881L45.9213 49.5657C46.058 49.6108 46.259 49.6771 46.516 49.7623C47.0298 49.9326 47.7672 50.1781 48.6613 50.4785C50.4497 51.0795 52.8642 51.9001 55.3694 52.7791C57.8753 53.6584 60.4688 54.595 62.6162 55.428C64.7849 56.2693 66.4432 56.9845 67.1224 57.4207C67.3492 57.5664 67.6208 57.9389 67.8934 58.616C68.157 59.2708 68.3898 60.1277 68.5927 61.129C68.998 63.1291 69.2709 65.6366 69.4539 68.1025C69.6367 70.5649 69.7286 72.9709 69.7749 74.7623C69.798 75.6577 69.8096 76.3988 69.8155 76.9158Z" fill="white" stroke="black"/>
<path d="M24.9846 25.4076C24.9846 25.4076 23.9015 19.4354 25.1524 15.248C25.421 14.3609 25.9071 13.555 26.5664 12.9036C27.2258 12.2522 28.0376 11.7759 28.9279 11.5182C28.9279 11.5182 29.5915 7.33078 38.1799 7.01806C46.7683 6.70534 53.5795 10.3588 51.9092 25.4305L49.7659 28.8399L38.0808 17.5743C38.0808 17.5743 28.0889 24.0347 27.2041 27.1085C26.3194 30.1824 24.9846 25.4076 24.9846 25.4076Z" fill="#3B2645"/>
<path d="M45.1056 43.9344C39.591 46.4591 33.7789 46.2226 30.8271 45.8794L31.6509 39.2207H44.3962L45.1056 43.9344Z" fill="#3B2645"/>
<path d="M49.6399 28.4999L49.6879 28.4281L49.7089 28.3449L49.7089 28.3448L49.7089 28.3447L49.709 28.3444L49.7091 28.344L49.7107 28.3378L49.7186 28.3089C49.7259 28.2826 49.7373 28.2428 49.7529 28.1918C49.7843 28.0897 49.8322 27.9441 49.8976 27.7745C50.0301 27.4307 50.2266 27.0082 50.4884 26.6486C50.7541 26.2837 51.0499 26.0343 51.3664 25.9461C51.6576 25.8649 52.0651 25.893 52.6345 26.2962C53.1431 26.6563 53.423 27.2349 53.4802 27.9652C53.5378 28.7009 53.3632 29.5573 52.9921 30.38C52.2993 31.916 51.0207 33.1493 49.5978 33.3347C49.584 33.2664 49.5691 33.1907 49.5536 33.1084C49.4783 32.7095 49.3886 32.1615 49.3299 31.5689C49.271 30.9739 49.2447 30.3475 49.291 29.7875C49.3383 29.215 49.457 28.7736 49.6399 28.4999Z" fill="white" stroke="black"/>
<path d="M52.0158 27.8484C51.4765 28.0958 51.0112 28.4796 50.6657 28.962C50.2584 29.3871 49.9464 29.8941 49.7504 30.4493C49.7047 30.6171 49.9411 30.6934 50.0403 30.579C50.3149 30.251 50.5284 29.8772 50.803 29.534C51.0167 29.7492 51.278 29.9111 51.5658 30.0069C51.7946 30.0679 51.9319 29.7705 51.8098 29.6027C51.6404 29.389 51.4201 29.2211 51.1691 29.1145C51.5461 28.8046 51.9004 28.4681 52.2293 28.1077C52.2637 28.0794 52.2855 28.0386 52.2897 27.9942C52.294 27.9499 52.2805 27.9056 52.2522 27.8712C52.2239 27.8369 52.1831 27.8151 52.1387 27.8108C52.0944 27.8065 52.0502 27.82 52.0158 27.8484V27.8484Z" fill="#3B2645"/>
<path d="M26.6582 27.9479L26.6583 27.9482L26.6584 27.9484L26.6584 27.9485L26.6796 28.0325L26.7283 28.1049C26.9125 28.3785 27.032 28.8183 27.0795 29.3883C27.1261 29.946 27.0996 30.5699 27.0402 31.1633C26.9811 31.7544 26.8907 32.3016 26.8148 32.7018C26.7985 32.7879 26.7829 32.8671 26.7684 32.9382C25.3415 32.7528 24.0598 31.5188 23.3655 29.9831C22.9935 29.1605 22.8185 28.3043 22.8763 27.5688C22.9337 26.839 23.2142 26.2604 23.7245 25.9001C24.2959 25.4966 24.7053 25.4682 24.9979 25.5496C25.3157 25.6381 25.6121 25.8877 25.8781 26.2525C26.1403 26.612 26.337 27.0345 26.4696 27.3781C26.535 27.5477 26.583 27.6933 26.6143 27.7954C26.63 27.8463 26.6414 27.8862 26.6487 27.9125L26.6565 27.9414L26.6581 27.9475L26.6582 27.9479Z" fill="white" stroke="black"/>
<path d="M24.3514 27.4518C24.8883 27.6922 25.3535 28.0681 25.7014 28.5425C26.1207 28.9772 26.4407 29.4977 26.6396 30.068C26.6853 30.2358 26.4489 30.312 26.3497 30.1976C26.0675 29.8696 25.8616 29.4959 25.587 29.1527C25.3751 29.3702 25.1133 29.5325 24.8242 29.6256C24.5878 29.6866 24.4581 29.3891 24.5725 29.2213C24.7467 29.0074 24.9688 28.8375 25.2209 28.7255C24.8388 28.4243 24.484 28.0899 24.1607 27.7264C24.1285 27.6995 24.1075 27.6615 24.1019 27.62C24.0962 27.5784 24.1064 27.5362 24.1303 27.5018C24.1542 27.4673 24.1902 27.4431 24.2311 27.4338C24.272 27.4246 24.3149 27.431 24.3514 27.4518V27.4518Z" fill="#3B2645"/>
<path d="M38.1113 12.4126L38.1118 12.4126L38.1121 12.4127L38.1122 12.4127L38.157 12.4168L38.2018 12.4127L38.2018 12.4127L38.2021 12.4126L38.2027 12.4126L38.2041 12.4125L38.2184 12.4114C38.2321 12.4104 38.2542 12.409 38.284 12.4076C38.3438 12.4047 38.4349 12.4017 38.5535 12.4019C38.7908 12.4021 39.1372 12.4149 39.5627 12.4659C40.4145 12.5681 41.5761 12.8225 42.8107 13.431C45.257 14.6366 48.0664 17.2687 49.2763 23.0763L49.7658 22.9743L49.2773 23.0813C50.2238 27.4046 49.8632 31.9118 48.2414 36.0296C46.6588 39.921 43.6894 43.9301 38.1569 43.9301C32.6248 43.9301 29.6628 39.9214 28.08 36.0295C26.4547 31.9126 26.094 27.4046 27.0441 23.0817L27.0441 23.0817L27.0454 23.0751C28.2403 17.2682 31.0475 14.6366 33.4954 13.4311C34.7309 12.8226 35.8944 12.5681 36.7479 12.466C37.1743 12.4149 37.5216 12.4021 37.7594 12.4019C37.8783 12.4017 37.9696 12.4047 38.0296 12.4076C38.0596 12.409 38.0817 12.4104 38.0955 12.4114L38.1098 12.4125L38.1113 12.4126Z" fill="white" stroke="black"/>
<path d="M38.8433 32.5316C38.3094 32.4782 37.1119 32.852 36.8297 32.2952C36.5475 31.7384 37.3102 28.9696 37.4094 28.4815C37.8265 26.8153 38.1499 25.127 38.3781 23.4245C38.3781 23.333 38.2255 23.2872 38.195 23.4245C37.1043 26.2543 36.8144 29.7019 36.2195 32.6765C36.2115 32.7158 36.2124 32.7563 36.2222 32.7951C36.232 32.834 36.2503 32.8701 36.276 32.9009C36.3016 32.9317 36.3339 32.9563 36.3703 32.9729C36.4067 32.9895 36.4464 32.9977 36.4865 32.9969C37.2492 32.9435 38.012 33.0732 38.7747 33.035C39.034 32.9893 39.0874 32.5545 38.8433 32.5316Z" fill="#3B2645"/>
<path d="M33.1 27.162C33.1 27.162 32.0932 27.5358 32.2457 25.7586C32.383 24.1569 33.1 24.378 33.1 24.378C33.1 24.378 33.7941 24.378 33.6873 25.7662C33.5805 27.1544 33.1 27.162 33.1 27.162Z" fill="#3B2645"/>
<path d="M42.6571 27.162C42.6571 27.162 41.6503 27.5358 41.8028 25.7586C41.9401 24.1569 42.6571 24.378 42.6571 24.378C42.6571 24.378 43.3512 24.378 43.2444 25.7662C43.1376 27.1544 42.6571 27.162 42.6571 27.162Z" fill="#3B2645"/>
<path d="M34.4423 21.9219C33.5804 21.4795 31.971 21.3651 31.3456 22.2652C31.3206 22.3051 31.307 22.351 31.3062 22.398C31.3054 22.4451 31.3173 22.4914 31.3409 22.5322C31.3644 22.5729 31.3985 22.6065 31.4397 22.6294C31.4808 22.6522 31.5274 22.6634 31.5744 22.6618C32.0015 22.6618 32.3753 22.433 32.81 22.3948C33.2674 22.3737 33.7242 22.4464 34.1524 22.6084C34.5567 22.7304 34.8237 22.1126 34.4423 21.9219Z" fill="#3B2645"/>
<path d="M44.0222 21.9219C43.1527 21.4795 41.5433 21.3651 40.9179 22.2652C40.8955 22.3055 40.8839 22.3509 40.8843 22.397C40.8847 22.4431 40.897 22.4883 40.92 22.5283C40.943 22.5682 40.976 22.6015 41.0158 22.6249C41.0555 22.6483 41.1006 22.661 41.1467 22.6618C41.5739 22.6618 41.9552 22.433 42.3824 22.3948C42.8422 22.3742 43.3014 22.4468 43.7324 22.6084C44.129 22.7304 44.396 22.1126 44.0222 21.9219Z" fill="#3B2645"/>
<path d="M31.2998 14.2565C28.8138 17.7077 27.0569 21.629 26.1361 25.7815L24.9844 23.7602C24.9844 23.7602 26.8683 12.6167 31.2998 14.2565Z" fill="#3B2645"/>
<path d="M70.3215 77.7237H6C6 77.7237 6 58.8536 8.92128 57.0002C9.36741 56.7348 9.83123 56.5004 10.3095 56.2985C11.3468 55.8179 12.7731 55.2535 14.3901 54.6357C17.5097 53.4458 21.331 52.1111 24.4658 51.0356C27.86 49.8991 30.4533 49.022 30.4533 49.022L34.9001 57.0459L37.951 62.5758L41.0706 57.2366L45.853 49.0296C45.853 49.0296 48.4386 49.8839 51.8481 51.0508C54.8456 52.0729 58.461 53.3391 61.4967 54.4832C63.3959 55.2001 65.0587 55.8637 66.1875 56.3976C66.5992 56.5702 66.997 56.7742 67.3774 57.0078C70.3215 58.8536 70.3215 77.7237 70.3215 77.7237Z" fill="#DADEEA"/>
<path d="M41.2461 60.7069L39.8731 63.3765C39.9723 65.2681 40.7274 72.7887 40.8266 77.7236H35.2205C34.9535 72.6056 35.9069 65.3062 35.9832 63.3765L34.6026 60.7069L34.3052 58.106L34.8696 57.0458L36.3951 54.1855H39.446L41.063 57.2365L41.5283 58.1136L41.2461 60.7069Z" fill="#58469E"/>
<path d="M27.6008 49.9679L30.8272 45.9712L36.5401 54.1859L34.6256 60.6996L27.6008 49.9679Z" fill="#B8C3E3"/>
<path d="M48.3547 49.8458L45.3647 45.7271L39.3696 54.1858L41.2536 60.6996L48.3547 49.8458Z" fill="#B8C3E3"/>
<path d="M40.3077 34.7587C39.6711 35.2442 38.9768 35.649 38.2407 35.9638C37.3254 36.2308 36.5398 35.8265 35.6398 35.8342C35.6126 35.8348 35.5863 35.8435 35.5642 35.8591C35.542 35.8747 35.5249 35.8966 35.5151 35.9219C35.5053 35.9472 35.5032 35.9748 35.5091 36.0013C35.515 36.0277 35.5286 36.0519 35.5482 36.0706C37.0737 37.3978 39.5145 36.6274 40.6357 35.1859C40.6775 35.1381 40.7014 35.0773 40.7035 35.0138C40.7055 34.9504 40.6855 34.8882 40.6468 34.8378C40.6082 34.7875 40.5532 34.7521 40.4914 34.7377C40.4296 34.7232 40.3647 34.7307 40.3077 34.7587V34.7587Z" fill="#3B2645"/>
<path d="M31.3 13.8139C31.3 13.8139 32.5051 15.286 39.8274 15.9343C47.1496 16.5826 50.2158 26.1931 50.2158 26.1931C50.2158 26.1931 52.8549 24.9041 50.9786 19.9386C49.1022 14.9732 43.2597 9.87815 43.2597 9.87815C43.2597 9.87815 31.033 7.94843 31.3 13.8139Z" fill="#3B2645"/>
<path d="M28.9279 7.94823C28.9225 7.89873 28.9006 7.8525 28.8656 7.81701C28.8307 7.78152 28.7848 7.75886 28.7354 7.75269C28.686 7.74651 28.636 7.75718 28.5934 7.78298C28.5508 7.80878 28.5181 7.84819 28.5007 7.89484C28.249 8.95557 28.249 10.0605 28.5007 11.1212C27.5626 10.6026 26.5405 9.96186 25.5184 10.1297C25.3354 10.1297 25.3659 10.4271 25.5184 10.4729C26.6813 10.8533 27.7971 11.3651 28.844 11.9984C28.9005 12.0314 28.9657 12.0467 29.031 12.0423C29.0964 12.038 29.1589 12.0142 29.2106 11.974C29.2623 11.9338 29.3008 11.879 29.3211 11.8167C29.3414 11.7545 29.3426 11.6876 29.3245 11.6246C29.0949 10.4116 28.9623 9.18228 28.9279 7.94823V7.94823Z" fill="#3B2645"/>
<path d="M15.3054 77.7236H6C6 77.7236 6 58.8535 8.92128 57.0001C9.36741 56.7347 9.83123 56.5002 10.3095 56.2983C12.1934 59.8146 14.8706 66.6792 15.3054 77.7236Z" fill="#B8C3E3"/>
<path d="M70.3216 77.7238H61.2603C61.6798 66.7938 64.3112 59.952 66.2028 56.3672C66.6145 56.5397 67.0123 56.7437 67.3927 56.9774C70.3216 58.8537 70.3216 77.7238 70.3216 77.7238Z" fill="#B8C3E3"/>
</g>
</svg>
