<svg width="78" height="78" viewBox="0 0 78 78" fill="none" xmlns="http://www.w3.org/2000/svg">
<path d="M77.5 39C77.5 60.263 60.263 77.5 39 77.5C17.737 77.5 0.5 60.263 0.5 39C0.5 17.737 17.737 0.5 39 0.5C60.263 0.5 77.5 17.737 77.5 39Z" fill="#EAE4FC" stroke="black"/>
<mask id="mask0_2926_3996" style="mask-type:alpha" maskUnits="userSpaceOnUse" x="0" y="0" width="78" height="78">
<path d="M77.5 39C77.5 60.263 60.263 77.5 39 77.5C17.737 77.5 0.5 60.263 0.5 39C0.5 17.737 17.737 0.5 39 0.5C60.263 0.5 77.5 17.737 77.5 39Z" fill="#EAE4FC" stroke="black"/>
</mask>
<g mask="url(#mask0_2926_3996)">
<path d="M19.6677 26.6285C20.1071 24.9291 18.519 22.8655 19.7139 21.5464C19.9529 21.2794 20.2844 21.1014 20.5234 20.8343C21.4177 19.8551 20.7856 18.3499 20.8164 17.0471C20.8577 16.3669 21.0757 15.7117 21.4467 15.1525C21.8178 14.5932 22.3276 14.1514 22.921 13.8748C23.3109 13.7267 23.6897 13.5481 24.0543 13.3407C25.1336 12.6124 25.2261 11.0748 26.1435 10.1685C27.2151 9.10838 29.0268 9.22168 30.507 9.6263C31.0028 9.80646 31.5242 9.89677 32.0488 9.89335C32.6928 9.76734 33.3014 9.49075 33.8297 9.08411C35.1942 8.27486 36.9134 7.60319 38.409 8.27486C38.8638 8.47717 39.257 8.79278 39.7196 8.97081C41.8088 9.78006 44.3452 7.56273 46.2571 8.64712C47.1745 9.15694 47.5831 10.2656 48.4619 10.7997C49.7108 11.6089 51.484 11.0748 52.756 11.8113C53.2074 12.1129 53.5763 12.5326 53.8263 13.0292C54.0764 13.5258 54.199 14.0822 54.1822 14.6436C54.1066 15.2945 54.1915 15.9549 54.4289 16.5615C54.7835 17.1927 55.5468 17.4921 56.1327 17.9534C56.4523 18.2107 56.7198 18.5324 56.9196 18.8995C57.1194 19.2666 57.2475 19.6719 57.2963 20.0916C57.3451 20.5113 57.3137 20.937 57.2039 21.3438C57.0941 21.7507 56.9082 22.1304 56.6569 22.4609C56.2714 22.9383 55.7087 23.5129 56.0016 24.0794C56.1328 24.2654 56.2979 24.4222 56.4873 24.5406C57.1962 25.0805 57.6793 25.8868 57.8358 26.7913C57.9924 27.6959 57.8103 28.629 57.3276 29.3961C57.0336 29.7588 56.7607 30.1399 56.5104 30.5371C55.7395 32.1556 57.0886 34.203 56.2406 35.781C55.5853 37.0192 53.7813 37.4966 53.3496 38.8238C53.2494 39.1475 53.2417 39.4954 53.1415 39.8191C52.9289 40.2955 52.6057 40.7082 52.2016 41.0193C51.7975 41.3303 51.3254 41.5298 50.8287 41.5995C49.8111 41.8342 48.7395 41.8018 47.745 42.0122C45.9179 42.3925 44.0522 43.5417 42.3485 42.8214C41.5004 42.4816 40.8066 41.7209 39.8892 41.6804C38.7328 41.6318 37.931 42.7162 36.9365 43.2989C36.3614 43.6119 35.7198 43.7658 35.0723 43.746C34.4248 43.7262 33.7928 43.5333 33.2361 43.1856C32.3803 42.611 31.8021 41.6723 30.8462 41.2758C29.6821 40.7902 28.3329 41.2758 27.0686 41.0897C26.4145 41.0218 25.7878 40.7794 25.2481 40.3857C24.7084 39.9919 24.2735 39.4598 23.9849 38.84C23.8602 38.3571 23.6307 37.9111 23.3142 37.5371C22.8285 37.1001 22.073 37.1082 21.5179 36.7764C20.5311 36.1775 20.5466 34.818 20.6468 33.7013C20.7547 32.4227 20.0917 31.5487 19.4595 30.4643C18.4419 28.8701 19.2437 28.2874 19.6677 26.6285Z" fill="#3B2645"/>
<path d="M24.4387 28.5984C24.4387 28.5984 23.3106 22.3783 24.6134 18.0171C24.8922 17.0965 25.3953 16.2597 26.0775 15.5816C26.7597 14.9036 27.5996 14.4057 28.5219 14.1325C28.5219 14.1325 29.213 9.77127 38.1578 9.44557C47.1027 9.11987 54.1966 12.925 52.4569 28.6222L50.2247 32.1731L38.0784 20.4082C38.0784 20.4082 27.6719 27.1446 26.7504 30.3381C25.8289 33.5316 24.4387 28.5984 24.4387 28.5984Z" fill="#3B2645"/>
<mask id="path-5-inside-1_2926_3996" fill="white">
<path fill-rule="evenodd" clip-rule="evenodd" d="M30.1266 53.0653L30.5238 49.8879L31.3817 42.9131H44.656L45.3948 47.8542L46.1812 53.0653H46.213C46.213 53.0653 65.5644 59.4283 68.6069 61.3667C71.6336 63.305 71.6336 82.9583 71.6336 82.9583H4.66626C4.66626 82.9583 4.66625 63.3129 7.70877 61.3667C10.7513 59.4204 30.1265 53.0653 30.1265 53.0653H30.1266Z"/>
</mask>
<path fill-rule="evenodd" clip-rule="evenodd" d="M30.1266 53.0653L30.5238 49.8879L31.3817 42.9131H44.656L45.3948 47.8542L46.1812 53.0653H46.213C46.213 53.0653 65.5644 59.4283 68.6069 61.3667C71.6336 63.305 71.6336 82.9583 71.6336 82.9583H4.66626C4.66626 82.9583 4.66625 63.3129 7.70877 61.3667C10.7513 59.4204 30.1265 53.0653 30.1265 53.0653H30.1266Z" fill="white"/>
<path d="M30.1266 53.0653V54.0653H31.0094L31.1189 53.1893L30.1266 53.0653ZM30.5238 49.8879L31.5161 50.0119L31.5163 50.0099L30.5238 49.8879ZM31.3817 42.9131V41.9131H30.4972L30.3892 42.791L31.3817 42.9131ZM44.656 42.9131L45.645 42.7652L45.5176 41.9131H44.656V42.9131ZM45.3948 47.8542L44.4058 48.0021L44.406 48.0034L45.3948 47.8542ZM46.1812 53.0653L45.1924 53.2145L45.3208 54.0653H46.1812V53.0653ZM46.213 53.0653L46.5254 52.1153L46.3732 52.0653H46.213V53.0653ZM68.6069 61.3667L69.1462 60.5245L69.1442 60.5233L68.6069 61.3667ZM71.6336 82.9583V83.9583H72.6336V82.9583H71.6336ZM4.66626 82.9583L3.66626 82.9583L3.66626 83.9583H4.66626V82.9583ZM7.70877 61.3667L7.16991 60.5243L7.16991 60.5243L7.70877 61.3667ZM30.1265 53.0653V52.0653H29.9667L29.8149 52.1151L30.1265 53.0653ZM31.1189 53.1893L31.5161 50.0119L29.5315 49.7638L29.1343 52.9412L31.1189 53.1893ZM31.5163 50.0099L32.3742 43.0352L30.3892 42.791L29.5313 49.7658L31.5163 50.0099ZM31.3817 43.9131H44.656V41.9131H31.3817V43.9131ZM43.667 43.061L44.4058 48.0021L46.3838 47.7063L45.645 42.7652L43.667 43.061ZM44.406 48.0034L45.1924 53.2145L47.17 52.916L46.3836 47.705L44.406 48.0034ZM46.213 52.0653H46.1812V54.0653H46.213V52.0653ZM69.1442 60.5233C68.2829 59.9746 66.4005 59.178 64.1857 58.3194C61.9292 57.4447 59.2135 56.4635 56.6004 55.5456C53.986 54.6272 51.4676 53.7697 49.6033 53.142C48.671 52.8282 47.9019 52.5716 47.3657 52.3935C47.0976 52.3044 46.8878 52.2349 46.7448 52.1877C46.6733 52.1641 46.6186 52.146 46.5816 52.1338C46.5632 52.1277 46.5491 52.1231 46.5397 52.12C46.535 52.1185 46.5314 52.1173 46.529 52.1165C46.5278 52.1161 46.5269 52.1158 46.5263 52.1156C46.526 52.1155 46.5258 52.1154 46.5256 52.1154C46.5255 52.1153 46.5254 52.1153 46.213 53.0653C45.9006 54.0152 45.9007 54.0152 45.9008 54.0153C45.901 54.0153 45.9012 54.0154 45.9014 54.0155C45.902 54.0157 45.9028 54.0159 45.904 54.0163C45.9063 54.0171 45.9097 54.0182 45.9143 54.0197C45.9235 54.0228 45.9373 54.0273 45.9556 54.0333C45.992 54.0453 46.0463 54.0632 46.1173 54.0867C46.2593 54.1336 46.4682 54.2027 46.7351 54.2914C47.2691 54.4689 48.0357 54.7246 48.9651 55.0375C50.8243 55.6635 53.3339 56.5179 55.9376 57.4326C58.5427 58.3477 61.2354 59.3207 63.4629 60.1842C65.7322 61.0639 67.4097 61.7896 68.0696 62.21L69.1442 60.5233ZM71.6336 82.9583C72.6336 82.9583 72.6336 82.9581 72.6336 82.9579C72.6336 82.9577 72.6336 82.9574 72.6336 82.9571C72.6336 82.9564 72.6336 82.9554 72.6336 82.9541C72.6336 82.9515 72.6336 82.9477 72.6335 82.9428C72.6335 82.9329 72.6335 82.9184 72.6335 82.8993C72.6334 82.8612 72.6332 82.8051 72.6328 82.7319C72.6321 82.5857 72.6306 82.3717 72.6276 82.0991C72.6216 81.5538 72.6097 80.7737 72.586 79.8319C72.5384 77.9495 72.4433 75.4152 72.2525 72.8161C72.0623 70.2239 71.775 67.5369 71.337 65.3608C71.1186 64.2752 70.856 63.282 70.5342 62.479C70.2306 61.7213 69.8034 60.9454 69.1462 60.5245L68.0676 62.2088C68.1671 62.2725 68.402 62.5348 68.6777 63.2229C68.9352 63.8656 69.1692 64.7259 69.3764 65.7553C69.7897 67.8094 70.0698 70.3992 70.2579 72.9625C70.4455 75.519 70.5395 78.0192 70.5866 79.8824C70.6101 80.8133 70.6218 81.5838 70.6277 82.1209C70.6306 82.3894 70.6321 82.5996 70.6328 82.7422C70.6332 82.8135 70.6334 82.8679 70.6335 82.9043C70.6335 82.9225 70.6335 82.9362 70.6335 82.9452C70.6336 82.9497 70.6336 82.9531 70.6336 82.9553C70.6336 82.9564 70.6336 82.9572 70.6336 82.9577C70.6336 82.9579 70.6336 82.9581 70.6336 82.9582C70.6336 82.9583 70.6336 82.9583 71.6336 82.9583ZM4.66626 83.9583H71.6336V81.9583H4.66626V83.9583ZM7.16991 60.5243C6.51158 60.9454 6.08233 61.7208 5.77683 62.4798C5.45333 63.2836 5.1893 64.2772 4.96966 65.3632C4.52941 67.5399 4.24051 70.2269 4.04928 72.8187C3.85755 75.4174 3.7619 77.9511 3.71412 79.8329C3.69021 80.7744 3.67825 81.5543 3.67226 82.0993C3.66927 82.3719 3.66777 82.5858 3.66702 82.732C3.66664 82.8051 3.66645 82.8613 3.66636 82.8993C3.66631 82.9184 3.66628 82.9329 3.66627 82.9428C3.66627 82.9477 3.66626 82.9515 3.66626 82.9541C3.66626 82.9554 3.66626 82.9564 3.66626 82.9571C3.66626 82.9574 3.66626 82.9577 3.66626 82.9579C3.66626 82.9581 3.66626 82.9583 4.66626 82.9583C5.66626 82.9583 5.66626 82.9583 5.66626 82.9582C5.66626 82.9581 5.66626 82.9579 5.66626 82.9577C5.66626 82.9572 5.66626 82.9564 5.66626 82.9553C5.66626 82.9531 5.66627 82.9498 5.66627 82.9452C5.66628 82.9362 5.6663 82.9225 5.66635 82.9043C5.66644 82.868 5.66662 82.8136 5.66699 82.7423C5.66772 82.5998 5.66919 82.3897 5.67214 82.1213C5.67804 81.5844 5.68984 80.8143 5.71348 79.8836C5.76077 78.0211 5.85528 75.5218 6.04386 72.9659C6.23294 70.4031 6.51451 67.8138 6.92997 65.7597C7.13819 64.7302 7.37332 63.8697 7.63218 63.2266C7.90903 62.5387 8.14534 62.2745 8.24764 62.209L7.16991 60.5243ZM30.1265 53.0653C29.8149 52.1151 29.8148 52.1151 29.8146 52.1151C29.8145 52.1152 29.8142 52.1153 29.8139 52.1154C29.8133 52.1156 29.8124 52.1159 29.8112 52.1163C29.8088 52.1171 29.8052 52.1182 29.8005 52.1198C29.791 52.1229 29.777 52.1275 29.7585 52.1336C29.7215 52.1457 29.6667 52.1638 29.5951 52.1874C29.452 52.2345 29.2419 52.3039 28.9734 52.3929C28.4366 52.5709 27.6666 52.8271 26.7332 53.1407C24.8666 53.7678 22.3452 54.6245 19.7277 55.5425C17.1116 56.4599 14.3928 57.4408 12.1339 58.316C9.91715 59.1748 8.03212 59.9727 7.16991 60.5243L8.24764 62.209C8.90668 61.7875 10.5845 61.0611 12.8564 60.1809C15.086 59.3171 17.7815 58.3444 20.3895 57.4298C22.9961 56.5156 25.5087 55.6619 27.3701 55.0366C28.3006 54.724 29.0681 54.4686 29.6027 54.2913C29.87 54.2027 30.0791 54.1337 30.2213 54.0868C30.2923 54.0634 30.3467 54.0455 30.3832 54.0335C30.4015 54.0275 30.4153 54.023 30.4245 54.02C30.4291 54.0184 30.4325 54.0173 30.4348 54.0166C30.436 54.0162 30.4368 54.0159 30.4374 54.0157C30.4377 54.0156 30.4379 54.0156 30.438 54.0155C30.4382 54.0155 30.4382 54.0154 30.1265 53.0653ZM30.1266 52.0653H30.1265V54.0653H30.1266V52.0653Z" fill="black" mask="url(#path-5-inside-1_2926_3996)"/>
<path d="M45.4186 47.8624C39.6752 50.4919 33.6219 50.2456 30.5476 49.8881L31.3817 42.8975H44.6242L45.4186 47.8624Z" fill="#3B2645"/>
<path d="M50.0957 31.7903L50.1472 31.7158L50.1692 31.6286L50.1692 31.6285L50.1693 31.6284L50.1693 31.6281L50.1695 31.6276L50.1712 31.621L50.1794 31.5907C50.1871 31.5631 50.199 31.5214 50.2154 31.4681C50.2481 31.3614 50.2982 31.2092 50.3666 31.0319C50.5049 30.673 50.7103 30.2307 50.9846 29.8536C51.2627 29.4712 51.5746 29.2063 51.9111 29.1117C52.2221 29.0242 52.6528 29.0551 53.2492 29.4756C53.7845 29.8531 54.078 30.4607 54.1379 31.2253C54.1982 31.9954 54.0153 32.8911 53.6277 33.751C52.9016 35.3616 51.5573 36.659 50.0585 36.8455C50.0413 36.7625 50.0223 36.6685 50.0023 36.5652C49.9213 36.1464 49.825 35.5773 49.7619 34.9639C49.6985 34.348 49.6703 33.7014 49.7198 33.1236C49.7704 32.5339 49.8974 32.0768 50.0957 31.7903Z" fill="white" stroke="black"/>
<path d="M52.568 31.1084C52.0043 31.3663 51.5191 31.7693 51.162 32.2761C50.7363 32.7147 50.411 33.2405 50.2087 33.8172C50.161 33.9999 50.4073 34.0714 50.5106 33.9523C50.7965 33.6186 51.019 33.2214 51.305 32.864C51.5276 33.0881 51.7997 33.2568 52.0993 33.3565C52.3377 33.42 52.4807 33.1102 52.3536 32.9355C52.1748 32.7152 51.946 32.5409 51.6863 32.427C52.0787 32.107 52.4477 31.7592 52.7905 31.3864C52.8161 31.354 52.83 31.3139 52.8299 31.2725C52.8298 31.2312 52.8156 31.1912 52.7898 31.1589C52.764 31.1266 52.7281 31.1041 52.6878 31.0949C52.6475 31.0857 52.6053 31.0905 52.568 31.1084V31.1084Z" fill="#3B2645"/>
<path d="M26.2019 31.2148L26.202 31.215L26.2021 31.2152L26.2021 31.2153L26.2232 31.2992L26.2717 31.3715C26.4647 31.6587 26.5886 32.1194 26.638 32.7136C26.6863 33.2954 26.6588 33.946 26.5974 34.5644C26.5362 35.1804 26.4426 35.7508 26.3641 36.168C26.3458 36.2651 26.3284 36.3537 26.3124 36.4325C24.809 36.2464 23.4611 34.9496 22.7335 33.3403C22.345 32.4811 22.1618 31.5859 22.2223 30.8157C22.2824 30.0511 22.5766 29.4421 23.1144 29.0623C23.7131 28.6396 24.1455 28.6081 24.4575 28.6954C24.7949 28.7897 25.1073 29.0548 25.3858 29.4376C25.6605 29.8151 25.8661 30.258 26.0046 30.6176C26.073 30.7952 26.1231 30.9476 26.1559 31.0545C26.1723 31.1079 26.1842 31.1497 26.1919 31.1773L26.2001 31.2077L26.2018 31.2143L26.2019 31.2148Z" fill="white" stroke="black"/>
<path d="M23.7793 30.6954C24.3396 30.9552 24.8237 31.3546 25.1854 31.8552C25.607 32.3 25.9316 32.8275 26.1387 33.4043C26.1863 33.5791 25.9401 33.6585 25.8368 33.5393C25.5429 33.1977 25.3284 32.8085 25.0424 32.451C24.8218 32.6775 24.549 32.8466 24.248 32.9435C24.0018 33.0071 23.8667 32.6973 23.9859 32.5225C24.1677 32.3022 24.3991 32.1279 24.6611 32.0141C24.2727 31.6979 23.9089 31.3527 23.5728 30.9814C23.5475 30.9502 23.5332 30.9115 23.5321 30.8714C23.5309 30.8313 23.5431 30.7919 23.5666 30.7593C23.5901 30.7268 23.6237 30.7029 23.6621 30.6913C23.7006 30.6798 23.7418 30.6812 23.7793 30.6954V30.6954Z" fill="#3B2645"/>
<path d="M38.1126 15.0115L38.1131 15.0115L38.1134 15.0115L38.1135 15.0115L38.1579 15.0156L38.2023 15.0115L38.2026 15.0115L38.2032 15.0114L38.2049 15.0113L38.22 15.0102C38.2344 15.0092 38.2575 15.0077 38.2888 15.0063C38.3514 15.0033 38.4466 15.0003 38.5705 15.0005C38.8183 15.001 39.18 15.0147 39.624 15.0682C40.513 15.1755 41.7252 15.442 43.0137 16.078C45.5678 17.3386 48.4976 20.0875 49.759 26.1421L50.2485 26.0401L49.7598 26.1459C50.7356 30.6561 50.3488 35.3546 48.6485 39.6444C46.9992 43.6924 43.9013 47.8785 38.1261 47.8785C32.3516 47.8785 29.2615 43.6934 27.6119 39.6452C25.9286 35.3505 25.5635 30.6516 26.5632 26.1485L26.5633 26.1485L26.5649 26.1409C27.8106 20.087 30.7382 17.3385 33.2939 16.0781C34.5834 15.4421 35.7975 15.1756 36.6883 15.0683C37.1332 15.0147 37.4958 15.001 37.7442 15.0005C37.8684 15.0003 37.9639 15.0033 38.0266 15.0063C38.058 15.0077 38.0812 15.0092 38.0957 15.0102L38.1109 15.0113L38.1126 15.0115Z" fill="white" stroke="black"/>
<path d="M38.8411 35.9864C38.285 35.9308 37.0378 36.3201 36.7439 35.7402C36.45 35.1603 37.2444 32.2766 37.3477 31.7682C37.7828 30.033 38.1196 28.2746 38.3565 26.5014C38.3565 26.4061 38.1977 26.3584 38.1659 26.5014C37.0299 29.4486 36.728 33.0392 36.1084 36.1374C36.1001 36.1782 36.101 36.2204 36.1112 36.2609C36.1214 36.3013 36.1405 36.339 36.1672 36.371C36.1939 36.4031 36.2275 36.4287 36.2654 36.446C36.3034 36.4633 36.3448 36.4719 36.3865 36.471C37.1808 36.4154 37.9752 36.5504 38.7696 36.471C39.0636 36.4631 39.1271 36.0103 38.8411 35.9864Z" fill="#3B2645"/>
<path d="M34.2971 39.5288H41.9392C41.9392 39.5288 40.5013 42.2377 38.1181 42.2377C35.735 42.2377 34.2971 39.5288 34.2971 39.5288Z" fill="#3B2645"/>
<path d="M32.891 30.3938C32.891 30.3938 31.8424 30.7831 32.0013 28.9322C32.1442 27.2719 32.891 27.4943 32.891 27.4943C32.891 27.4943 33.6139 27.4943 33.5027 28.9401C33.3915 30.3859 32.891 30.3938 32.891 30.3938Z" fill="#3B2645"/>
<path d="M42.8607 30.3938C42.8607 30.3938 41.8121 30.7831 41.971 28.9322C42.114 27.2719 42.8607 27.4943 42.8607 27.4943C42.8607 27.4943 43.5836 27.4943 43.4724 28.9401C43.3612 30.3859 42.8607 30.3938 42.8607 30.3938Z" fill="#3B2645"/>
<path d="M34.2971 24.9361C33.3994 24.4833 31.7232 24.3562 31.0718 25.2935C31.0459 25.3351 31.0317 25.3829 31.0308 25.4319C31.0299 25.4809 31.0424 25.5292 31.0669 25.5717C31.0914 25.6141 31.127 25.6491 31.1698 25.6729C31.2127 25.6966 31.2612 25.7083 31.3101 25.7066C31.755 25.7066 32.1045 25.4683 32.597 25.4365C33.0726 25.4157 33.5477 25.4885 33.9952 25.651C34.0881 25.6818 34.1893 25.6765 34.2784 25.6361C34.3676 25.5957 34.4383 25.5232 34.4764 25.433C34.5145 25.3428 34.5172 25.2415 34.4839 25.1494C34.4507 25.0573 34.384 24.9812 34.2971 24.9361V24.9361Z" fill="#3B2645"/>
<path d="M44.2667 24.9361C43.3611 24.4833 41.685 24.3562 41.0336 25.2935C41.0102 25.3355 40.9982 25.3828 40.9985 25.4308C40.9989 25.4789 41.0118 25.526 41.0358 25.5676C41.0598 25.6092 41.0941 25.6438 41.1355 25.6682C41.1769 25.6926 41.2239 25.7058 41.2719 25.7066C41.7167 25.7066 42.1139 25.4683 42.5588 25.4365C43.037 25.4163 43.5145 25.4891 43.9649 25.651C44.054 25.6676 44.146 25.6533 44.2258 25.6104C44.3056 25.5674 44.3683 25.4985 44.4036 25.415C44.4388 25.3316 44.4445 25.2386 44.4196 25.1514C44.3947 25.0643 44.3408 24.9883 44.2667 24.9361V24.9361Z" fill="#3B2645"/>
<path d="M29.6895 18.3269C29.6895 18.3269 36.545 20.4638 40.4137 18.3269C44.2824 16.1899 50.8759 24.8169 50.725 29.3846L51.9404 24.1814L46.1175 13.187L35.0834 12.3926C35.0834 12.3926 28.6251 16.5156 29.6895 18.3269Z" fill="#3B2645"/>
<path d="M31.0163 16.9523C28.4291 20.5478 26.5994 24.6315 25.6383 28.9556L24.4387 26.8505C24.4387 26.8505 26.4009 15.2444 31.0163 16.9523Z" fill="#3B2645"/>
<path d="M71.6336 82.9272H4.66626C4.66626 82.9272 4.66626 63.2739 7.71673 61.3436C9.35317 60.3029 15.748 57.9594 21.2849 56.037L23.8191 55.1552C24.6135 54.8772 25.4078 54.6071 26.1228 54.3608C27.4256 56.9744 39.2223 66.7853 39.2223 66.7853C39.556 66.0385 49.2476 57.1174 50.5742 54.4879C51.305 54.7421 52.0994 55.0122 52.9574 55.2823C54.2522 55.7351 55.6424 56.2197 57.0406 56.7202C62.0373 58.4837 67.1929 60.4062 68.6466 61.3277C71.6336 63.2739 71.6336 82.9272 71.6336 82.9272Z" fill="#9669A4"/>
</g>
</svg>
