<svg width="78" height="78" viewBox="0 0 78 78" fill="none" xmlns="http://www.w3.org/2000/svg">
<path d="M77.5 39C77.5 60.263 60.263 77.5 39 77.5C17.737 77.5 0.5 60.263 0.5 39C0.5 17.737 17.737 0.5 39 0.5C60.263 0.5 77.5 17.737 77.5 39Z" fill="#EAE4FC" stroke="black"/>
<mask id="mask0_2926_3997" style="mask-type:alpha" maskUnits="userSpaceOnUse" x="0" y="0" width="78" height="78">
<path d="M77.5 39C77.5 60.263 60.263 77.5 39 77.5C17.737 77.5 0.5 60.263 0.5 39C0.5 17.737 17.737 0.5 39 0.5C60.263 0.5 77.5 17.737 77.5 39Z" fill="#EAE4FC" stroke="black"/>
</mask>
<g mask="url(#mask0_2926_3997)">
<path d="M16.0799 28.5436C17.9299 34.3336 17.2299 40.5436 14.6999 44.4636C12.1699 48.3836 8.69989 56.3936 13.0899 59.5236C17.4799 62.6536 23.6699 70.1436 23.6699 70.1436L52.2499 66.6436L61.4399 62.6436C61.4399 62.6436 64.6599 55.4236 62.3599 51.3136C60.0599 47.2036 59.5999 43.5736 61.8999 40.4436C64.1999 37.3136 66.3199 33.2136 63.1899 30.0836C60.0599 26.9536 57.9899 22.3636 56.8299 17.7536C55.6699 13.1436 53.2199 10.6736 49.0299 8.37363C44.8399 6.07363 33.7399 6.42363 30.9099 6.93363C17.2299 9.39363 14.2399 22.7436 16.0799 28.5436Z" fill="#263238"/>
<path d="M23.16 28.5732C23.16 28.5732 20.5901 22.8532 22.5401 17.0832C22.8274 16.1804 23.2909 15.3435 23.9037 14.6209C24.5164 13.8983 25.2663 13.3043 26.11 12.8732C26.5192 12.6586 26.9624 12.5165 27.42 12.4532C27.42 12.4532 25.7 9.20319 32.14 6.33319C38.58 3.46319 48.9101 4.94317 53.3201 13.5632C57.73 22.1832 52.69 33.4532 51.06 35.1532C49.43 36.8532 26.46 35.8232 23.16 28.5732Z" fill="#263238"/>
<mask id="path-5-inside-1_2926_3997" fill="white">
<path fill-rule="evenodd" clip-rule="evenodd" d="M29.6882 55.449C30.6197 53.8187 31.2662 52.0413 31.5999 50.1935C32.1075 47.8591 32.3258 45.4712 32.2499 43.0835H43.3999C43.3548 44.8937 43.4719 46.7042 43.7499 48.4935C44.004 50.927 44.7537 53.2826 45.9526 55.415C46.9697 55.8334 48.4396 56.2356 50.12 56.6632C50.7802 56.8271 51.4736 56.9937 52.1859 57.1649C57.7744 58.5076 64.5243 60.1293 65.5 62.9232C66.37 65.4232 67.5 72.7432 68.39 78.9832C69.1 84.3832 69.66 88.9832 69.66 88.9832H6C6 88.9832 6.54 84.4132 7.3 78.9832C8.17 72.7432 9.30001 65.4232 10.18 62.9232C11.1556 60.141 17.8347 58.5338 23.4291 57.1877C24.0279 57.0436 24.6143 56.9025 25.18 56.7632C26.998 56.3208 28.592 55.8931 29.6882 55.449Z"/>
</mask>
<path fill-rule="evenodd" clip-rule="evenodd" d="M29.6882 55.449C30.6197 53.8187 31.2662 52.0413 31.5999 50.1935C32.1075 47.8591 32.3258 45.4712 32.2499 43.0835H43.3999C43.3548 44.8937 43.4719 46.7042 43.7499 48.4935C44.004 50.927 44.7537 53.2826 45.9526 55.415C46.9697 55.8334 48.4396 56.2356 50.12 56.6632C50.7802 56.8271 51.4736 56.9937 52.1859 57.1649C57.7744 58.5076 64.5243 60.1293 65.5 62.9232C66.37 65.4232 67.5 72.7432 68.39 78.9832C69.1 84.3832 69.66 88.9832 69.66 88.9832H6C6 88.9832 6.54 84.4132 7.3 78.9832C8.17 72.7432 9.30001 65.4232 10.18 62.9232C11.1556 60.141 17.8347 58.5338 23.4291 57.1877C24.0279 57.0436 24.6143 56.9025 25.18 56.7632C26.998 56.3208 28.592 55.8931 29.6882 55.449Z" fill="white"/>
<path d="M29.6882 55.449L30.0637 56.3758L30.3847 56.2458L30.5565 55.9451L29.6882 55.449ZM31.5999 50.1935L30.6228 49.981L30.619 49.9983L30.6159 50.0157L31.5999 50.1935ZM32.2499 43.0835V42.0835H31.2176L31.2504 43.1153L32.2499 43.0835ZM43.3999 43.0835L44.3996 43.1084L44.4252 42.0835H43.3999V43.0835ZM43.7499 48.4935L44.7445 48.3897L44.7419 48.3647L44.7381 48.34L43.7499 48.4935ZM45.9526 55.415L45.0809 55.9051L45.2511 56.2078L45.5722 56.3398L45.9526 55.415ZM50.12 56.6632L49.8734 57.6323L49.879 57.6337L50.12 56.6632ZM52.1859 57.1649L51.9523 58.1372V58.1372L52.1859 57.1649ZM65.5 62.9232L66.4444 62.5946L66.4441 62.5935L65.5 62.9232ZM68.39 78.9832L69.3815 78.8528L69.38 78.842L68.39 78.9832ZM69.66 88.9832V89.9832H70.7891L70.6527 88.8624L69.66 88.9832ZM6 88.9832L5.00691 88.8659L4.87488 89.9832H6V88.9832ZM7.3 78.9832L8.29035 79.1218L8.29042 79.1213L7.3 78.9832ZM10.18 62.9232L11.1233 63.2552L11.1237 63.2541L10.18 62.9232ZM23.4291 57.1877L23.1951 56.2154L23.4291 57.1877ZM25.18 56.7632L24.9436 55.7916L24.941 55.7922L25.18 56.7632ZM30.5565 55.9451C31.5444 54.216 32.23 52.331 32.584 50.3712L30.6159 50.0157C30.3023 51.7517 29.695 53.4213 28.8199 54.9529L30.5565 55.9451ZM32.5771 50.406C33.1021 47.9914 33.3279 45.5214 33.2494 43.0517L31.2504 43.1153C31.3237 45.4209 31.1129 47.7268 30.6228 49.981L32.5771 50.406ZM32.2499 44.0835H43.3999V42.0835H32.2499V44.0835ZM42.4002 43.0586C42.3536 44.9284 42.4746 46.7987 42.7618 48.647L44.7381 48.34C44.4693 46.6097 44.356 44.8589 44.3996 43.1084L42.4002 43.0586ZM42.7553 48.5973C43.0236 51.1667 43.8151 53.6536 45.0809 55.9051L46.8243 54.9249C45.6923 52.9115 44.9844 50.6874 44.7445 48.3897L42.7553 48.5973ZM45.5722 56.3398C46.6652 56.7894 48.2038 57.2074 49.8734 57.6323L50.3666 55.6941C48.6755 55.2637 47.2741 54.8773 46.333 54.4902L45.5722 56.3398ZM49.879 57.6337C50.5436 57.7987 51.2407 57.9662 51.9523 58.1372L52.4195 56.1925C51.7064 56.0212 51.0168 55.8555 50.361 55.6927L49.879 57.6337ZM51.9523 58.1372C54.7619 58.8122 57.7852 59.54 60.2276 60.4384C61.4482 60.8874 62.4774 61.3628 63.2431 61.8682C64.0247 62.3841 64.4174 62.8563 64.5559 63.2529L66.4441 62.5935C66.0947 61.5931 65.2779 60.8149 64.3448 60.199C63.3959 59.5726 62.2053 59.0348 60.918 58.5613C58.3443 57.6146 55.1984 56.8602 52.4195 56.1925L51.9523 58.1372ZM64.5556 63.2519C64.9587 64.4102 65.4467 66.7815 65.952 69.7202C66.452 72.6283 66.9554 76.007 67.4 79.1244L69.38 78.842C68.9346 75.7194 68.428 72.3181 67.923 69.3813C67.4233 66.4749 66.9113 63.9362 66.4444 62.5946L64.5556 63.2519ZM67.3985 79.1136C67.7532 81.811 68.0704 84.3089 68.299 86.1326C68.4133 87.0444 68.5054 87.7874 68.5689 88.3025C68.6007 88.56 68.6253 88.7605 68.642 88.8966C68.6503 88.9646 68.6567 89.0166 68.6609 89.0514C68.663 89.0689 68.6647 89.0821 68.6657 89.0909C68.6663 89.0953 68.6667 89.0986 68.6669 89.1008C68.6671 89.1019 68.6672 89.1027 68.6672 89.1033C68.6673 89.1035 68.6673 89.1037 68.6673 89.1039C68.6673 89.1039 68.6673 89.104 68.6673 89.104C68.6673 89.104 68.6673 89.1041 69.66 88.9832C70.6527 88.8624 70.6527 88.8623 70.6527 88.8623C70.6527 88.8623 70.6527 88.8622 70.6526 88.8621C70.6526 88.862 70.6526 88.8618 70.6526 88.8615C70.6525 88.8609 70.6524 88.8601 70.6523 88.8589C70.652 88.8567 70.6516 88.8533 70.651 88.8488C70.6499 88.8399 70.6483 88.8266 70.6462 88.809C70.6419 88.7739 70.6355 88.7217 70.6271 88.6534C70.6104 88.5168 70.5857 88.3158 70.5539 88.0577C70.4902 87.5415 70.398 86.7971 70.2835 85.8838C70.0546 84.0575 69.7368 81.5554 69.3815 78.8529L67.3985 79.1136ZM69.66 87.9832H6V89.9832H69.66V87.9832ZM6 88.9832C6.99309 89.1006 6.99309 89.1006 6.99309 89.1005C6.9931 89.1005 6.9931 89.1005 6.99311 89.1004C6.99312 89.1003 6.99315 89.1001 6.99318 89.0998C6.99324 89.0993 6.99333 89.0985 6.99346 89.0974C6.99372 89.0953 6.9941 89.092 6.99462 89.0877C6.99564 89.079 6.99719 89.066 6.99924 89.0487C7.00335 89.0142 7.00949 88.9627 7.01758 88.8953C7.03376 88.7603 7.05775 88.5612 7.08892 88.3052C7.15126 87.7932 7.24233 87.0537 7.35712 86.1448C7.58674 84.3266 7.91114 81.8312 8.29035 79.1218L6.30966 78.8446C5.92887 81.5652 5.60327 84.0699 5.37288 85.8942C5.25767 86.8064 5.16624 87.5489 5.10358 88.0634C5.07225 88.3207 5.04812 88.5211 5.0318 88.6572C5.02364 88.7253 5.01743 88.7773 5.01326 88.8124C5.01117 88.8299 5.00959 88.8432 5.00853 88.8522C5.008 88.8567 5.0076 88.8601 5.00733 88.8623C5.00719 88.8635 5.00709 88.8643 5.00702 88.8649C5.00698 88.8652 5.00696 88.8655 5.00694 88.8656C5.00693 88.8657 5.00692 88.8658 5.00692 88.8658C5.00691 88.8658 5.00691 88.8659 6 88.9832ZM8.29042 79.1213C8.72489 76.0051 9.22322 72.6271 9.72186 69.7198C10.2258 66.7814 10.7162 64.4117 11.1233 63.2552L9.23674 62.5912C8.76382 63.9347 8.24918 66.475 7.75065 69.3817C7.24679 72.3194 6.74512 75.7213 6.30958 78.8451L8.29042 79.1213ZM11.1237 63.2541C11.2624 62.8585 11.6525 62.389 12.4269 61.8766C13.1859 61.3743 14.2062 60.9019 15.4182 60.4553C17.8434 59.5617 20.8503 58.8367 23.663 58.1599L23.1951 56.2154C20.4135 56.8848 17.2836 57.6365 14.7268 58.5786C13.4478 59.0499 12.2657 59.585 11.3232 60.2087C10.396 60.8222 9.58539 61.5969 9.23634 62.5923L11.1237 63.2541ZM23.663 58.1599C24.2614 58.0159 24.8504 57.8742 25.419 57.7342L24.941 55.7922C24.3783 55.9307 23.7945 56.0712 23.1951 56.2154L23.663 58.1599ZM25.4164 57.7349C27.2279 57.2941 28.8901 56.8513 30.0637 56.3758L29.3127 54.5222C28.2939 54.935 26.7681 55.3476 24.9436 55.7916L25.4164 57.7349Z" fill="black" mask="url(#path-5-inside-1_2926_3997)"/>
<path d="M43.7501 48.4935C39.7501 50.6035 34.1601 50.4135 31.6001 50.1935C32.1077 47.8591 32.326 45.4712 32.2501 43.0835H43.4001C43.355 44.8937 43.4721 46.7042 43.7501 48.4935Z" fill="#181E22"/>
<path d="M25.8351 31.5852L25.8352 31.5854L25.8352 31.5855L25.8353 31.5856L25.8564 31.6697L25.9051 31.7421C26.1464 32.1012 26.2948 32.6646 26.3538 33.3722C26.4117 34.0675 26.379 34.8425 26.3062 35.5764C26.2337 36.3079 26.1228 36.9847 26.0298 37.4796C26.0015 37.6297 25.975 37.7628 25.9518 37.8751C24.1038 37.6889 22.4575 36.1039 21.5796 34.1565C21.1167 33.1295 20.8962 32.0555 20.969 31.1268C21.0414 30.2037 21.3975 29.4574 22.058 28.9919C22.7799 28.4833 23.3169 28.4361 23.7168 28.5485C24.1421 28.668 24.5254 28.9989 24.8593 29.4584C25.1894 29.9126 25.4349 30.4429 25.5995 30.8707C25.6809 31.0824 25.7406 31.2641 25.7797 31.3919C25.7992 31.4556 25.8135 31.5057 25.8227 31.539L25.8327 31.5759L25.8349 31.5841L25.8351 31.5852Z" fill="white" stroke="black"/>
<path d="M22.8901 30.9835C23.555 31.2898 24.1275 31.7658 24.5501 32.3635C25.0502 32.8881 25.4351 33.5114 25.6801 34.1935C25.6801 34.4035 25.4401 34.4935 25.3201 34.3435C24.9701 33.9535 24.7201 33.4835 24.4001 33.0635C24.1398 33.3319 23.8168 33.5313 23.4601 33.6435C23.1701 33.7135 23.0101 33.3535 23.1601 33.1435C23.3712 32.8827 23.6422 32.6769 23.9501 32.5435C23.4814 32.1726 23.0463 31.761 22.6501 31.3135C22.6197 31.2776 22.6022 31.2325 22.6005 31.1855C22.5987 31.1385 22.6128 31.0923 22.6405 31.0543C22.6682 31.0162 22.7078 30.9886 22.7531 30.9757C22.7983 30.9629 22.8466 30.9656 22.8901 30.9835Z" fill="#263238"/>
<path d="M50.0061 31.7406L50.0536 31.6692L50.0746 31.5865L50.0746 31.5864L50.0746 31.5863L50.0747 31.586L50.075 31.585L50.0772 31.5767L50.0872 31.5398C50.0965 31.5066 50.1109 31.4565 50.1305 31.3927C50.1699 31.265 50.23 31.0833 50.3118 30.8715C50.4773 30.4437 50.724 29.9133 51.0553 29.4591C51.3904 28.9995 51.775 28.6682 52.2015 28.5485C52.6026 28.436 53.1404 28.4835 53.8621 28.9919C54.5226 29.4574 54.8787 30.2037 54.9511 31.1268C55.0239 32.0555 54.8034 33.1295 54.3405 34.1565C53.4626 36.1039 51.8162 37.689 49.9683 37.8751C49.945 37.7627 49.9184 37.6296 49.8902 37.4794C49.7969 36.9845 49.6857 36.3076 49.6126 35.576C49.5392 34.842 49.5055 34.0668 49.5621 33.3713C49.6198 32.6633 49.7667 32.0997 50.0061 31.7406Z" fill="white" stroke="black"/>
<path d="M53.0301 30.9834C52.3652 31.2897 51.7927 31.7656 51.3701 32.3634C50.8667 32.8853 50.4813 33.5094 50.2401 34.1934C50.1901 34.4034 50.4801 34.4934 50.6001 34.3434C50.9401 33.9534 51.2001 33.4834 51.5101 33.0634C51.79 33.3369 52.1337 33.5363 52.5101 33.6434C52.7901 33.7134 52.9601 33.3534 52.8101 33.1434C52.5969 32.8848 52.3264 32.6794 52.0201 32.5434C52.4888 32.1725 52.9239 31.7609 53.3201 31.3134C53.3639 31.2749 53.3906 31.2206 53.3943 31.1625C53.3981 31.1044 53.3786 31.0471 53.3401 31.0034C53.3016 30.9596 53.2474 30.9329 53.1893 30.9292C53.1311 30.9254 53.0739 30.9449 53.0301 30.9834Z" fill="#263238"/>
<path d="M50.0106 24.6355L50.0106 24.6355L50.0117 24.6404C51.0459 29.3678 50.6505 34.2961 48.8757 38.7982C47.142 43.082 43.8989 47.4835 37.8401 47.4835C31.7827 47.4835 28.539 43.0442 26.8041 38.7973C25.0296 34.2955 24.6343 29.3675 25.6686 24.6404L25.6686 24.6404L25.6699 24.634C26.9706 18.2918 30.0422 15.4101 32.7284 14.0884C34.0831 13.4218 35.3591 13.1426 36.2955 13.0304C36.7633 12.9744 37.1445 12.9602 37.406 12.9597C37.5367 12.9595 37.6373 12.9628 37.7035 12.9659C37.7366 12.9675 37.7611 12.969 37.7765 12.9701L37.7927 12.9713L37.7948 12.9714L37.7953 12.9715L37.7955 12.9715L37.7956 12.9715L37.841 12.9756L37.8863 12.9714L37.8864 12.9714L37.8866 12.9713L37.8871 12.9713L37.8891 12.9711L37.9052 12.9699C37.9204 12.9688 37.9448 12.9671 37.9777 12.9655C38.0435 12.9622 38.1435 12.9586 38.2735 12.9585C38.5336 12.9582 38.9129 12.9714 39.3786 13.0263C40.3107 13.1362 41.5818 13.4125 42.9332 14.0772C45.6128 15.395 48.6851 18.2769 50.0106 24.6355Z" fill="white" stroke="black"/>
<path d="M31.86 30.0634C31.86 30.0634 30.76 30.4734 30.92 28.5134C31.08 26.7534 31.86 26.9934 31.86 26.9934C31.86 26.9934 32.63 26.9934 32.51 28.5234C32.39 30.0534 31.86 30.0634 31.86 30.0634Z" fill="#3B2645"/>
<path d="M43.16 30.0634C43.16 30.0634 42.06 30.4734 42.23 28.5134C42.38 26.7534 43.16 26.9934 43.16 26.9934C43.16 26.9934 43.93 26.9934 43.82 28.5234C43.71 30.0534 43.16 30.0634 43.16 30.0634Z" fill="#3B2645"/>
<path d="M40.25 38.7736C39.3684 39.1808 38.442 39.4828 37.49 39.6736C36.56 39.7336 35.75 39.2636 34.87 39.2736C34.8455 39.2739 34.8215 39.2805 34.8004 39.2929C34.7793 39.3052 34.7618 39.3229 34.7496 39.3442C34.7375 39.3654 34.7311 39.3895 34.7312 39.4139C34.7313 39.4384 34.7377 39.4624 34.75 39.4836C35.75 41.0636 39.59 40.5736 40.47 39.0736C40.4913 39.0397 40.502 39.0001 40.5006 38.96C40.4992 38.9199 40.4857 38.8812 40.462 38.8488C40.4383 38.8165 40.4053 38.792 40.3675 38.7786C40.3297 38.7652 40.2888 38.7635 40.25 38.7736Z" fill="#263238"/>
<path d="M33.53 24.0936C32.9686 23.7362 32.3008 23.5843 31.64 23.6636C31.05 23.6636 30.2 23.6636 29.8 24.1636C29.7874 24.1774 29.7784 24.1941 29.774 24.2123C29.7697 24.2305 29.77 24.2495 29.775 24.2675C29.78 24.2855 29.7895 24.302 29.8026 24.3153C29.8158 24.3286 29.8321 24.3383 29.85 24.3436C30.4033 24.4149 30.9647 24.3913 31.51 24.2736C32.1368 24.358 32.7678 24.408 33.4 24.4236C33.54 24.4036 33.68 24.2136 33.53 24.0936Z" fill="#3B2645"/>
<path d="M44.97 23.8635C44.7897 23.6011 44.5362 23.3976 44.2409 23.2784C43.9457 23.1592 43.6219 23.1297 43.31 23.1935C42.71 23.2535 41.8 23.4235 41.48 23.9935C41.4685 24.0141 41.4617 24.037 41.4601 24.0606C41.4585 24.0841 41.4621 24.1078 41.4707 24.1297C41.4793 24.1517 41.4927 24.1715 41.5098 24.1877C41.527 24.2039 41.5475 24.2162 41.57 24.2235C42.06 24.3535 42.48 24.0635 42.95 23.9735C43.5482 23.8927 44.1572 23.965 44.72 24.1835C44.7618 24.195 44.8062 24.1938 44.8474 24.1802C44.8886 24.1665 44.9249 24.141 44.9516 24.1068C44.9783 24.0726 44.9943 24.0312 44.9976 23.9879C45.0009 23.9446 44.9913 23.9014 44.97 23.8635Z" fill="#3B2645"/>
<path d="M37.56 35.1533C37.07 35.0433 35.89 35.0633 35.7 34.6733C35.51 34.2833 36.45 32.3633 36.56 31.9233C36.9979 30.4004 37.1104 28.8024 36.89 27.2333C36.8839 27.2156 36.8724 27.2003 36.8572 27.1895C36.842 27.1787 36.8237 27.1729 36.8051 27.1729C36.7864 27.1729 36.7681 27.1787 36.7529 27.1895C36.7377 27.2003 36.7262 27.2156 36.72 27.2333C36.41 28.5333 36.4001 29.8833 36.1201 31.2333C35.8401 32.5833 35.37 33.8033 34.96 35.1033C34.9507 35.1394 34.9499 35.1772 34.9577 35.2136C34.9655 35.2501 34.9817 35.2842 35.005 35.3133C35.0283 35.3424 35.058 35.3657 35.0919 35.3813C35.1257 35.397 35.1628 35.4045 35.2 35.4033C35.9796 35.5532 36.7805 35.5532 37.56 35.4033C37.5872 35.3955 37.6111 35.3791 37.6281 35.3566C37.6451 35.334 37.6543 35.3065 37.6543 35.2783C37.6543 35.25 37.6451 35.2225 37.6281 35.2C37.6111 35.1774 37.5872 35.161 37.56 35.1533Z" fill="#263238"/>
<path d="M33.25 13.3133C35.8245 14.5503 38.6106 15.2867 41.46 15.4833C46.15 15.7833 47.16 17.2133 47.46 20.9733C47.76 24.7333 49.34 29.0733 51.01 28.5433C52.68 28.0133 53.31 22.8233 53.31 22.8233L48.08 12.4533C48.08 12.4533 33.92 6.98331 33.25 13.3133Z" fill="#263238"/>
<path d="M24.6199 27.9834C24.6199 27.9834 25.3699 21.9834 27.8299 20.9834C30.2899 19.9834 32.8299 16.4834 33.2499 13.3234C33.6699 10.1634 28.9399 10.6734 28.9399 10.6734L22.5999 21.5334C22.1599 22.6788 22.12 23.9393 22.4867 25.1102C22.8534 26.2811 23.6052 27.2937 24.6199 27.9834Z" fill="#263238"/>
<path d="M56.9301 78.9836C57.7912 82.2425 58.1055 85.6218 57.86 88.9836H17.3701C17.1246 85.6218 17.4389 82.2425 18.3 78.9836H7.30005C8.17005 72.7436 9.30005 65.4236 10.1801 62.9236C11.0601 60.4236 17.1801 58.6936 22.6201 57.3836L25.1501 56.7636C25.8189 59.2637 27.2781 61.4806 29.31 63.0836C31.6745 64.9532 34.6007 65.9703 37.6151 65.9703C40.6294 65.9703 43.5556 64.9532 45.92 63.0836C47.9776 61.4598 49.443 59.2036 50.09 56.6636L52.09 57.1436C57.69 58.4936 64.5001 60.1436 65.4801 62.9236C66.3501 65.4236 67.4801 72.7436 68.3701 78.9836H56.9301Z" fill="#58469E"/>
<path d="M34.4099 31.9833H26.7399C26.5613 31.9833 26.3844 31.9481 26.2194 31.8798C26.0544 31.8114 25.9045 31.7112 25.7782 31.5849C25.6519 31.4586 25.5517 31.3087 25.4834 31.1437C25.4151 30.9787 25.3799 30.8019 25.3799 30.6233V26.7033C25.3799 26.5247 25.4151 26.3478 25.4834 26.1828C25.5517 26.0178 25.6519 25.8679 25.7782 25.7416C25.9045 25.6153 26.0544 25.5152 26.2194 25.4468C26.3844 25.3785 26.5613 25.3433 26.7399 25.3433H34.4099C34.5885 25.3433 34.7653 25.3785 34.9303 25.4468C35.0953 25.5152 35.2453 25.6153 35.3716 25.7416C35.4978 25.8679 35.598 26.0178 35.6664 26.1828C35.7347 26.3478 35.7699 26.5247 35.7699 26.7033V30.6233C35.7699 30.8019 35.7347 30.9787 35.6664 31.1437C35.598 31.3087 35.4978 31.4586 35.3716 31.5849C35.2453 31.7112 35.0953 31.8114 34.9303 31.8798C34.7653 31.9481 34.5885 31.9833 34.4099 31.9833ZM26.7399 26.0933C26.5789 26.0958 26.4252 26.1609 26.3114 26.2748C26.1976 26.3886 26.1325 26.5423 26.1299 26.7033V30.6233C26.1299 30.7851 26.1942 30.9402 26.3085 31.0546C26.4229 31.169 26.5781 31.2333 26.7399 31.2333H34.4099C34.5717 31.2333 34.7268 31.169 34.8412 31.0546C34.9556 30.9402 35.0199 30.7851 35.0199 30.6233V26.7033C35.0173 26.5423 34.9522 26.3886 34.8384 26.2748C34.7245 26.1609 34.5709 26.0958 34.4099 26.0933H26.7399Z" fill="#58469E"/>
<path d="M48.3 31.9833H40.64C40.2793 31.9833 39.9334 31.84 39.6784 31.5849C39.4233 31.3299 39.28 30.984 39.28 30.6233V26.7033C39.28 26.3426 39.4233 25.9967 39.6784 25.7416C39.9334 25.4866 40.2793 25.3433 40.64 25.3433H48.3C48.6607 25.3433 49.0067 25.4866 49.2617 25.7416C49.5168 25.9967 49.66 26.3426 49.66 26.7033V30.6233C49.66 30.984 49.5168 31.3299 49.2617 31.5849C49.0067 31.84 48.6607 31.9833 48.3 31.9833ZM40.64 26.0933C40.5599 26.0933 40.4806 26.1091 40.4066 26.1397C40.3326 26.1704 40.2653 26.2153 40.2087 26.2719C40.1521 26.3286 40.1071 26.3958 40.0765 26.4698C40.0458 26.5439 40.03 26.6232 40.03 26.7033V30.6233C40.03 30.7034 40.0458 30.7827 40.0765 30.8567C40.1071 30.9307 40.1521 30.998 40.2087 31.0546C40.2653 31.1113 40.3326 31.1562 40.4066 31.1868C40.4806 31.2175 40.5599 31.2333 40.64 31.2333H48.3C48.4618 31.2333 48.617 31.169 48.7314 31.0546C48.8458 30.9402 48.91 30.7851 48.91 30.6233V26.7033C48.91 26.5415 48.8458 26.3863 48.7314 26.2719C48.617 26.1575 48.4618 26.0933 48.3 26.0933H40.64Z" fill="#58469E"/>
<path d="M39.65 28.2935H35.04V29.0435H39.65V28.2935Z" fill="#58469E"/>
<path d="M52.0801 57.1636C51.9601 59.6236 50.7201 74.3636 37.3401 68.4736C24.3401 74.2036 22.8001 60.4236 22.6201 57.4036L25.1501 56.7836C25.819 59.2837 27.2782 61.5006 29.3101 63.1036C31.6746 64.9732 34.6008 65.9903 37.6151 65.9903C40.6295 65.9903 43.5556 64.9732 45.9201 63.1036C47.9776 61.4798 49.4431 59.2236 50.0901 56.6836L52.0801 57.1636Z" fill="#A3B4E6"/>
</g>
</svg>
