<svg width="78" height="78" viewBox="0 0 78 78" fill="none" xmlns="http://www.w3.org/2000/svg">
<path d="M77.5 39C77.5 60.263 60.263 77.5 39 77.5C17.737 77.5 0.5 60.263 0.5 39C0.5 17.737 17.737 0.5 39 0.5C60.263 0.5 77.5 17.737 77.5 39Z" fill="#EAE4FC" stroke="black"/>
<mask id="mask0_2926_4001" style="mask-type:alpha" maskUnits="userSpaceOnUse" x="0" y="0" width="78" height="78">
<path d="M77.5 39C77.5 60.263 60.263 77.5 39 77.5C17.737 77.5 0.5 60.263 0.5 39C0.5 17.737 17.737 0.5 39 0.5C60.263 0.5 77.5 17.737 77.5 39Z" fill="#EAE4FC" stroke="black"/>
</mask>
<g mask="url(#mask0_2926_4001)">
<path d="M16.1801 44.7128C16.0301 47.2728 16.3601 50.3628 18.6401 51.5328C19.7974 51.983 21.0436 52.1576 22.2801 52.0428C24.7611 52.0451 27.2348 52.31 29.6601 52.8328C32.7501 53.4928 36.3501 55.1728 39.5101 54.7228C42.8901 54.2428 45.8601 52.2628 49.2601 51.8628C51.2032 51.7762 53.1496 51.7995 55.0901 51.9328C57.0487 52.0537 58.9787 51.4163 60.4801 50.1528C61.8501 48.8028 62.2801 46.7828 62.4801 44.8628C62.8731 39.1757 62.0269 33.471 60.0001 28.1428C58.5027 24.1263 56.7251 20.22 54.6801 16.4528C52.8501 12.9628 49.4601 13.8928 47.1401 10.6528C42.4801 4.06278 30.0801 7.05278 24.7801 14.3428C22.745 17.3923 21.2656 20.7778 20.4101 24.3428C19.4801 27.6328 18.5701 30.9528 17.7601 34.2728C16.9143 37.6969 16.3854 41.1917 16.1801 44.7128V44.7128Z" fill="#3B2645"/>
<mask id="path-4-inside-1_2926_4001" fill="white">
<path fill-rule="evenodd" clip-rule="evenodd" d="M46.9579 57.3337L46.9599 57.3326C45.7506 55.185 44.9918 52.8134 44.7299 50.3626C44.4607 48.5725 44.3469 46.7624 44.3899 44.9526H33.2399C33.3107 47.3402 33.0925 49.7275 32.5899 52.0626C32.2552 53.916 31.6058 55.6983 30.6699 57.3326L30.6755 57.3354C29.4381 57.8399 27.5555 58.325 25.44 58.8426L24.27 59.1126C18.72 60.4526 12.17 62.0726 11.17 64.8226C9.54 69.4626 7 90.8226 7 90.8226H70.64C70.64 90.8226 68.09 69.4526 66.49 64.8226C65.49 62.0926 59.01 60.4826 53.49 59.1426L52.3 58.8626C50.1455 58.3353 48.2185 57.8451 46.9579 57.3337Z"/>
</mask>
<path fill-rule="evenodd" clip-rule="evenodd" d="M46.9579 57.3337L46.9599 57.3326C45.7506 55.185 44.9918 52.8134 44.7299 50.3626C44.4607 48.5725 44.3469 46.7624 44.3899 44.9526H33.2399C33.3107 47.3402 33.0925 49.7275 32.5899 52.0626C32.2552 53.916 31.6058 55.6983 30.6699 57.3326L30.6755 57.3354C29.4381 57.8399 27.5555 58.325 25.44 58.8426L24.27 59.1126C18.72 60.4526 12.17 62.0726 11.17 64.8226C9.54 69.4626 7 90.8226 7 90.8226H70.64C70.64 90.8226 68.09 69.4526 66.49 64.8226C65.49 62.0926 59.01 60.4826 53.49 59.1426L52.3 58.8626C50.1455 58.3353 48.2185 57.8451 46.9579 57.3337Z" fill="white"/>
<path d="M46.9599 57.3326L47.4065 58.2274L48.3471 57.758L47.8313 56.842L46.9599 57.3326ZM46.9579 57.3337L46.5113 56.4389L44.5299 57.4278L46.5819 58.2603L46.9579 57.3337ZM44.7299 50.3626L45.7243 50.2564L45.722 50.2351L45.7188 50.2139L44.7299 50.3626ZM44.3899 44.9526L45.3896 44.9764L45.414 43.9526H44.3899V44.9526ZM33.2399 44.9526V43.9526H32.2098L32.2404 44.9823L33.2399 44.9526ZM32.5899 52.0626L31.6123 51.8522L31.6088 51.8685L31.6058 51.8849L32.5899 52.0626ZM30.6699 57.3326L29.8021 56.8357L29.2755 57.7553L30.2241 58.2277L30.6699 57.3326ZM30.6755 57.3354L31.0531 58.2614L33.1009 57.4263L31.1213 56.4403L30.6755 57.3354ZM25.44 58.8426L25.6649 59.8171L25.6777 59.814L25.44 58.8426ZM24.27 59.1126L24.0451 58.1382L24.0353 58.1406L24.27 59.1126ZM11.17 64.8226L10.2301 64.4809L10.2265 64.4912L11.17 64.8226ZM7 90.8226L6.007 90.7046L5.87404 91.8226H7V90.8226ZM70.64 90.8226V91.8226H71.7664L71.633 90.7042L70.64 90.8226ZM66.49 64.8226L67.4352 64.496L67.4322 64.4873L67.429 64.4787L66.49 64.8226ZM53.49 59.1426L53.7259 58.1708L53.719 58.1692L53.49 59.1426ZM52.3 58.8626L52.0622 59.834L52.071 59.8361L52.3 58.8626ZM46.5134 56.4379L46.5113 56.4389L47.4044 58.2284L47.4065 58.2274L46.5134 56.4379ZM43.7356 50.4689C44.0119 53.0548 44.8125 55.5573 46.0886 57.8233L47.8313 56.842C46.6886 54.8128 45.9717 52.572 45.7243 50.2564L43.7356 50.4689ZM43.3902 44.9289C43.3458 46.7963 43.4632 48.6642 43.741 50.5114L45.7188 50.2139C45.4581 48.4808 45.348 46.7285 45.3896 44.9764L43.3902 44.9289ZM33.2399 45.9526H44.3899V43.9526H33.2399V45.9526ZM33.5675 52.273C34.087 49.8591 34.3127 47.3911 34.2395 44.923L32.2404 44.9823C32.3088 47.2892 32.0979 49.5959 31.6123 51.8522L33.5675 52.273ZM31.5377 57.8296C32.5303 56.0963 33.219 54.2059 33.574 52.2404L31.6058 51.8849C31.2914 53.626 30.6813 55.3004 29.8021 56.8357L31.5377 57.8296ZM31.1213 56.4403L31.1158 56.4375L30.2241 58.2277L30.2296 58.2305L31.1213 56.4403ZM25.6777 59.814C27.7734 59.3011 29.7338 58.7993 31.0531 58.2614L30.2979 56.4094C29.1425 56.8806 27.3375 57.3488 25.2023 57.8713L25.6777 59.814ZM24.4949 60.087L25.6649 59.817L25.2151 57.8682L24.0451 58.1383L24.4949 60.087ZM12.1098 65.1644C12.2539 64.7681 12.6465 64.3005 13.412 63.7914C14.1629 63.2921 15.1689 62.8213 16.3633 62.3758C18.7528 61.4844 21.7169 60.7578 24.5047 60.0847L24.0353 58.1406C21.2731 58.8075 18.1872 59.5608 15.6642 60.502C14.4023 60.9727 13.2365 61.5063 12.3045 62.126C11.3872 62.736 10.5861 63.5021 10.2302 64.4809L12.1098 65.1644ZM7 90.8226C7.993 90.9407 7.99301 90.9407 7.99303 90.9405C7.99305 90.9404 7.99307 90.9402 7.99311 90.9398C7.99318 90.9392 7.99329 90.9383 7.99344 90.937C7.99374 90.9345 7.9942 90.9307 7.9948 90.9256C7.99602 90.9155 7.99783 90.9002 8.00025 90.8801C8.00507 90.8398 8.01227 90.7798 8.02173 90.7013C8.04066 90.5443 8.06867 90.3132 8.10491 90.0173C8.17739 89.4255 8.28279 88.5745 8.41437 87.5387C8.67758 85.4667 9.04536 82.6567 9.46386 79.7029C9.88255 76.7478 10.3511 73.6552 10.8156 71.016C11.2851 68.3489 11.7375 66.2243 12.1135 65.1541L10.2265 64.4912C9.7875 65.7409 9.31113 68.0264 8.84592 70.6693C8.3758 73.3401 7.9037 76.4575 7.48364 79.4224C7.06338 82.3886 6.6943 85.2086 6.43032 87.2866C6.29831 88.3258 6.19253 89.1798 6.11974 89.7742C6.08334 90.0714 6.05519 90.3038 6.03612 90.4619C6.02658 90.541 6.01932 90.6015 6.01443 90.6423C6.01198 90.6628 6.01013 90.6783 6.00889 90.6887C6.00827 90.6939 6.0078 90.6978 6.00748 90.7005C6.00732 90.7018 6.0072 90.7028 6.00712 90.7035C6.00708 90.7038 6.00705 90.7041 6.00703 90.7043C6.00701 90.7045 6.007 90.7046 7 90.8226ZM70.64 89.8226H7V91.8226H70.64V89.8226ZM65.5448 65.1493C65.9145 66.219 66.3622 68.344 66.8284 71.0106C67.2898 73.6498 67.7568 76.743 68.1749 79.6989C68.5928 82.6535 68.9609 85.4646 69.2246 87.5374C69.3564 88.5737 69.4621 89.4251 69.5348 90.0172C69.5711 90.3133 69.5992 90.5445 69.6182 90.7016C69.6277 90.7801 69.6349 90.8401 69.6398 90.8805C69.6422 90.9006 69.644 90.9158 69.6452 90.926C69.6458 90.9311 69.6463 90.9349 69.6466 90.9374C69.6468 90.9387 69.6469 90.9396 69.6469 90.9402C69.647 90.9406 69.647 90.9408 69.647 90.9409C69.647 90.9411 69.647 90.9411 70.64 90.8226C71.633 90.7042 71.6329 90.704 71.6329 90.7039C71.6329 90.7037 71.6329 90.7034 71.6328 90.7031C71.6327 90.7024 71.6326 90.7014 71.6325 90.7001C71.6322 90.6974 71.6317 90.6935 71.6311 90.6883C71.6298 90.6778 71.628 90.6624 71.6255 90.6419C71.6206 90.6011 71.6133 90.5405 71.6037 90.4614C71.5846 90.3032 71.5564 90.0708 71.5199 89.7735C71.4468 89.1789 71.3408 88.3246 71.2086 87.285C70.9441 85.2063 70.5747 82.3855 70.1551 79.4188C69.7357 76.4535 69.2652 73.3361 68.7985 70.6662C68.3365 68.0237 67.8655 65.7413 67.4352 64.496L65.5448 65.1493ZM53.2541 60.1144C56.0271 60.7876 58.9661 61.5116 61.3345 62.398C62.5182 62.8409 63.5147 63.3085 64.2588 63.8041C65.0171 64.3093 65.4069 64.7733 65.551 65.1666L67.429 64.4787C67.0731 63.507 66.2779 62.746 65.3675 62.1396C64.4428 61.5236 63.2868 60.9931 62.0355 60.5248C59.5339 59.5887 56.4729 58.8377 53.7259 58.1709L53.2541 60.1144ZM52.071 59.8361L53.261 60.1161L53.719 58.1692L52.529 57.8892L52.071 59.8361ZM46.5819 58.2603C47.9243 58.805 49.9305 59.3122 52.0622 59.834L52.5378 57.8913C50.3605 57.3584 48.5126 56.8853 47.3338 56.407L46.5819 58.2603Z" fill="black" mask="url(#path-4-inside-1_2926_4001)"/>
<path d="M44.7301 50.3626C40.7801 52.4726 35.1501 52.2826 32.5901 52.0626C33.0926 49.7275 33.3109 47.3402 33.2401 44.9526H44.3901C44.3471 46.7624 44.4608 48.5725 44.7301 50.3626Z" fill="#221727"/>
<path d="M26.8251 33.4548L26.8252 33.455L26.8252 33.4552L26.8252 33.4552L26.8464 33.5394L26.895 33.6117C27.1363 33.9708 27.2848 34.5342 27.3438 35.2419C27.4017 35.9371 27.369 36.7122 27.2962 37.446C27.2237 38.1775 27.1128 38.8544 27.0197 39.3492C26.9915 39.4994 26.9649 39.6325 26.9417 39.7448C25.0881 39.5591 23.437 37.973 22.5569 36.0257C22.0928 34.9988 21.8718 33.925 21.9449 32.9966C22.0175 32.074 22.3745 31.3276 23.0374 30.862C23.7618 30.3531 24.3011 30.3056 24.7029 30.4182C25.1297 30.5378 25.5139 30.869 25.8483 31.3284C26.1788 31.7825 26.4247 32.3127 26.5893 32.7404C26.6708 32.9521 26.7306 33.1338 26.7697 33.2616C26.7892 33.3253 26.8035 33.3753 26.8127 33.4086L26.8227 33.4455L26.8248 33.4537L26.8251 33.4548Z" fill="white" stroke="black"/>
<path d="M23.8801 32.8626C24.545 33.1689 25.1175 33.6448 25.5401 34.2426C26.0414 34.7643 26.4236 35.3887 26.6601 36.0726C26.7201 36.2826 26.4301 36.3725 26.3001 36.2325C25.9601 35.8325 25.7001 35.3625 25.3901 34.9425C25.128 35.2087 24.8055 35.4077 24.4501 35.5225C24.1601 35.5925 24.0001 35.2325 24.1401 35.0225C24.3569 34.7635 24.6307 34.5582 24.9401 34.4226C24.4706 34.049 24.0325 33.6376 23.6301 33.1925C23.6054 33.1546 23.593 33.1099 23.5946 33.0647C23.5962 33.0194 23.6118 32.9758 23.6391 32.9397C23.6665 32.9036 23.7043 32.8768 23.7474 32.863C23.7905 32.8492 23.8369 32.849 23.8801 32.8626V32.8626Z" fill="black"/>
<path d="M50.9961 33.6102L51.0436 33.5388L51.0646 33.4561L51.0646 33.456L51.0646 33.4559L51.0647 33.4557L51.065 33.4546L51.0672 33.4464L51.0772 33.4095C51.0865 33.3762 51.1009 33.3261 51.1205 33.2624C51.1599 33.1346 51.22 32.9529 51.3018 32.7412C51.4673 32.3133 51.714 31.783 52.0453 31.3287C52.3804 30.8691 52.765 30.5378 53.1915 30.4182C53.5926 30.3056 54.1304 30.3531 54.852 30.8616C55.5126 31.327 55.8687 32.0733 55.9411 32.9965C56.0139 33.9251 55.7934 34.9991 55.3304 36.0261C54.4526 37.9735 52.8062 39.5586 50.9582 39.7447C50.935 39.6324 50.9084 39.4993 50.8801 39.349C50.7869 38.8542 50.6757 38.1772 50.6025 37.4456C50.5291 36.7117 50.4955 35.9364 50.5521 35.2409C50.6098 34.5329 50.7567 33.9693 50.9961 33.6102Z" fill="white" stroke="black"/>
<path d="M54.02 32.8628C53.3552 33.1691 52.7826 33.645 52.36 34.2428C51.8566 34.7647 51.4712 35.3888 51.23 36.0728C51.17 36.2828 51.47 36.3728 51.59 36.2328C51.93 35.8328 52.19 35.3628 52.5 34.9428C52.7798 35.2163 53.1236 35.4157 53.5 35.5228C53.78 35.5928 53.94 35.2328 53.8 35.0228C53.5868 34.7642 53.3163 34.5588 53.01 34.4228C53.4765 34.0493 53.9113 33.6379 54.31 33.1928C54.3538 33.1543 54.3805 33.1 54.3842 33.0419C54.388 32.9838 54.3685 32.9265 54.33 32.8828C54.2916 32.839 54.2373 32.8123 54.1791 32.8086C54.121 32.8048 54.0638 32.8243 54.02 32.8628Z" fill="black"/>
<path d="M38.7829 14.8907L38.7834 14.8908L38.7837 14.8908L38.7837 14.8908L38.8299 14.8952L38.8761 14.8908L38.8762 14.8908L38.8764 14.8908L38.8769 14.8907L38.8789 14.8906L38.895 14.8893C38.9103 14.8882 38.9346 14.8866 38.9675 14.8849C39.0333 14.8816 39.1333 14.8781 39.2633 14.8779C39.5234 14.8776 39.9027 14.8908 40.3682 14.9457C41.3002 15.0557 42.5709 15.332 43.9217 15.9966C46.5999 17.3144 49.6697 20.196 50.9904 26.5546L51.4799 26.4529L50.9915 26.56C52.0269 31.2833 51.6349 36.2077 49.8655 40.7077C48.1316 44.9918 44.8985 49.3929 38.8299 49.3929C32.7622 49.3929 29.5186 44.953 27.7941 40.7072C26.0215 36.2082 25.6261 31.2838 26.6584 26.5597L26.6594 26.555C27.9849 20.1963 31.0572 17.3145 33.7368 15.9966C35.0882 15.332 36.3593 15.0557 37.2914 14.9457C37.7571 14.8908 38.1364 14.8776 38.3965 14.8779C38.5265 14.8781 38.6265 14.8816 38.6923 14.8849C38.7252 14.8866 38.7496 14.8882 38.7648 14.8893L38.7809 14.8906L38.7829 14.8907Z" fill="white" stroke="black"/>
<path d="M32.8499 31.9326C32.8499 31.9326 31.7499 32.3426 31.9099 30.3826C32.0599 28.6226 32.8499 28.8626 32.8499 28.8626C32.8499 28.8626 33.6199 28.8626 33.4999 30.3926C33.3799 31.9226 32.8499 31.9326 32.8499 31.9326Z" fill="#3B2645"/>
<path d="M44.12 31.9326C44.12 31.9326 43.02 32.3426 43.19 30.3826C43.34 28.6226 44.12 28.8626 44.12 28.8626C44.12 28.8626 44.89 28.8626 44.77 30.3926C44.65 31.9226 44.12 31.9326 44.12 31.9326Z" fill="#3B2645"/>
<path d="M41.24 40.643C40.3584 41.0501 39.432 41.3522 38.48 41.543C37.55 41.603 36.74 41.133 35.86 41.143C35.8355 41.1432 35.8115 41.1498 35.7904 41.1622C35.7693 41.1746 35.7518 41.1923 35.7396 41.2135C35.7275 41.2348 35.7211 41.2588 35.7212 41.2833C35.7212 41.3078 35.7277 41.3318 35.74 41.353C36.74 42.933 40.57 42.443 41.46 40.943C41.4768 40.9086 41.4839 40.8702 41.4805 40.832C41.4771 40.7939 41.4634 40.7573 41.4407 40.7264C41.418 40.6955 41.3873 40.6714 41.352 40.6567C41.3166 40.642 41.2779 40.6373 41.24 40.643V40.643Z" fill="black"/>
<path d="M34.48 25.9627C33.9186 25.6054 33.2507 25.4534 32.59 25.5328C31.99 25.5328 31.14 25.5328 30.75 26.0328C30.7373 26.0465 30.7284 26.0633 30.724 26.0815C30.7196 26.0996 30.72 26.1186 30.725 26.1366C30.73 26.1547 30.7395 26.1711 30.7526 26.1844C30.7657 26.1977 30.782 26.2075 30.8 26.2127C31.3533 26.2841 31.9147 26.2604 32.46 26.1427C33.0867 26.2275 33.7177 26.2776 34.35 26.2928C34.53 26.2728 34.67 26.0827 34.48 25.9627Z" fill="#3B2645"/>
<path d="M45.96 25.7326C45.7797 25.4702 45.5261 25.2667 45.2309 25.1475C44.9357 25.0284 44.6119 24.9988 44.3 25.0626C43.7 25.1226 42.7899 25.2926 42.4699 25.8626C42.4584 25.8833 42.4517 25.9062 42.4501 25.9297C42.4485 25.9533 42.4521 25.9769 42.4607 25.9989C42.4693 26.0209 42.4827 26.0407 42.4998 26.0569C42.517 26.0731 42.5375 26.0853 42.5599 26.0926C43.0399 26.2226 43.4599 25.9326 43.9399 25.8426C44.5382 25.7619 45.1472 25.8341 45.71 26.0526C45.7518 26.0641 45.7962 26.063 45.8374 26.0493C45.8786 26.0357 45.9148 26.0101 45.9416 25.9759C45.9683 25.9417 45.9843 25.9004 45.9876 25.8571C45.9909 25.8138 45.9812 25.7705 45.96 25.7326V25.7326Z" fill="#3B2645"/>
<path d="M38.55 37.0229C38.05 36.9129 36.88 36.9329 36.69 36.5429C36.5 36.1529 37.44 34.2329 37.54 33.7929C37.981 32.2707 38.0968 30.6728 37.88 29.1029C37.8739 29.0853 37.8624 29.07 37.8472 29.0591C37.832 29.0483 37.8137 29.0425 37.795 29.0425C37.7764 29.0425 37.7581 29.0483 37.7429 29.0591C37.7277 29.07 37.7162 29.0853 37.71 29.1029C37.4 30.4029 37.39 31.7529 37.11 33.1029C36.83 34.4529 36.36 35.6729 35.95 36.9729C35.9407 37.009 35.9399 37.0468 35.9477 37.0832C35.9555 37.1197 35.9717 37.1538 35.995 37.1829C36.0183 37.2121 36.048 37.2354 36.0819 37.251C36.1157 37.2666 36.1528 37.2741 36.19 37.2729C36.9696 37.4228 37.7705 37.4228 38.55 37.2729C38.5772 37.2651 38.6011 37.2487 38.6181 37.2262C38.6351 37.2036 38.6443 37.1762 38.6443 37.1479C38.6443 37.1196 38.6351 37.0922 38.6181 37.0696C38.6011 37.0471 38.5772 37.0307 38.55 37.0229V37.0229Z" fill="black"/>
<path d="M61.3499 90.823H16.8199C14.3899 83.563 18.06 77.033 18.06 77.033H19.89L24.27 59.103L25.4399 58.833L21 77.033H56.7499L52.3 58.853L53.49 59.133L57.86 77.033H60.02C61.9271 81.369 62.3932 86.2024 61.3499 90.823V90.823Z" fill="#9669A4"/>
<path d="M25.61 30.3428C25.61 30.3428 26.68 25.0528 30.06 22.8428C33.44 20.6328 36.81 15.1828 36.81 15.1828C36.81 15.1828 39.48 19.4529 44.22 19.6329C48.96 19.8129 52.03 30.8929 52.03 30.8929L55.23 25.0528L46.96 12.6729H35.72L25.61 17.3529C25.61 17.3529 23.48 28.2328 25.61 30.3428Z" fill="#3B2645"/>
<path d="M8.56999 70.5229C8.56999 70.5229 42.18 72.9829 69.2 70.5229C69.2 70.5229 70.39 78.5229 70.64 82.5229C70.64 82.5229 29.06 85.903 7 81.603L8.56999 70.5229Z" fill="#B881C9"/>
<path d="M48.8 16.3628C48.13 16.9228 47.48 17.5228 46.87 18.1428C46.2577 18.6605 45.7806 19.3195 45.4799 20.0628C45.4645 20.1364 45.4701 20.2128 45.4961 20.2833C45.5222 20.3538 45.5675 20.4156 45.627 20.4615C45.6865 20.5074 45.7577 20.5356 45.8325 20.543C45.9073 20.5503 45.9827 20.5364 46.05 20.5028C46.7293 20.0861 47.3342 19.5588 47.8399 18.9428C48.4346 18.3549 49.0588 17.7975 49.71 17.2728C50.35 16.7528 49.48 15.8328 48.8 16.3628Z" fill="#B881C9"/>
<path d="M48.8101 18.9826C48.0624 19.6095 47.4789 20.4093 47.1101 21.3126C47.0982 21.3596 47.0988 21.4088 47.1116 21.4555C47.1245 21.5023 47.1493 21.5448 47.1836 21.5791C47.2178 21.6134 47.2604 21.6381 47.3071 21.651C47.3538 21.6639 47.4031 21.6645 47.4501 21.6526C48.3275 21.2405 49.0874 20.6147 49.6601 19.8326C50.2001 19.2726 49.3401 18.4526 48.8101 18.9826Z" fill="#B881C9"/>
</g>
</svg>
