<svg width="78" height="78" viewBox="0 0 78 78" fill="none" xmlns="http://www.w3.org/2000/svg">
<path d="M77.5 39C77.5 60.263 60.263 77.5 39 77.5C17.737 77.5 0.5 60.263 0.5 39C0.5 17.737 17.737 0.5 39 0.5C60.263 0.5 77.5 17.737 77.5 39Z" fill="#EAE4FC" stroke="black"/>
<mask id="mask0_2926_4000" style="mask-type:alpha" maskUnits="userSpaceOnUse" x="0" y="0" width="78" height="78">
<path d="M77.5 39C77.5 60.263 60.263 77.5 39 77.5C17.737 77.5 0.5 60.263 0.5 39C0.5 17.737 17.737 0.5 39 0.5C60.263 0.5 77.5 17.737 77.5 39Z" fill="#EAE4FC" stroke="black"/>
</mask>
<g mask="url(#mask0_2926_4000)">
<path d="M23.8827 50.6164C23.5002 50.5488 23.1088 50.5488 22.7262 50.6164C21.8858 50.63 21.0674 50.3479 20.4139 49.8194C19.7603 49.291 19.3133 48.5497 19.1507 47.7251C19.0254 46.9348 19.1507 45.9903 18.5339 45.4603C18.1484 45.1133 17.5701 45.0651 17.175 44.7278C15.8257 43.6099 17.9171 41.345 17.175 39.7548C16.8762 39.0802 16.1341 38.714 15.7293 38.1068C14.7656 36.7094 15.8643 35.071 16.2787 33.7025C16.8377 31.8521 15.9221 31.0714 15.9318 29.3078C15.9414 27.5441 17.387 26.3201 17.6761 24.6817C17.9653 23.0433 17.0208 21.0773 17.8689 19.5642C18.1484 19.063 18.6014 18.6679 18.8905 18.1668C19.729 16.7211 19.0543 14.6298 20.1915 13.348C20.9625 12.5095 22.2732 12.3842 23.0828 11.6614C23.8923 10.9386 24.0466 9.98447 24.8561 9.39658C26.0126 8.50993 27.7474 9.00144 29.0099 8.24008C29.6036 7.76814 30.1262 7.2131 30.5615 6.59207C30.7849 6.28641 31.0857 6.04581 31.433 5.89504C31.7803 5.74428 32.1614 5.68881 32.5372 5.73432C33.048 5.86925 33.4335 6.31257 33.9347 6.46677C35.4574 6.92938 36.8259 4.67419 38.3294 5.04042C38.8087 5.22353 39.2547 5.48397 39.6497 5.81141C40.1467 6.13048 40.7115 6.3289 41.2988 6.39082C41.8862 6.45273 42.4799 6.37644 43.0325 6.16801C43.6493 5.92707 44.3432 5.51265 44.96 5.83069C45.3744 6.05236 45.5479 6.56315 45.9238 6.86192C46.8008 7.58473 48.3524 6.86191 49.162 7.65219C49.4415 7.94131 49.5572 8.35573 49.8463 8.61594C50.6269 9.39658 52.034 8.72196 53.0363 9.1942C53.7206 9.53151 54.0675 10.3411 54.7518 10.688C55.4361 11.035 56.6793 10.7458 57.4021 11.247C58.6454 12.0469 57.9129 13.7913 58.202 14.9574C58.7032 16.885 60.727 16.0465 61.0933 17.7813C61.178 18.5352 61.1324 19.298 60.9584 20.0364C60.8701 20.4034 60.8659 20.7855 60.946 21.1543C61.0261 21.5231 61.1885 21.8691 61.421 22.1663C61.6812 22.4362 62.0378 22.6 62.2691 22.8891C63.2328 24.1035 61.3053 26.0406 62.1052 27.3706C62.4425 27.9296 63.1943 28.1802 63.416 28.7873C63.8207 29.8957 62.1823 31.0329 62.6642 32.1123C62.8088 32.44 63.1364 32.6616 63.3099 32.9797C64.1002 34.3964 61.951 35.6589 61.9896 37.0467C62.0281 38.4345 63.6087 39.3597 62.4811 40.9595C61.9028 41.7691 60.7464 42.0486 60.2356 42.8871C59.5224 44.0532 60.332 45.7012 59.6284 46.8674C58.6647 48.525 56.2456 47.7733 55.1662 49.3442C54.5398 50.308 54.8 50.8573 53.4893 51.2717C52.5255 51.609 51.3979 51.1464 50.4727 51.744C49.5475 52.3415 49.0078 54.1919 47.7838 54.0666C46.7237 53.951 46.1262 52.3222 45.0757 52.5535C44.4685 52.6884 44.1891 53.4016 43.6686 53.7486C42.782 54.3461 41.5966 53.6811 40.7774 52.9679C39.9582 52.2548 39.0715 51.3874 38.021 51.5898C36.9705 51.7921 36.267 53.18 35.1297 53.4498C33.9925 53.7197 32.7685 52.6017 31.5156 52.38C30.4551 52.3473 29.4018 52.5653 28.4413 53.0161C27.9596 53.2369 27.4277 53.3247 26.9006 53.2705C26.3736 53.2163 25.8706 53.0219 25.444 52.7077C24.8947 52.1102 24.7597 50.9633 23.8827 50.6164Z" fill="#3B2645"/>
<path d="M24.5381 33.8086C24.5381 33.8086 22.0613 28.2959 23.9309 22.7254C24.5002 20.9705 25.7406 19.5119 27.3812 18.668C27.7743 18.4683 28.1976 18.3348 28.6341 18.2729C28.6341 18.2729 26.9764 15.1407 33.183 12.3747C39.3896 9.60873 49.3452 11.0351 53.5953 19.3426C57.8455 27.6502 52.9882 38.5117 51.4172 40.1501C49.8463 41.7885 27.7089 40.7958 24.5381 33.8086Z" fill="#3B2645"/>
<mask id="path-5-inside-1_2926_4000" fill="white">
<path fill-rule="evenodd" clip-rule="evenodd" d="M46.5067 59.7261L46.5116 59.7238L46.502 59.7045C46.0769 59.0015 45.728 58.2552 45.4611 57.4782C44.9468 56.0285 44.5819 54.5302 44.372 53.0064C44.1029 51.2822 43.9932 49.5368 44.0443 47.7925H33.2889C33.3651 50.0932 33.1579 52.3946 32.6721 54.6448C32.479 55.5603 32.2247 56.4619 31.9107 57.3433C31.6476 58.1642 31.2868 58.9504 30.8359 59.685C30.8152 59.6918 30.7944 59.6983 30.7735 59.7047C29.3853 60.268 27.1706 60.8044 24.7368 61.394C21.3412 62.2164 17.519 63.1423 14.9198 64.3885C13.4645 65.121 12.3754 65.9691 12.0285 66.9328C11.3564 69.3025 10.8413 71.7139 10.4864 74.1514C9.21429 81.7554 8 92.0001 8 92.0001H69.3622C69.3622 92.0001 67.9359 80.2423 66.5288 72.5997C66.2308 70.6982 65.809 68.8181 65.2663 66.9714C64.6807 65.8471 63.7036 64.9762 62.5196 64.5235C59.9122 63.1998 55.9369 62.2342 52.4312 61.3826C50.0461 60.8033 47.8783 60.2767 46.5067 59.7261Z"/>
</mask>
<path fill-rule="evenodd" clip-rule="evenodd" d="M46.5067 59.7261L46.5116 59.7238L46.502 59.7045C46.0769 59.0015 45.728 58.2552 45.4611 57.4782C44.9468 56.0285 44.5819 54.5302 44.372 53.0064C44.1029 51.2822 43.9932 49.5368 44.0443 47.7925H33.2889C33.3651 50.0932 33.1579 52.3946 32.6721 54.6448C32.479 55.5603 32.2247 56.4619 31.9107 57.3433C31.6476 58.1642 31.2868 58.9504 30.8359 59.685C30.8152 59.6918 30.7944 59.6983 30.7735 59.7047C29.3853 60.268 27.1706 60.8044 24.7368 61.394C21.3412 62.2164 17.519 63.1423 14.9198 64.3885C13.4645 65.121 12.3754 65.9691 12.0285 66.9328C11.3564 69.3025 10.8413 71.7139 10.4864 74.1514C9.21429 81.7554 8 92.0001 8 92.0001H69.3622C69.3622 92.0001 67.9359 80.2423 66.5288 72.5997C66.2308 70.6982 65.809 68.8181 65.2663 66.9714C64.6807 65.8471 63.7036 64.9762 62.5196 64.5235C59.9122 63.1998 55.9369 62.2342 52.4312 61.3826C50.0461 60.8033 47.8783 60.2767 46.5067 59.7261Z" fill="white"/>
<path d="M46.5116 59.7238L46.9526 60.6212L47.8547 60.1779L47.4068 59.2781L46.5116 59.7238ZM46.5067 59.7261L46.0656 58.8287L44.052 59.8183L46.1342 60.6541L46.5067 59.7261ZM46.502 59.7045L47.3972 59.2588L47.3789 59.2222L47.3577 59.1871L46.502 59.7045ZM45.4611 57.4782L46.4069 57.1533L46.4036 57.1439L45.4611 57.4782ZM44.372 53.0064L45.3627 52.8699L45.3615 52.861L45.3601 52.8522L44.372 53.0064ZM44.0443 47.7925L45.0439 47.8218L45.0741 46.7925H44.0443V47.7925ZM33.2889 47.7925V46.7925H32.2552L32.2894 47.8256L33.2889 47.7925ZM32.6721 54.6448L31.6946 54.4337L31.6936 54.4385L32.6721 54.6448ZM31.9107 57.3433L30.9687 57.0077L30.9633 57.0228L30.9584 57.0381L31.9107 57.3433ZM30.8359 59.685L31.1466 60.6355L31.496 60.5213L31.6882 60.2081L30.8359 59.685ZM30.7735 59.7047L30.4827 58.7479L30.4394 58.7611L30.3975 58.7781L30.7735 59.7047ZM24.7368 61.394L24.9722 62.3659L24.9722 62.3659L24.7368 61.394ZM14.9198 64.3885L14.4874 63.4868L14.4787 63.491L14.4702 63.4953L14.9198 64.3885ZM12.0285 66.9328L11.0876 66.5941L11.0759 66.6267L11.0664 66.66L12.0285 66.9328ZM10.4864 74.1514L11.4727 74.3164L11.4745 74.3059L11.476 74.2954L10.4864 74.1514ZM8 92.0001L7.00695 91.8824L6.87447 93.0001H8V92.0001ZM69.3622 92.0001V93.0001H70.4909L70.355 91.8797L69.3622 92.0001ZM66.5288 72.5997L65.5409 72.7545L65.5429 72.7677L65.5453 72.7808L66.5288 72.5997ZM65.2663 66.9714L66.2257 66.6894L66.1982 66.5959L66.1532 66.5095L65.2663 66.9714ZM62.5196 64.5235L62.0669 65.4151L62.1136 65.4388L62.1624 65.4575L62.5196 64.5235ZM52.4312 61.3826L52.1952 62.3544L52.1952 62.3544L52.4312 61.3826ZM46.0705 58.8263L46.0656 58.8287L46.9478 60.6236L46.9526 60.6212L46.0705 58.8263ZM45.6068 60.1501L45.6163 60.1694L47.4068 59.2781L47.3972 59.2588L45.6068 60.1501ZM44.5153 57.8031C44.8053 58.6472 45.1844 59.4581 45.6462 60.2219L47.3577 59.1871C46.9694 58.5449 46.6507 57.8631 46.4068 57.1533L44.5153 57.8031ZM43.3814 53.1428C43.6006 54.734 43.9816 56.2987 44.5186 57.8125L46.4036 57.1439C45.9121 55.7584 45.5633 54.3263 45.3627 52.8699L43.3814 53.1428ZM43.0448 47.7632C42.9918 49.5689 43.1054 51.3757 43.384 53.1606L45.3601 52.8522C45.1004 51.1886 44.9946 49.5047 45.0439 47.8218L43.0448 47.7632ZM33.2889 48.7925H44.0443V46.7925H33.2889V48.7925ZM33.6495 54.8558C34.1527 52.5255 34.3672 50.1421 34.2883 47.7594L32.2894 47.8256C32.3629 50.0444 32.1631 52.2637 31.6946 54.4337L33.6495 54.8558ZM32.8527 57.6788C33.1817 56.7552 33.4483 55.8105 33.6505 54.8511L31.6936 54.4385C31.5098 55.3102 31.2676 56.1685 30.9687 57.0077L32.8527 57.6788ZM31.6882 60.2081C32.181 59.4051 32.5755 58.5458 32.863 57.6484L30.9584 57.0381C30.7198 57.7826 30.3925 58.4957 29.9836 59.1619L31.6882 60.2081ZM31.0644 60.6615C31.092 60.6531 31.1194 60.6444 31.1466 60.6355L30.5252 58.7345C30.511 58.7392 30.4968 58.7436 30.4827 58.7479L31.0644 60.6615ZM24.9722 62.3659C27.3712 61.7848 29.6755 61.2295 31.1495 60.6313L30.3975 58.7781C29.0952 59.3065 26.9701 59.8241 24.5014 60.4221L24.9722 62.3659ZM15.3521 65.2902C17.8352 64.0996 21.5389 63.1975 24.9722 62.3659L24.5014 60.4221C21.1434 61.2354 17.2027 62.1849 14.4874 63.4868L15.3521 65.2902ZM12.9694 67.2716C13.0632 67.011 13.2862 66.6938 13.7072 66.335C14.1236 65.9801 14.6846 65.6264 15.3693 65.2818L14.4702 63.4953C13.6996 63.8831 12.9885 64.3197 12.4098 64.8129C11.8357 65.3022 11.3408 65.8909 11.0876 66.5941L12.9694 67.2716ZM11.476 74.2954C11.8245 71.9015 12.3305 69.5331 12.9905 67.2057L11.0664 66.66C10.3824 69.0719 9.85802 71.5264 9.49687 74.0073L11.476 74.2954ZM8 92.0001C8.99305 92.1178 8.99305 92.1178 8.99306 92.1177C8.99307 92.1176 8.99308 92.1175 8.9931 92.1174C8.99313 92.1171 8.99318 92.1167 8.99325 92.1161C8.9934 92.1149 8.99361 92.1131 8.9939 92.1106C8.99448 92.1058 8.99535 92.0985 8.9965 92.0887C8.99882 92.0693 9.00228 92.0403 9.00686 92.002C9.01602 91.9256 9.02963 91.8122 9.04742 91.6652C9.08301 91.371 9.13529 90.9421 9.20202 90.4035C9.33549 89.3263 9.5267 87.8106 9.7576 86.0578C10.2197 82.5499 10.8395 78.1012 11.4727 74.3164L9.50015 73.9864C8.8612 77.8056 8.23781 82.2812 7.77473 85.7966C7.54303 87.5555 7.35116 89.0763 7.2172 90.1576C7.15021 90.6983 7.09769 91.1291 7.0619 91.4249C7.044 91.5729 7.03029 91.687 7.02104 91.7643C7.01641 91.803 7.0129 91.8324 7.01054 91.8522C7.00936 91.8621 7.00847 91.8696 7.00787 91.8747C7.00757 91.8772 7.00734 91.8791 7.00719 91.8804C7.00711 91.881 7.00705 91.8815 7.00702 91.8819C7.007 91.882 7.00698 91.8822 7.00697 91.8822C7.00696 91.8823 7.00695 91.8824 8 92.0001ZM69.3622 91.0001H8V93.0001H69.3622V91.0001ZM65.5453 72.7808C66.2445 76.5784 66.9503 81.4097 67.4824 85.3013C67.7481 87.2451 67.97 88.9505 68.1254 90.17C68.2031 90.7796 68.2642 91.2677 68.3058 91.6031C68.3266 91.7708 68.3426 91.9004 68.3533 91.9879C68.3587 92.0317 68.3627 92.0649 68.3655 92.0872C68.3668 92.0983 68.3678 92.1067 68.3685 92.1123C68.3689 92.1151 68.3691 92.1172 68.3693 92.1185C68.3694 92.1192 68.3694 92.1197 68.3695 92.1201C68.3695 92.1202 68.3695 92.1203 68.3695 92.1204C68.3695 92.1205 68.3695 92.1205 69.3622 92.0001C70.355 91.8797 70.355 91.8796 70.3549 91.8795C70.3549 91.8794 70.3549 91.8792 70.3549 91.8791C70.3548 91.8787 70.3548 91.8781 70.3547 91.8774C70.3545 91.8759 70.3542 91.8737 70.3539 91.8708C70.3532 91.865 70.3521 91.8564 70.3507 91.8451C70.348 91.8224 70.3439 91.7887 70.3384 91.7445C70.3276 91.656 70.3115 91.5255 70.2906 91.3568C70.2487 91.0194 70.1874 90.5291 70.1094 89.9171C69.9534 88.6931 69.7307 86.9814 69.464 85.0304C68.931 81.1325 68.2202 76.2636 67.5123 72.4186L65.5453 72.7808ZM64.3069 67.2534C64.8374 69.0583 65.2496 70.8959 65.5409 72.7545L67.5167 72.4449C67.212 70.5004 66.7807 68.5778 66.2257 66.6894L64.3069 67.2534ZM62.1624 65.4575C63.1181 65.8229 63.9067 66.5258 64.3794 67.4333L66.1532 66.5095C65.4547 65.1683 64.2892 64.1295 62.8768 63.5894L62.1624 65.4575ZM52.1952 62.3544C55.7444 63.2165 59.5869 64.1561 62.0669 65.4151L62.9723 63.6318C60.2375 62.2435 56.1294 61.2519 52.6673 60.4109L52.1952 62.3544ZM46.1342 60.6541C47.5892 61.2382 49.8435 61.7831 52.1952 62.3544L52.6673 60.4109C50.2487 59.8234 48.1675 59.3152 46.8793 58.7981L46.1342 60.6541Z" fill="black" mask="url(#path-5-inside-1_2926_4000)"/>
<path d="M44.3719 53.0064C40.5169 55.0399 35.1294 54.8568 32.6719 54.6448C33.1524 52.3938 33.3595 50.0931 33.2887 47.7925H44.0442C43.993 49.5368 44.1028 51.2822 44.3719 53.0064V53.0064Z" fill="#221727"/>
<path d="M27.0987 36.7168L27.0988 36.717L27.0989 36.7172L27.0989 36.7172L27.1191 36.7969L27.1641 36.8662C27.3958 37.2232 27.5369 37.7711 27.5922 38.4519C27.6467 39.1215 27.6143 39.8641 27.5437 40.5664C27.4733 41.2664 27.3662 41.9131 27.2765 42.3869C27.2503 42.5251 27.2256 42.6484 27.2038 42.7537C25.4386 42.5672 23.8637 41.0501 23.0217 39.1822C22.5765 38.1945 22.3649 37.1625 22.4347 36.2712C22.5042 35.3854 22.8456 34.6717 23.4767 34.2271C24.1689 33.7394 24.6816 33.6958 25.0617 33.8024C25.4672 33.9161 25.8348 34.2318 26.1566 34.6731C26.4746 35.1092 26.7117 35.6187 26.8709 36.0303C26.9496 36.2338 27.0074 36.4086 27.0452 36.5314C27.0641 36.5927 27.0779 36.6407 27.0868 36.6727L27.0964 36.708L27.0985 36.7159L27.0987 36.7168Z" fill="white" stroke="black"/>
<path d="M24.2682 36.1404C24.909 36.4356 25.4607 36.8943 25.868 37.4703C26.3499 37.9759 26.7209 38.5767 26.957 39.234C26.957 39.4268 26.7258 39.5231 26.6101 39.3786C26.2824 38.9931 26.0318 38.5497 25.7234 38.145C25.4699 38.4003 25.1595 38.5919 24.8175 38.7039C24.5477 38.7714 24.3838 38.4245 24.5284 38.2221C24.7339 37.9729 24.9946 37.7749 25.2898 37.6438C24.8522 37.2979 24.4429 36.9176 24.0658 36.5066C24.0172 36.4797 23.9813 36.4347 23.966 36.3814C23.9506 36.3281 23.957 36.2708 23.9838 36.2223C24.0107 36.1737 24.0558 36.1378 24.1091 36.1224C24.1624 36.1071 24.2196 36.1135 24.2682 36.1404Z" fill="black"/>
<path d="M50.4284 36.8678L50.4745 36.7974L50.4948 36.7163L50.4949 36.7163L50.4949 36.7162L50.495 36.7159L50.4952 36.715L50.4972 36.7071L50.5068 36.6718C50.5156 36.6399 50.5294 36.5918 50.5481 36.5305C50.5857 36.4077 50.6431 36.233 50.7214 36.0294C50.8797 35.6179 51.1157 35.1084 51.4325 34.6725C51.7531 34.2312 52.1195 33.9159 52.5238 33.8023C52.9027 33.6959 53.4147 33.7392 54.1071 34.2271C54.7382 34.6717 55.0796 35.3854 55.1491 36.2712C55.219 37.1625 55.0073 38.1945 54.5621 39.1822C53.7201 41.0501 52.1453 42.5671 50.3801 42.7537C50.3583 42.6484 50.3337 42.5252 50.3076 42.387C50.2179 41.9133 50.1112 41.2667 50.0414 40.5668C49.9713 39.8646 49.9399 39.1222 49.9956 38.4529C50.0522 37.7724 50.1948 37.2247 50.4284 36.8678Z" fill="white" stroke="black"/>
<path d="M53.3158 36.1411C52.675 36.4364 52.1233 36.8951 51.716 37.4711C51.234 37.9767 50.8631 38.5774 50.627 39.2348C50.627 39.4276 50.8582 39.5239 50.9739 39.3794C51.3112 38.9939 51.5522 38.5505 51.8606 38.1458C52.1141 38.4011 52.4246 38.5927 52.7665 38.7047C53.0364 38.7722 53.2002 38.4252 53.0556 38.2229C52.8522 37.9715 52.5909 37.7731 52.2942 37.6446C52.7437 37.2845 53.1628 36.888 53.5472 36.4592C53.5765 36.4246 53.5933 36.3812 53.595 36.3359C53.5967 36.2906 53.5831 36.246 53.5564 36.2093C53.5297 36.1727 53.4915 36.146 53.4479 36.1336C53.4043 36.1213 53.3577 36.1239 53.3158 36.1411V36.1411Z" fill="black"/>
<path d="M38.6305 18.7897L38.6311 18.7898L38.6314 18.7898L38.6314 18.7898L38.6768 18.794L38.7222 18.7897C38.7221 18.7897 38.7221 18.7897 38.7222 18.7897L38.7226 18.7896L38.7231 18.7896L38.7248 18.7894L38.7401 18.7883C38.7547 18.7872 38.778 18.7856 38.8096 18.7841C38.8728 18.7809 38.9688 18.7775 39.0938 18.7773C39.3438 18.7771 39.7087 18.7897 40.1567 18.8426C41.0535 18.9483 42.2764 19.2142 43.5766 19.8536C46.1537 21.1211 49.1113 23.8936 50.3878 30.0167L50.8772 29.9147L50.3888 30.0214C51.3829 34.5711 51.002 39.3136 49.2947 43.6463C47.6349 47.7711 44.5046 52.0051 38.6761 52.0051C32.8497 52.0051 29.7281 47.7359 28.057 43.6453C26.3533 39.312 25.976 34.57 26.973 30.0217L26.973 30.0218L26.9741 30.0166C28.2457 23.9083 31.2008 21.1354 33.7774 19.8642C35.0772 19.2229 36.3 18.9544 37.1968 18.8465C37.6448 18.7926 38.0097 18.7789 38.2597 18.7785C38.3847 18.7783 38.4808 18.7814 38.544 18.7844C38.5756 18.7859 38.5989 18.7874 38.6135 18.7884L38.6288 18.7896L38.6305 18.7897Z" fill="white" stroke="black"/>
<path d="M32.913 35.2443C32.913 35.2443 31.8529 35.6394 32.0167 33.7504C32.1613 32.0542 32.913 32.2855 32.913 32.2855C32.913 32.2855 33.6551 32.2855 33.5491 33.7601C33.4431 35.2346 32.913 35.2443 32.913 35.2443Z" fill="#3B2645"/>
<path d="M43.7843 35.2443C43.7843 35.2443 42.7146 35.6394 42.8784 33.7504C43.023 32.0542 43.7843 32.2855 43.7843 32.2855C43.7843 32.2855 44.5167 32.2855 44.4107 33.7601C44.3047 35.2346 43.7843 35.2443 43.7843 35.2443Z" fill="#3B2645"/>
<path d="M40.9989 43.6389C40.1493 44.0313 39.2565 44.3224 38.3389 44.5063C37.4523 44.5063 36.662 44.1112 35.8139 44.1208C35.7903 44.121 35.7672 44.1274 35.7468 44.1393C35.7265 44.1513 35.7096 44.1683 35.6979 44.1888C35.6862 44.2093 35.6801 44.2325 35.6802 44.2561C35.6802 44.2796 35.6864 44.3028 35.6982 44.3232C36.662 45.8363 40.3628 45.3737 41.2205 43.9184C41.2392 43.8851 41.2476 43.8469 41.2446 43.8088C41.2415 43.7706 41.2272 43.7343 41.2035 43.7043C41.1797 43.6744 41.1476 43.6521 41.1111 43.6405C41.0747 43.6289 41.0356 43.6283 40.9989 43.6389Z" fill="black"/>
<path d="M34.5323 29.491C33.9873 29.1473 33.341 29.001 32.7012 29.0765C32.1326 29.0765 31.3134 29.0765 30.9375 29.5584C30.9375 29.6259 30.9375 29.703 30.9375 29.7319C31.4707 29.8007 32.0118 29.7778 32.5373 29.6644C33.1414 29.7457 33.7495 29.794 34.3588 29.809C34.5419 29.7608 34.6672 29.6066 34.5323 29.491Z" fill="#3B2645"/>
<path d="M45.5576 29.2692C45.3814 29.0165 45.1352 28.8207 44.8493 28.7059C44.5634 28.5912 44.2501 28.5626 43.9481 28.6235C43.3699 28.6813 42.4928 28.8452 42.1844 29.3945C42.1735 29.415 42.1673 29.4377 42.1664 29.461C42.1655 29.4842 42.1698 29.5073 42.179 29.5286C42.1883 29.55 42.2023 29.5689 42.2199 29.5841C42.2375 29.5992 42.2584 29.6102 42.2809 29.6162C42.7435 29.7415 43.1482 29.462 43.6012 29.3656C44.1818 29.2957 44.7706 29.3685 45.3166 29.5776C45.357 29.5887 45.3997 29.5876 45.4395 29.5745C45.4792 29.5613 45.5141 29.5367 45.5399 29.5037C45.5656 29.4707 45.5811 29.4309 45.5842 29.3891C45.5874 29.3474 45.5781 29.3057 45.5576 29.2692V29.2692Z" fill="#3B2645"/>
<path d="M38.4066 40.1502C37.9343 40.0441 36.7971 40.0634 36.614 39.6876C36.4309 39.3117 37.3464 37.4516 37.4428 37.0372C37.8649 35.5696 37.9732 34.0295 37.7609 32.5172C37.755 32.5002 37.7438 32.4855 37.7292 32.475C37.7145 32.4646 37.6969 32.459 37.6789 32.459C37.6609 32.459 37.6434 32.4646 37.6287 32.475C37.614 32.4855 37.6029 32.5002 37.597 32.5172C37.3079 33.7701 37.2886 35.0712 37.0284 36.3722C36.7682 37.6733 36.2959 38.8491 35.9104 40.102C35.9016 40.136 35.9007 40.1715 35.9077 40.2059C35.9147 40.2403 35.9295 40.2727 35.9508 40.3005C35.9722 40.3284 35.9996 40.351 36.031 40.3667C36.0624 40.3824 36.097 40.3907 36.1321 40.3911C36.8834 40.5355 37.6553 40.5355 38.4066 40.3911C38.4328 40.3836 38.4558 40.3678 38.4722 40.3461C38.4886 40.3243 38.4975 40.2979 38.4975 40.2706C38.4975 40.2434 38.4886 40.2169 38.4722 40.1952C38.4558 40.1734 38.4328 40.1576 38.4066 40.1502V40.1502Z" fill="black"/>
<path d="M69.3622 92.0002H8C8 92.0002 9.21429 81.7555 10.4864 74.1515C10.8413 71.7141 11.3564 69.3027 12.0285 66.933C12.3754 65.9692 13.4645 65.1211 14.9198 64.3887C19.565 66.6246 29.0098 73.1781 39.216 84.2709C39.216 84.2709 47.2537 73.3227 62.5196 64.4851C63.7036 64.9378 64.6807 65.8087 65.2663 66.933C65.809 68.7797 66.2308 70.6598 66.5288 72.5613C67.9359 80.2424 69.3622 92.0002 69.3622 92.0002Z" fill="#9669A4"/>
<path d="M28.0365 28.7102C28.5376 28.1994 29.2797 27.9584 29.7423 27.4091C30.7061 26.3104 30.1664 24.3636 31.2843 23.4577C31.8433 23.0047 32.6336 22.9758 33.2118 22.6385C34.0599 22.1952 34.5225 21.27 35.1393 20.5472C35.7561 19.8243 36.8837 19.2943 37.6547 19.8629C37.7416 20.4584 38.0376 21.0036 38.4896 21.4008C38.9416 21.7981 39.5202 22.0216 40.1219 22.0313C40.9797 22.0313 41.9242 21.5784 42.6181 22.0313C43.4951 22.6481 43.1385 24.113 43.8324 24.9226C44.7191 25.9442 46.6659 25.2985 47.514 26.349C47.7161 26.6399 47.8601 26.9671 47.938 27.3127C48.6117 29.3242 49.5865 31.2219 50.8293 32.941C50.9931 33.1627 51.0702 33.9048 51.34 33.9048C51.8508 34.0301 52.3905 33.0471 52.67 32.6134C53.9807 30.5413 55.3397 28.3054 55.2336 25.8671C55.1526 24.6356 54.7828 23.4404 54.1542 22.3783C52.1399 18.7546 48.2657 16.4319 44.2275 15.4682C40.1894 14.5044 35.9682 14.7261 31.8433 15.1501C29.9801 15.2274 28.1541 15.697 26.4848 16.5283C25.569 17.074 24.7893 17.821 24.2049 18.7126C23.6204 19.6043 23.2466 20.6172 23.1117 21.6747C22.8322 24.113 23.8538 26.4935 23.8345 28.9993C23.8345 30.0883 24.4899 33.7699 25.9451 33.4518C27.4004 33.1338 27.0631 29.7607 28.0365 28.7102Z" fill="#3B2645"/>
</g>
</svg>
