<svg width="78" height="78" viewBox="0 0 78 78" fill="none" xmlns="http://www.w3.org/2000/svg">
<path d="M77.5 39C77.5 60.263 60.263 77.5 39 77.5C17.737 77.5 0.5 60.263 0.5 39C0.5 17.737 17.737 0.5 39 0.5C60.263 0.5 77.5 17.737 77.5 39Z" fill="#EAE4FC" stroke="black"/>
<mask id="mask0_2926_3999" style="mask-type:alpha" maskUnits="userSpaceOnUse" x="0" y="0" width="78" height="78">
<path d="M77.5 39C77.5 60.263 60.263 77.5 39 77.5C17.737 77.5 0.5 60.263 0.5 39C0.5 17.737 17.737 0.5 39 0.5C60.263 0.5 77.5 17.737 77.5 39Z" fill="#EAE4FC" stroke="black"/>
</mask>
<g mask="url(#mask0_2926_3999)">
<path d="M9.3544 80.2964C9.3544 80.2964 2.3544 66.1464 12.4944 58.2964C18.6844 53.5264 20.6744 48.0364 19.4944 43.2964C18.3144 38.5564 19.7044 25.8064 23.8944 21.1864C28.0844 16.5664 49.6344 12.7464 55.8144 24.3264C61.9944 35.9064 58.6144 44.0264 62.0044 50.7064C65.3944 57.3864 71.1444 59.2364 70.2744 72.0364C69.4044 84.8364 58.3344 93.4164 56.5344 93.1764C54.7344 92.9364 25.6744 90.0864 23.4744 88.8964C21.2744 87.7064 9.3544 80.2964 9.3544 80.2964Z" fill="#3B2645"/>
<path d="M24.2142 34.5864C24.2142 34.5864 21.6443 28.8664 23.5943 23.0864C23.8905 22.1808 24.3628 21.3426 24.984 20.6201C25.6053 19.8976 26.3632 19.305 27.2142 18.8764C27.6251 18.6678 28.0678 18.5292 28.5243 18.4664C28.5243 18.4664 26.7642 15.2464 33.2142 12.3464C39.6642 9.44642 49.9742 10.9564 54.3842 19.5764C58.7942 28.1964 53.7642 39.4664 52.1342 41.1664C50.5042 42.8664 27.5342 41.8364 24.2142 34.5864Z" fill="#3B2645"/>
<mask id="path-5-inside-1_2926_3999" fill="white">
<path fill-rule="evenodd" clip-rule="evenodd" d="M47.0441 61.4764L47.0444 61.4762C45.8424 59.3398 45.084 56.9827 44.8144 54.5462C44.5451 52.7561 44.4314 50.946 44.4744 49.1362H33.3244C33.3952 51.5238 33.1769 53.9111 32.6744 56.2462C32.3355 58.0844 31.687 59.8516 30.7565 61.4726C29.3145 62.0701 26.9719 62.6334 24.3978 63.2524C18.8324 64.5907 12.1846 66.1893 11.2145 68.9567C10.9905 69.686 10.8069 70.4271 10.6645 71.1767C9.08447 78.2467 7.08447 94.9767 7.08447 94.9767H70.7245C70.7245 94.9767 68.8345 79.0667 67.2645 71.7167C67.0849 70.7829 66.8478 69.8612 66.5545 68.9567C65.5801 66.177 58.8774 64.5622 53.295 63.2174C50.7716 62.6094 48.4771 62.0567 47.0441 61.4764Z"/>
</mask>
<path fill-rule="evenodd" clip-rule="evenodd" d="M47.0441 61.4764L47.0444 61.4762C45.8424 59.3398 45.084 56.9827 44.8144 54.5462C44.5451 52.7561 44.4314 50.946 44.4744 49.1362H33.3244C33.3952 51.5238 33.1769 53.9111 32.6744 56.2462C32.3355 58.0844 31.687 59.8516 30.7565 61.4726C29.3145 62.0701 26.9719 62.6334 24.3978 63.2524C18.8324 64.5907 12.1846 66.1893 11.2145 68.9567C10.9905 69.686 10.8069 70.4271 10.6645 71.1767C9.08447 78.2467 7.08447 94.9767 7.08447 94.9767H70.7245C70.7245 94.9767 68.8345 79.0667 67.2645 71.7167C67.0849 70.7829 66.8478 69.8612 66.5545 68.9567C65.5801 66.177 58.8774 64.5622 53.295 63.2174C50.7716 62.6094 48.4771 62.0567 47.0441 61.4764Z" fill="white"/>
<path d="M47.0444 61.4762L47.4853 62.3738L48.4344 61.9075L47.9159 60.9859L47.0444 61.4762ZM47.0441 61.4764L46.6031 60.5789L44.5971 61.5644L46.6687 62.4033L47.0441 61.4764ZM44.8144 54.5462L45.8083 54.4363L45.8062 54.4168L45.8033 54.3975L44.8144 54.5462ZM44.4744 49.1362L45.4741 49.16L45.4985 48.1362H44.4744V49.1362ZM33.3244 49.1362V48.1362H32.2943L32.3248 49.1659L33.3244 49.1362ZM32.6744 56.2462L31.6968 56.0358L31.6937 56.0503L31.691 56.0649L32.6744 56.2462ZM30.7565 61.4726L31.1393 62.3965L31.4541 62.266L31.6237 61.9705L30.7565 61.4726ZM24.3978 63.2524L24.164 62.2801L24.3978 63.2524ZM11.2145 68.9567L10.2708 68.6259L10.2643 68.6444L10.2585 68.6631L11.2145 68.9567ZM10.6645 71.1767L11.6404 71.3948L11.6439 71.3791L11.6469 71.3633L10.6645 71.1767ZM7.08447 94.9767L6.09154 94.858L5.95781 95.9767H7.08447V94.9767ZM70.7245 94.9767V95.9767H71.8503L71.7175 94.8587L70.7245 94.9767ZM67.2645 71.7167L66.2825 71.9056L66.2844 71.9156L66.2865 71.9256L67.2645 71.7167ZM66.5545 68.9567L67.5057 68.6482L67.5021 68.637L67.4982 68.6259L66.5545 68.9567ZM53.295 63.2174L53.5292 62.2452L53.295 63.2174ZM46.6035 60.5787L46.6031 60.5789L47.485 62.3739L47.4853 62.3738L46.6035 60.5787ZM43.8205 54.6562C44.1048 57.2264 44.9049 59.7128 46.1729 61.9666L47.9159 60.9859C46.78 58.9667 46.0631 56.739 45.8083 54.4363L43.8205 54.6562ZM43.4747 49.1125C43.4303 50.9799 43.5477 52.8478 43.8255 54.695L45.8033 54.3975C45.5426 52.6644 45.4325 50.9121 45.4741 49.16L43.4747 49.1125ZM33.3244 50.1362H44.4744V48.1362H33.3244V50.1362ZM33.652 56.4566C34.1715 54.0427 34.3972 51.5747 34.324 49.1066L32.3248 49.1659C32.3932 51.4728 32.1824 53.7795 31.6968 56.0358L33.652 56.4566ZM31.6237 61.9705C32.6106 60.2513 33.2984 58.377 33.6578 56.4275L31.691 56.0649C31.3726 57.7917 30.7634 59.452 29.8892 60.9748L31.6237 61.9705ZM24.6316 64.2247C27.168 63.6148 29.6062 63.0317 31.1393 62.3965L30.3737 60.5488C29.0227 61.1086 26.7758 61.6521 24.164 62.2801L24.6316 64.2247ZM12.1582 69.2875C12.2955 68.8957 12.6824 68.4296 13.4526 67.9202C14.2075 67.4209 15.2225 66.9511 16.4285 66.507C18.8415 65.6184 21.8333 64.8976 24.6316 64.2247L24.164 62.2801C21.3968 62.9455 18.2821 63.6931 15.7373 64.6302C14.4644 65.099 13.2877 65.6314 12.3493 66.252C11.4263 66.8625 10.6185 67.6339 10.2708 68.6259L12.1582 69.2875ZM11.6469 71.3633C11.7824 70.6499 11.9572 69.9445 12.1704 69.2503L10.2585 68.6631C10.0238 69.4276 9.83131 70.2044 9.68205 70.99L11.6469 71.3633ZM7.08447 94.9767C8.0774 95.0954 8.07741 95.0953 8.07742 95.0952C8.07743 95.0951 8.07746 95.0949 8.07748 95.0947C8.07754 95.0942 8.07763 95.0935 8.07775 95.0925C8.07798 95.0905 8.07834 95.0876 8.07882 95.0836C8.07977 95.0756 8.0812 95.0637 8.08311 95.0479C8.08691 95.0162 8.09259 94.9691 8.10008 94.9072C8.11505 94.7834 8.13725 94.6008 8.16607 94.3657C8.22371 93.8955 8.30785 93.2156 8.41377 92.3775C8.62563 90.7012 8.92451 88.3928 9.27263 85.8643C9.97082 80.7931 10.8608 74.8831 11.6404 71.3948L9.68855 70.9586C8.88812 74.5403 7.98813 80.5303 7.29132 85.5915C6.94193 88.1293 6.64207 90.4453 6.42955 92.1268C6.32329 92.9676 6.23883 93.65 6.18093 94.1223C6.15197 94.3585 6.12965 94.5422 6.11456 94.667C6.10701 94.7293 6.10127 94.777 6.09741 94.8091C6.09548 94.8251 6.09402 94.8373 6.09304 94.8455C6.09255 94.8496 6.09218 94.8527 6.09193 94.8548C6.0918 94.8558 6.09171 94.8566 6.09164 94.8571C6.09161 94.8574 6.09159 94.8576 6.09157 94.8577C6.09155 94.8579 6.09154 94.858 7.08447 94.9767ZM70.7245 93.9767H7.08447V95.9767H70.7245V93.9767ZM66.2865 71.9256C67.0627 75.5592 67.9233 81.3395 68.5924 86.2383C68.9262 88.6819 69.211 90.8966 69.4124 92.5005C69.5131 93.3023 69.5929 93.9513 69.6475 94.3996C69.6748 94.6238 69.6959 94.7978 69.71 94.9156C69.7171 94.9745 69.7225 95.0194 69.7261 95.0495C69.7279 95.0645 69.7292 95.0759 69.7301 95.0834C69.7306 95.0872 69.7309 95.09 69.7311 95.0919C69.7312 95.0929 69.7313 95.0935 69.7314 95.094C69.7314 95.0942 69.7314 95.0944 69.7314 95.0945C69.7315 95.0946 69.7315 95.0946 70.7245 94.9767C71.7175 94.8587 71.7175 94.8586 71.7175 94.8585C71.7175 94.8584 71.7174 94.8582 71.7174 94.8579C71.7173 94.8574 71.7172 94.8566 71.7171 94.8557C71.7169 94.8537 71.7165 94.8507 71.7161 94.8468C71.7151 94.839 71.7138 94.8274 71.7119 94.8122C71.7083 94.7816 71.7029 94.7362 71.6957 94.6768C71.6814 94.558 71.6603 94.383 71.6329 94.1578C71.578 93.7073 71.4979 93.0559 71.3968 92.2513C71.1948 90.6423 70.909 88.4202 70.574 85.9676C69.9056 81.0738 69.0362 75.2241 68.2424 71.5078L66.2865 71.9256ZM65.6032 69.2651C65.8838 70.1304 66.1107 71.0123 66.2825 71.9056L68.2465 71.5278C68.0591 70.5536 67.8117 69.5919 67.5057 68.6482L65.6032 69.2651ZM53.0608 64.1895C55.8674 64.8657 58.8774 65.5922 61.307 66.4873C62.5214 66.9347 63.5443 67.4079 64.3054 67.9107C65.0822 68.4239 65.4726 68.8934 65.6108 69.2875L67.4982 68.6259C67.1491 67.6301 66.3363 66.8554 65.4078 66.242C64.4637 65.6182 63.2794 65.0825 61.9984 64.6106C59.4375 63.6672 56.3049 62.9139 53.5292 62.2452L53.0608 64.1895ZM46.6687 62.4033C48.188 63.0185 50.5725 63.5901 53.0608 64.1895L53.5292 62.2452C50.9706 61.6288 48.7662 61.0949 47.4194 60.5495L46.6687 62.4033Z" fill="black" mask="url(#path-5-inside-1_2926_3999)"/>
<path d="M44.8143 54.5062C40.8643 56.6062 35.2143 56.4262 32.6743 56.2462C33.1769 53.9111 33.3951 51.5238 33.3243 49.1362H44.4743C44.4336 50.9327 44.5473 52.7293 44.8143 54.5062Z" fill="#221727"/>
<path d="M26.9093 37.5983L26.9094 37.5986L26.9094 37.5987L26.9094 37.5988L26.9306 37.6829L26.9793 37.7553C27.2206 38.1144 27.369 38.6778 27.428 39.3854C27.4859 40.0807 27.4532 40.8557 27.3804 41.5896C27.3079 42.321 27.197 42.9979 27.104 43.4928C27.0757 43.643 27.0492 43.776 27.026 43.8884C25.1724 43.7026 23.5212 42.1166 22.6411 40.1692C22.177 39.1423 21.956 38.0685 22.0291 37.1402C22.1017 36.2175 22.4588 35.4712 23.1216 35.0055C23.8461 34.4967 24.3854 34.4491 24.7871 34.5618C25.214 34.6814 25.5981 35.0126 25.9325 35.4719C26.2631 35.926 26.5089 36.4563 26.6736 36.884C26.7551 37.0957 26.8148 37.2774 26.8539 37.4051C26.8734 37.4689 26.8877 37.5189 26.8969 37.5522L26.9069 37.589L26.9091 37.5973L26.9093 37.5983Z" fill="white" stroke="black"/>
<path d="M23.9642 37.0065C24.6291 37.3129 25.2016 37.7888 25.6242 38.3865C26.1273 38.9186 26.5093 39.5531 26.7442 40.2465C26.8042 40.4565 26.5142 40.5565 26.3842 40.4065C26.0442 40.0065 25.7842 39.5465 25.4742 39.1265C25.2096 39.3895 24.8879 39.5879 24.5342 39.7065C24.2442 39.7765 24.0842 39.4165 24.2242 39.2065C24.4411 38.9475 24.7149 38.7422 25.0242 38.6065C24.557 38.2304 24.1191 37.8192 23.7142 37.3765C23.6899 37.3601 23.6691 37.3391 23.653 37.3146C23.6368 37.2902 23.6256 37.2627 23.62 37.234C23.6145 37.2052 23.6146 37.1756 23.6205 37.1468C23.6264 37.1181 23.6378 37.0908 23.6542 37.0665C23.6707 37.0422 23.6917 37.0214 23.7162 37.0053C23.7406 36.9891 23.768 36.9779 23.7968 36.9723C23.8256 36.9668 23.8552 36.9669 23.8839 36.9728C23.9127 36.9786 23.9399 36.9901 23.9642 37.0065Z" fill="#3B2645"/>
<path d="M51.0805 37.7538L51.1281 37.6824L51.1491 37.5996L51.1491 37.5996L51.1491 37.5995L51.1492 37.5992L51.1495 37.5982L51.1516 37.5899L51.1617 37.553C51.1709 37.5197 51.1853 37.4697 51.205 37.4059C51.2443 37.2782 51.3044 37.0964 51.3863 36.8847C51.5517 36.4569 51.7985 35.9265 52.1297 35.4722C52.4649 35.0127 52.8494 34.6814 53.276 34.5617C53.6771 34.4492 54.2149 34.4967 54.9365 35.0051C55.597 35.4705 55.9532 36.2169 56.0256 37.14C56.0984 38.0687 55.8779 39.1427 55.4149 40.1697C54.5371 42.1171 52.8907 43.7021 51.0427 43.8883C51.0195 43.7759 50.9929 43.6428 50.9646 43.4926C50.8714 42.9977 50.7602 42.3207 50.687 41.5892C50.6136 40.8552 50.58 40.08 50.6366 39.3845C50.6942 38.6765 50.8411 38.1128 51.0805 37.7538Z" fill="white" stroke="black"/>
<path d="M54.1042 37.0062C53.4394 37.3125 52.8669 37.7885 52.4442 38.3862C51.9381 38.9177 51.5527 39.5521 51.3142 40.2462C51.2542 40.4562 51.5542 40.5562 51.6742 40.4062C52.0142 40.0062 52.2742 39.5462 52.5842 39.1262C52.8527 39.3893 53.1776 39.5877 53.5342 39.7062C53.8142 39.7762 53.9742 39.4162 53.8342 39.2062C53.621 38.9476 53.3506 38.7422 53.0442 38.6062C53.5083 38.23 53.9429 37.8188 54.3442 37.3762C54.3933 37.3444 54.4277 37.2944 54.4399 37.2372C54.4521 37.18 54.4411 37.1203 54.4092 37.0712C54.3774 37.0221 54.3274 36.9877 54.2702 36.9755C54.213 36.9634 54.1533 36.9744 54.1042 37.0062Z" fill="#3B2645"/>
<path d="M51.0749 30.6484L51.0748 30.6484L51.076 30.6537C52.1108 35.3771 51.7188 40.3014 49.9499 44.8016C48.2161 49.0856 44.9829 53.4867 38.9144 53.4867C32.8464 53.4867 29.6028 49.0463 27.8784 44.8003C26.093 40.3049 25.6839 35.3804 26.7032 30.652L26.7035 30.6504C28.0486 24.3067 31.1307 21.4237 33.8165 20.1015C35.1708 19.4348 36.4435 19.1558 37.3764 19.0436C37.8425 18.9875 38.2221 18.9733 38.4823 18.9729C38.6123 18.9727 38.7124 18.9759 38.7782 18.9791C38.8112 18.9806 38.8355 18.9822 38.8508 18.9832L38.8668 18.9844L38.8689 18.9846L38.8694 18.9847L38.8696 18.9847L38.8697 18.9847L38.9152 18.9888L38.9606 18.9845L38.9607 18.9845L38.9609 18.9845L38.9614 18.9845L38.9634 18.9843L38.9795 18.9831C38.9947 18.9819 39.0191 18.9803 39.052 18.9787C39.1178 18.9753 39.2178 18.9718 39.3478 18.9717C39.6079 18.9714 39.9872 18.9846 40.4527 19.0395C41.3847 19.1494 42.6554 19.4257 44.0062 20.0903C46.6844 21.4081 49.7542 24.2898 51.0749 30.6484Z" fill="white" stroke="black"/>
<path d="M32.9344 36.0666C32.9344 36.0666 31.8344 36.4866 31.9944 34.5266C32.1444 32.7666 32.9344 33.0066 32.9344 33.0066C32.9344 33.0066 33.7044 33.0066 33.5844 34.5366C33.4644 36.0666 32.9344 36.0666 32.9344 36.0666Z" fill="#3B2645"/>
<path d="M44.2145 36.0666C44.2145 36.0666 43.1145 36.4866 43.2845 34.5266C43.4345 32.7666 44.2145 33.0066 44.2145 33.0066C44.2145 33.0066 44.9845 33.0066 44.8645 34.5366C44.7445 36.0666 44.2145 36.0666 44.2145 36.0666Z" fill="#3B2645"/>
<path d="M41.3244 44.7866C40.4429 45.1937 39.5165 45.4958 38.5644 45.6866C37.6344 45.6866 36.8244 45.2766 35.9444 45.2866C35.92 45.2868 35.896 45.2935 35.8749 45.3058C35.8538 45.3182 35.8363 45.3359 35.8241 45.3572C35.812 45.3784 35.8056 45.4025 35.8057 45.4269C35.8057 45.4514 35.8122 45.4754 35.8244 45.4966C36.8244 47.0666 40.6544 46.5866 41.5444 45.0766C41.5626 45.0428 41.5707 45.0045 41.5678 44.9663C41.5648 44.928 41.5509 44.8914 41.5277 44.8609C41.5045 44.8303 41.473 44.807 41.437 44.7939C41.4009 44.7807 41.3619 44.7782 41.3244 44.7866Z" fill="#3B2645"/>
<path d="M34.6045 30.1063C34.0431 29.7489 33.3752 29.597 32.7145 29.6763C32.1145 29.6763 31.2745 29.6763 30.8745 30.1763C30.8618 30.1901 30.8529 30.2068 30.8485 30.225C30.8441 30.2432 30.8445 30.2622 30.8495 30.2802C30.8545 30.2982 30.864 30.3147 30.8771 30.328C30.8902 30.3413 30.9065 30.351 30.9245 30.3563C31.48 30.4145 32.0415 30.3773 32.5845 30.2463C33.2112 30.3311 33.8422 30.3811 34.4745 30.3963C34.6145 30.4163 34.7545 30.2463 34.6045 30.1063Z" fill="#3B2645"/>
<path d="M46.0444 29.8663C45.857 29.6139 45.6006 29.421 45.306 29.311C45.0115 29.201 44.6915 29.1786 44.3844 29.2463C43.7844 29.3063 42.8744 29.4763 42.5544 30.0463C42.5429 30.0669 42.5361 30.0898 42.5345 30.1134C42.5329 30.1369 42.5366 30.1606 42.5452 30.1825C42.5538 30.2045 42.5671 30.2243 42.5843 30.2405C42.6015 30.2568 42.622 30.269 42.6444 30.2763C43.1244 30.4063 43.5444 30.1163 44.0244 30.0163C44.6236 29.9438 45.2313 30.0193 45.7944 30.2363C45.8427 30.254 45.8955 30.2551 45.9444 30.2393C45.9933 30.2235 46.0355 30.1917 46.0643 30.1492C46.093 30.1066 46.1067 30.0556 46.1031 30.0043C46.0995 29.9531 46.0789 29.9045 46.0444 29.8663Z" fill="#3B2645"/>
<path d="M38.6344 41.1665C38.1344 41.0565 36.9644 41.0765 36.7744 40.6865C36.5844 40.2965 37.5244 38.3665 37.6244 37.9265C38.0657 36.4077 38.1816 34.813 37.9644 33.2465C37.9583 33.2288 37.9468 33.2135 37.9316 33.2027C37.9163 33.1919 37.8981 33.186 37.8794 33.186C37.8607 33.186 37.8425 33.1919 37.8273 33.2027C37.812 33.2135 37.8006 33.2288 37.7944 33.2465C37.4844 34.5465 37.4744 35.8965 37.1944 37.2465C36.9144 38.5965 36.4444 39.8165 36.0344 41.1065C36.0254 41.1431 36.0247 41.1812 36.0325 41.2181C36.0403 41.255 36.0563 41.2897 36.0794 41.3195C36.1025 41.3493 36.132 41.3735 36.1658 41.3903C36.1996 41.4071 36.2367 41.416 36.2744 41.4165C37.0539 41.5663 37.8549 41.5663 38.6344 41.4165C38.7544 41.3865 38.7644 41.1865 38.6344 41.1665Z" fill="#3B2645"/>
<path d="M31.5444 20.9566C36.4297 23.0623 41.7306 24.0267 47.0444 23.7766C47.0444 23.7766 51.5944 30.0166 52.0444 34.5466C52.0444 34.5466 55.0444 29.0366 51.2544 22.1966C47.4644 15.3566 33.2144 13.3566 31.5444 20.9566Z" fill="#3B2645"/>
<path d="M70.7245 94.9765H7.08447C7.08447 94.9765 7.22447 93.7365 7.47447 91.7865C7.52447 91.4865 7.56447 91.1665 7.60447 90.7865C7.60447 90.6465 7.60447 90.5165 7.60447 90.3565C7.60447 90.0465 7.68447 89.7065 7.73447 89.3565C7.91447 88.0665 8.10448 86.6165 8.29448 85.1165L8.45448 84.1165L8.51447 83.6365C8.57447 83.2265 8.62448 82.8265 8.68447 82.4165C8.88447 81.0865 9.08448 79.7365 9.29448 78.4165C9.36448 77.9265 9.44448 77.4165 9.52448 76.9665C9.60448 76.5165 9.63447 76.2665 9.69447 75.9665C9.99447 74.1465 10.3145 72.4865 10.6145 71.1665C18.6145 73.8165 34.6145 74.2865 67.2145 71.7065C67.4345 72.7065 67.6545 73.9065 67.8845 75.1965C67.9745 75.6965 68.0545 76.1965 68.1445 76.7465C68.1445 76.8465 68.1445 76.9365 68.1445 77.0265C68.2445 77.5765 68.3345 78.1565 68.4245 78.7265C68.5745 79.7265 68.7245 80.7265 68.8645 81.7265C68.9645 82.3665 69.0645 83.0165 69.1545 83.6565C69.1545 83.6565 69.1545 83.7465 69.1545 83.7965C69.2345 84.3865 69.3145 84.9565 69.3845 85.5165C69.5545 86.6465 69.6945 87.7265 69.8245 88.7365C69.8845 89.2465 69.9645 89.7365 70.0145 90.2165C70.0145 90.3965 70.0145 90.5865 70.0845 90.7565C70.1445 91.2065 70.1945 91.6265 70.2445 92.0165C70.5845 93.8165 70.7245 94.9765 70.7245 94.9765Z" fill="#9669A4"/>
<path d="M25.6944 43.3165C26.092 43.3165 26.4144 42.9941 26.4144 42.5965C26.4144 42.1988 26.092 41.8765 25.6944 41.8765C25.2967 41.8765 24.9744 42.1988 24.9744 42.5965C24.9744 42.9941 25.2967 43.3165 25.6944 43.3165Z" fill="#DADEEA"/>
<path d="M51.4143 42.5965C51.4143 42.4055 51.4902 42.2224 51.6252 42.0873C51.7602 41.9523 51.9434 41.8765 52.1343 41.8765C52.3253 41.8765 52.5084 41.9523 52.6434 42.0873C52.7785 42.2224 52.8543 42.4055 52.8543 42.5965C52.8543 42.7874 52.7785 42.9706 52.6434 43.1056C52.5084 43.2406 52.3253 43.3165 52.1343 43.3165C51.9434 43.3165 51.7602 43.2406 51.6252 43.1056C51.4902 42.9706 51.4143 42.7874 51.4143 42.5965Z" fill="#DADEEA"/>
</g>
</svg>
