<svg width="78" height="78" viewBox="0 0 78 78" fill="none" xmlns="http://www.w3.org/2000/svg">
<path d="M77.5 39C77.5 60.263 60.263 77.5 39 77.5C17.737 77.5 0.5 60.263 0.5 39C0.5 17.737 17.737 0.5 39 0.5C60.263 0.5 77.5 17.737 77.5 39Z" fill="#EAE4FC" stroke="black"/>
<mask id="mask0_2926_4002" style="mask-type:alpha" maskUnits="userSpaceOnUse" x="0" y="0" width="78" height="78">
<path d="M77.5 39C77.5 60.263 60.263 77.5 39 77.5C17.737 77.5 0.5 60.263 0.5 39C0.5 17.737 17.737 0.5 39 0.5C60.263 0.5 77.5 17.737 77.5 39Z" fill="#EAE4FC" stroke="black"/>
</mask>
<g mask="url(#mask0_2926_4002)">
<path d="M46.5282 55.7308C46.5282 55.7308 59.5904 60.6446 61.9089 51.9142C62.2439 50.6273 63.0165 49.4972 64.0939 48.7178C66.193 47.2389 69.1222 43.9471 66.9563 38.0601C66.4895 36.8347 66.4658 35.4845 66.8895 34.2435C67.7483 31.8486 68.5307 27.6981 64.695 25.7708C63.7715 25.3306 62.9897 24.6405 62.4382 23.7788C61.8868 22.9171 61.5877 21.9181 61.575 20.8951C61.575 17.8132 60.3441 13.9203 54.1899 13.1761C53.4528 13.0825 52.7423 12.8407 52.1011 12.4652C51.46 12.0896 50.9014 11.5882 50.4592 10.9911C48.551 8.49128 44.6008 5.00866 38.5802 8.42449C37.863 8.83907 37.0614 9.08617 36.2353 9.1473C35.4091 9.20843 34.5799 9.08202 33.8095 8.77752C31.281 7.82338 27.3118 7.23181 24.7642 11.8403C24.3515 12.5633 23.7812 13.184 23.0957 13.6565C22.4102 14.1289 21.6271 14.4408 20.8046 14.5692C18.381 14.9794 15.2419 16.4774 14.8793 21.4867C14.7419 22.8465 14.1226 24.1122 13.1333 25.0552C11.1009 27.097 8.36256 31.0949 11.225 36.1423C11.9553 37.3782 12.1712 38.8515 11.8261 40.2451C11.1105 42.9548 10.8719 47.5061 16.0434 49.4907C17.0829 49.8521 17.9902 50.5168 18.6482 51.399C20.5565 54.1183 25.6039 59.4328 33.1893 55.559C43.0551 50.6643 46.5282 55.7308 46.5282 55.7308Z" fill="#3B2645"/>
<mask id="path-4-inside-1_2926_4002" fill="white">
<path fill-rule="evenodd" clip-rule="evenodd" d="M46.1612 58.2709L46.1655 58.2688C44.9964 56.2242 44.2622 53.9601 44.0091 51.6184C43.7427 49.9114 43.6341 48.1835 43.6847 46.4565H33.0747C33.1403 48.735 32.9288 51.013 32.445 53.2405C32.131 55.0103 31.5111 56.7118 30.613 58.2688L30.6443 58.2844C30.3952 58.3942 30.1358 58.4817 29.8689 58.5453C29.0865 58.8029 28.1324 59.0606 27.0924 59.3277C26.4624 59.484 25.7998 59.6433 25.1175 59.8073C23.0924 60.2942 20.8946 60.8226 18.8677 61.4364C15.4709 62.4382 12.599 63.6881 11.9979 65.4056C11.2441 67.5524 10.2899 73.4204 9.49801 78.9258C8.65836 84.7842 8 90.2228 8 90.2228H68.731C68.731 90.2228 68.1108 84.8128 67.2044 78.9544C66.4316 73.4395 65.4583 67.5524 64.7141 65.4056C64.218 63.8885 61.8517 62.734 58.9893 61.7799C56.7562 61.0438 54.1933 60.4295 51.8537 59.8688C51.4943 59.7827 51.1401 59.6978 50.7932 59.614C49.8295 59.3754 48.9231 59.1369 48.1121 58.9174C47.3602 58.702 46.698 58.4884 46.1612 58.2709Z"/>
</mask>
<path fill-rule="evenodd" clip-rule="evenodd" d="M46.1612 58.2709L46.1655 58.2688C44.9964 56.2242 44.2622 53.9601 44.0091 51.6184C43.7427 49.9114 43.6341 48.1835 43.6847 46.4565H33.0747C33.1403 48.735 32.9288 51.013 32.445 53.2405C32.131 55.0103 31.5111 56.7118 30.613 58.2688L30.6443 58.2844C30.3952 58.3942 30.1358 58.4817 29.8689 58.5453C29.0865 58.8029 28.1324 59.0606 27.0924 59.3277C26.4624 59.484 25.7998 59.6433 25.1175 59.8073C23.0924 60.2942 20.8946 60.8226 18.8677 61.4364C15.4709 62.4382 12.599 63.6881 11.9979 65.4056C11.2441 67.5524 10.2899 73.4204 9.49801 78.9258C8.65836 84.7842 8 90.2228 8 90.2228H68.731C68.731 90.2228 68.1108 84.8128 67.2044 78.9544C66.4316 73.4395 65.4583 67.5524 64.7141 65.4056C64.218 63.8885 61.8517 62.734 58.9893 61.7799C56.7562 61.0438 54.1933 60.4295 51.8537 59.8688C51.4943 59.7827 51.1401 59.6978 50.7932 59.614C49.8295 59.3754 48.9231 59.1369 48.1121 58.9174C47.3602 58.702 46.698 58.4884 46.1612 58.2709Z" fill="white"/>
<path d="M46.1655 58.2688L46.6115 59.1639L47.5593 58.6917L47.0336 57.7724L46.1655 58.2688ZM46.1612 58.2709L45.7153 57.3759L43.7302 58.3649L45.7857 59.1977L46.1612 58.2709ZM44.0091 51.6184L45.0034 51.511L45.0008 51.4875L44.9972 51.4642L44.0091 51.6184ZM43.6847 46.4565L44.6843 46.4858L44.7145 45.4565H43.6847V46.4565ZM33.0747 46.4565V45.4565H32.0455L32.0751 46.4853L33.0747 46.4565ZM32.445 53.2405L31.4678 53.0282L31.4637 53.0469L31.4604 53.0658L32.445 53.2405ZM30.613 58.2688L29.7468 57.7692L29.2157 58.6899L30.1671 59.1639L30.613 58.2688ZM30.6443 58.2844L31.0478 59.1993L32.9974 58.3394L31.0902 57.3893L30.6443 58.2844ZM29.8689 58.5453L29.6372 57.5725L29.5962 57.5823L29.5562 57.5955L29.8689 58.5453ZM27.0924 59.3277L27.3332 60.2983L27.3412 60.2963L27.0924 59.3277ZM25.1175 59.8073L24.8838 58.835L24.8838 58.835L25.1175 59.8073ZM18.8677 61.4364L19.1506 62.3955L19.1575 62.3935L18.8677 61.4364ZM11.9979 65.4056L12.9414 65.7369L12.9417 65.7359L11.9979 65.4056ZM9.49801 78.9258L8.5082 78.7834L8.50812 78.7839L9.49801 78.9258ZM8 90.2228L7.00725 90.1026L6.87165 91.2228H8V90.2228ZM68.731 90.2228V91.2228H69.8522L69.7245 90.1089L68.731 90.2228ZM67.2044 78.9544L66.2141 79.0932L66.2151 79.1002L66.2162 79.1073L67.2044 78.9544ZM64.7141 65.4056L63.7636 65.7164L63.7664 65.7248L63.7693 65.7331L64.7141 65.4056ZM58.9893 61.7799L59.3055 60.8312L59.3023 60.8301L58.9893 61.7799ZM51.8537 59.8688L52.0868 58.8964L52.0868 58.8964L51.8537 59.8688ZM50.7932 59.614L50.5529 60.5847L50.5582 60.586L50.7932 59.614ZM48.1121 58.9174L47.8366 59.8788L47.8437 59.8808L47.8509 59.8827L48.1121 58.9174ZM45.7196 57.3737L45.7153 57.3759L46.6072 59.166L46.6115 59.1639L45.7196 57.3737ZM43.0149 51.7259C43.2828 54.2045 44.0599 56.601 45.2974 58.7652L47.0336 57.7724C45.9328 55.8474 45.2416 53.7157 45.0034 51.511L43.0149 51.7259ZM42.6852 46.4272C42.6328 48.2156 42.7452 50.005 43.0211 51.7727L44.9972 51.4642C44.7402 49.8179 44.6355 48.1514 44.6843 46.4858L42.6852 46.4272ZM33.0747 47.4565H43.6847V45.4565H33.0747V47.4565ZM33.4222 53.4527C33.9232 51.1461 34.1422 48.7872 34.0743 46.4278L32.0751 46.4853C32.1383 48.6828 31.9344 50.8799 31.4678 53.0282L33.4222 53.4527ZM31.4793 58.7684C32.4353 57.1108 33.0953 55.2993 33.4296 53.4152L31.4604 53.0658C31.1666 54.7212 30.5868 56.3128 29.7468 57.7692L31.4793 58.7684ZM31.0902 57.3893L31.0589 57.3737L30.1671 59.1639L30.1984 59.1795L31.0902 57.3893ZM30.1007 59.5181C30.4267 59.4404 30.7436 59.3335 31.0478 59.1993L30.2407 57.3694C30.0469 57.4549 29.8449 57.5231 29.6372 57.5725L30.1007 59.5181ZM27.3412 60.2963C28.3828 60.0287 29.365 59.7641 30.1817 59.4952L29.5562 57.5955C28.808 57.8418 27.8819 58.0924 26.8436 58.3592L27.3412 60.2963ZM25.3513 60.7796C26.0328 60.6158 26.6991 60.4556 27.3332 60.2983L26.8516 58.3571C26.2258 58.5124 25.5668 58.6708 24.8838 58.835L25.3513 60.7796ZM19.1575 62.3935C21.1517 61.7896 23.3206 61.2678 25.3513 60.7796L24.8838 58.835C22.8641 59.3206 20.6375 59.8556 18.5779 60.4793L19.1575 62.3935ZM12.9417 65.7359C13.112 65.2494 13.6867 64.6609 14.8566 64.0341C15.9846 63.4298 17.4752 62.8897 19.1506 62.3955L18.5848 60.4772C16.8634 60.9849 15.2197 61.5707 13.9122 62.2712C12.6467 62.9491 11.4848 63.8443 11.054 65.0752L12.9417 65.7359ZM10.4878 79.0681C10.8831 76.3201 11.3178 73.4892 11.7467 71.0816C12.1804 68.6474 12.5954 66.7222 12.9414 65.7369L11.0543 65.0743C10.6465 66.2358 10.2076 68.318 9.77774 70.7308C9.34317 73.1702 8.90483 76.026 8.5082 78.7834L10.4878 79.0681ZM8 90.2228C8.99275 90.343 8.99275 90.343 8.99276 90.3429C8.99276 90.3429 8.99277 90.3428 8.99278 90.3428C8.9928 90.3426 8.99282 90.3424 8.99286 90.3421C8.99294 90.3414 8.99305 90.3405 8.99321 90.3392C8.99352 90.3366 8.99399 90.3327 8.99462 90.3276C8.99588 90.3172 8.99776 90.3017 9.00026 90.2812C9.00526 90.2402 9.0127 90.1792 9.02249 90.0994C9.04207 89.9398 9.07099 89.705 9.10833 89.405C9.18302 88.8048 9.29137 87.9433 9.42594 86.899C9.69511 84.8099 10.069 81.9907 10.4879 79.0676L8.50812 78.7839C8.08741 81.7193 7.71226 84.5485 7.44234 86.6434C7.30735 87.691 7.19864 88.5553 7.12364 89.158C7.08615 89.4593 7.05708 89.6952 7.03737 89.8559C7.02751 89.9363 7.02 89.9978 7.01494 90.0393C7.01241 90.0601 7.01049 90.0759 7.00921 90.0865C7.00856 90.0918 7.00808 90.0958 7.00775 90.0985C7.00759 90.0998 7.00746 90.1008 7.00738 90.1015C7.00734 90.1019 7.00731 90.1021 7.00728 90.1023C7.00727 90.1024 7.00726 90.1025 7.00726 90.1025C7.00725 90.1026 7.00725 90.1026 8 90.2228ZM68.731 89.2228H8V91.2228H68.731V89.2228ZM66.2162 79.1073C66.6677 82.0254 67.0481 84.8336 67.3158 86.9132C67.4496 87.9526 67.5551 88.8093 67.6272 89.4058C67.6632 89.7041 67.6908 89.9372 67.7095 90.0956C67.7188 90.1748 67.7258 90.2353 67.7305 90.2759C67.7329 90.2962 67.7346 90.3115 67.7358 90.3217C67.7364 90.3268 67.7368 90.3306 67.7371 90.3331C67.7373 90.3343 67.7374 90.3353 67.7374 90.3359C67.7375 90.3362 67.7375 90.3364 67.7375 90.3365C67.7375 90.3366 67.7375 90.3366 67.7375 90.3367C67.7375 90.3367 67.7375 90.3367 68.731 90.2228C69.7245 90.1089 69.7245 90.1089 69.7245 90.1088C69.7245 90.1087 69.7245 90.1087 69.7245 90.1086C69.7245 90.1084 69.7244 90.1081 69.7244 90.1077C69.7243 90.107 69.7242 90.106 69.724 90.1046C69.7237 90.1019 69.7233 90.0978 69.7226 90.0925C69.7214 90.0819 69.7196 90.0661 69.7172 90.0453C69.7124 90.0038 69.7052 89.9424 69.6958 89.8622C69.6769 89.7018 69.649 89.4665 69.6128 89.166C69.5402 88.5651 69.434 87.7032 69.2995 86.6578C69.0304 84.5678 68.6476 81.7417 68.1926 78.8015L66.2162 79.1073ZM63.7693 65.7331C64.1117 66.721 64.5295 68.6539 64.964 71.0924C65.394 73.5054 65.8286 76.3428 66.2141 79.0932L68.1947 78.8156C67.8073 76.0511 67.3689 73.1874 66.933 70.7415C66.5017 68.321 66.0607 66.237 65.6589 65.078L63.7693 65.7331ZM58.673 62.7285C60.0795 63.1973 61.3089 63.6982 62.2304 64.2426C63.1846 64.8064 63.6322 65.3144 63.7636 65.7164L65.6646 65.0948C65.2999 63.9797 64.3162 63.1519 63.2477 62.5207C62.1464 61.87 60.7615 61.3165 59.3055 60.8312L58.673 62.7285ZM51.6206 60.8413C53.9695 61.4042 56.49 62.009 58.6762 62.7296L59.3023 60.8301C57.0223 60.0786 54.417 59.4548 52.0868 58.8964L51.6206 60.8413ZM50.5582 60.586C50.9062 60.6701 51.2614 60.7552 51.6206 60.8413L52.0868 58.8964C51.7271 58.8102 51.374 58.7256 51.0282 58.642L50.5582 60.586ZM47.8509 59.8827C48.6668 60.1035 49.5804 60.3439 50.5529 60.5847L51.0335 58.6433C50.0786 58.4069 49.1794 58.1703 48.3733 57.9521L47.8509 59.8827ZM45.7857 59.1977C46.3703 59.4346 47.0712 59.6594 47.8366 59.8788L48.3875 57.9561C47.6492 57.7446 47.0257 57.5423 46.5368 57.3441L45.7857 59.1977Z" fill="black" mask="url(#path-4-inside-1_2926_4002)"/>
<path d="M67.2331 78.9542L54.3141 82.7707H25.7566L9.48853 78.9542C10.2805 73.4488 11.2346 67.5808 11.9884 65.434C12.5895 63.7165 15.4615 62.4666 18.8582 61.4648C21.568 60.6442 24.583 59.9763 27.0829 59.3561C28.1229 59.089 29.077 58.8313 29.8594 58.5737L38.9619 73.84L48.074 58.9172C48.885 59.1367 49.7914 59.3752 50.7551 59.6137C53.3599 60.2435 56.375 60.9305 58.9512 61.7796C61.8136 62.7338 64.1799 63.8883 64.676 65.4054C65.487 67.5522 66.4602 73.4392 67.2331 78.9542Z" fill="#B8C3E3"/>
<path d="M44.0093 51.6184C40.2405 53.6317 34.8591 53.4504 32.4165 53.2405C32.9003 51.013 33.1118 48.735 33.0462 46.4565H43.6849C43.6343 48.1835 43.7429 49.9114 44.0093 51.6184V51.6184Z" fill="#221727"/>
<path d="M26.9036 35.4921L26.9037 35.4923L26.9037 35.4925L26.9037 35.4925L26.9247 35.5752L26.9722 35.6466C27.1974 35.9844 27.3371 36.5175 27.392 37.1917C27.4459 37.8534 27.4139 38.5916 27.344 39.2911C27.2742 39.9883 27.1682 40.6335 27.0794 41.1053C27.0541 41.2395 27.0303 41.3594 27.0091 41.4621C25.2656 41.2759 23.7092 39.7767 22.8766 37.9296C22.4361 36.9524 22.2268 35.9315 22.2959 35.0501C22.3646 34.1742 22.7021 33.4692 23.3254 33.0301C24.0098 32.5478 24.5159 32.5053 24.8904 32.6103C25.2903 32.7225 25.6534 33.034 25.9717 33.4705C26.2861 33.9017 26.5207 34.4057 26.6782 34.813C26.7561 35.0144 26.8132 35.1873 26.8507 35.3088C26.8693 35.3694 26.883 35.4169 26.8918 35.4485L26.9013 35.4834L26.9034 35.4912L26.9036 35.4921Z" fill="white" stroke="black"/>
<path d="M24.1061 34.9208C24.7385 35.2161 25.2841 35.6696 25.6899 36.2375C26.1671 36.738 26.5343 37.3328 26.7681 37.9836C26.8158 38.1839 26.5391 38.2698 26.4246 38.1362C26.1002 37.7546 25.8521 37.3157 25.5468 36.9054C25.299 37.1644 24.9909 37.3578 24.6499 37.4683C24.3828 37.5256 24.2205 37.1821 24.3637 36.9817C24.5651 36.7329 24.8237 36.5365 25.1174 36.4092C24.6702 36.0554 24.2551 35.6626 23.8771 35.2356C23.8481 35.2014 23.8314 35.1584 23.8297 35.1135C23.8281 35.0687 23.8415 35.0246 23.8679 34.9883C23.8943 34.952 23.9321 34.9256 23.9753 34.9134C24.0185 34.9011 24.0645 34.9037 24.1061 34.9208V34.9208Z" fill="#3B2645"/>
<path d="M49.9974 35.6466L50.045 35.5752L50.0659 35.4925L50.0659 35.4925L50.066 35.4923L50.066 35.4921L50.0663 35.4912L50.0683 35.4834L50.0778 35.4485C50.0866 35.4169 50.1003 35.3694 50.119 35.3088C50.1564 35.1873 50.2136 35.0144 50.2915 34.813C50.4489 34.4057 50.6835 33.9017 50.998 33.4705C51.3163 33.034 51.6793 32.7225 52.0793 32.6103C52.4538 32.5053 52.9599 32.5478 53.6443 33.0301C54.2675 33.4692 54.6051 34.1742 54.6737 35.0501C54.7429 35.9315 54.5336 36.9524 54.0931 37.9296C53.2604 39.7767 51.7041 41.2759 49.9605 41.4621C49.9394 41.3594 49.9155 41.2395 49.8903 41.1053C49.8014 40.6335 49.6954 39.9883 49.6257 39.2911C49.5557 38.5916 49.5237 37.8534 49.5776 37.1917C49.6325 36.5175 49.7722 35.9844 49.9974 35.6466Z" fill="white" stroke="black"/>
<path d="M52.8448 34.9208C52.2123 35.2161 51.6667 35.6696 51.2609 36.2375C50.7838 36.738 50.4165 37.3328 50.1827 37.9836C50.135 38.1839 50.4117 38.2698 50.5262 38.1362C50.8506 37.7546 51.0987 37.3157 51.404 36.9054C51.6518 37.1644 51.96 37.3578 52.3009 37.4683C52.5681 37.5256 52.7303 37.1821 52.5872 36.9817C52.3858 36.7329 52.1271 36.5365 51.8334 36.4092C52.2806 36.0554 52.6957 35.6626 53.0738 35.2356C53.1028 35.2014 53.1194 35.1584 53.1211 35.1135C53.1228 35.0687 53.1093 35.0246 53.0829 34.9883C53.0565 34.952 53.0187 34.9256 52.9755 34.9134C52.9323 34.9011 52.8863 34.9037 52.8448 34.9208V34.9208Z" fill="#3B2645"/>
<path d="M38.3254 17.7481L38.3249 17.7481L38.3232 17.7479L38.3082 17.7468C38.2937 17.7458 38.2707 17.7443 38.2394 17.7429C38.177 17.7399 38.0819 17.7368 37.9583 17.737C37.7109 17.7374 37.3498 17.7509 36.9065 17.8043C36.0191 17.9111 34.809 18.1767 33.5228 18.8113C30.9734 20.0691 28.0487 22.813 26.7901 28.859L26.789 28.8642L26.789 28.8642C25.8021 33.3661 26.1756 38.0598 27.862 42.349C29.5159 46.407 32.6049 50.6221 38.3704 50.6221C44.1382 50.6221 47.2359 46.4417 48.8785 42.35C50.5685 38.0614 50.9454 33.3672 49.9614 28.8638L50.4498 28.7571L49.9604 28.8591C48.697 22.7985 45.7698 20.055 43.2198 18.8009C41.9333 18.1681 40.7231 17.905 39.8357 17.8004C39.3924 17.7481 39.0314 17.7356 38.784 17.7358C38.6604 17.736 38.5654 17.7393 38.5029 17.7425C38.4717 17.7441 38.4486 17.7456 38.4342 17.7466L38.4192 17.7478L38.4175 17.7479L38.4169 17.748L38.4166 17.748L38.3712 17.7523L38.3254 17.7481ZM38.3254 17.7481L38.3258 17.7482L38.3254 17.7481Z" fill="white" stroke="black"/>
<path d="M32.6644 34.0335C32.6644 34.0335 31.6148 34.4247 31.777 32.5546C31.9202 30.8753 32.6644 31.1043 32.6644 31.1043C32.6644 31.1043 33.3991 31.1043 33.2941 32.5641C33.1892 34.0239 32.6644 34.0335 32.6644 34.0335Z" fill="#3B2645"/>
<path d="M43.4272 34.0335C43.4272 34.0335 42.3681 34.4247 42.5303 32.5546C42.6734 30.8753 43.4272 31.1043 43.4272 31.1043C43.4272 31.1043 44.1524 31.1043 44.0474 32.5641C43.9424 34.0239 43.4272 34.0335 43.4272 34.0335Z" fill="#3B2645"/>
<path d="M40.6697 42.3729C39.8286 42.7614 38.9447 43.0496 38.0363 43.2317C37.1489 43.2889 36.3761 42.8405 35.5364 42.85C35.5131 42.8502 35.4902 42.8565 35.4701 42.8683C35.4499 42.8802 35.4332 42.897 35.4216 42.9173C35.4101 42.9376 35.404 42.9605 35.4041 42.9839C35.4041 43.0072 35.4103 43.0302 35.4219 43.0504C36.3761 44.5579 40.04 44.0904 40.8796 42.6592C40.9 42.6268 40.9102 42.589 40.9088 42.5508C40.9075 42.5125 40.8947 42.4755 40.872 42.4447C40.8494 42.4138 40.818 42.3905 40.7819 42.3777C40.7458 42.3649 40.7067 42.3632 40.6697 42.3729V42.3729Z" fill="#3B2645"/>
<path d="M34.2674 28.3372C33.7279 27.997 33.088 27.8521 32.4545 27.9269C31.8916 27.9269 31.0806 27.9269 30.6989 28.404C30.6851 28.4137 30.6739 28.4266 30.6661 28.4415C30.6584 28.4564 30.6543 28.473 30.6543 28.4899C30.6543 28.5067 30.6584 28.5233 30.6661 28.5383C30.6739 28.5532 30.6851 28.5661 30.6989 28.5758C31.2268 28.6438 31.7625 28.6212 32.2828 28.509C32.8808 28.5894 33.4828 28.6372 34.0861 28.6521C34.2674 28.633 34.401 28.4517 34.2674 28.3372Z" fill="#3B2645"/>
<path d="M45.2114 28.1181C45.0375 27.8677 44.7934 27.6743 44.5099 27.5623C44.2264 27.4502 43.916 27.4245 43.6179 27.4884C43.0455 27.5361 42.1772 27.6983 41.8719 28.2422C41.8609 28.2618 41.8544 28.2837 41.8529 28.3062C41.8514 28.3286 41.8548 28.3512 41.8631 28.3722C41.8713 28.3931 41.884 28.412 41.9004 28.4275C41.9168 28.443 41.9363 28.4546 41.9577 28.4616C42.4253 28.5857 42.826 28.309 43.2745 28.2231C43.8484 28.146 44.4326 28.215 44.9728 28.4235C45.0128 28.4344 45.0551 28.4333 45.0944 28.4203C45.1337 28.4073 45.1683 28.3829 45.1938 28.3503C45.2193 28.3176 45.2346 28.2782 45.2377 28.2369C45.2408 28.1955 45.2317 28.1542 45.2114 28.1181V28.1181Z" fill="#3B2645"/>
<path d="M38.1032 38.8898C37.6357 38.7849 36.5098 38.804 36.3285 38.4318C36.1472 38.0597 37.0536 36.2278 37.1491 35.808C37.5669 34.3549 37.6742 32.8302 37.4639 31.333C37.4581 31.3162 37.4471 31.3016 37.4326 31.2913C37.418 31.2809 37.4007 31.2754 37.3828 31.2754C37.365 31.2754 37.3476 31.2809 37.3331 31.2913C37.3186 31.3016 37.3076 31.3162 37.3017 31.333C37.0155 32.5734 36.9964 33.8711 36.7388 35.1496C36.4812 36.4282 36.0136 37.6017 35.6702 38.8135C35.6593 38.8473 35.6568 38.8831 35.6629 38.9181C35.669 38.953 35.6834 38.9859 35.7049 39.0141C35.7265 39.0422 35.7546 39.0647 35.7867 39.0796C35.8189 39.0945 35.8542 39.1014 35.8896 39.0997C36.6339 39.2378 37.3971 39.2378 38.1414 39.0997C38.1554 39.0845 38.1657 39.0663 38.1715 39.0464C38.1772 39.0266 38.1783 39.0056 38.1746 38.9853C38.1709 38.9649 38.1625 38.9457 38.1501 38.9291C38.1377 38.9126 38.1217 38.8991 38.1032 38.8898V38.8898Z" fill="#3B2645"/>
<path d="M27.474 31.1137C27.7526 29.474 28.2234 27.8727 28.8766 26.343C29.678 25.074 31.3955 24.597 32.7694 23.8146C34.4029 22.9005 35.6326 21.4052 36.2139 19.6259C36.9868 20.9044 38.7901 21.2861 40.3739 21.6105C41.9578 21.9349 43.7516 22.5646 44.1905 23.9481C44.2593 24.343 44.3679 24.7298 44.5149 25.1027C44.992 25.9328 46.2514 26.0568 47.1388 26.5148C48.7799 27.3831 49.0471 29.3772 49.7913 30.9515C50.0637 31.57 50.4524 32.1304 50.9363 32.6022C51.4639 32.3151 51.9737 31.9965 52.4629 31.6481C52.948 31.237 53.3138 30.7032 53.522 30.1024C54.2114 28.259 54.4329 26.2734 54.1664 24.3235C53.9 22.3736 53.154 20.5202 51.9954 18.9294C49.7301 16.0489 46.7625 13.799 43.3774 12.3955C39.9923 10.9921 36.3034 10.4821 32.6645 10.9146C29.5785 11.3279 26.7699 12.9132 24.8215 15.3418C23.7336 17.0143 22.9668 18.8748 22.5602 20.8281C21.8446 23.5665 21.2721 26.5529 22.7796 29.0623C24.0677 31.171 26.6153 34.8635 27.474 31.1137Z" fill="#3B2645"/>
<path d="M57.0046 78.1433C56.8806 69.8995 57.9588 64.7853 58.9797 61.7798C56.4035 60.9306 53.3885 60.2436 50.7837 59.6139C48.6082 66.3692 49.0376 78.3627 49.0471 81.0153L29.0102 82.7422C29.0102 79.9562 29.3632 66.0734 27.1019 59.3276C24.6211 59.9478 21.587 60.6157 18.8772 61.4363C19.9172 64.3655 21.1003 69.5751 20.9668 78.1433C19.9057 82.0791 19.6718 86.192 20.2798 90.2227H57.7012C58.3148 86.2039 58.0742 82.101 56.9951 78.1815L57.0046 78.1433Z" fill="#9669A4"/>
</g>
</svg>
